<svg xmlns="http://www.w3.org/2000/svg" xmlns:xlink="http://www.w3.org/1999/xlink" version="1.1" class="marks" width="186" height="226" viewBox="0 0 186 226"><rect width="186" height="226" fill="white"/><g fill="none" stroke-miterlimit="10" transform="translate(64,5)"><g class="mark-group role-frame root" role="graphics-object" aria-roledescription="group mark container"><g transform="translate(0,0)"><path class="background" aria-hidden="true" d="M0.5,0.5h60v60h-60Z" stroke="#ddd"/><g><g class="mark-group role-axis" role="graphics-symbol" aria-roledescription="axis" aria-label="X-axis titled 'level_0' for a discrete scale with 3 values: budget, revenue, runtime"><g transform="translate(0.5,60.5)"><path class="background" aria-hidden="true" d="M0,0h0v0h0Z" pointer-events="none"/><g><g class="mark-rule role-axis-tick" pointer-events="none"><line transform="translate(10,0)" x2="0" y2="5" stroke="#888" stroke-width="1" opacity="1"/><line transform="translate(30,0)" x2="0" y2="5" stroke="#888" stroke-width="1" opacity="1"/><line transform="translate(50,0)" x2="0" y2="5" stroke="#888" stroke-width="1" opacity="1"/></g><g class="mark-text role-axis-label" pointer-events="none"><text text-anchor="end" transform="translate(10,7) rotate(270) translate(0,3)" font-family="sans-serif" font-size="10px" fill="#000" opacity="1">budget</text><text text-anchor="end" transform="translate(30,7) rotate(270) translate(0,3)" font-family="sans-serif" font-size="10px" fill="#000" opacity="1">revenue</text><text text-anchor="end" transform="translate(50,7) rotate(270) translate(0,3)" font-family="sans-serif" font-size="10px" fill="#000" opacity="1">runtime</text></g><g class="mark-rule role-axis-domain" pointer-events="none"><line transform="translate(0,0)" x2="60" y2="0" stroke="#888" stroke-width="1" opacity="1"/></g><g class="mark-text role-axis-title" pointer-events="none"><text text-anchor="middle" transform="translate(30,56.1376953125)" font-family="sans-serif" font-size="11px" font-weight="bold" fill="#000" opacity="1">level_0</text></g></g><path class="foreground" aria-hidden="true" d="" pointer-events="none" display="none"/></g></g><g class="mark-group role-axis" role="graphics-symbol" aria-roledescription="axis" aria-label="Y-axis titled 'level_1' for a discrete scale with 3 values: budget, revenue, runtime"><g transform="translate(0.5,0.5)"><path class="background" aria-hidden="true" d="M0,0h0v0h0Z" pointer-events="none"/><g><g class="mark-rule role-axis-tick" pointer-events="none"><line transform="translate(0,10)" x2="-5" y2="0" stroke="#888" stroke-width="1" opacity="1"/><line transform="translate(0,30)" x2="-5" y2="0" stroke="#888" stroke-width="1" opacity="1"/><line transform="translate(0,50)" x2="-5" y2="0" stroke="#888" stroke-width="1" opacity="1"/></g><g class="mark-text role-axis-label" pointer-events="none"><text text-anchor="end" transform="translate(-7,13)" font-family="sans-serif" font-size="10px" fill="#000" opacity="1">budget</text><text text-anchor="end" transform="translate(-7,33)" font-family="sans-serif" font-size="10px" fill="#000" opacity="1">revenue</text><text text-anchor="end" transform="translate(-7,53)" font-family="sans-serif" font-size="10px" fill="#000" opacity="1">runtime</text></g><g class="mark-rule role-axis-domain" pointer-events="none"><line transform="translate(0,0)" x2="0" y2="60" stroke="#888" stroke-width="1" opacity="1"/></g><g class="mark-text role-axis-title" pointer-events="none"><text text-anchor="middle" transform="translate(-47.1376953125,30) rotate(-90) translate(0,-2)" font-family="sans-serif" font-size="11px" font-weight="bold" fill="#000" opacity="1">level_1</text></g></g><path class="foreground" aria-hidden="true" d="" pointer-events="none" display="none"/></g></g><g class="mark-symbol role-mark marks" role="graphics-symbol" aria-roledescription="symbol mark container"><path transform="translate(50,50)" d="M1,0A1,1,0,1,1,-1,0A1,1,0,1,1,1,0" fill="rgb(242, 240, 235)" stroke-width="2" opacity="0.7"/><path transform="translate(50,10)" d="M3.762,0A3.762,3.762,0,1,1,-3.762,0A3.762,3.762,0,1,1,3.762,0" fill="rgb(249, 228, 199)" stroke-width="2" opacity="0.7"/><path transform="translate(50,30)" d="M3.237,0A3.237,3.237,0,1,1,-3.237,0A3.237,3.237,0,1,1,3.237,0" fill="rgb(247, 232, 209)" stroke-width="2" opacity="0.7"/><path transform="translate(10,50)" d="M3.762,0A3.762,3.762,0,1,1,-3.762,0A3.762,3.762,0,1,1,3.762,0" fill="rgb(249, 228, 199)" stroke-width="2" opacity="0.7"/><path transform="translate(10,10)" d="M1,0A1,1,0,1,1,-1,0A1,1,0,1,1,1,0" fill="rgb(242, 240, 235)" stroke-width="2" opacity="0.7"/><path transform="translate(10,30)" d="M8.291,0A8.291,8.291,0,1,1,-8.291,0A8.291,8.291,0,1,1,8.291,0" fill="rgb(204, 114, 20)" stroke-width="2" opacity="0.7"/><path transform="translate(30,50)" d="M3.237,0A3.237,3.237,0,1,1,-3.237,0A3.237,3.237,0,1,1,3.237,0" fill="rgb(247, 232, 209)" stroke-width="2" opacity="0.7"/><path transform="translate(30,10)" d="M8.291,0A8.291,8.291,0,1,1,-8.291,0A8.291,8.291,0,1,1,8.291,0" fill="rgb(204, 114, 20)" stroke-width="2" opacity="0.7"/><path transform="translate(30,30)" d="M1,0A1,1,0,1,1,-1,0A1,1,0,1,1,1,0" fill="rgb(242, 240, 235)" stroke-width="2" opacity="0.7"/></g><g class="mark-group role-legend" role="graphics-symbol" aria-roledescription="legend" aria-label="Gradient legend titled 'corr' for fill color with values from −1.0 to 1.0"><g transform="translate(78,0)"><path class="background" aria-hidden="true" d="M0,0h30v80h-30Z" pointer-events="none"/><g><g class="mark-group role-legend-entry"><g transform="translate(0,16)"><path class="background" aria-hidden="true" d="M0,0h0v0h0Z" pointer-events="none"/><g><g class="mark-rect role-legend-gradient" pointer-events="none"><path d="M0,0h16v64h-16Z" fill="url(#gradient_2)" stroke="#ddd" stroke-width="0" opacity="0.7"/></g><g class="mark-text role-legend-label" pointer-events="none"><text text-anchor="start" transform="translate(18,62)" font-family="sans-serif" font-size="10px" fill="#000" opacity="1">−1</text><text text-anchor="start" transform="translate(18,35)" font-family="sans-serif" font-size="10px" fill="#000" opacity="1">0</text><text text-anchor="start" transform="translate(18,8)" font-family="sans-serif" font-size="10px" fill="#000" opacity="1">1</text></g></g><path class="foreground" aria-hidden="true" d="" pointer-events="none" display="none"/></g></g><g class="mark-text role-legend-title" pointer-events="none"><text text-anchor="start" transform="translate(0,9)" font-family="sans-serif" font-size="11px" font-weight="bold" fill="#000" opacity="1">corr</text></g></g><path class="foreground" aria-hidden="true" d="" pointer-events="none" display="none"/></g></g><g class="mark-group role-legend" role="graphics-symbol" aria-roledescription="legend" aria-label="Symbol legend titled 'abs' for size with values from 0.0 to 1.0"><g transform="translate(78,88)"><path class="background" aria-hidden="true" d="M0,0h39v128h-39Z" pointer-events="none"/><g><g class="mark-group role-legend-entry"><g transform="translate(0,16)"><path class="background" aria-hidden="true" d="M0,0h0v0h0Z" pointer-events="none"/><g><g class="mark-group role-scope" role="graphics-object" aria-roledescription="group mark container"><g transform="translate(0,0)"><path class="background" aria-hidden="true" d="M0,0h38.9013671875v10h-38.9013671875Z" pointer-events="none" opacity="1"/><g><g class="mark-symbol role-legend-symbol" pointer-events="none"><path transform="translate(10.5,5)" d="M1,0A1,1,0,1,1,-1,0A1,1,0,1,1,1,0" fill="black" fill-opacity="0.7" stroke-width="1.5" opacity="0.7"/></g><g class="mark-text role-legend-label" pointer-events="none"><text text-anchor="start" transform="translate(25,8)" font-family="sans-serif" font-size="10px" fill="#000" opacity="1">0.0</text></g></g><path class="foreground" aria-hidden="true" d="" pointer-events="none" display="none"/></g><g transform="translate(0,13)"><path class="background" aria-hidden="true" d="M0,0h38.9013671875v11.341658669218482h-38.9013671875Z" pointer-events="none" opacity="1"/><g><g class="mark-symbol role-legend-symbol" pointer-events="none"><path transform="translate(10.5,5.5)" d="M4.342,0A4.342,4.342,0,1,1,-4.342,0A4.342,4.342,0,1,1,4.342,0" fill="black" fill-opacity="0.7" stroke-width="1.5" opacity="0.7"/></g><g class="mark-text role-legend-label" pointer-events="none"><text text-anchor="start" transform="translate(25,8.5)" font-family="sans-serif" font-size="10px" fill="#000" opacity="1">0.2</text></g></g><path class="foreground" aria-hidden="true" d="" pointer-events="none" display="none"/></g><g transform="translate(0,28)"><path class="background" aria-hidden="true" d="M0,0h38.9013671875v14.558052492344387h-38.9013671875Z" pointer-events="none" opacity="1"/><g><g class="mark-symbol role-legend-symbol" pointer-events="none"><path transform="translate(10.5,7)" d="M6.058,0A6.058,6.058,0,1,1,-6.058,0A6.058,6.058,0,1,1,6.058,0" fill="black" fill-opacity="0.7" stroke-width="1.5" opacity="0.7"/></g><g class="mark-text role-legend-label" pointer-events="none"><text text-anchor="start" transform="translate(25,10)" font-family="sans-serif" font-size="10px" fill="#000" opacity="1">0.4</text></g></g><path class="foreground" aria-hidden="true" d="" pointer-events="none" display="none"/></g><g transform="translate(0,46)"><path class="background" aria-hidden="true" d="M0,0h38.9013671875v17.38579718107667h-38.9013671875Z" pointer-events="none" opacity="1"/><g><g class="mark-symbol role-legend-symbol" pointer-events="none"><path transform="translate(10.5,8.5)" d="M7.386,0A7.386,7.386,0,1,1,-7.386,0A7.386,7.386,0,1,1,7.386,0" fill="black" fill-opacity="0.7" stroke-width="1.5" opacity="0.7"/></g><g class="mark-text role-legend-label" pointer-events="none"><text text-anchor="start" transform="translate(25,11.5)" font-family="sans-serif" font-size="10px" fill="#000" opacity="1">0.6</text></g></g><path class="foreground" aria-hidden="true" d="" pointer-events="none" display="none"/></g><g transform="translate(0,67)"><path class="background" aria-hidden="true" d="M0,0h38.9013671875v19.508818954473057h-38.9013671875Z" pointer-events="none" opacity="1"/><g><g class="mark-symbol role-legend-symbol" pointer-events="none"><path transform="translate(10.5,9.5)" d="M8.509,0A8.509,8.509,0,1,1,-8.509,0A8.509,8.509,0,1,1,8.509,0" fill="black" fill-opacity="0.7" stroke-width="1.5" opacity="0.7"/></g><g class="mark-text role-legend-label" pointer-events="none"><text text-anchor="start" transform="translate(25,12.5)" font-family="sans-serif" font-size="10px" fill="#000" opacity="1">0.8</text></g></g><path class="foreground" aria-hidden="true" d="" pointer-events="none" display="none"/></g><g transform="translate(0,90)"><path class="background" aria-hidden="true" d="M0,0h38.9013671875v21.5h-38.9013671875Z" pointer-events="none" opacity="1"/><g><g class="mark-symbol role-legend-symbol" pointer-events="none"><path transform="translate(10.5,10.5)" d="M9.5,0A9.5,9.5,0,1,1,-9.5,0A9.5,9.5,0,1,1,9.5,0" fill="black" fill-opacity="0.7" stroke-width="1.5" opacity="0.7"/></g><g class="mark-text role-legend-label" pointer-events="none"><text text-anchor="start" transform="translate(25,13.5)" font-family="sans-serif" font-size="10px" fill="#000" opacity="1">1.0</text></g></g><path class="foreground" aria-hidden="true" d="" pointer-events="none" display="none"/></g></g></g><path class="foreground" aria-hidden="true" d="" pointer-events="none" display="none"/></g></g><g class="mark-text role-legend-title" pointer-events="none"><text text-anchor="start" transform="translate(0,9)" font-family="sans-serif" font-size="11px" font-weight="bold" fill="#000" opacity="1">abs</text></g></g><path class="foreground" aria-hidden="true" d="" pointer-events="none" display="none"/></g></g></g><path class="foreground" aria-hidden="true" d="" display="none"/></g></g></g><defs><linearGradient id="gradient_2" x1="0" x2="0" y1="1" y2="0"><stop offset="0" stop-color="rgb(19, 75, 133)"/><stop offset="0.04999999999999999" stop-color="rgb(33, 98, 156)"/><stop offset="0.09999999999999998" stop-color="rgb(47, 120, 179)"/><stop offset="0.15000000000000002" stop-color="rgb(70, 141, 191)"/><stop offset="0.2" stop-color="rgb(93, 162, 203)"/><stop offset="0.25" stop-color="rgb(125, 182, 214)"/><stop offset="0.3" stop-color="rgb(157, 202, 225)"/><stop offset="0.35" stop-color="rgb(184, 216, 232)"/><stop offset="0.4" stop-color="rgb(210, 229, 239)"/><stop offset="0.45" stop-color="rgb(226, 235, 237)"/><stop offset="0.5" stop-color="rgb(242, 240, 235)"/><stop offset="0.55" stop-color="rgb(247, 232, 211)"/><stop offset="0.6" stop-color="rgb(252, 224, 186)"/><stop offset="0.65" stop-color="rgb(252, 208, 151)"/><stop offset="0.7" stop-color="rgb(251, 191, 116)"/><stop offset="0.75" stop-color="rgb(242, 169, 82)"/><stop offset="0.8" stop-color="rgb(232, 147, 47)"/><stop offset="0.85" stop-color="rgb(215, 126, 30)"/><stop offset="0.9" stop-color="rgb(197, 105, 13)"/><stop offset="0.95" stop-color="rgb(175, 90, 10)"/><stop offset="1" stop-color="rgb(153, 74, 7)"/></linearGradient></defs></svg>