<svg xmlns="http://www.w3.org/2000/svg" xmlns:xlink="http://www.w3.org/1999/xlink" version="1.1" class="marks" width="1076" height="249" viewBox="0 0 1076 249"><rect width="1076" height="249" fill="white"/><g fill="none" stroke-miterlimit="10" transform="translate(45,11)"><g class="mark-group role-frame root" role="graphics-object" aria-roledescription="group mark container"><g transform="translate(0,0)"><path class="background" aria-hidden="true" d="M0,0h0v200h0Z"/><g><g class="mark-group role-scope child__runtime_group" role="graphics-object" aria-roledescription="group mark container"><g transform="translate(0,0)"><path class="background" aria-hidden="true" d="M0.5,0.5h300v200h-300Z" stroke="#ddd"/><g><g class="mark-group role-axis" aria-hidden="true"><g transform="translate(0.5,0.5)"><path class="background" aria-hidden="true" d="M0,0h0v0h0Z" pointer-events="none"/><g><g class="mark-rule role-axis-grid" pointer-events="none"><line transform="translate(0,200)" x2="300" y2="0" stroke="#ddd" stroke-width="1" opacity="1"/><line transform="translate(0,138)" x2="300" y2="0" stroke="#ddd" stroke-width="1" opacity="1"/><line transform="translate(0,75)" x2="300" y2="0" stroke="#ddd" stroke-width="1" opacity="1"/><line transform="translate(0,13)" x2="300" y2="0" stroke="#ddd" stroke-width="1" opacity="1"/></g></g><path class="foreground" aria-hidden="true" d="" pointer-events="none" display="none"/></g></g><g class="mark-group role-axis" role="graphics-symbol" aria-roledescription="axis" aria-label="X-axis titled 'runtime (binned)' for a linear scale with values from 20 to 250"><g transform="translate(0.5,200.5)"><path class="background" aria-hidden="true" d="M0,0h0v0h0Z" pointer-events="none"/><g><g class="mark-rule role-axis-tick" pointer-events="none"><line transform="translate(0,0)" x2="0" y2="5" stroke="#888" stroke-width="1" opacity="1"/><line transform="translate(13,0)" x2="0" y2="5" stroke="#888" stroke-width="1" opacity="1"/><line transform="translate(26,0)" x2="0" y2="5" stroke="#888" stroke-width="1" opacity="1"/><line transform="translate(39,0)" x2="0" y2="5" stroke="#888" stroke-width="1" opacity="1"/><line transform="translate(52,0)" x2="0" y2="5" stroke="#888" stroke-width="1" opacity="1"/><line transform="translate(65,0)" x2="0" y2="5" stroke="#888" stroke-width="1" opacity="1"/><line transform="translate(78,0)" x2="0" y2="5" stroke="#888" stroke-width="1" opacity="1"/><line transform="translate(91,0)" x2="0" y2="5" stroke="#888" stroke-width="1" opacity="1"/><line transform="translate(104,0)" x2="0" y2="5" stroke="#888" stroke-width="1" opacity="1"/><line transform="translate(117,0)" x2="0" y2="5" stroke="#888" stroke-width="1" opacity="1"/><line transform="translate(130,0)" x2="0" y2="5" stroke="#888" stroke-width="1" opacity="1"/><line transform="translate(143,0)" x2="0" y2="5" stroke="#888" stroke-width="1" opacity="1"/><line transform="translate(157,0)" x2="0" y2="5" stroke="#888" stroke-width="1" opacity="1"/><line transform="translate(170,0)" x2="0" y2="5" stroke="#888" stroke-width="1" opacity="1"/><line transform="translate(183,0)" x2="0" y2="5" stroke="#888" stroke-width="1" opacity="1"/><line transform="translate(196,0)" x2="0" y2="5" stroke="#888" stroke-width="1" opacity="1"/><line transform="translate(209,0)" x2="0" y2="5" stroke="#888" stroke-width="1" opacity="1"/><line transform="translate(222,0)" x2="0" y2="5" stroke="#888" stroke-width="1" opacity="1"/><line transform="translate(235,0)" x2="0" y2="5" stroke="#888" stroke-width="1" opacity="1"/><line transform="translate(248,0)" x2="0" y2="5" stroke="#888" stroke-width="1" opacity="1"/><line transform="translate(261,0)" x2="0" y2="5" stroke="#888" stroke-width="1" opacity="1"/><line transform="translate(274,0)" x2="0" y2="5" stroke="#888" stroke-width="1" opacity="1"/><line transform="translate(287,0)" x2="0" y2="5" stroke="#888" stroke-width="1" opacity="1"/><line transform="translate(300,0)" x2="0" y2="5" stroke="#888" stroke-width="1" opacity="1"/></g><g class="mark-text role-axis-label" pointer-events="none"><text text-anchor="start" transform="translate(0,15)" font-family="sans-serif" font-size="10px" fill="#000" opacity="1">20</text><text text-anchor="middle" transform="translate(13.043478260869565,15)" font-family="sans-serif" font-size="10px" fill="#000" opacity="0">30</text><text text-anchor="middle" transform="translate(26.08695652173913,15)" font-family="sans-serif" font-size="10px" fill="#000" opacity="1">40</text><text text-anchor="middle" transform="translate(39.130434782608695,15)" font-family="sans-serif" font-size="10px" fill="#000" opacity="0">50</text><text text-anchor="middle" transform="translate(52.17391304347826,15)" font-family="sans-serif" font-size="10px" fill="#000" opacity="1">60</text><text text-anchor="middle" transform="translate(65.21739130434783,15)" font-family="sans-serif" font-size="10px" fill="#000" opacity="0">70</text><text text-anchor="middle" transform="translate(78.26086956521739,15)" font-family="sans-serif" font-size="10px" fill="#000" opacity="1">80</text><text text-anchor="middle" transform="translate(91.30434782608697,15)" font-family="sans-serif" font-size="10px" fill="#000" opacity="0">90</text><text text-anchor="middle" transform="translate(104.34782608695652,15)" font-family="sans-serif" font-size="10px" fill="#000" opacity="1">100</text><text text-anchor="middle" transform="translate(117.3913043478261,15)" font-family="sans-serif" font-size="10px" fill="#000" opacity="0">110</text><text text-anchor="middle" transform="translate(130.43478260869566,15)" font-family="sans-serif" font-size="10px" fill="#000" opacity="1">120</text><text text-anchor="middle" transform="translate(143.47826086956522,15)" font-family="sans-serif" font-size="10px" fill="#000" opacity="0">130</text><text text-anchor="middle" transform="translate(156.52173913043478,15)" font-family="sans-serif" font-size="10px" fill="#000" opacity="1">140</text><text text-anchor="middle" transform="translate(169.56521739130434,15)" font-family="sans-serif" font-size="10px" fill="#000" opacity="0">150</text><text text-anchor="middle" transform="translate(182.60869565217394,15)" font-family="sans-serif" font-size="10px" fill="#000" opacity="1">160</text><text text-anchor="middle" transform="translate(195.65217391304347,15)" font-family="sans-serif" font-size="10px" fill="#000" opacity="0">170</text><text text-anchor="middle" transform="translate(208.69565217391303,15)" font-family="sans-serif" font-size="10px" fill="#000" opacity="1">180</text><text text-anchor="middle" transform="translate(221.7391304347826,15)" font-family="sans-serif" font-size="10px" fill="#000" opacity="0">190</text><text text-anchor="middle" transform="translate(234.7826086956522,15)" font-family="sans-serif" font-size="10px" fill="#000" opacity="1">200</text><text text-anchor="middle" transform="translate(247.82608695652175,15)" font-family="sans-serif" font-size="10px" fill="#000" opacity="0">210</text><text text-anchor="middle" transform="translate(260.8695652173913,15)" font-family="sans-serif" font-size="10px" fill="#000" opacity="1">220</text><text text-anchor="middle" transform="translate(273.9130434782609,15)" font-family="sans-serif" font-size="10px" fill="#000" opacity="0">230</text><text text-anchor="middle" transform="translate(286.95652173913044,15)" font-family="sans-serif" font-size="10px" fill="#000" opacity="1">240</text><text text-anchor="end" transform="translate(300,15)" font-family="sans-serif" font-size="10px" fill="#000" opacity="0">250</text></g><g class="mark-rule role-axis-domain" pointer-events="none"><line transform="translate(0,0)" x2="300" y2="0" stroke="#888" stroke-width="1" opacity="1"/></g><g class="mark-text role-axis-title" pointer-events="none"><text text-anchor="middle" transform="translate(150,30)" font-family="sans-serif" font-size="11px" font-weight="bold" fill="#000" opacity="1">runtime (binned)</text></g></g><path class="foreground" aria-hidden="true" d="" pointer-events="none" display="none"/></g></g><g class="mark-group role-axis" role="graphics-symbol" aria-roledescription="axis" aria-label="Y-axis titled 'Count of Records' for a linear scale with values from 0 to 160"><g transform="translate(0.5,0.5)"><path class="background" aria-hidden="true" d="M0,0h0v0h0Z" pointer-events="none"/><g><g class="mark-rule role-axis-tick" pointer-events="none"><line transform="translate(0,200)" x2="-5" y2="0" stroke="#888" stroke-width="1" opacity="1"/><line transform="translate(0,138)" x2="-5" y2="0" stroke="#888" stroke-width="1" opacity="1"/><line transform="translate(0,75)" x2="-5" y2="0" stroke="#888" stroke-width="1" opacity="1"/><line transform="translate(0,13)" x2="-5" y2="0" stroke="#888" stroke-width="1" opacity="1"/></g><g class="mark-text role-axis-label" pointer-events="none"><text text-anchor="end" transform="translate(-7,203)" font-family="sans-serif" font-size="10px" fill="#000" opacity="1">0</text><text text-anchor="end" transform="translate(-7,140.5)" font-family="sans-serif" font-size="10px" fill="#000" opacity="1">50</text><text text-anchor="end" transform="translate(-7,78)" font-family="sans-serif" font-size="10px" fill="#000" opacity="1">100</text><text text-anchor="end" transform="translate(-7,15.5)" font-family="sans-serif" font-size="10px" fill="#000" opacity="1">150</text></g><g class="mark-rule role-axis-domain" pointer-events="none"><line transform="translate(0,200)" x2="0" y2="-200" stroke="#888" stroke-width="1" opacity="1"/></g><g class="mark-text role-axis-title" pointer-events="none"><text text-anchor="middle" transform="translate(-27.6845703125,100) rotate(-90) translate(0,-2)" font-family="sans-serif" font-size="11px" font-weight="bold" fill="#000" opacity="1">Count of Records</text></g></g><path class="foreground" aria-hidden="true" d="" pointer-events="none" display="none"/></g></g><g class="mark-rect role-mark child__runtime_marks" role="graphics-symbol" aria-roledescription="rect mark container"><path d="M105.34782608695652,38.74999999999999h12.043478260869577v161.25h-12.043478260869577Z" fill="#4c78a8"/><path d="M157.52173913043478,167.5h12.043478260869563v32.5h-12.043478260869563Z" fill="#4c78a8"/><path d="M79.26086956521739,73.75h12.043478260869577v126.25h-12.043478260869577Z" fill="#4c78a8"/><path d="M170.56521739130434,182.5h12.043478260869591v17.5h-12.043478260869591Z" fill="#4c78a8"/><path d="M118.3913043478261,103.75000000000001h12.043478260869563v96.24999999999999h-12.043478260869563Z" fill="#4c78a8"/><path d="M196.65217391304347,187.5h12.043478260869563v12.5h-12.043478260869563Z" fill="#4c78a8"/><path d="M235.7826086956522,197.5h12.043478260869563v2.5h-12.043478260869563Z" fill="#4c78a8"/><path d="M144.47826086956522,145h12.043478260869563v55h-12.043478260869563Z" fill="#4c78a8"/><path d="M131.43478260869566,107.5h12.043478260869563v92.5h-12.043478260869563Z" fill="#4c78a8"/><path d="M183.60869565217394,182.5h12.043478260869534v17.5h-12.043478260869534Z" fill="#4c78a8"/><path d="M222.7391304347826,195h12.043478260869591v5h-12.043478260869591Z" fill="#4c78a8"/><path d="M92.30434782608697,14.999999999999991h12.043478260869549v185h-12.043478260869549Z" fill="#4c78a8"/><path d="M209.69565217391303,195h12.043478260869563v5h-12.043478260869563Z" fill="#4c78a8"/><path d="M248.82608695652175,198.75h12.043478260869563v1.25h-12.043478260869563Z" fill="#4c78a8"/><path d="M66.21739130434783,165h12.043478260869563v35h-12.043478260869563Z" fill="#4c78a8"/><path d="M287.95652173913044,198.75h12.043478260869563v1.25h-12.043478260869563Z" fill="#4c78a8"/><path d="M53.17391304347826,197.5h12.04347826086957v2.5h-12.04347826086957Z" fill="#4c78a8"/><path d="M1,198.75h12.043478260869565v1.25h-12.043478260869565Z" fill="#4c78a8"/></g></g><path class="foreground" aria-hidden="true" d="" display="none"/></g></g><g class="mark-group role-scope child__revenue_group" role="graphics-object" aria-roledescription="group mark container"><g transform="translate(362,0)"><path class="background" aria-hidden="true" d="M0.5,0.5h300v200h-300Z" stroke="#ddd"/><g><g class="mark-group role-axis" aria-hidden="true"><g transform="translate(0.5,0.5)"><path class="background" aria-hidden="true" d="M0,0h0v0h0Z" pointer-events="none"/><g><g class="mark-rule role-axis-grid" pointer-events="none"><line transform="translate(0,200)" x2="300" y2="0" stroke="#ddd" stroke-width="1" opacity="1"/><line transform="translate(0,171)" x2="300" y2="0" stroke="#ddd" stroke-width="1" opacity="1"/><line transform="translate(0,143)" x2="300" y2="0" stroke="#ddd" stroke-width="1" opacity="1"/><line transform="translate(0,114)" x2="300" y2="0" stroke="#ddd" stroke-width="1" opacity="1"/><line transform="translate(0,86)" x2="300" y2="0" stroke="#ddd" stroke-width="1" opacity="1"/><line transform="translate(0,57)" x2="300" y2="0" stroke="#ddd" stroke-width="1" opacity="1"/><line transform="translate(0,29)" x2="300" y2="0" stroke="#ddd" stroke-width="1" opacity="1"/><line transform="translate(0,0)" x2="300" y2="0" stroke="#ddd" stroke-width="1" opacity="1"/></g></g><path class="foreground" aria-hidden="true" d="" pointer-events="none" display="none"/></g></g><g class="mark-group role-axis" role="graphics-symbol" aria-roledescription="axis" aria-label="X-axis titled 'revenue (binned)' for a linear scale with values from 0 to 2,800,000,000"><g transform="translate(0.5,200.5)"><path class="background" aria-hidden="true" d="M0,0h0v0h0Z" pointer-events="none"/><g><g class="mark-rule role-axis-tick" pointer-events="none"><line transform="translate(0,0)" x2="0" y2="5" stroke="#888" stroke-width="1" opacity="1"/><line transform="translate(11,0)" x2="0" y2="5" stroke="#888" stroke-width="1" opacity="1"/><line transform="translate(21,0)" x2="0" y2="5" stroke="#888" stroke-width="1" opacity="1"/><line transform="translate(32,0)" x2="0" y2="5" stroke="#888" stroke-width="1" opacity="1"/><line transform="translate(43,0)" x2="0" y2="5" stroke="#888" stroke-width="1" opacity="1"/><line transform="translate(54,0)" x2="0" y2="5" stroke="#888" stroke-width="1" opacity="1"/><line transform="translate(64,0)" x2="0" y2="5" stroke="#888" stroke-width="1" opacity="1"/><line transform="translate(75,0)" x2="0" y2="5" stroke="#888" stroke-width="1" opacity="1"/><line transform="translate(86,0)" x2="0" y2="5" stroke="#888" stroke-width="1" opacity="1"/><line transform="translate(96,0)" x2="0" y2="5" stroke="#888" stroke-width="1" opacity="1"/><line transform="translate(107,0)" x2="0" y2="5" stroke="#888" stroke-width="1" opacity="1"/><line transform="translate(118,0)" x2="0" y2="5" stroke="#888" stroke-width="1" opacity="1"/><line transform="translate(129,0)" x2="0" y2="5" stroke="#888" stroke-width="1" opacity="1"/><line transform="translate(139,0)" x2="0" y2="5" stroke="#888" stroke-width="1" opacity="1"/><line transform="translate(150,0)" x2="0" y2="5" stroke="#888" stroke-width="1" opacity="1"/><line transform="translate(161,0)" x2="0" y2="5" stroke="#888" stroke-width="1" opacity="1"/><line transform="translate(171,0)" x2="0" y2="5" stroke="#888" stroke-width="1" opacity="1"/><line transform="translate(182,0)" x2="0" y2="5" stroke="#888" stroke-width="1" opacity="1"/><line transform="translate(193,0)" x2="0" y2="5" stroke="#888" stroke-width="1" opacity="1"/><line transform="translate(204,0)" x2="0" y2="5" stroke="#888" stroke-width="1" opacity="1"/><line transform="translate(214,0)" x2="0" y2="5" stroke="#888" stroke-width="1" opacity="1"/><line transform="translate(225,0)" x2="0" y2="5" stroke="#888" stroke-width="1" opacity="1"/><line transform="translate(236,0)" x2="0" y2="5" stroke="#888" stroke-width="1" opacity="1"/><line transform="translate(246,0)" x2="0" y2="5" stroke="#888" stroke-width="1" opacity="1"/><line transform="translate(257,0)" x2="0" y2="5" stroke="#888" stroke-width="1" opacity="1"/><line transform="translate(268,0)" x2="0" y2="5" stroke="#888" stroke-width="1" opacity="1"/><line transform="translate(279,0)" x2="0" y2="5" stroke="#888" stroke-width="1" opacity="1"/><line transform="translate(289,0)" x2="0" y2="5" stroke="#888" stroke-width="1" opacity="1"/><line transform="translate(300,0)" x2="0" y2="5" stroke="#888" stroke-width="1" opacity="1"/></g><g class="mark-text role-axis-label" pointer-events="none"><text text-anchor="start" transform="translate(0,15)" font-family="sans-serif" font-size="10px" fill="#000" opacity="1">0</text><text text-anchor="middle" transform="translate(10.714285714285714,15)" font-family="sans-serif" font-size="10px" fill="#000" opacity="0">100,000,000</text><text text-anchor="middle" transform="translate(21.428571428571427,15)" font-family="sans-serif" font-size="10px" fill="#000" opacity="0">200,000,000</text><text text-anchor="middle" transform="translate(32.14285714285714,15)" font-family="sans-serif" font-size="10px" fill="#000" opacity="0">300,000,000</text><text text-anchor="middle" transform="translate(42.857142857142854,15)" font-family="sans-serif" font-size="10px" fill="#000" opacity="0">400,000,000</text><text text-anchor="middle" transform="translate(53.57142857142857,15)" font-family="sans-serif" font-size="10px" fill="#000" opacity="0">500,000,000</text><text text-anchor="middle" transform="translate(64.28571428571428,15)" font-family="sans-serif" font-size="10px" fill="#000" opacity="0">600,000,000</text><text text-anchor="middle" transform="translate(75,15)" font-family="sans-serif" font-size="10px" fill="#000" opacity="0">700,000,000</text><text text-anchor="middle" transform="translate(85.71428571428571,15)" font-family="sans-serif" font-size="10px" fill="#000" opacity="1">800,000,000</text><text text-anchor="middle" transform="translate(96.42857142857143,15)" font-family="sans-serif" font-size="10px" fill="#000" opacity="0">900,000,000</text><text text-anchor="middle" transform="translate(107.14285714285714,15)" font-family="sans-serif" font-size="10px" fill="#000" opacity="0">1,000,000,000</text><text text-anchor="middle" transform="translate(117.85714285714286,15)" font-family="sans-serif" font-size="10px" fill="#000" opacity="0">1,100,000,000</text><text text-anchor="middle" transform="translate(128.57142857142856,15)" font-family="sans-serif" font-size="10px" fill="#000" opacity="0">1,200,000,000</text><text text-anchor="middle" transform="translate(139.28571428571428,15)" font-family="sans-serif" font-size="10px" fill="#000" opacity="0">1,300,000,000</text><text text-anchor="middle" transform="translate(150,15)" font-family="sans-serif" font-size="10px" fill="#000" opacity="0">1,400,000,000</text><text text-anchor="middle" transform="translate(160.71428571428572,15)" font-family="sans-serif" font-size="10px" fill="#000" opacity="0">1,500,000,000</text><text text-anchor="middle" transform="translate(171.42857142857142,15)" font-family="sans-serif" font-size="10px" fill="#000" opacity="1">1,600,000,000</text><text text-anchor="middle" transform="translate(182.14285714285714,15)" font-family="sans-serif" font-size="10px" fill="#000" opacity="0">1,700,000,000</text><text text-anchor="middle" transform="translate(192.85714285714286,15)" font-family="sans-serif" font-size="10px" fill="#000" opacity="0">1,800,000,000</text><text text-anchor="middle" transform="translate(203.57142857142858,15)" font-family="sans-serif" font-size="10px" fill="#000" opacity="0">1,900,000,000</text><text text-anchor="middle" transform="translate(214.28571428571428,15)" font-family="sans-serif" font-size="10px" fill="#000" opacity="0">2,000,000,000</text><text text-anchor="middle" transform="translate(225,15)" font-family="sans-serif" font-size="10px" fill="#000" opacity="0">2,100,000,000</text><text text-anchor="middle" transform="translate(235.71428571428572,15)" font-family="sans-serif" font-size="10px" fill="#000" opacity="0">2,200,000,000</text><text text-anchor="middle" transform="translate(246.42857142857142,15)" font-family="sans-serif" font-size="10px" fill="#000" opacity="0">2,300,000,000</text><text text-anchor="middle" transform="translate(257.1428571428571,15)" font-family="sans-serif" font-size="10px" fill="#000" opacity="1">2,400,000,000</text><text text-anchor="middle" transform="translate(267.8571428571429,15)" font-family="sans-serif" font-size="10px" fill="#000" opacity="0">2,500,000,000</text><text text-anchor="middle" transform="translate(278.57142857142856,15)" font-family="sans-serif" font-size="10px" fill="#000" opacity="0">2,600,000,000</text><text text-anchor="middle" transform="translate(289.2857142857143,15)" font-family="sans-serif" font-size="10px" fill="#000" opacity="0">2,700,000,000</text><text text-anchor="end" transform="translate(300,15)" font-family="sans-serif" font-size="10px" fill="#000" opacity="0">2,800,000,000</text></g><g class="mark-rule role-axis-domain" pointer-events="none"><line transform="translate(0,0)" x2="300" y2="0" stroke="#888" stroke-width="1" opacity="1"/></g><g class="mark-text role-axis-title" pointer-events="none"><text text-anchor="middle" transform="translate(150,30)" font-family="sans-serif" font-size="11px" font-weight="bold" fill="#000" opacity="1">revenue (binned)</text></g></g><path class="foreground" aria-hidden="true" d="" pointer-events="none" display="none"/></g></g><g class="mark-group role-axis" role="graphics-symbol" aria-roledescription="axis" aria-label="Y-axis titled 'Count of Records' for a linear scale with values from 0 to 350"><g transform="translate(0.5,0.5)"><path class="background" aria-hidden="true" d="M0,0h0v0h0Z" pointer-events="none"/><g><g class="mark-rule role-axis-tick" pointer-events="none"><line transform="translate(0,200)" x2="-5" y2="0" stroke="#888" stroke-width="1" opacity="1"/><line transform="translate(0,171)" x2="-5" y2="0" stroke="#888" stroke-width="1" opacity="1"/><line transform="translate(0,143)" x2="-5" y2="0" stroke="#888" stroke-width="1" opacity="1"/><line transform="translate(0,114)" x2="-5" y2="0" stroke="#888" stroke-width="1" opacity="1"/><line transform="translate(0,86)" x2="-5" y2="0" stroke="#888" stroke-width="1" opacity="1"/><line transform="translate(0,57)" x2="-5" y2="0" stroke="#888" stroke-width="1" opacity="1"/><line transform="translate(0,29)" x2="-5" y2="0" stroke="#888" stroke-width="1" opacity="1"/><line transform="translate(0,0)" x2="-5" y2="0" stroke="#888" stroke-width="1" opacity="1"/></g><g class="mark-text role-axis-label" pointer-events="none"><text text-anchor="end" transform="translate(-7,203)" font-family="sans-serif" font-size="10px" fill="#000" opacity="1">0</text><text text-anchor="end" transform="translate(-7,174.42857142857144)" font-family="sans-serif" font-size="10px" fill="#000" opacity="1">50</text><text text-anchor="end" transform="translate(-7,145.85714285714286)" font-family="sans-serif" font-size="10px" fill="#000" opacity="1">100</text><text text-anchor="end" transform="translate(-7,117.28571428571428)" font-family="sans-serif" font-size="10px" fill="#000" opacity="1">150</text><text text-anchor="end" transform="translate(-7,88.71428571428572)" font-family="sans-serif" font-size="10px" fill="#000" opacity="1">200</text><text text-anchor="end" transform="translate(-7,60.14285714285714)" font-family="sans-serif" font-size="10px" fill="#000" opacity="1">250</text><text text-anchor="end" transform="translate(-7,31.57142857142858)" font-family="sans-serif" font-size="10px" fill="#000" opacity="1">300</text><text text-anchor="end" transform="translate(-7,3)" font-family="sans-serif" font-size="10px" fill="#000" opacity="1">350</text></g><g class="mark-rule role-axis-domain" pointer-events="none"><line transform="translate(0,200)" x2="0" y2="-200" stroke="#888" stroke-width="1" opacity="1"/></g><g class="mark-text role-axis-title" pointer-events="none"><text text-anchor="middle" transform="translate(-27.6845703125,100) rotate(-90) translate(0,-2)" font-family="sans-serif" font-size="11px" font-weight="bold" fill="#000" opacity="1">Count of Records</text></g></g><path class="foreground" aria-hidden="true" d="" pointer-events="none" display="none"/></g></g><g class="mark-rect role-mark child__revenue_marks" role="graphics-symbol" aria-roledescription="rect mark container"><path d="M97.42857142857143,193.14285714285714h9.714285714285708v6.857142857142861h-9.714285714285708Z" fill="#4c78a8"/><path d="M65.28571428571428,190.28571428571428h9.714285714285722v9.714285714285722h-9.714285714285722Z" fill="#4c78a8"/><path d="M54.57142857142857,189.14285714285714h9.714285714285708v10.857142857142861h-9.714285714285708Z" fill="#4c78a8"/><path d="M108.14285714285714,195.42857142857142h9.714285714285722v4.571428571428584h-9.714285714285722Z" fill="#4c78a8"/><path d="M11.714285714285714,127.42857142857143h9.714285714285714v72.57142857142857h-9.714285714285714Z" fill="#4c78a8"/><path d="M1,20.571428571428573h9.714285714285714v179.42857142857142h-9.714285714285714Z" fill="#4c78a8"/><path d="M43.857142857142854,182.85714285714286h9.714285714285715v17.14285714285714h-9.714285714285715Z" fill="#4c78a8"/><path d="M86.71428571428571,192.57142857142858h9.714285714285722v7.428571428571416h-9.714285714285722Z" fill="#4c78a8"/><path d="M118.85714285714286,198.85714285714286h9.714285714285694v1.1428571428571388h-9.714285714285694Z" fill="#4c78a8"/><path d="M22.428571428571427,162.85714285714286h9.714285714285712v37.14285714285714h-9.714285714285712Z" fill="#4c78a8"/><path d="M76,189.71428571428572h9.714285714285708v10.285714285714278h-9.714285714285708Z" fill="#4c78a8"/><path d="M33.14285714285714,171.42857142857144h9.714285714285715v28.571428571428555h-9.714285714285715Z" fill="#4c78a8"/><path d="M140.28571428571428,199.42857142857142h9.714285714285722v0.5714285714285836h-9.714285714285722Z" fill="#4c78a8"/><path d="M290.2857142857143,199.42857142857142h9.714285714285722v0.5714285714285836h-9.714285714285722Z" fill="#4c78a8"/><path d="M129.57142857142856,198.85714285714286h9.714285714285722v1.1428571428571388h-9.714285714285722Z" fill="#4c78a8"/><path d="M215.28571428571428,199.42857142857142h9.714285714285722v0.5714285714285836h-9.714285714285722Z" fill="#4c78a8"/></g></g><path class="foreground" aria-hidden="true" d="" display="none"/></g></g><g class="mark-group role-scope child__budget_group" role="graphics-object" aria-roledescription="group mark container"><g transform="translate(724,0)"><path class="background" aria-hidden="true" d="M0.5,0.5h300v200h-300Z" stroke="#ddd"/><g><g class="mark-group role-axis" aria-hidden="true"><g transform="translate(0.5,0.5)"><path class="background" aria-hidden="true" d="M0,0h0v0h0Z" pointer-events="none"/><g><g class="mark-rule role-axis-grid" pointer-events="none"><line transform="translate(0,200)" x2="300" y2="0" stroke="#ddd" stroke-width="1" opacity="1"/><line transform="translate(0,150)" x2="300" y2="0" stroke="#ddd" stroke-width="1" opacity="1"/><line transform="translate(0,100)" x2="300" y2="0" stroke="#ddd" stroke-width="1" opacity="1"/><line transform="translate(0,50)" x2="300" y2="0" stroke="#ddd" stroke-width="1" opacity="1"/><line transform="translate(0,0)" x2="300" y2="0" stroke="#ddd" stroke-width="1" opacity="1"/></g></g><path class="foreground" aria-hidden="true" d="" pointer-events="none" display="none"/></g></g><g class="mark-group role-axis" role="graphics-symbol" aria-roledescription="axis" aria-label="X-axis titled 'budget (binned)' for a linear scale with values from 0 to 380,000,000"><g transform="translate(0.5,200.5)"><path class="background" aria-hidden="true" d="M0,0h0v0h0Z" pointer-events="none"/><g><g class="mark-rule role-axis-tick" pointer-events="none"><line transform="translate(0,0)" x2="0" y2="5" stroke="#888" stroke-width="1" opacity="1"/><line transform="translate(8,0)" x2="0" y2="5" stroke="#888" stroke-width="1" opacity="1"/><line transform="translate(16,0)" x2="0" y2="5" stroke="#888" stroke-width="1" opacity="1"/><line transform="translate(24,0)" x2="0" y2="5" stroke="#888" stroke-width="1" opacity="1"/><line transform="translate(32,0)" x2="0" y2="5" stroke="#888" stroke-width="1" opacity="1"/><line transform="translate(39,0)" x2="0" y2="5" stroke="#888" stroke-width="1" opacity="1"/><line transform="translate(47,0)" x2="0" y2="5" stroke="#888" stroke-width="1" opacity="1"/><line transform="translate(55,0)" x2="0" y2="5" stroke="#888" stroke-width="1" opacity="1"/><line transform="translate(63,0)" x2="0" y2="5" stroke="#888" stroke-width="1" opacity="1"/><line transform="translate(71,0)" x2="0" y2="5" stroke="#888" stroke-width="1" opacity="1"/><line transform="translate(79,0)" x2="0" y2="5" stroke="#888" stroke-width="1" opacity="1"/><line transform="translate(87,0)" x2="0" y2="5" stroke="#888" stroke-width="1" opacity="1"/><line transform="translate(95,0)" x2="0" y2="5" stroke="#888" stroke-width="1" opacity="1"/><line transform="translate(103,0)" x2="0" y2="5" stroke="#888" stroke-width="1" opacity="1"/><line transform="translate(111,0)" x2="0" y2="5" stroke="#888" stroke-width="1" opacity="1"/><line transform="translate(118,0)" x2="0" y2="5" stroke="#888" stroke-width="1" opacity="1"/><line transform="translate(126,0)" x2="0" y2="5" stroke="#888" stroke-width="1" opacity="1"/><line transform="translate(134,0)" x2="0" y2="5" stroke="#888" stroke-width="1" opacity="1"/><line transform="translate(142,0)" x2="0" y2="5" stroke="#888" stroke-width="1" opacity="1"/><line transform="translate(150,0)" x2="0" y2="5" stroke="#888" stroke-width="1" opacity="1"/><line transform="translate(158,0)" x2="0" y2="5" stroke="#888" stroke-width="1" opacity="1"/><line transform="translate(166,0)" x2="0" y2="5" stroke="#888" stroke-width="1" opacity="1"/><line transform="translate(174,0)" x2="0" y2="5" stroke="#888" stroke-width="1" opacity="1"/><line transform="translate(182,0)" x2="0" y2="5" stroke="#888" stroke-width="1" opacity="1"/><line transform="translate(189,0)" x2="0" y2="5" stroke="#888" stroke-width="1" opacity="1"/><line transform="translate(197,0)" x2="0" y2="5" stroke="#888" stroke-width="1" opacity="1"/><line transform="translate(205,0)" x2="0" y2="5" stroke="#888" stroke-width="1" opacity="1"/><line transform="translate(213,0)" x2="0" y2="5" stroke="#888" stroke-width="1" opacity="1"/><line transform="translate(221,0)" x2="0" y2="5" stroke="#888" stroke-width="1" opacity="1"/><line transform="translate(229,0)" x2="0" y2="5" stroke="#888" stroke-width="1" opacity="1"/><line transform="translate(237,0)" x2="0" y2="5" stroke="#888" stroke-width="1" opacity="1"/><line transform="translate(245,0)" x2="0" y2="5" stroke="#888" stroke-width="1" opacity="1"/><line transform="translate(253,0)" x2="0" y2="5" stroke="#888" stroke-width="1" opacity="1"/><line transform="translate(261,0)" x2="0" y2="5" stroke="#888" stroke-width="1" opacity="1"/><line transform="translate(268,0)" x2="0" y2="5" stroke="#888" stroke-width="1" opacity="1"/><line transform="translate(276,0)" x2="0" y2="5" stroke="#888" stroke-width="1" opacity="1"/><line transform="translate(284,0)" x2="0" y2="5" stroke="#888" stroke-width="1" opacity="1"/><line transform="translate(292,0)" x2="0" y2="5" stroke="#888" stroke-width="1" opacity="1"/><line transform="translate(300,0)" x2="0" y2="5" stroke="#888" stroke-width="1" opacity="1"/></g><g class="mark-text role-axis-label" pointer-events="none"><text text-anchor="start" transform="translate(0,15)" font-family="sans-serif" font-size="10px" fill="#000" opacity="1">0</text><text text-anchor="middle" transform="translate(7.894736842105263,15)" font-family="sans-serif" font-size="10px" fill="#000" opacity="0">10,000,000</text><text text-anchor="middle" transform="translate(15.789473684210526,15)" font-family="sans-serif" font-size="10px" fill="#000" opacity="0">20,000,000</text><text text-anchor="middle" transform="translate(23.684210526315788,15)" font-family="sans-serif" font-size="10px" fill="#000" opacity="0">30,000,000</text><text text-anchor="middle" transform="translate(31.57894736842105,15)" font-family="sans-serif" font-size="10px" fill="#000" opacity="0">40,000,000</text><text text-anchor="middle" transform="translate(39.473684210526315,15)" font-family="sans-serif" font-size="10px" fill="#000" opacity="0">50,000,000</text><text text-anchor="middle" transform="translate(47.368421052631575,15)" font-family="sans-serif" font-size="10px" fill="#000" opacity="0">60,000,000</text><text text-anchor="middle" transform="translate(55.26315789473684,15)" font-family="sans-serif" font-size="10px" fill="#000" opacity="0">70,000,000</text><text text-anchor="middle" transform="translate(63.1578947368421,15)" font-family="sans-serif" font-size="10px" fill="#000" opacity="1">80,000,000</text><text text-anchor="middle" transform="translate(71.05263157894737,15)" font-family="sans-serif" font-size="10px" fill="#000" opacity="0">90,000,000</text><text text-anchor="middle" transform="translate(78.94736842105263,15)" font-family="sans-serif" font-size="10px" fill="#000" opacity="0">100,000,000</text><text text-anchor="middle" transform="translate(86.8421052631579,15)" font-family="sans-serif" font-size="10px" fill="#000" opacity="0">110,000,000</text><text text-anchor="middle" transform="translate(94.73684210526315,15)" font-family="sans-serif" font-size="10px" fill="#000" opacity="0">120,000,000</text><text text-anchor="middle" transform="translate(102.63157894736842,15)" font-family="sans-serif" font-size="10px" fill="#000" opacity="0">130,000,000</text><text text-anchor="middle" transform="translate(110.52631578947368,15)" font-family="sans-serif" font-size="10px" fill="#000" opacity="0">140,000,000</text><text text-anchor="middle" transform="translate(118.42105263157895,15)" font-family="sans-serif" font-size="10px" fill="#000" opacity="0">150,000,000</text><text text-anchor="middle" transform="translate(126.3157894736842,15)" font-family="sans-serif" font-size="10px" fill="#000" opacity="1">160,000,000</text><text text-anchor="middle" transform="translate(134.21052631578948,15)" font-family="sans-serif" font-size="10px" fill="#000" opacity="0">170,000,000</text><text text-anchor="middle" transform="translate(142.10526315789474,15)" font-family="sans-serif" font-size="10px" fill="#000" opacity="0">180,000,000</text><text text-anchor="middle" transform="translate(150,15)" font-family="sans-serif" font-size="10px" fill="#000" opacity="0">190,000,000</text><text text-anchor="middle" transform="translate(157.89473684210526,15)" font-family="sans-serif" font-size="10px" fill="#000" opacity="0">200,000,000</text><text text-anchor="middle" transform="translate(165.78947368421055,15)" font-family="sans-serif" font-size="10px" fill="#000" opacity="0">210,000,000</text><text text-anchor="middle" transform="translate(173.6842105263158,15)" font-family="sans-serif" font-size="10px" fill="#000" opacity="0">220,000,000</text><text text-anchor="middle" transform="translate(181.57894736842104,15)" font-family="sans-serif" font-size="10px" fill="#000" opacity="0">230,000,000</text><text text-anchor="middle" transform="translate(189.4736842105263,15)" font-family="sans-serif" font-size="10px" fill="#000" opacity="1">240,000,000</text><text text-anchor="middle" transform="translate(197.3684210526316,15)" font-family="sans-serif" font-size="10px" fill="#000" opacity="0">250,000,000</text><text text-anchor="middle" transform="translate(205.26315789473685,15)" font-family="sans-serif" font-size="10px" fill="#000" opacity="0">260,000,000</text><text text-anchor="middle" transform="translate(213.1578947368421,15)" font-family="sans-serif" font-size="10px" fill="#000" opacity="0">270,000,000</text><text text-anchor="middle" transform="translate(221.05263157894737,15)" font-family="sans-serif" font-size="10px" fill="#000" opacity="0">280,000,000</text><text text-anchor="middle" transform="translate(228.94736842105263,15)" font-family="sans-serif" font-size="10px" fill="#000" opacity="0">290,000,000</text><text text-anchor="middle" transform="translate(236.8421052631579,15)" font-family="sans-serif" font-size="10px" fill="#000" opacity="0">300,000,000</text><text text-anchor="middle" transform="translate(244.73684210526315,15)" font-family="sans-serif" font-size="10px" fill="#000" opacity="0">310,000,000</text><text text-anchor="middle" transform="translate(252.6315789473684,15)" font-family="sans-serif" font-size="10px" fill="#000" opacity="1">320,000,000</text><text text-anchor="middle" transform="translate(260.5263157894737,15)" font-family="sans-serif" font-size="10px" fill="#000" opacity="0">330,000,000</text><text text-anchor="middle" transform="translate(268.42105263157896,15)" font-family="sans-serif" font-size="10px" fill="#000" opacity="0">340,000,000</text><text text-anchor="middle" transform="translate(276.3157894736842,15)" font-family="sans-serif" font-size="10px" fill="#000" opacity="0">350,000,000</text><text text-anchor="middle" transform="translate(284.2105263157895,15)" font-family="sans-serif" font-size="10px" fill="#000" opacity="0">360,000,000</text><text text-anchor="middle" transform="translate(292.10526315789474,15)" font-family="sans-serif" font-size="10px" fill="#000" opacity="0">370,000,000</text><text text-anchor="end" transform="translate(300,15)" font-family="sans-serif" font-size="10px" fill="#000" opacity="0">380,000,000</text></g><g class="mark-rule role-axis-domain" pointer-events="none"><line transform="translate(0,0)" x2="300" y2="0" stroke="#888" stroke-width="1" opacity="1"/></g><g class="mark-text role-axis-title" pointer-events="none"><text text-anchor="middle" transform="translate(150,30)" font-family="sans-serif" font-size="11px" font-weight="bold" fill="#000" opacity="1">budget (binned)</text></g></g><path class="foreground" aria-hidden="true" d="" pointer-events="none" display="none"/></g></g><g class="mark-group role-axis" role="graphics-symbol" aria-roledescription="axis" aria-label="Y-axis titled 'Count of Records' for a linear scale with values from 0 to 80"><g transform="translate(0.5,0.5)"><path class="background" aria-hidden="true" d="M0,0h0v0h0Z" pointer-events="none"/><g><g class="mark-rule role-axis-tick" pointer-events="none"><line transform="translate(0,200)" x2="-5" y2="0" stroke="#888" stroke-width="1" opacity="1"/><line transform="translate(0,150)" x2="-5" y2="0" stroke="#888" stroke-width="1" opacity="1"/><line transform="translate(0,100)" x2="-5" y2="0" stroke="#888" stroke-width="1" opacity="1"/><line transform="translate(0,50)" x2="-5" y2="0" stroke="#888" stroke-width="1" opacity="1"/><line transform="translate(0,0)" x2="-5" y2="0" stroke="#888" stroke-width="1" opacity="1"/></g><g class="mark-text role-axis-label" pointer-events="none"><text text-anchor="end" transform="translate(-7,203)" font-family="sans-serif" font-size="10px" fill="#000" opacity="1">0</text><text text-anchor="end" transform="translate(-7,153)" font-family="sans-serif" font-size="10px" fill="#000" opacity="1">20</text><text text-anchor="end" transform="translate(-7,103)" font-family="sans-serif" font-size="10px" fill="#000" opacity="1">40</text><text text-anchor="end" transform="translate(-7,53)" font-family="sans-serif" font-size="10px" fill="#000" opacity="1">60</text><text text-anchor="end" transform="translate(-7,3)" font-family="sans-serif" font-size="10px" fill="#000" opacity="1">80</text></g><g class="mark-rule role-axis-domain" pointer-events="none"><line transform="translate(0,200)" x2="0" y2="-200" stroke="#888" stroke-width="1" opacity="1"/></g><g class="mark-text role-axis-title" pointer-events="none"><text text-anchor="middle" transform="translate(-22.123046875,100) rotate(-90) translate(0,-2)" font-family="sans-serif" font-size="11px" font-weight="bold" fill="#000" opacity="1">Count of Records</text></g></g><path class="foreground" aria-hidden="true" d="" pointer-events="none" display="none"/></g></g><g class="mark-rect role-mark child__budget_marks" role="graphics-symbol" aria-roledescription="rect mark container"><path d="M72.05263157894737,137.5h6.89473684210526v62.5h-6.89473684210526Z" fill="#4c78a8"/><path d="M111.52631578947368,160h6.89473684210526v40h-6.89473684210526Z" fill="#4c78a8"/><path d="M56.26315789473684,85.00000000000001h6.89473684210526v114.99999999999999h-6.89473684210526Z" fill="#4c78a8"/><path d="M158.89473684210526,175h6.894736842105289v25h-6.894736842105289Z" fill="#4c78a8"/><path d="M16.789473684210527,19.999999999999996h6.89473684210526v180h-6.89473684210526Z" fill="#4c78a8"/><path d="M119.42105263157895,127.49999999999999h6.89473684210526v72.50000000000001h-6.89473684210526Z" fill="#4c78a8"/><path d="M1,47.50000000000001h6.894736842105263v152.5h-6.894736842105263Z" fill="#4c78a8"/><path d="M8.894736842105264,25h6.894736842105262v175h-6.894736842105262Z" fill="#4c78a8"/><path d="M24.684210526315788,27.499999999999993h6.894736842105264v172.5h-6.894736842105264Z" fill="#4c78a8"/><path d="M237.8421052631579,197.5h6.89473684210526v2.5h-6.89473684210526Z" fill="#4c78a8"/><path d="M64.15789473684211,92.5h6.89473684210526v107.5h-6.89473684210526Z" fill="#4c78a8"/><path d="M143.10526315789474,182.5h6.89473684210526v17.5h-6.89473684210526Z" fill="#4c78a8"/><path d="M79.94736842105263,145h6.894736842105274v55h-6.894736842105274Z" fill="#4c78a8"/><path d="M95.73684210526315,157.5h6.894736842105274v42.5h-6.894736842105274Z" fill="#4c78a8"/><path d="M40.473684210526315,87.5h6.89473684210526v112.5h-6.89473684210526Z" fill="#4c78a8"/><path d="M32.578947368421055,110.00000000000001h6.89473684210526v89.99999999999999h-6.89473684210526Z" fill="#4c78a8"/><path d="M48.368421052631575,95h6.894736842105267v105h-6.894736842105267Z" fill="#4c78a8"/><path d="M103.63157894736842,157.5h6.89473684210526v42.5h-6.89473684210526Z" fill="#4c78a8"/><path d="M198.3684210526316,180h6.89473684210526v20h-6.89473684210526Z" fill="#4c78a8"/><path d="M87.8421052631579,175h6.894736842105246v25h-6.894736842105246Z" fill="#4c78a8"/><path d="M127.3157894736842,175h6.894736842105274v25h-6.894736842105274Z" fill="#4c78a8"/><path d="M214.1578947368421,197.5h6.89473684210526v2.5h-6.89473684210526Z" fill="#4c78a8"/><path d="M293.10526315789474,197.5h6.89473684210526v2.5h-6.89473684210526Z" fill="#4c78a8"/><path d="M166.78947368421055,197.5h6.89473684210526v2.5h-6.89473684210526Z" fill="#4c78a8"/><path d="M174.6842105263158,195h6.894736842105232v5h-6.894736842105232Z" fill="#4c78a8"/><path d="M135.21052631578948,165h6.89473684210526v35h-6.89473684210526Z" fill="#4c78a8"/><path d="M182.57894736842104,195h6.89473684210526v5h-6.89473684210526Z" fill="#4c78a8"/><path d="M206.26315789473685,197.5h6.89473684210526v2.5h-6.89473684210526Z" fill="#4c78a8"/><path d="M151,197.5h6.89473684210526v2.5h-6.89473684210526Z" fill="#4c78a8"/><path d="M190.4736842105263,197.5h6.894736842105289v2.5h-6.894736842105289Z" fill="#4c78a8"/></g></g><path class="foreground" aria-hidden="true" d="" display="none"/></g></g></g><path class="foreground" aria-hidden="true" d="" display="none"/></g></g></g></svg>