<?xml version="1.0" encoding="utf-8" standalone="no"?>
<!DOCTYPE svg PUBLIC "-//W3C//DTD SVG 1.1//EN"
  "http://www.w3.org/Graphics/SVG/1.1/DTD/svg11.dtd">
<svg xmlns:xlink="http://www.w3.org/1999/xlink" width="404.923125pt" height="314.635176pt" viewBox="0 0 404.923125 314.635176" xmlns="http://www.w3.org/2000/svg" version="1.1">
 <metadata>
  <rdf:RDF xmlns:dc="http://purl.org/dc/elements/1.1/" xmlns:cc="http://creativecommons.org/ns#" xmlns:rdf="http://www.w3.org/1999/02/22-rdf-syntax-ns#">
   <cc:Work>
    <dc:type rdf:resource="http://purl.org/dc/dcmitype/StillImage"/>
    <dc:date>2025-10-05T13:53:57.677904</dc:date>
    <dc:format>image/svg+xml</dc:format>
    <dc:creator>
     <cc:Agent>
      <dc:title>Matplotlib v3.10.5, https://matplotlib.org/</dc:title>
     </cc:Agent>
    </dc:creator>
   </cc:Work>
  </rdf:RDF>
 </metadata>
 <defs>
  <style type="text/css">*{stroke-linejoin: round; stroke-linecap: butt}</style>
 </defs>
 <g id="figure_1">
  <g id="patch_1">
   <path d="M 0 314.635176 
L 404.923125 314.635176 
L 404.923125 0 
L 0 0 
z
" style="fill: #ffffff"/>
  </g>
  <g id="axes_1">
   <g id="patch_2">
    <path d="M 40.603125 277.078926 
L 397.723125 277.078926 
L 397.723125 10.966926 
L 40.603125 10.966926 
z
" style="fill: #ffffff"/>
   </g>
   <g id="matplotlib.axis_1">
    <g id="xtick_1">
     <g id="line2d_1">
      <defs>
       <path id="m40eddb5091" d="M 0 0 
L 0 3.5 
" style="stroke: #000000; stroke-width: 0.8"/>
      </defs>
      <g>
       <use xlink:href="#m40eddb5091" x="56.835852" y="277.078926" style="stroke: #000000; stroke-width: 0.8"/>
      </g>
     </g>
     <g id="text_1">
      <!-- 0 -->
      <g transform="translate(53.654602 291.677363) scale(0.1 -0.1)">
       <defs>
        <path id="DejaVuSans-30" d="M 2034 4250 
Q 1547 4250 1301 3770 
Q 1056 3291 1056 2328 
Q 1056 1369 1301 889 
Q 1547 409 2034 409 
Q 2525 409 2770 889 
Q 3016 1369 3016 2328 
Q 3016 3291 2770 3770 
Q 2525 4250 2034 4250 
z
M 2034 4750 
Q 2819 4750 3233 4129 
Q 3647 3509 3647 2328 
Q 3647 1150 3233 529 
Q 2819 -91 2034 -91 
Q 1250 -91 836 529 
Q 422 1150 422 2328 
Q 422 3509 836 4129 
Q 1250 4750 2034 4750 
z
" transform="scale(0.015625)"/>
       </defs>
       <use xlink:href="#DejaVuSans-30"/>
      </g>
     </g>
    </g>
    <g id="xtick_2">
     <g id="line2d_2">
      <g>
       <use xlink:href="#m40eddb5091" x="129.79193" y="277.078926" style="stroke: #000000; stroke-width: 0.8"/>
      </g>
     </g>
     <g id="text_2">
      <!-- 20 -->
      <g transform="translate(123.42943 291.677363) scale(0.1 -0.1)">
       <defs>
        <path id="DejaVuSans-32" d="M 1228 531 
L 3431 531 
L 3431 0 
L 469 0 
L 469 531 
Q 828 903 1448 1529 
Q 2069 2156 2228 2338 
Q 2531 2678 2651 2914 
Q 2772 3150 2772 3378 
Q 2772 3750 2511 3984 
Q 2250 4219 1831 4219 
Q 1534 4219 1204 4116 
Q 875 4013 500 3803 
L 500 4441 
Q 881 4594 1212 4672 
Q 1544 4750 1819 4750 
Q 2544 4750 2975 4387 
Q 3406 4025 3406 3419 
Q 3406 3131 3298 2873 
Q 3191 2616 2906 2266 
Q 2828 2175 2409 1742 
Q 1991 1309 1228 531 
z
" transform="scale(0.015625)"/>
       </defs>
       <use xlink:href="#DejaVuSans-32"/>
       <use xlink:href="#DejaVuSans-30" transform="translate(63.623047 0)"/>
      </g>
     </g>
    </g>
    <g id="xtick_3">
     <g id="line2d_3">
      <g>
       <use xlink:href="#m40eddb5091" x="202.748008" y="277.078926" style="stroke: #000000; stroke-width: 0.8"/>
      </g>
     </g>
     <g id="text_3">
      <!-- 40 -->
      <g transform="translate(196.385508 291.677363) scale(0.1 -0.1)">
       <defs>
        <path id="DejaVuSans-34" d="M 2419 4116 
L 825 1625 
L 2419 1625 
L 2419 4116 
z
M 2253 4666 
L 3047 4666 
L 3047 1625 
L 3713 1625 
L 3713 1100 
L 3047 1100 
L 3047 0 
L 2419 0 
L 2419 1100 
L 313 1100 
L 313 1709 
L 2253 4666 
z
" transform="scale(0.015625)"/>
       </defs>
       <use xlink:href="#DejaVuSans-34"/>
       <use xlink:href="#DejaVuSans-30" transform="translate(63.623047 0)"/>
      </g>
     </g>
    </g>
    <g id="xtick_4">
     <g id="line2d_4">
      <g>
       <use xlink:href="#m40eddb5091" x="275.704085" y="277.078926" style="stroke: #000000; stroke-width: 0.8"/>
      </g>
     </g>
     <g id="text_4">
      <!-- 60 -->
      <g transform="translate(269.341585 291.677363) scale(0.1 -0.1)">
       <defs>
        <path id="DejaVuSans-36" d="M 2113 2584 
Q 1688 2584 1439 2293 
Q 1191 2003 1191 1497 
Q 1191 994 1439 701 
Q 1688 409 2113 409 
Q 2538 409 2786 701 
Q 3034 994 3034 1497 
Q 3034 2003 2786 2293 
Q 2538 2584 2113 2584 
z
M 3366 4563 
L 3366 3988 
Q 3128 4100 2886 4159 
Q 2644 4219 2406 4219 
Q 1781 4219 1451 3797 
Q 1122 3375 1075 2522 
Q 1259 2794 1537 2939 
Q 1816 3084 2150 3084 
Q 2853 3084 3261 2657 
Q 3669 2231 3669 1497 
Q 3669 778 3244 343 
Q 2819 -91 2113 -91 
Q 1303 -91 875 529 
Q 447 1150 447 2328 
Q 447 3434 972 4092 
Q 1497 4750 2381 4750 
Q 2619 4750 2861 4703 
Q 3103 4656 3366 4563 
z
" transform="scale(0.015625)"/>
       </defs>
       <use xlink:href="#DejaVuSans-36"/>
       <use xlink:href="#DejaVuSans-30" transform="translate(63.623047 0)"/>
      </g>
     </g>
    </g>
    <g id="xtick_5">
     <g id="line2d_5">
      <g>
       <use xlink:href="#m40eddb5091" x="348.660163" y="277.078926" style="stroke: #000000; stroke-width: 0.8"/>
      </g>
     </g>
     <g id="text_5">
      <!-- 80 -->
      <g transform="translate(342.297663 291.677363) scale(0.1 -0.1)">
       <defs>
        <path id="DejaVuSans-38" d="M 2034 2216 
Q 1584 2216 1326 1975 
Q 1069 1734 1069 1313 
Q 1069 891 1326 650 
Q 1584 409 2034 409 
Q 2484 409 2743 651 
Q 3003 894 3003 1313 
Q 3003 1734 2745 1975 
Q 2488 2216 2034 2216 
z
M 1403 2484 
Q 997 2584 770 2862 
Q 544 3141 544 3541 
Q 544 4100 942 4425 
Q 1341 4750 2034 4750 
Q 2731 4750 3128 4425 
Q 3525 4100 3525 3541 
Q 3525 3141 3298 2862 
Q 3072 2584 2669 2484 
Q 3125 2378 3379 2068 
Q 3634 1759 3634 1313 
Q 3634 634 3220 271 
Q 2806 -91 2034 -91 
Q 1263 -91 848 271 
Q 434 634 434 1313 
Q 434 1759 690 2068 
Q 947 2378 1403 2484 
z
M 1172 3481 
Q 1172 3119 1398 2916 
Q 1625 2713 2034 2713 
Q 2441 2713 2670 2916 
Q 2900 3119 2900 3481 
Q 2900 3844 2670 4047 
Q 2441 4250 2034 4250 
Q 1625 4250 1398 4047 
Q 1172 3844 1172 3481 
z
" transform="scale(0.015625)"/>
       </defs>
       <use xlink:href="#DejaVuSans-38"/>
       <use xlink:href="#DejaVuSans-30" transform="translate(63.623047 0)"/>
      </g>
     </g>
    </g>
    <g id="text_6">
     <!-- n -->
     <g transform="translate(215.994375 305.355488) scale(0.1 -0.1)">
      <defs>
       <path id="DejaVuSans-6e" d="M 3513 2113 
L 3513 0 
L 2938 0 
L 2938 2094 
Q 2938 2591 2744 2837 
Q 2550 3084 2163 3084 
Q 1697 3084 1428 2787 
Q 1159 2491 1159 1978 
L 1159 0 
L 581 0 
L 581 3500 
L 1159 3500 
L 1159 2956 
Q 1366 3272 1645 3428 
Q 1925 3584 2291 3584 
Q 2894 3584 3203 3211 
Q 3513 2838 3513 2113 
z
" transform="scale(0.015625)"/>
      </defs>
      <use xlink:href="#DejaVuSans-6e"/>
     </g>
    </g>
   </g>
   <g id="matplotlib.axis_2">
    <g id="ytick_1">
     <g id="line2d_6">
      <defs>
       <path id="m89e892665c" d="M 0 0 
L -3.5 0 
" style="stroke: #000000; stroke-width: 0.8"/>
      </defs>
      <g>
       <use xlink:href="#m89e892665c" x="40.603125" y="250.042707" style="stroke: #000000; stroke-width: 0.8"/>
      </g>
     </g>
     <g id="text_7">
      <!-- 2 -->
      <g transform="translate(27.240625 253.841926) scale(0.1 -0.1)">
       <use xlink:href="#DejaVuSans-32"/>
      </g>
     </g>
    </g>
    <g id="ytick_2">
     <g id="line2d_7">
      <g>
       <use xlink:href="#m89e892665c" x="40.603125" y="220.162271" style="stroke: #000000; stroke-width: 0.8"/>
      </g>
     </g>
     <g id="text_8">
      <!-- 4 -->
      <g transform="translate(27.240625 223.96149) scale(0.1 -0.1)">
       <use xlink:href="#DejaVuSans-34"/>
      </g>
     </g>
    </g>
    <g id="ytick_3">
     <g id="line2d_8">
      <g>
       <use xlink:href="#m89e892665c" x="40.603125" y="190.281835" style="stroke: #000000; stroke-width: 0.8"/>
      </g>
     </g>
     <g id="text_9">
      <!-- 6 -->
      <g transform="translate(27.240625 194.081054) scale(0.1 -0.1)">
       <use xlink:href="#DejaVuSans-36"/>
      </g>
     </g>
    </g>
    <g id="ytick_4">
     <g id="line2d_9">
      <g>
       <use xlink:href="#m89e892665c" x="40.603125" y="160.401399" style="stroke: #000000; stroke-width: 0.8"/>
      </g>
     </g>
     <g id="text_10">
      <!-- 8 -->
      <g transform="translate(27.240625 164.200618) scale(0.1 -0.1)">
       <use xlink:href="#DejaVuSans-38"/>
      </g>
     </g>
    </g>
    <g id="ytick_5">
     <g id="line2d_10">
      <g>
       <use xlink:href="#m89e892665c" x="40.603125" y="130.520963" style="stroke: #000000; stroke-width: 0.8"/>
      </g>
     </g>
     <g id="text_11">
      <!-- 10 -->
      <g transform="translate(20.878125 134.320182) scale(0.1 -0.1)">
       <defs>
        <path id="DejaVuSans-31" d="M 794 531 
L 1825 531 
L 1825 4091 
L 703 3866 
L 703 4441 
L 1819 4666 
L 2450 4666 
L 2450 531 
L 3481 531 
L 3481 0 
L 794 0 
L 794 531 
z
" transform="scale(0.015625)"/>
       </defs>
       <use xlink:href="#DejaVuSans-31"/>
       <use xlink:href="#DejaVuSans-30" transform="translate(63.623047 0)"/>
      </g>
     </g>
    </g>
    <g id="ytick_6">
     <g id="line2d_11">
      <g>
       <use xlink:href="#m89e892665c" x="40.603125" y="100.640527" style="stroke: #000000; stroke-width: 0.8"/>
      </g>
     </g>
     <g id="text_12">
      <!-- 12 -->
      <g transform="translate(20.878125 104.439746) scale(0.1 -0.1)">
       <use xlink:href="#DejaVuSans-31"/>
       <use xlink:href="#DejaVuSans-32" transform="translate(63.623047 0)"/>
      </g>
     </g>
    </g>
    <g id="ytick_7">
     <g id="line2d_12">
      <g>
       <use xlink:href="#m89e892665c" x="40.603125" y="70.760091" style="stroke: #000000; stroke-width: 0.8"/>
      </g>
     </g>
     <g id="text_13">
      <!-- 14 -->
      <g transform="translate(20.878125 74.55931) scale(0.1 -0.1)">
       <use xlink:href="#DejaVuSans-31"/>
       <use xlink:href="#DejaVuSans-34" transform="translate(63.623047 0)"/>
      </g>
     </g>
    </g>
    <g id="ytick_8">
     <g id="line2d_13">
      <g>
       <use xlink:href="#m89e892665c" x="40.603125" y="40.879655" style="stroke: #000000; stroke-width: 0.8"/>
      </g>
     </g>
     <g id="text_14">
      <!-- 16 -->
      <g transform="translate(20.878125 44.678874) scale(0.1 -0.1)">
       <use xlink:href="#DejaVuSans-31"/>
       <use xlink:href="#DejaVuSans-36" transform="translate(63.623047 0)"/>
      </g>
     </g>
    </g>
    <g id="ytick_9">
     <g id="line2d_14">
      <g>
       <use xlink:href="#m89e892665c" x="40.603125" y="10.999219" style="stroke: #000000; stroke-width: 0.8"/>
      </g>
     </g>
     <g id="text_15">
      <!-- 18 -->
      <g transform="translate(20.878125 14.798438) scale(0.1 -0.1)">
       <use xlink:href="#DejaVuSans-31"/>
       <use xlink:href="#DejaVuSans-38" transform="translate(63.623047 0)"/>
      </g>
     </g>
    </g>
    <g id="text_16">
     <!-- f(n) -->
     <g transform="translate(14.798438 152.853394) rotate(-90) scale(0.1 -0.1)">
      <defs>
       <path id="DejaVuSans-66" d="M 2375 4863 
L 2375 4384 
L 1825 4384 
Q 1516 4384 1395 4259 
Q 1275 4134 1275 3809 
L 1275 3500 
L 2222 3500 
L 2222 3053 
L 1275 3053 
L 1275 0 
L 697 0 
L 697 3053 
L 147 3053 
L 147 3500 
L 697 3500 
L 697 3744 
Q 697 4328 969 4595 
Q 1241 4863 1831 4863 
L 2375 4863 
z
" transform="scale(0.015625)"/>
       <path id="DejaVuSans-28" d="M 1984 4856 
Q 1566 4138 1362 3434 
Q 1159 2731 1159 2009 
Q 1159 1288 1364 580 
Q 1569 -128 1984 -844 
L 1484 -844 
Q 1016 -109 783 600 
Q 550 1309 550 2009 
Q 550 2706 781 3412 
Q 1013 4119 1484 4856 
L 1984 4856 
z
" transform="scale(0.015625)"/>
       <path id="DejaVuSans-29" d="M 513 4856 
L 1013 4856 
Q 1481 4119 1714 3412 
Q 1947 2706 1947 2009 
Q 1947 1309 1714 600 
Q 1481 -109 1013 -844 
L 513 -844 
Q 928 -128 1133 580 
Q 1338 1288 1338 2009 
Q 1338 2731 1133 3434 
Q 928 4138 513 4856 
z
" transform="scale(0.015625)"/>
      </defs>
      <use xlink:href="#DejaVuSans-66"/>
      <use xlink:href="#DejaVuSans-28" transform="translate(35.205078 0)"/>
      <use xlink:href="#DejaVuSans-6e" transform="translate(74.21875 0)"/>
      <use xlink:href="#DejaVuSans-29" transform="translate(137.597656 0)"/>
     </g>
    </g>
   </g>
   <g id="line2d_15">
    <path d="M 56.835852 264.982926 
L 60.483656 263.488904 
L 64.13146 261.994882 
L 67.779264 260.50086 
L 71.427068 259.006838 
L 75.074872 257.512817 
L 78.722676 256.018795 
L 82.370479 254.524773 
L 86.018283 253.030751 
L 89.666087 251.536729 
L 93.313891 250.042707 
L 96.961695 248.548686 
L 100.609499 247.054664 
L 104.257303 245.560642 
L 107.905107 244.06662 
L 111.55291 242.572598 
L 115.200714 241.078577 
L 118.848518 239.584555 
L 122.496322 238.090533 
L 126.144126 236.596511 
L 129.79193 235.102489 
L 133.439734 233.608468 
L 137.087538 232.114446 
L 140.735342 230.620424 
L 144.383145 229.126402 
L 148.030949 227.63238 
L 151.678753 226.138359 
L 155.326557 224.644337 
L 158.974361 223.150315 
L 162.622165 221.656293 
L 166.269969 220.162271 
L 169.917773 218.66825 
L 173.565576 217.174228 
L 177.21338 215.680206 
L 180.861184 214.186184 
L 184.508988 212.692162 
L 188.156792 211.198141 
L 191.804596 209.704119 
L 195.4524 208.210097 
L 199.100204 206.716075 
L 202.748008 205.222053 
L 206.395811 203.728032 
L 210.043615 202.23401 
L 213.691419 200.739988 
L 217.339223 199.245966 
L 220.987027 197.751944 
L 224.634831 196.257923 
L 228.282635 194.763901 
L 231.930439 193.269879 
L 235.578242 191.775857 
L 239.226046 190.281835 
L 242.87385 188.787814 
L 246.521654 187.293792 
L 250.169458 185.79977 
L 253.817262 184.305748 
L 257.465066 182.811726 
L 261.11287 181.317704 
L 264.760674 179.823683 
L 268.408477 178.329661 
L 272.056281 176.835639 
L 275.704085 175.341617 
L 279.351889 173.847595 
L 282.999693 172.353574 
L 286.647497 170.859552 
L 290.295301 169.36553 
L 293.943105 167.871508 
L 297.590908 166.377486 
L 301.238712 164.883465 
L 304.886516 163.389443 
L 308.53432 161.895421 
L 312.182124 160.401399 
L 315.829928 158.907377 
L 319.477732 157.413356 
L 323.125536 155.919334 
L 326.77334 154.425312 
L 330.421143 152.93129 
L 334.068947 151.437268 
L 337.716751 149.943247 
L 341.364555 148.449225 
L 345.012359 146.955203 
L 348.660163 145.461181 
L 352.307967 143.967159 
L 355.955771 142.473138 
L 359.603574 140.979116 
L 363.251378 139.485094 
L 366.899182 137.991072 
L 370.546986 136.49705 
L 374.19479 135.003029 
L 377.842594 133.509007 
L 381.490398 132.014985 
" clip-path="url(#paf7316beea)" style="fill: none; stroke: #1f77b4; stroke-width: 1.5; stroke-linecap: square"/>
   </g>
   <g id="line2d_16">
    <path d="M 56.835852 190.281835 
L 60.483656 187.363859 
L 64.13146 184.569868 
L 67.779264 181.879991 
L 71.427068 179.27878 
L 75.074872 176.753989 
L 78.722676 174.295748 
L 82.370479 171.895981 
L 86.018283 169.548 
L 89.666087 167.246202 
L 93.313891 164.985847 
L 96.961695 162.76289 
L 100.609499 160.573849 
L 104.257303 158.415708 
L 107.905107 156.285836 
L 111.55291 154.181925 
L 115.200714 152.101937 
L 118.848518 150.044067 
L 122.496322 148.006704 
L 126.144126 145.98841 
L 129.79193 143.987892 
L 133.439734 142.003983 
L 137.087538 140.035629 
L 140.735342 138.081872 
L 144.383145 136.14184 
L 148.030949 134.214738 
L 151.678753 132.299837 
L 155.326557 130.396469 
L 158.974361 128.504018 
L 162.622165 126.621917 
L 166.269969 124.749641 
L 169.917773 122.886706 
L 173.565576 121.032662 
L 177.21338 119.187089 
L 180.861184 117.349599 
L 184.508988 115.519828 
L 188.156792 113.697436 
L 191.804596 111.882107 
L 195.4524 110.073543 
L 199.100204 108.271464 
L 202.748008 106.47561 
L 206.395811 104.685732 
L 210.043615 102.9016 
L 213.691419 101.122994 
L 217.339223 99.349708 
L 220.987027 97.581546 
L 224.634831 95.818324 
L 228.282635 94.059866 
L 231.930439 92.306008 
L 235.578242 90.556592 
L 239.226046 88.811468 
L 242.87385 87.070495 
L 246.521654 85.333537 
L 250.169458 83.600467 
L 253.817262 81.871161 
L 257.465066 80.145503 
L 261.11287 78.423382 
L 264.760674 76.704691 
L 268.408477 74.989329 
L 272.056281 73.277198 
L 275.704085 71.568205 
L 279.351889 69.862262 
L 282.999693 68.159282 
L 286.647497 66.459185 
L 290.295301 64.761892 
L 293.943105 63.067328 
L 297.590908 61.375419 
L 301.238712 59.686098 
L 304.886516 57.999296 
L 308.53432 56.31495 
L 312.182124 54.632999 
L 315.829928 52.953382 
L 319.477732 51.276042 
L 323.125536 49.600925 
L 326.77334 47.927976 
L 330.421143 46.257145 
L 334.068947 44.588382 
L 337.716751 42.921639 
L 341.364555 41.25687 
L 345.012359 39.59403 
L 348.660163 37.933077 
L 352.307967 36.273968 
L 355.955771 34.616663 
L 359.603574 32.961124 
L 363.251378 31.307312 
L 366.899182 29.655192 
L 370.546986 28.004726 
L 374.19479 26.355882 
L 377.842594 24.708626 
L 381.490398 23.062926 
" clip-path="url(#paf7316beea)" style="fill: none; stroke: #ff7f0e; stroke-width: 1.5; stroke-linecap: square"/>
   </g>
   <g id="patch_3">
    <path d="M 40.603125 277.078926 
L 40.603125 10.966926 
" style="fill: none; stroke: #000000; stroke-width: 0.8; stroke-linejoin: miter; stroke-linecap: square"/>
   </g>
   <g id="patch_4">
    <path d="M 397.723125 277.078926 
L 397.723125 10.966926 
" style="fill: none; stroke: #000000; stroke-width: 0.8; stroke-linejoin: miter; stroke-linecap: square"/>
   </g>
   <g id="patch_5">
    <path d="M 40.603125 277.078926 
L 397.723125 277.078926 
" style="fill: none; stroke: #000000; stroke-width: 0.8; stroke-linejoin: miter; stroke-linecap: square"/>
   </g>
   <g id="patch_6">
    <path d="M 40.603125 10.966926 
L 397.723125 10.966926 
" style="fill: none; stroke: #000000; stroke-width: 0.8; stroke-linejoin: miter; stroke-linecap: square"/>
   </g>
   <g id="legend_1">
    <g id="line2d_17">
     <path d="M 49.603125 24.065363 
L 59.603125 24.065363 
L 69.603125 24.065363 
" style="fill: none; stroke: #1f77b4; stroke-width: 1.5; stroke-linecap: square"/>
    </g>
    <g id="text_17">
     <!-- f(n) = n -->
     <g transform="translate(77.603125 27.565363) scale(0.1 -0.1)">
      <defs>
       <path id="DejaVuSans-20" transform="scale(0.015625)"/>
       <path id="DejaVuSans-3d" d="M 678 2906 
L 4684 2906 
L 4684 2381 
L 678 2381 
L 678 2906 
z
M 678 1631 
L 4684 1631 
L 4684 1100 
L 678 1100 
L 678 1631 
z
" transform="scale(0.015625)"/>
      </defs>
      <use xlink:href="#DejaVuSans-66"/>
      <use xlink:href="#DejaVuSans-28" transform="translate(35.205078 0)"/>
      <use xlink:href="#DejaVuSans-6e" transform="translate(74.21875 0)"/>
      <use xlink:href="#DejaVuSans-29" transform="translate(137.597656 0)"/>
      <use xlink:href="#DejaVuSans-20" transform="translate(176.611328 0)"/>
      <use xlink:href="#DejaVuSans-3d" transform="translate(208.398438 0)"/>
      <use xlink:href="#DejaVuSans-20" transform="translate(292.1875 0)"/>
      <use xlink:href="#DejaVuSans-6e" transform="translate(323.974609 0)"/>
     </g>
    </g>
    <g id="line2d_18">
     <path d="M 49.603125 38.743488 
L 59.603125 38.743488 
L 69.603125 38.743488 
" style="fill: none; stroke: #ff7f0e; stroke-width: 1.5; stroke-linecap: square"/>
    </g>
    <g id="text_18">
     <!-- f(n) = n + log(n) + 5 -->
     <g transform="translate(77.603125 42.243488) scale(0.1 -0.1)">
      <defs>
       <path id="DejaVuSans-2b" d="M 2944 4013 
L 2944 2272 
L 4684 2272 
L 4684 1741 
L 2944 1741 
L 2944 0 
L 2419 0 
L 2419 1741 
L 678 1741 
L 678 2272 
L 2419 2272 
L 2419 4013 
L 2944 4013 
z
" transform="scale(0.015625)"/>
       <path id="DejaVuSans-6c" d="M 603 4863 
L 1178 4863 
L 1178 0 
L 603 0 
L 603 4863 
z
" transform="scale(0.015625)"/>
       <path id="DejaVuSans-6f" d="M 1959 3097 
Q 1497 3097 1228 2736 
Q 959 2375 959 1747 
Q 959 1119 1226 758 
Q 1494 397 1959 397 
Q 2419 397 2687 759 
Q 2956 1122 2956 1747 
Q 2956 2369 2687 2733 
Q 2419 3097 1959 3097 
z
M 1959 3584 
Q 2709 3584 3137 3096 
Q 3566 2609 3566 1747 
Q 3566 888 3137 398 
Q 2709 -91 1959 -91 
Q 1206 -91 779 398 
Q 353 888 353 1747 
Q 353 2609 779 3096 
Q 1206 3584 1959 3584 
z
" transform="scale(0.015625)"/>
       <path id="DejaVuSans-67" d="M 2906 1791 
Q 2906 2416 2648 2759 
Q 2391 3103 1925 3103 
Q 1463 3103 1205 2759 
Q 947 2416 947 1791 
Q 947 1169 1205 825 
Q 1463 481 1925 481 
Q 2391 481 2648 825 
Q 2906 1169 2906 1791 
z
M 3481 434 
Q 3481 -459 3084 -895 
Q 2688 -1331 1869 -1331 
Q 1566 -1331 1297 -1286 
Q 1028 -1241 775 -1147 
L 775 -588 
Q 1028 -725 1275 -790 
Q 1522 -856 1778 -856 
Q 2344 -856 2625 -561 
Q 2906 -266 2906 331 
L 2906 616 
Q 2728 306 2450 153 
Q 2172 0 1784 0 
Q 1141 0 747 490 
Q 353 981 353 1791 
Q 353 2603 747 3093 
Q 1141 3584 1784 3584 
Q 2172 3584 2450 3431 
Q 2728 3278 2906 2969 
L 2906 3500 
L 3481 3500 
L 3481 434 
z
" transform="scale(0.015625)"/>
       <path id="DejaVuSans-35" d="M 691 4666 
L 3169 4666 
L 3169 4134 
L 1269 4134 
L 1269 2991 
Q 1406 3038 1543 3061 
Q 1681 3084 1819 3084 
Q 2600 3084 3056 2656 
Q 3513 2228 3513 1497 
Q 3513 744 3044 326 
Q 2575 -91 1722 -91 
Q 1428 -91 1123 -41 
Q 819 9 494 109 
L 494 744 
Q 775 591 1075 516 
Q 1375 441 1709 441 
Q 2250 441 2565 725 
Q 2881 1009 2881 1497 
Q 2881 1984 2565 2268 
Q 2250 2553 1709 2553 
Q 1456 2553 1204 2497 
Q 953 2441 691 2322 
L 691 4666 
z
" transform="scale(0.015625)"/>
      </defs>
      <use xlink:href="#DejaVuSans-66"/>
      <use xlink:href="#DejaVuSans-28" transform="translate(35.205078 0)"/>
      <use xlink:href="#DejaVuSans-6e" transform="translate(74.21875 0)"/>
      <use xlink:href="#DejaVuSans-29" transform="translate(137.597656 0)"/>
      <use xlink:href="#DejaVuSans-20" transform="translate(176.611328 0)"/>
      <use xlink:href="#DejaVuSans-3d" transform="translate(208.398438 0)"/>
      <use xlink:href="#DejaVuSans-20" transform="translate(292.1875 0)"/>
      <use xlink:href="#DejaVuSans-6e" transform="translate(323.974609 0)"/>
      <use xlink:href="#DejaVuSans-20" transform="translate(387.353516 0)"/>
      <use xlink:href="#DejaVuSans-2b" transform="translate(419.140625 0)"/>
      <use xlink:href="#DejaVuSans-20" transform="translate(502.929688 0)"/>
      <use xlink:href="#DejaVuSans-6c" transform="translate(534.716797 0)"/>
      <use xlink:href="#DejaVuSans-6f" transform="translate(562.5 0)"/>
      <use xlink:href="#DejaVuSans-67" transform="translate(623.681641 0)"/>
      <use xlink:href="#DejaVuSans-28" transform="translate(687.158203 0)"/>
      <use xlink:href="#DejaVuSans-6e" transform="translate(726.171875 0)"/>
      <use xlink:href="#DejaVuSans-29" transform="translate(789.550781 0)"/>
      <use xlink:href="#DejaVuSans-20" transform="translate(828.564453 0)"/>
      <use xlink:href="#DejaVuSans-2b" transform="translate(860.351562 0)"/>
      <use xlink:href="#DejaVuSans-20" transform="translate(944.140625 0)"/>
      <use xlink:href="#DejaVuSans-35" transform="translate(975.927734 0)"/>
     </g>
    </g>
   </g>
  </g>
 </g>
 <defs>
  <clipPath id="paf7316beea">
   <rect x="40.603125" y="10.966926" width="357.12" height="266.112"/>
  </clipPath>
 </defs>
</svg>
