<svg xmlns="http://www.w3.org/2000/svg" xmlns:xlink="http://www.w3.org/1999/xlink" version="1.1" class="marks" width="416" height="347" viewBox="0 0 416 347"><rect width="416" height="347" fill="white"/><g fill="none" stroke-miterlimit="10" transform="translate(33,10)"><g class="mark-group role-frame root" role="graphics-object" aria-roledescription="group mark container"><g transform="translate(0,0)"><path class="background" aria-hidden="true" d="M0.5,0.5h300v300h-300Z" stroke="#ddd"/><g><g class="mark-group role-axis" aria-hidden="true"><g transform="translate(0.5,300.5)"><path class="background" aria-hidden="true" d="M0,0h0v0h0Z" pointer-events="none"/><g><g class="mark-rule role-axis-grid" pointer-events="none"><line transform="translate(0,-300)" x2="0" y2="300" stroke="#ddd" stroke-width="1" opacity="1"/><line transform="translate(28,-300)" x2="0" y2="300" stroke="#ddd" stroke-width="1" opacity="1"/><line transform="translate(55,-300)" x2="0" y2="300" stroke="#ddd" stroke-width="1" opacity="1"/><line transform="translate(83,-300)" x2="0" y2="300" stroke="#ddd" stroke-width="1" opacity="1"/><line transform="translate(110,-300)" x2="0" y2="300" stroke="#ddd" stroke-width="1" opacity="1"/><line transform="translate(138,-300)" x2="0" y2="300" stroke="#ddd" stroke-width="1" opacity="1"/><line transform="translate(165,-300)" x2="0" y2="300" stroke="#ddd" stroke-width="1" opacity="1"/><line transform="translate(193,-300)" x2="0" y2="300" stroke="#ddd" stroke-width="1" opacity="1"/><line transform="translate(220,-300)" x2="0" y2="300" stroke="#ddd" stroke-width="1" opacity="1"/><line transform="translate(248,-300)" x2="0" y2="300" stroke="#ddd" stroke-width="1" opacity="1"/><line transform="translate(275,-300)" x2="0" y2="300" stroke="#ddd" stroke-width="1" opacity="1"/></g></g><path class="foreground" aria-hidden="true" d="" pointer-events="none" display="none"/></g></g><g class="mark-group role-axis" aria-hidden="true"><g transform="translate(0.5,0.5)"><path class="background" aria-hidden="true" d="M0,0h0v0h0Z" pointer-events="none"/><g><g class="mark-rule role-axis-grid" pointer-events="none"><line transform="translate(0,300)" x2="300" y2="0" stroke="#ddd" stroke-width="1" opacity="1"/><line transform="translate(0,257)" x2="300" y2="0" stroke="#ddd" stroke-width="1" opacity="1"/><line transform="translate(0,214)" x2="300" y2="0" stroke="#ddd" stroke-width="1" opacity="1"/><line transform="translate(0,171)" x2="300" y2="0" stroke="#ddd" stroke-width="1" opacity="1"/><line transform="translate(0,129)" x2="300" y2="0" stroke="#ddd" stroke-width="1" opacity="1"/><line transform="translate(0,86)" x2="300" y2="0" stroke="#ddd" stroke-width="1" opacity="1"/><line transform="translate(0,43)" x2="300" y2="0" stroke="#ddd" stroke-width="1" opacity="1"/><line transform="translate(0,0)" x2="300" y2="0" stroke="#ddd" stroke-width="1" opacity="1"/></g></g><path class="foreground" aria-hidden="true" d="" pointer-events="none" display="none"/></g></g><g class="mark-group role-axis" role="graphics-symbol" aria-roledescription="axis" aria-label="X-axis titled 'year' for a time scale with values from Wednesday, 01 January 1800, 12:00:00 AM to Monday, 01 January 2018, 12:00:00 AM"><g transform="translate(0.5,300.5)"><path class="background" aria-hidden="true" d="M0,0h0v0h0Z" pointer-events="none"/><g><g class="mark-rule role-axis-tick" pointer-events="none"><line transform="translate(0,0)" x2="0" y2="5" stroke="#888" stroke-width="1" opacity="1"/><line transform="translate(28,0)" x2="0" y2="5" stroke="#888" stroke-width="1" opacity="1"/><line transform="translate(55,0)" x2="0" y2="5" stroke="#888" stroke-width="1" opacity="1"/><line transform="translate(83,0)" x2="0" y2="5" stroke="#888" stroke-width="1" opacity="1"/><line transform="translate(110,0)" x2="0" y2="5" stroke="#888" stroke-width="1" opacity="1"/><line transform="translate(138,0)" x2="0" y2="5" stroke="#888" stroke-width="1" opacity="1"/><line transform="translate(165,0)" x2="0" y2="5" stroke="#888" stroke-width="1" opacity="1"/><line transform="translate(193,0)" x2="0" y2="5" stroke="#888" stroke-width="1" opacity="1"/><line transform="translate(220,0)" x2="0" y2="5" stroke="#888" stroke-width="1" opacity="1"/><line transform="translate(248,0)" x2="0" y2="5" stroke="#888" stroke-width="1" opacity="1"/><line transform="translate(275,0)" x2="0" y2="5" stroke="#888" stroke-width="1" opacity="1"/></g><g class="mark-text role-axis-label" pointer-events="none"><text text-anchor="start" transform="translate(0,15)" font-family="sans-serif" font-size="10px" fill="#000" opacity="1">1800</text><text text-anchor="middle" transform="translate(27.519689514953768,15)" font-family="sans-serif" font-size="10px" fill="#000" opacity="0">1820</text><text text-anchor="middle" transform="translate(55.043146785865225,15)" font-family="sans-serif" font-size="10px" fill="#000" opacity="1">1840</text><text text-anchor="middle" transform="translate(82.56660405677668,15)" font-family="sans-serif" font-size="10px" fill="#000" opacity="0">1860</text><text text-anchor="middle" transform="translate(110.09006132768815,15)" font-family="sans-serif" font-size="10px" fill="#000" opacity="1">1880</text><text text-anchor="middle" transform="translate(137.61348597960125,15)" font-family="sans-serif" font-size="10px" fill="#000" opacity="0">1900</text><text text-anchor="middle" transform="translate(165.13317549455502,15)" font-family="sans-serif" font-size="10px" fill="#000" opacity="1">1920</text><text text-anchor="middle" transform="translate(192.65663276546647,15)" font-family="sans-serif" font-size="10px" fill="#000" opacity="0">1940</text><text text-anchor="middle" transform="translate(220.18009003637792,15)" font-family="sans-serif" font-size="10px" fill="#000" opacity="1">1960</text><text text-anchor="middle" transform="translate(247.70354730728937,15)" font-family="sans-serif" font-size="10px" fill="#000" opacity="0">1980</text><text text-anchor="middle" transform="translate(275.2270045782009,15)" font-family="sans-serif" font-size="10px" fill="#000" opacity="1">2000</text></g><g class="mark-rule role-axis-domain" pointer-events="none"><line transform="translate(0,0)" x2="300" y2="0" stroke="#888" stroke-width="1" opacity="1"/></g><g class="mark-text role-axis-title" pointer-events="none"><text text-anchor="middle" transform="translate(150,30)" font-family="sans-serif" font-size="11px" font-weight="bold" fill="#000" opacity="1">year</text></g></g><path class="foreground" aria-hidden="true" d="" pointer-events="none" display="none"/></g></g><g class="mark-group role-axis" role="graphics-symbol" aria-roledescription="axis" aria-label="Y-axis titled 'Mean of children_per_woman' for a linear scale with values from 0 to 7"><g transform="translate(0.5,0.5)"><path class="background" aria-hidden="true" d="M0,0h0v0h0Z" pointer-events="none"/><g><g class="mark-rule role-axis-tick" pointer-events="none"><line transform="translate(0,300)" x2="-5" y2="0" stroke="#888" stroke-width="1" opacity="1"/><line transform="translate(0,257)" x2="-5" y2="0" stroke="#888" stroke-width="1" opacity="1"/><line transform="translate(0,214)" x2="-5" y2="0" stroke="#888" stroke-width="1" opacity="1"/><line transform="translate(0,171)" x2="-5" y2="0" stroke="#888" stroke-width="1" opacity="1"/><line transform="translate(0,129)" x2="-5" y2="0" stroke="#888" stroke-width="1" opacity="1"/><line transform="translate(0,86)" x2="-5" y2="0" stroke="#888" stroke-width="1" opacity="1"/><line transform="translate(0,43)" x2="-5" y2="0" stroke="#888" stroke-width="1" opacity="1"/><line transform="translate(0,0)" x2="-5" y2="0" stroke="#888" stroke-width="1" opacity="1"/></g><g class="mark-text role-axis-label" pointer-events="none"><text text-anchor="end" transform="translate(-7,303)" font-family="sans-serif" font-size="10px" fill="#000" opacity="1">0</text><text text-anchor="end" transform="translate(-7,260.14285714285717)" font-family="sans-serif" font-size="10px" fill="#000" opacity="1">1</text><text text-anchor="end" transform="translate(-7,217.28571428571428)" font-family="sans-serif" font-size="10px" fill="#000" opacity="1">2</text><text text-anchor="end" transform="translate(-7,174.42857142857142)" font-family="sans-serif" font-size="10px" fill="#000" opacity="1">3</text><text text-anchor="end" transform="translate(-7,131.57142857142858)" font-family="sans-serif" font-size="10px" fill="#000" opacity="1">4</text><text text-anchor="end" transform="translate(-7,88.71428571428571)" font-family="sans-serif" font-size="10px" fill="#000" opacity="1">5</text><text text-anchor="end" transform="translate(-7,45.85714285714287)" font-family="sans-serif" font-size="10px" fill="#000" opacity="1">6</text><text text-anchor="end" transform="translate(-7,3)" font-family="sans-serif" font-size="10px" fill="#000" opacity="1">7</text></g><g class="mark-rule role-axis-domain" pointer-events="none"><line transform="translate(0,300)" x2="0" y2="-300" stroke="#888" stroke-width="1" opacity="1"/></g><g class="mark-text role-axis-title" pointer-events="none"><text text-anchor="middle" transform="translate(-16.5615234375,150) rotate(-90) translate(0,-2)" font-family="sans-serif" font-size="11px" font-weight="bold" fill="#000" opacity="1">Mean of children_per_woman</text></g></g><path class="foreground" aria-hidden="true" d="" pointer-events="none" display="none"/></g></g><g class="mark-group role-scope pathgroup" role="graphics-object" aria-roledescription="group mark container"><g transform="translate(0,0)"><path class="background" aria-hidden="true" d="M0,0h300v300h-300Z"/><g><g class="mark-line role-mark marks" role="graphics-symbol" aria-roledescription="line mark container"><path d="M0,25.432L1.375,25.45L2.75,25.468L4.126,25.486L5.501,25.505L6.88,25.523L8.255,25.55L9.63,25.578L11.006,25.614L12.385,25.678L13.76,25.733L15.135,25.796L16.51,25.842L17.889,25.687L19.265,25.514L20.64,25.34L22.015,25.185L23.394,25.021L24.769,25.012L26.144,24.994L27.52,24.976L28.899,24.957L30.274,24.939L31.649,24.894L33.024,24.848L34.403,24.802L35.779,24.766L37.154,24.711L38.529,24.802L39.908,24.912L41.283,25.003L42.659,25.085L44.034,25.195L45.413,25.322L46.788,25.45L48.163,25.578L49.538,25.714L50.917,25.833L52.293,25.897L53.668,25.942L55.043,26.006L56.422,26.043L57.797,26.097L59.173,26.033L60.548,25.97L61.927,25.897L63.302,25.824L64.677,25.751L66.053,25.714L67.432,25.669L68.807,25.614L70.182,25.568L71.557,25.514L72.936,25.532L74.311,25.55L75.687,25.559L77.062,25.559L78.441,25.568L79.816,25.559L81.191,25.541L82.567,25.532L83.946,25.505L85.321,25.486L86.696,25.523L88.071,25.678L89.45,25.851L90.826,26.015L92.201,26.188L93.576,26.307L94.955,26.416L96.33,26.544L97.705,26.653L99.081,26.754L100.46,27L101.835,26.982L103.21,26.854L104.585,27L105.964,27.274L107.34,27.547L108.715,27.766L110.09,27.675L111.469,27.474L112.844,27.693L114.22,26.973L116.974,27.119L118.349,27.219L119.724,26.07L121.099,26.307L122.478,27.693L123.854,27.693L125.229,27.675L126.604,27.502L127.983,27.711L129.358,27.511L130.734,28.021L132.109,27.967L133.488,27.164L134.863,27.356L136.238,28.505L137.613,27.894L138.989,28.167L140.364,28.404L141.739,28.678L143.114,30.602L144.493,31.377L145.869,31.003L147.244,30.128L148.619,28.942L149.998,30.109L151.373,29.562L152.749,29.599L154.124,30.492L155.503,29.891L156.878,29.845L158.253,30.383L159.628,30.228L161.007,30.073L162.383,30.729L163.758,32.59L165.133,31.568L166.512,31.094L167.887,31.231L169.263,31.477L170.638,31.888L172.017,31.76L173.392,31.805L174.767,32.061L176.143,32.079L177.522,32.672L178.897,32.699L180.272,33.684L181.647,34.003L183.026,34.231L184.401,34.769L185.777,35.517L187.152,36.073L188.531,35.736L189.906,37.012L191.281,38.052L192.657,39.119L194.036,40.331L195.411,42.246L196.786,43.842L198.161,45.173L199.54,45.985L200.916,44.836L202.291,43.167L203.666,44.043L205.045,44.38L206.42,46.003L207.795,45.511L209.171,43.869L210.55,43.049L211.925,41.663L213.3,40.587L214.675,39.939L216.054,38.416L217.43,38.225L218.805,38.617L220.18,38.343L221.559,38.872L222.934,36.547L224.31,35.754L225.685,37.86L227.064,39.246L228.439,40.705L229.814,43.422L231.189,44.426L232.568,47.371L233.944,49.769L235.319,52.924L236.694,56.471L238.073,60.328L239.448,64.359L240.824,68.635L242.199,72.556L243.578,76.35L244.953,79.587L246.328,82.359L247.704,85.222L249.083,87.347L250.458,89.982L251.833,92.827L253.208,95.781L254.587,99.128L255.962,103.003L257.338,106.897L258.713,110.891L260.092,115.578L261.467,120.237L262.842,125.161L264.218,130.058L265.597,134.991L266.972,139.869L268.347,144.912L269.722,149.462L271.101,153.967L272.477,158.498L273.852,162.62L275.227,166.377L276.606,170.043L277.981,173.106L279.356,175.669L280.732,178.04L282.111,180.036L283.486,181.778L284.861,183.119L286.236,184.413L287.615,185.353L288.991,186.502L290.366,187.678L291.741,188.681L293.12,189.912L294.495,191.298L295.871,192.72L297.246,194.17L298.625,195.666L300,197.024" stroke="#e45756" stroke-width="2"/></g></g><path class="foreground" aria-hidden="true" d="" display="none"/></g><g transform="translate(0,0)"><path class="background" aria-hidden="true" d="M0,0h300v300h-300Z"/><g><g class="mark-line role-mark marks" role="graphics-symbol" aria-roledescription="line mark container"><path d="M0,71.154L1.375,71.67L2.75,70.868L4.126,70.967L5.501,70.802L6.88,70.736L8.255,71.527L9.63,71.67L11.006,73.209L12.385,75.462L13.76,72.198L15.135,72.132L16.51,71.978L17.889,73.385L19.265,73.363L20.64,71.176L22.015,70.835L23.394,71.626L24.769,71.967L26.144,72.121L27.52,72.187L28.899,70.275L30.274,71.495L31.649,70.978L33.024,72.484L34.403,70.56L35.779,71.67L37.154,73.198L38.529,72.648L39.908,73.099L41.283,74.121L42.659,75.165L44.034,75.44L45.413,74.538L46.788,73.297L48.163,74.604L49.538,75.33L50.917,75.495L52.293,75.978L53.668,75.835L55.043,75.132L56.422,75.604L57.797,74.725L59.173,75.407L60.548,75.736L61.927,76.462L63.302,76.978L64.677,77.813L66.053,77.703L67.432,76.077L68.807,76.549L70.182,77.352L71.557,79.505L72.936,81.055L74.311,81.165L75.687,84.308L77.062,83.637L78.441,84.055L79.816,82.989L81.191,81.692L82.567,83.132L83.946,83.077L85.321,82.659L86.696,81.846L88.071,81.264L89.45,82.681L90.826,83.648L92.201,85.868L93.576,87.286L94.955,85.407L96.33,84.275L97.705,84.912L99.081,85.231L100.46,83.725L101.835,83.022L103.21,82.637L104.585,82.121L105.964,84.396L107.34,87.549L108.715,85.978L110.09,88.341L111.469,88.692L112.844,87.901L114.22,88.044L116.974,88.198L118.349,89.242L119.724,88.868L121.099,89.626L122.478,90.813L123.854,94.121L125.229,90.418L126.604,94.868L127.983,92.989L129.358,93.231L130.734,91.714L132.109,92.11L133.488,92.374L134.863,94.824L136.238,94.187L137.613,94.802L138.989,95.231L140.364,96.538L141.739,99.044L143.114,100.121L144.493,103.286L145.869,103.527L147.244,105.407L148.619,106.484L149.998,108.275L151.373,110.978L152.749,112.396L154.124,114.835L155.503,118.022L156.878,121.22L158.253,132.407L159.628,134.901L161.007,138.934L162.383,140.066L163.758,142.538L165.133,129.418L166.512,132.813L167.887,134.242L169.263,134.956L170.638,138.022L172.017,139.681L173.392,141.67L174.767,146.242L176.143,147.56L177.522,151.593L178.897,152.451L180.272,157.055L181.647,160.055L183.026,165.615L184.401,167.198L185.777,169.11L187.152,169.505L188.531,171.077L189.906,171L191.281,172.33L192.657,173.264L194.036,174.341L195.411,175.121L196.786,173.198L198.161,172.912L199.54,173.462L200.916,165.319L202.291,164.813L203.666,165.89L205.045,167.044L206.42,170.604L207.795,171.242L209.171,171.659L210.55,172.593L211.925,173.143L213.3,173.736L214.675,174.22L216.054,174.978L217.43,176.066L218.805,176.89L220.18,177.989L221.559,178.923L222.934,180.231L224.31,181.352L225.685,182.791L227.064,184.802L228.439,186.626L229.814,188.934L231.189,191.253L232.568,193.242L233.944,195.352L235.319,196.956L236.694,198.901L238.073,201.11L239.448,202.56L240.824,204.308L242.199,206.22L243.578,208.022L244.953,209.473L246.328,210.835L247.704,212.077L249.083,213.286L250.458,214.242L251.833,215.176L253.208,216.011L254.587,216.725L255.962,217.308L257.338,218.154L258.713,218.912L260.092,220.187L261.467,221.374L262.842,223.055L264.218,224.857L265.597,226.835L266.972,228.363L268.347,230.121L269.722,231.758L271.101,233.121L272.477,234.264L273.852,235.198L275.227,235.604L276.606,236.176L277.981,236.176L279.356,235.846L280.732,235.407L282.111,234.989L283.486,234.22L284.861,233.615L286.236,232.846L287.615,232.462L288.991,232.044L290.366,232.341L291.741,232.253L293.12,231.824L294.495,231.78L295.871,231.703L297.246,231.637L298.625,231.374L300,231.143" stroke="#72b7b2" stroke-width="2"/></g></g><path class="foreground" aria-hidden="true" d="" display="none"/></g><g transform="translate(0,0)"><path class="background" aria-hidden="true" d="M0,0h300v300h-300Z"/><g><g class="mark-line role-mark marks" role="graphics-symbol" aria-roledescription="line mark container"><path d="M0,25.698L1.375,25.698L2.75,25.706L4.126,25.706L5.501,25.706L6.88,25.714L8.255,25.706L9.63,25.706L11.006,25.698L12.385,25.698L13.76,25.706L15.135,25.706L16.51,25.706L17.889,25.714L19.265,25.714L20.64,25.731L22.015,25.731L23.394,25.731L24.769,25.731L26.144,25.731L27.52,25.731L28.899,25.731L30.274,25.723L31.649,25.731L33.024,25.723L34.403,25.723L35.779,25.731L37.154,25.731L38.529,25.731L39.908,25.731L41.283,25.731L42.659,25.739L44.034,25.739L45.413,25.739L46.788,25.747L48.163,25.739L49.538,25.739L50.917,25.747L52.293,25.747L53.668,25.755L55.043,25.739L56.422,25.739L57.797,25.747L59.173,25.747L60.548,25.747L61.927,25.764L63.302,25.764L64.677,25.772L66.053,25.772L67.432,25.764L68.807,25.772L70.182,25.772L71.557,25.764L72.936,25.772L74.311,25.772L75.687,25.772L77.062,25.772L78.441,25.772L79.816,25.772L81.191,25.772L82.567,25.772L83.946,25.78L85.321,25.78L86.696,25.764L88.071,25.764L89.45,25.764L90.826,25.772L92.201,25.772L93.576,25.772L94.955,25.78L96.33,25.78L97.705,25.78L99.081,25.78L100.46,25.78L101.835,25.78L103.21,25.788L104.585,25.788L105.964,25.788L107.34,25.788L108.715,25.797L110.09,25.797L111.469,25.83L112.844,25.854L114.22,25.887L116.974,25.953L118.349,25.953L119.724,25.978L121.099,26.003L122.478,26.027L123.854,26.052L125.229,26.027L126.604,26.011L127.983,25.986L129.358,25.978L130.734,25.962L132.109,25.937L133.488,25.904L134.863,25.871L136.238,25.846L137.613,25.821L138.989,25.863L140.364,25.887L141.739,25.937L143.114,25.978L144.493,26.019L145.869,26.085L147.244,26.159L148.619,26.217L149.998,26.291L151.373,26.357L152.749,25.838L154.124,25.97L155.503,26.126L156.878,26.275L158.253,26.431L159.628,26.407L161.007,26.39L162.383,26.357L163.758,26.324L165.133,26.299L166.512,26.151L167.887,25.995L169.263,25.838L170.638,25.681L172.017,25.525L173.392,25.64L174.767,25.797L176.143,25.887L177.522,26.011L178.897,26.126L180.272,26.184L181.647,26.209L183.026,26.275L184.401,26.299L185.777,26.349L187.152,26.374L188.531,26.481L189.906,26.58L191.281,26.695L192.657,26.786L194.036,26.571L195.411,26.349L196.786,26.126L198.161,25.953L199.54,25.731L200.916,25.541L202.291,25.805L203.666,26.077L205.045,25.129L206.42,24.198L207.795,24.181L209.171,23.909L210.55,23.415L211.925,22.772L213.3,21.956L214.675,21.066L216.054,19.978L217.43,18.874L218.805,17.679L220.18,16.541L221.559,15.445L222.934,14.448L224.31,13.541L225.685,12.775L227.064,12.214L228.439,11.745L229.814,11.423L231.189,11.143L232.568,11.027L233.944,11.019L235.319,11.069L236.694,11.184L238.073,11.505L239.448,11.901L240.824,12.462L242.199,13.162L243.578,13.995L244.953,15.033L246.328,16.236L247.704,17.662L249.083,19.319L250.458,21.198L251.833,23.283L253.208,25.591L254.587,28.104L255.962,30.898L257.338,33.865L258.713,37.071L260.092,40.31L261.467,43.747L262.842,47.225L264.218,50.703L265.597,54.148L266.972,57.495L268.347,60.758L269.722,63.89L271.101,66.882L272.477,69.742L273.852,72.511L275.227,75.148L276.606,77.687L277.981,80.085L279.356,82.418L280.732,84.709L282.111,86.901L283.486,89.077L284.861,91.286L286.236,93.429L287.615,95.646L288.991,97.92L290.366,100.319L291.741,102.857L293.12,105.478L294.495,108.214L295.871,110.992L297.246,113.86L298.625,116.679L300,119.473" stroke="#4c78a8" stroke-width="2"/></g></g><path class="foreground" aria-hidden="true" d="" display="none"/></g><g transform="translate(0,0)"><path class="background" aria-hidden="true" d="M0,0h300v300h-300Z"/><g><g class="mark-line role-mark marks" role="graphics-symbol" aria-roledescription="line mark container"><path d="M0,40.41L1.375,40.479L2.75,40.562L4.126,40.631L5.501,40.7L6.88,40.77L8.255,40.839L9.63,40.922L11.006,40.991L12.385,41.06L13.76,41.129L15.135,41.198L16.51,41.267L17.889,41.336L19.265,41.419L20.64,41.488L22.015,41.544L23.394,41.613L24.769,41.668L26.144,41.585L27.52,41.516L28.899,41.447L30.274,41.392L31.649,41.323L33.024,41.253L34.403,41.198L35.779,41.129L37.154,41.046L38.529,40.991L39.908,40.922L41.283,40.839L42.659,40.783L44.034,40.7L45.413,40.645L46.788,40.687L48.163,40.687L49.538,40.7L50.917,40.77L52.293,40.77L53.668,40.797L55.043,40.811L56.422,40.853L57.797,40.894L59.173,40.908L60.548,40.922L61.927,40.977L63.302,41.005L64.677,41.046L66.053,41.06L67.432,41.101L68.807,41.129L70.182,41.157L71.557,41.184L72.936,41.613L74.311,41.889L75.687,41.696L77.062,41.599L78.441,41.806L79.816,42.442L81.191,42.498L82.567,41.433L83.946,42.968L85.321,42.885L86.696,43.051L88.071,42.94L89.45,44.281L90.826,43.977L92.201,43.922L93.576,43.756L94.955,43.783L96.33,43.977L97.705,44.502L99.081,44.295L100.46,44.295L101.835,44.516L103.21,45.069L104.585,45.581L105.964,46.065L107.34,46.673L108.715,46.078L110.09,45.733L111.469,44.419L112.844,45.484L114.22,45.76L116.974,50.157L118.349,49.327L119.724,49.535L121.099,49.535L122.478,49.382L123.854,50.143L125.229,51.221L126.604,50.834L127.983,51.028L129.358,50.336L130.734,50.419L132.109,51.899L133.488,53.862L134.863,54.097L136.238,54.083L137.613,52.562L138.989,51.982L140.364,51.387L141.739,51.069L143.114,50.82L144.493,50.558L145.869,50.599L147.244,51.069L148.619,51.456L149.998,51.843L151.373,52.161L152.749,52.424L154.124,52.77L155.503,54.442L156.878,55.783L158.253,57.512L159.628,58.908L161.007,60.456L162.383,59.654L163.758,59.143L165.133,58.203L166.512,57.802L167.887,57.94L169.263,58.576L170.638,58.922L172.017,59.585L173.392,59.82L174.767,60.29L176.143,61.811L177.522,63.332L178.897,64.41L180.272,66.083L181.647,67.604L183.026,69.014L184.401,69.747L185.777,70.535L187.152,71.433L188.531,72.249L189.906,71.558L191.281,71.143L192.657,70.369L194.036,69.608L195.411,68.53L196.786,67.714L198.161,67.12L199.54,66.401L200.916,64.783L202.291,63.581L203.666,62.406L205.045,60.719L206.42,59.157L207.795,58.23L209.171,56.654L210.55,55.286L211.925,53.917L213.3,52.742L214.675,51.553L216.054,50.627L217.43,50.032L218.805,49.756L220.18,49.977L221.559,50.737L222.934,52.396L224.31,54.664L225.685,57.705L227.064,61.562L228.439,65.834L229.814,70.313L231.189,74.903L232.568,79.355L233.944,83.889L235.319,88.548L236.694,93.442L238.073,98.184L239.448,102.829L240.824,107.488L242.199,111.843L243.578,115.866L244.953,119.724L246.328,123.194L247.704,126.456L249.083,129.622L250.458,132.705L251.833,135.857L253.208,138.968L254.587,142.106L255.962,145.258L257.338,148.244L258.713,151.12L260.092,153.843L261.467,156.387L262.842,159L264.218,161.571L265.597,164.115L266.972,166.576L268.347,169.175L269.722,171.705L271.101,174.29L272.477,176.82L273.852,179.35L275.227,181.825L276.606,184.217L277.981,186.442L279.356,188.502L280.732,190.438L282.111,192.221L283.486,193.77L284.861,195.276L286.236,196.783L287.615,198.263L288.991,199.59L290.366,200.889L291.741,202.065L293.12,203.101L294.495,204.18L295.871,205.217L297.246,206.24L298.625,207.166L300,208.092" stroke="#f58518" stroke-width="2"/></g></g><path class="foreground" aria-hidden="true" d="" display="none"/></g><g transform="translate(0,0)"><path class="background" aria-hidden="true" d="M0,0h300v300h-300Z"/><g><g class="mark-line role-mark marks" role="graphics-symbol" aria-roledescription="line mark container"><path d="M0,30.429L1.375,30.524L2.75,30.619L4.126,30.714L5.501,30.81L6.88,30.905L8.255,31L9.63,31.095L11.006,31.19L12.385,31.286L13.76,31.381L15.135,31.476L16.51,31.571L17.889,31.667L19.265,31.762L20.64,31.857L22.015,31.952L23.394,32.048L24.769,32.143L26.144,32.238L27.52,32.333L28.899,32.429L30.274,32.524L31.649,32.619L33.024,32.714L34.403,32.81L35.779,33L37.154,33.19L38.529,33.429L39.908,33.619L41.283,33.81L42.659,34L44.034,34.238L45.413,34.429L46.788,34.619L48.163,34.81L49.538,35L50.917,35.238L52.293,35.429L53.668,35.619L55.043,35.81L56.422,36.048L57.797,36.238L59.173,36.429L60.548,36.619L61.927,36.81L63.302,37.048L64.677,37.238L66.053,37.429L67.432,37.619L68.807,37.857L70.182,37.524L71.557,39L72.936,37.429L74.311,38.238L75.687,36.048L77.062,37.524L78.441,34.381L79.816,34.81L81.191,35.381L82.567,35.095L83.946,34.81L85.321,35.714L86.696,37.238L88.071,34.429L89.45,33.286L90.826,33.619L92.201,33.714L93.576,33.619L94.955,34.952L96.33,34.667L97.705,36.19L99.081,37.524L100.46,37.667L101.835,37.333L103.21,37.81L104.585,36.857L105.964,37.714L107.34,37.048L108.715,37.81L110.09,37.857L111.469,39.619L112.844,40.571L114.22,41.048L116.974,41.714L118.349,42.667L119.724,43.19L121.099,43.81L122.478,45.048L123.854,45.286L125.229,45.857L126.604,47.095L127.983,47.857L129.358,49.286L130.734,49.905L132.109,51.429L133.488,51.81L134.863,52.619L136.238,52.905L137.613,52.619L138.989,52.524L140.364,53.333L141.739,54.048L143.114,53.381L144.493,53.619L145.869,54.714L147.244,54.857L148.619,55L149.998,55.381L151.373,56.381L152.749,56L154.124,55.952L155.503,56.429L156.878,56.81L158.253,57.476L159.628,59.429L161.007,59.857L162.383,61.571L163.758,63.143L165.133,61.048L166.512,62.19L167.887,62.571L169.263,64.095L170.638,64.81L172.017,65.429L173.392,65.762L174.767,66.286L176.143,66.714L177.522,67.381L178.897,67.619L180.272,67.857L181.647,68.762L183.026,68.476L184.401,68.19L185.777,67.714L187.152,66.19L188.531,64.762L189.906,63.857L191.281,62.381L192.657,59.905L194.036,57.905L195.411,57.714L196.786,57.286L198.161,55.238L199.54,53.048L200.916,48.81L202.291,46.619L203.666,46.143L205.045,45.19L206.42,43.476L207.795,43.667L209.171,41.381L210.55,39.81L211.925,38.571L213.3,37.429L214.675,36.952L216.054,36.143L217.43,36.143L218.805,36.667L220.18,37.571L221.559,38.095L222.934,40.905L224.31,43.905L225.685,48.19L227.064,52.714L228.439,55.905L229.814,60.095L231.189,63.381L232.568,66.714L233.944,70.333L235.319,72.381L236.694,76L238.073,79.762L239.448,82.667L240.824,85.571L242.199,87.762L243.578,89.619L244.953,92L246.328,93.714L247.704,96.19L249.083,98.333L250.458,101.095L251.833,103.762L253.208,106.857L254.587,109.381L255.962,112.238L257.338,114.571L258.713,116.714L260.092,118.857L261.467,120.429L262.842,122.619L264.218,124.667L265.597,127.095L266.972,129.333L268.347,131.524L269.722,133.762L271.101,135.81L272.477,138.238L273.852,139.857L275.227,141.619L276.606,143.19L277.981,144.81L279.356,146.048L280.732,147L282.111,148.143L283.486,149.095L284.861,150.286L286.236,151.524L287.615,153L288.991,154.571L290.366,156.286L291.741,158.048L293.12,159.81L294.495,161.476L295.871,163.143L297.246,164.667L298.625,166.19L300,167.714" stroke="#54a24b" stroke-width="2"/></g></g><path class="foreground" aria-hidden="true" d="" display="none"/></g></g><g class="mark-group role-legend" role="graphics-symbol" aria-roledescription="legend" aria-label="Symbol legend titled 'region' for stroke color with 5 values: Africa, Americas, Asia, Europe, Oceania"><g transform="translate(320,0)"><path class="background" aria-hidden="true" d="M0,0h58v79h-58Z" pointer-events="none"/><g><g class="mark-group role-legend-entry"><g transform="translate(0,16)"><path class="background" aria-hidden="true" d="M0,0h0v0h0Z" pointer-events="none"/><g><g class="mark-group role-scope" role="graphics-object" aria-roledescription="group mark container"><g transform="translate(0,0)"><path class="background" aria-hidden="true" d="M0,0h57.6748046875v11h-57.6748046875Z" pointer-events="none" opacity="1"/><g><g class="mark-symbol role-legend-symbol" pointer-events="none"><path transform="translate(6,6)" d="M-5,0L5,0" stroke="#4c78a8" stroke-width="1.5" opacity="1"/></g><g class="mark-text role-legend-label" pointer-events="none"><text text-anchor="start" transform="translate(16,9)" font-family="sans-serif" font-size="10px" fill="#000" opacity="1">Africa</text></g></g><path class="foreground" aria-hidden="true" d="" pointer-events="none" display="none"/></g><g transform="translate(0,13)"><path class="background" aria-hidden="true" d="M0,0h57.6748046875v11h-57.6748046875Z" pointer-events="none" opacity="1"/><g><g class="mark-symbol role-legend-symbol" pointer-events="none"><path transform="translate(6,6)" d="M-5,0L5,0" stroke="#f58518" stroke-width="1.5" opacity="1"/></g><g class="mark-text role-legend-label" pointer-events="none"><text text-anchor="start" transform="translate(16,9)" font-family="sans-serif" font-size="10px" fill="#000" opacity="1">Americas</text></g></g><path class="foreground" aria-hidden="true" d="" pointer-events="none" display="none"/></g><g transform="translate(0,26)"><path class="background" aria-hidden="true" d="M0,0h57.6748046875v11h-57.6748046875Z" pointer-events="none" opacity="1"/><g><g class="mark-symbol role-legend-symbol" pointer-events="none"><path transform="translate(6,6)" d="M-5,0L5,0" stroke="#e45756" stroke-width="1.5" opacity="1"/></g><g class="mark-text role-legend-label" pointer-events="none"><text text-anchor="start" transform="translate(16,9)" font-family="sans-serif" font-size="10px" fill="#000" opacity="1">Asia</text></g></g><path class="foreground" aria-hidden="true" d="" pointer-events="none" display="none"/></g><g transform="translate(0,39)"><path class="background" aria-hidden="true" d="M0,0h57.6748046875v11h-57.6748046875Z" pointer-events="none" opacity="1"/><g><g class="mark-symbol role-legend-symbol" pointer-events="none"><path transform="translate(6,6)" d="M-5,0L5,0" stroke="#72b7b2" stroke-width="1.5" opacity="1"/></g><g class="mark-text role-legend-label" pointer-events="none"><text text-anchor="start" transform="translate(16,9)" font-family="sans-serif" font-size="10px" fill="#000" opacity="1">Europe</text></g></g><path class="foreground" aria-hidden="true" d="" pointer-events="none" display="none"/></g><g transform="translate(0,52)"><path class="background" aria-hidden="true" d="M0,0h57.6748046875v11h-57.6748046875Z" pointer-events="none" opacity="1"/><g><g class="mark-symbol role-legend-symbol" pointer-events="none"><path transform="translate(6,6)" d="M-5,0L5,0" stroke="#54a24b" stroke-width="1.5" opacity="1"/></g><g class="mark-text role-legend-label" pointer-events="none"><text text-anchor="start" transform="translate(16,9)" font-family="sans-serif" font-size="10px" fill="#000" opacity="1">Oceania</text></g></g><path class="foreground" aria-hidden="true" d="" pointer-events="none" display="none"/></g></g></g><path class="foreground" aria-hidden="true" d="" pointer-events="none" display="none"/></g></g><g class="mark-text role-legend-title" pointer-events="none"><text text-anchor="start" transform="translate(0,9)" font-family="sans-serif" font-size="11px" font-weight="bold" fill="#000" opacity="1">region</text></g></g><path class="foreground" aria-hidden="true" d="" pointer-events="none" display="none"/></g></g></g><path class="foreground" aria-hidden="true" d="" display="none"/></g></g></g></svg>