<svg xmlns="http://www.w3.org/2000/svg" xmlns:xlink="http://www.w3.org/1999/xlink" version="1.1" class="marks" width="397" height="347" viewBox="0 0 397 347"><rect width="397" height="347" fill="white"/><g fill="none" stroke-miterlimit="10" transform="translate(91,10)"><g class="mark-group role-frame root" role="graphics-object" aria-roledescription="group mark container"><g transform="translate(0,0)"><path class="background" aria-hidden="true" d="M0.5,0.5h300v300h-300Z" stroke="#ddd"/><g><g class="mark-group role-axis" aria-hidden="true"><g transform="translate(0.5,300.5)"><path class="background" aria-hidden="true" d="M0,0h0v0h0Z" pointer-events="none"/><g><g class="mark-rule role-axis-grid" pointer-events="none"><line transform="translate(0,-300)" x2="0" y2="300" stroke="#ddd" stroke-width="1" opacity="1"/><line transform="translate(27,-300)" x2="0" y2="300" stroke="#ddd" stroke-width="1" opacity="1"/><line transform="translate(55,-300)" x2="0" y2="300" stroke="#ddd" stroke-width="1" opacity="1"/><line transform="translate(82,-300)" x2="0" y2="300" stroke="#ddd" stroke-width="1" opacity="1"/><line transform="translate(109,-300)" x2="0" y2="300" stroke="#ddd" stroke-width="1" opacity="1"/><line transform="translate(136,-300)" x2="0" y2="300" stroke="#ddd" stroke-width="1" opacity="1"/><line transform="translate(164,-300)" x2="0" y2="300" stroke="#ddd" stroke-width="1" opacity="1"/><line transform="translate(191,-300)" x2="0" y2="300" stroke="#ddd" stroke-width="1" opacity="1"/><line transform="translate(218,-300)" x2="0" y2="300" stroke="#ddd" stroke-width="1" opacity="1"/><line transform="translate(245,-300)" x2="0" y2="300" stroke="#ddd" stroke-width="1" opacity="1"/><line transform="translate(273,-300)" x2="0" y2="300" stroke="#ddd" stroke-width="1" opacity="1"/><line transform="translate(300,-300)" x2="0" y2="300" stroke="#ddd" stroke-width="1" opacity="1"/></g></g><path class="foreground" aria-hidden="true" d="" pointer-events="none" display="none"/></g></g><g class="mark-group role-axis" aria-hidden="true"><g transform="translate(0.5,0.5)"><path class="background" aria-hidden="true" d="M0,0h0v0h0Z" pointer-events="none"/><g><g class="mark-rule role-axis-grid" pointer-events="none"><line transform="translate(0,300)" x2="300" y2="0" stroke="#ddd" stroke-width="1" opacity="1"/><line transform="translate(0,263)" x2="300" y2="0" stroke="#ddd" stroke-width="1" opacity="1"/><line transform="translate(0,225)" x2="300" y2="0" stroke="#ddd" stroke-width="1" opacity="1"/><line transform="translate(0,188)" x2="300" y2="0" stroke="#ddd" stroke-width="1" opacity="1"/><line transform="translate(0,150)" x2="300" y2="0" stroke="#ddd" stroke-width="1" opacity="1"/><line transform="translate(0,113)" x2="300" y2="0" stroke="#ddd" stroke-width="1" opacity="1"/><line transform="translate(0,75)" x2="300" y2="0" stroke="#ddd" stroke-width="1" opacity="1"/><line transform="translate(0,38)" x2="300" y2="0" stroke="#ddd" stroke-width="1" opacity="1"/><line transform="translate(0,0)" x2="300" y2="0" stroke="#ddd" stroke-width="1" opacity="1"/></g></g><path class="foreground" aria-hidden="true" d="" pointer-events="none" display="none"/></g></g><g class="mark-group role-axis" role="graphics-symbol" aria-roledescription="axis" aria-label="X-axis titled 'year' for a linear scale with values from 1,800 to 2,020"><g transform="translate(0.5,300.5)"><path class="background" aria-hidden="true" d="M0,0h0v0h0Z" pointer-events="none"/><g><g class="mark-rule role-axis-tick" pointer-events="none"><line transform="translate(0,0)" x2="0" y2="5" stroke="#888" stroke-width="1" opacity="1"/><line transform="translate(27,0)" x2="0" y2="5" stroke="#888" stroke-width="1" opacity="1"/><line transform="translate(55,0)" x2="0" y2="5" stroke="#888" stroke-width="1" opacity="1"/><line transform="translate(82,0)" x2="0" y2="5" stroke="#888" stroke-width="1" opacity="1"/><line transform="translate(109,0)" x2="0" y2="5" stroke="#888" stroke-width="1" opacity="1"/><line transform="translate(136,0)" x2="0" y2="5" stroke="#888" stroke-width="1" opacity="1"/><line transform="translate(164,0)" x2="0" y2="5" stroke="#888" stroke-width="1" opacity="1"/><line transform="translate(191,0)" x2="0" y2="5" stroke="#888" stroke-width="1" opacity="1"/><line transform="translate(218,0)" x2="0" y2="5" stroke="#888" stroke-width="1" opacity="1"/><line transform="translate(245,0)" x2="0" y2="5" stroke="#888" stroke-width="1" opacity="1"/><line transform="translate(273,0)" x2="0" y2="5" stroke="#888" stroke-width="1" opacity="1"/><line transform="translate(300,0)" x2="0" y2="5" stroke="#888" stroke-width="1" opacity="1"/></g><g class="mark-text role-axis-label" pointer-events="none"><text text-anchor="start" transform="translate(0,15)" font-family="sans-serif" font-size="10px" fill="#000" opacity="1">1,800</text><text text-anchor="middle" transform="translate(27.272727272727273,15)" font-family="sans-serif" font-size="10px" fill="#000" opacity="0">1,820</text><text text-anchor="middle" transform="translate(54.54545454545455,15)" font-family="sans-serif" font-size="10px" fill="#000" opacity="1">1,840</text><text text-anchor="middle" transform="translate(81.81818181818181,15)" font-family="sans-serif" font-size="10px" fill="#000" opacity="0">1,860</text><text text-anchor="middle" transform="translate(109.0909090909091,15)" font-family="sans-serif" font-size="10px" fill="#000" opacity="1">1,880</text><text text-anchor="middle" transform="translate(136.36363636363635,15)" font-family="sans-serif" font-size="10px" fill="#000" opacity="0">1,900</text><text text-anchor="middle" transform="translate(163.63636363636363,15)" font-family="sans-serif" font-size="10px" fill="#000" opacity="1">1,920</text><text text-anchor="middle" transform="translate(190.9090909090909,15)" font-family="sans-serif" font-size="10px" fill="#000" opacity="0">1,940</text><text text-anchor="middle" transform="translate(218.1818181818182,15)" font-family="sans-serif" font-size="10px" fill="#000" opacity="1">1,960</text><text text-anchor="middle" transform="translate(245.45454545454547,15)" font-family="sans-serif" font-size="10px" fill="#000" opacity="0">1,980</text><text text-anchor="middle" transform="translate(272.7272727272727,15)" font-family="sans-serif" font-size="10px" fill="#000" opacity="1">2,000</text><text text-anchor="end" transform="translate(300,15)" font-family="sans-serif" font-size="10px" fill="#000" opacity="0">2,020</text></g><g class="mark-rule role-axis-domain" pointer-events="none"><line transform="translate(0,0)" x2="300" y2="0" stroke="#888" stroke-width="1" opacity="1"/></g><g class="mark-text role-axis-title" pointer-events="none"><text text-anchor="middle" transform="translate(150,30)" font-family="sans-serif" font-size="11px" font-weight="bold" fill="#000" opacity="1">year</text></g></g><path class="foreground" aria-hidden="true" d="" pointer-events="none" display="none"/></g></g><g class="mark-group role-axis" role="graphics-symbol" aria-roledescription="axis" aria-label="Y-axis titled 'Sum of population' for a linear scale with values from 0 to 8,000,000,000"><g transform="translate(0.5,0.5)"><path class="background" aria-hidden="true" d="M0,0h0v0h0Z" pointer-events="none"/><g><g class="mark-rule role-axis-tick" pointer-events="none"><line transform="translate(0,300)" x2="-5" y2="0" stroke="#888" stroke-width="1" opacity="1"/><line transform="translate(0,263)" x2="-5" y2="0" stroke="#888" stroke-width="1" opacity="1"/><line transform="translate(0,225)" x2="-5" y2="0" stroke="#888" stroke-width="1" opacity="1"/><line transform="translate(0,188)" x2="-5" y2="0" stroke="#888" stroke-width="1" opacity="1"/><line transform="translate(0,150)" x2="-5" y2="0" stroke="#888" stroke-width="1" opacity="1"/><line transform="translate(0,113)" x2="-5" y2="0" stroke="#888" stroke-width="1" opacity="1"/><line transform="translate(0,75)" x2="-5" y2="0" stroke="#888" stroke-width="1" opacity="1"/><line transform="translate(0,38)" x2="-5" y2="0" stroke="#888" stroke-width="1" opacity="1"/><line transform="translate(0,0)" x2="-5" y2="0" stroke="#888" stroke-width="1" opacity="1"/></g><g class="mark-text role-axis-label" pointer-events="none"><text text-anchor="end" transform="translate(-7,303)" font-family="sans-serif" font-size="10px" fill="#000" opacity="1">0</text><text text-anchor="end" transform="translate(-7,265.5)" font-family="sans-serif" font-size="10px" fill="#000" opacity="1">1,000,000,000</text><text text-anchor="end" transform="translate(-7,228)" font-family="sans-serif" font-size="10px" fill="#000" opacity="1">2,000,000,000</text><text text-anchor="end" transform="translate(-7,190.5)" font-family="sans-serif" font-size="10px" fill="#000" opacity="1">3,000,000,000</text><text text-anchor="end" transform="translate(-7,153)" font-family="sans-serif" font-size="10px" fill="#000" opacity="1">4,000,000,000</text><text text-anchor="end" transform="translate(-7,115.5)" font-family="sans-serif" font-size="10px" fill="#000" opacity="1">5,000,000,000</text><text text-anchor="end" transform="translate(-7,78)" font-family="sans-serif" font-size="10px" fill="#000" opacity="1">6,000,000,000</text><text text-anchor="end" transform="translate(-7,40.5)" font-family="sans-serif" font-size="10px" fill="#000" opacity="1">7,000,000,000</text><text text-anchor="end" transform="translate(-7,3)" font-family="sans-serif" font-size="10px" fill="#000" opacity="1">8,000,000,000</text></g><g class="mark-rule role-axis-domain" pointer-events="none"><line transform="translate(0,300)" x2="0" y2="-300" stroke="#888" stroke-width="1" opacity="1"/></g><g class="mark-text role-axis-title" pointer-events="none"><text text-anchor="middle" transform="translate(-74.9501953125,150) rotate(-90) translate(0,-2)" font-family="sans-serif" font-size="11px" font-weight="bold" fill="#000" opacity="1">Sum of population</text></g></g><path class="foreground" aria-hidden="true" d="" pointer-events="none" display="none"/></g></g><g class="mark-line role-mark marks" role="graphics-symbol" aria-roledescription="line mark container"><path d="M0,264.481L1.364,264.358L2.727,264.203L4.091,264.017L5.455,263.853L6.818,263.697L8.182,263.54L9.545,263.384L10.909,263.231L12.273,263.034L13.636,262.832L15,262.702L16.364,262.508L17.727,262.329L19.091,262.151L20.455,261.934L21.818,261.74L23.182,261.511L24.545,261.321L25.909,261.089L27.273,260.889L28.636,260.637L30,260.415L31.364,260.203L32.727,259.972L34.091,259.756L35.455,259.528L36.818,259.326L38.182,259.078L39.545,258.83L40.909,258.66L42.273,258.395L43.636,258.175L45,258.001L46.364,257.763L47.727,257.544L49.091,257.354L50.455,257.131L51.818,256.898L53.182,256.72L54.545,256.562L55.909,256.374L57.273,256.176L58.636,256.017L60,255.863L61.364,255.703L62.727,255.546L64.091,255.42L65.455,255.243L66.818,255.121L68.182,254.948L69.545,254.853L70.909,254.717L72.273,254.574L73.636,254.436L75,254.289L76.364,254.147L77.727,254.047L79.091,253.936L80.455,253.782L81.818,253.667L83.182,253.521L84.545,253.389L85.909,253.235L87.273,253.104L88.636,252.889L90,252.723L91.364,252.515L92.727,252.287L94.091,252.072L95.455,251.802L96.818,251.565L98.182,251.296L99.545,251.115L100.909,250.839L102.273,250.512L103.636,250.242L105,249.914L106.364,249.615L107.727,249.241L109.091,248.89L110.455,248.539L111.818,248.186L113.182,247.822L114.545,247.464L115.909,247.114L117.273,246.699L118.636,246.335L120,245.963L121.364,245.541L122.727,245.163L124.091,244.741L125.455,244.317L126.818,243.888L128.182,243.477L129.545,243.056L130.909,242.611L132.273,242.153L133.636,241.65L135,241.176L136.364,240.707L137.727,240.225L139.091,239.752L140.455,239.262L141.818,238.73L143.182,238.233L144.545,237.73L145.909,237.202L147.273,236.64L148.636,236.078L150,235.527L151.364,234.963L152.727,234.343L154.091,233.713L155.455,233.072L156.818,232.538L158.182,232L159.545,231.488L160.909,231.037L162.273,230.544L163.636,230.011L165,229.456L166.364,228.807L167.727,228.195L169.091,227.567L170.455,226.934L171.818,226.309L173.182,225.639L174.545,225.065L175.909,224.337L177.273,223.677L178.636,222.884L180,222.036L181.364,221.242L182.727,220.492L184.091,219.664L185.455,218.832L186.818,218.052L188.182,217.193L189.545,216.378L190.909,215.597L192.273,214.807L193.636,214.033L195,213.21L196.364,212.45L197.727,211.72L199.091,210.817L200.455,209.784L201.818,208.598L203.182,207.118L204.545,205.44L205.909,203.653L207.273,201.909L208.636,200.165L210,198.407L211.364,196.671L212.727,194.794L214.091,192.94L215.455,191.013L216.818,188.998L218.182,186.955L219.545,184.873L220.909,182.64L222.273,180.384L223.636,178.095L225,175.588L226.364,173.054L227.727,170.389L229.091,167.681L230.455,164.924L231.818,162.12L233.182,159.407L234.545,156.543L235.909,153.703L237.273,150.884L238.636,148.046L240,145.244L241.364,142.512L242.727,139.641L244.091,136.809L245.455,133.924L246.818,130.905L248.182,128.017L249.545,124.781L250.909,121.79L252.273,118.455L253.636,115.123L255,111.726L256.364,108.314L257.727,104.861L259.091,101.467L260.455,98.043L261.818,95.076L263.182,91.648L264.545,88.695L265.909,85.712L267.273,82.666L268.636,79.675L270,76.613L271.364,73.93L272.727,71.177L274.091,68.119L275.455,65.016L276.818,61.93L278.182,59.17L279.545,56.401L280.909,53.175L282.273,49.883L283.636,46.944L285,43.999L286.364,40.56L287.727,37.204L289.091,34.172L290.455,31.04L291.818,28.053L293.182,24.555L294.545,21.84L295.909,18.408L297.273,15.24" stroke="#4c78a8" stroke-width="2"/></g></g><path class="foreground" aria-hidden="true" d="" display="none"/></g></g></g></svg>