<svg xmlns="http://www.w3.org/2000/svg" xmlns:xlink="http://www.w3.org/1999/xlink" version="1.1" class="marks" width="472" height="347" viewBox="0 0 472 347"><rect width="472" height="347" fill="white"/><g fill="none" stroke-miterlimit="10" transform="translate(91,10)"><g class="mark-group role-frame root" role="graphics-object" aria-roledescription="group mark container"><g transform="translate(0,0)"><path class="background" aria-hidden="true" d="M0.5,0.5h300v300h-300Z" stroke="#ddd"/><g><g class="mark-group role-axis" aria-hidden="true"><g transform="translate(0.5,300.5)"><path class="background" aria-hidden="true" d="M0,0h0v0h0Z" pointer-events="none"/><g><g class="mark-rule role-axis-grid" pointer-events="none"><line transform="translate(0,-300)" x2="0" y2="300" stroke="#ddd" stroke-width="1" opacity="1"/><line transform="translate(28,-300)" x2="0" y2="300" stroke="#ddd" stroke-width="1" opacity="1"/><line transform="translate(55,-300)" x2="0" y2="300" stroke="#ddd" stroke-width="1" opacity="1"/><line transform="translate(83,-300)" x2="0" y2="300" stroke="#ddd" stroke-width="1" opacity="1"/><line transform="translate(110,-300)" x2="0" y2="300" stroke="#ddd" stroke-width="1" opacity="1"/><line transform="translate(138,-300)" x2="0" y2="300" stroke="#ddd" stroke-width="1" opacity="1"/><line transform="translate(165,-300)" x2="0" y2="300" stroke="#ddd" stroke-width="1" opacity="1"/><line transform="translate(193,-300)" x2="0" y2="300" stroke="#ddd" stroke-width="1" opacity="1"/><line transform="translate(220,-300)" x2="0" y2="300" stroke="#ddd" stroke-width="1" opacity="1"/><line transform="translate(248,-300)" x2="0" y2="300" stroke="#ddd" stroke-width="1" opacity="1"/><line transform="translate(275,-300)" x2="0" y2="300" stroke="#ddd" stroke-width="1" opacity="1"/></g></g><path class="foreground" aria-hidden="true" d="" pointer-events="none" display="none"/></g></g><g class="mark-group role-axis" aria-hidden="true"><g transform="translate(0.5,0.5)"><path class="background" aria-hidden="true" d="M0,0h0v0h0Z" pointer-events="none"/><g><g class="mark-rule role-axis-grid" pointer-events="none"><line transform="translate(0,300)" x2="300" y2="0" stroke="#ddd" stroke-width="1" opacity="1"/><line transform="translate(0,263)" x2="300" y2="0" stroke="#ddd" stroke-width="1" opacity="1"/><line transform="translate(0,225)" x2="300" y2="0" stroke="#ddd" stroke-width="1" opacity="1"/><line transform="translate(0,188)" x2="300" y2="0" stroke="#ddd" stroke-width="1" opacity="1"/><line transform="translate(0,150)" x2="300" y2="0" stroke="#ddd" stroke-width="1" opacity="1"/><line transform="translate(0,113)" x2="300" y2="0" stroke="#ddd" stroke-width="1" opacity="1"/><line transform="translate(0,75)" x2="300" y2="0" stroke="#ddd" stroke-width="1" opacity="1"/><line transform="translate(0,38)" x2="300" y2="0" stroke="#ddd" stroke-width="1" opacity="1"/><line transform="translate(0,0)" x2="300" y2="0" stroke="#ddd" stroke-width="1" opacity="1"/></g></g><path class="foreground" aria-hidden="true" d="" pointer-events="none" display="none"/></g></g><g class="mark-group role-axis" role="graphics-symbol" aria-roledescription="axis" aria-label="X-axis titled 'year' for a time scale with values from Wednesday, 01 January 1800, 12:00:00 AM to Monday, 01 January 2018, 12:00:00 AM"><g transform="translate(0.5,300.5)"><path class="background" aria-hidden="true" d="M0,0h0v0h0Z" pointer-events="none"/><g><g class="mark-rule role-axis-tick" pointer-events="none"><line transform="translate(0,0)" x2="0" y2="5" stroke="#888" stroke-width="1" opacity="1"/><line transform="translate(28,0)" x2="0" y2="5" stroke="#888" stroke-width="1" opacity="1"/><line transform="translate(55,0)" x2="0" y2="5" stroke="#888" stroke-width="1" opacity="1"/><line transform="translate(83,0)" x2="0" y2="5" stroke="#888" stroke-width="1" opacity="1"/><line transform="translate(110,0)" x2="0" y2="5" stroke="#888" stroke-width="1" opacity="1"/><line transform="translate(138,0)" x2="0" y2="5" stroke="#888" stroke-width="1" opacity="1"/><line transform="translate(165,0)" x2="0" y2="5" stroke="#888" stroke-width="1" opacity="1"/><line transform="translate(193,0)" x2="0" y2="5" stroke="#888" stroke-width="1" opacity="1"/><line transform="translate(220,0)" x2="0" y2="5" stroke="#888" stroke-width="1" opacity="1"/><line transform="translate(248,0)" x2="0" y2="5" stroke="#888" stroke-width="1" opacity="1"/><line transform="translate(275,0)" x2="0" y2="5" stroke="#888" stroke-width="1" opacity="1"/></g><g class="mark-text role-axis-label" pointer-events="none"><text text-anchor="start" transform="translate(0,15)" font-family="sans-serif" font-size="10px" fill="#000" opacity="1">1800</text><text text-anchor="middle" transform="translate(27.519689514953768,15)" font-family="sans-serif" font-size="10px" fill="#000" opacity="0">1820</text><text text-anchor="middle" transform="translate(55.043146785865225,15)" font-family="sans-serif" font-size="10px" fill="#000" opacity="1">1840</text><text text-anchor="middle" transform="translate(82.56660405677668,15)" font-family="sans-serif" font-size="10px" fill="#000" opacity="0">1860</text><text text-anchor="middle" transform="translate(110.09006132768815,15)" font-family="sans-serif" font-size="10px" fill="#000" opacity="1">1880</text><text text-anchor="middle" transform="translate(137.61348597960125,15)" font-family="sans-serif" font-size="10px" fill="#000" opacity="0">1900</text><text text-anchor="middle" transform="translate(165.13317549455502,15)" font-family="sans-serif" font-size="10px" fill="#000" opacity="1">1920</text><text text-anchor="middle" transform="translate(192.65663276546647,15)" font-family="sans-serif" font-size="10px" fill="#000" opacity="0">1940</text><text text-anchor="middle" transform="translate(220.18009003637792,15)" font-family="sans-serif" font-size="10px" fill="#000" opacity="1">1960</text><text text-anchor="middle" transform="translate(247.70354730728937,15)" font-family="sans-serif" font-size="10px" fill="#000" opacity="0">1980</text><text text-anchor="middle" transform="translate(275.2270045782009,15)" font-family="sans-serif" font-size="10px" fill="#000" opacity="1">2000</text></g><g class="mark-rule role-axis-domain" pointer-events="none"><line transform="translate(0,0)" x2="300" y2="0" stroke="#888" stroke-width="1" opacity="1"/></g><g class="mark-text role-axis-title" pointer-events="none"><text text-anchor="middle" transform="translate(150,30)" font-family="sans-serif" font-size="11px" font-weight="bold" fill="#000" opacity="1">year</text></g></g><path class="foreground" aria-hidden="true" d="" pointer-events="none" display="none"/></g></g><g class="mark-group role-axis" role="graphics-symbol" aria-roledescription="axis" aria-label="Y-axis titled 'Sum of population' for a linear scale with values from 0 to 8,000,000,000"><g transform="translate(0.5,0.5)"><path class="background" aria-hidden="true" d="M0,0h0v0h0Z" pointer-events="none"/><g><g class="mark-rule role-axis-tick" pointer-events="none"><line transform="translate(0,300)" x2="-5" y2="0" stroke="#888" stroke-width="1" opacity="1"/><line transform="translate(0,263)" x2="-5" y2="0" stroke="#888" stroke-width="1" opacity="1"/><line transform="translate(0,225)" x2="-5" y2="0" stroke="#888" stroke-width="1" opacity="1"/><line transform="translate(0,188)" x2="-5" y2="0" stroke="#888" stroke-width="1" opacity="1"/><line transform="translate(0,150)" x2="-5" y2="0" stroke="#888" stroke-width="1" opacity="1"/><line transform="translate(0,113)" x2="-5" y2="0" stroke="#888" stroke-width="1" opacity="1"/><line transform="translate(0,75)" x2="-5" y2="0" stroke="#888" stroke-width="1" opacity="1"/><line transform="translate(0,38)" x2="-5" y2="0" stroke="#888" stroke-width="1" opacity="1"/><line transform="translate(0,0)" x2="-5" y2="0" stroke="#888" stroke-width="1" opacity="1"/></g><g class="mark-text role-axis-label" pointer-events="none"><text text-anchor="end" transform="translate(-7,303)" font-family="sans-serif" font-size="10px" fill="#000" opacity="1">0</text><text text-anchor="end" transform="translate(-7,265.5)" font-family="sans-serif" font-size="10px" fill="#000" opacity="1">1,000,000,000</text><text text-anchor="end" transform="translate(-7,228)" font-family="sans-serif" font-size="10px" fill="#000" opacity="1">2,000,000,000</text><text text-anchor="end" transform="translate(-7,190.5)" font-family="sans-serif" font-size="10px" fill="#000" opacity="1">3,000,000,000</text><text text-anchor="end" transform="translate(-7,153)" font-family="sans-serif" font-size="10px" fill="#000" opacity="1">4,000,000,000</text><text text-anchor="end" transform="translate(-7,115.5)" font-family="sans-serif" font-size="10px" fill="#000" opacity="1">5,000,000,000</text><text text-anchor="end" transform="translate(-7,78)" font-family="sans-serif" font-size="10px" fill="#000" opacity="1">6,000,000,000</text><text text-anchor="end" transform="translate(-7,40.5)" font-family="sans-serif" font-size="10px" fill="#000" opacity="1">7,000,000,000</text><text text-anchor="end" transform="translate(-7,3)" font-family="sans-serif" font-size="10px" fill="#000" opacity="1">8,000,000,000</text></g><g class="mark-rule role-axis-domain" pointer-events="none"><line transform="translate(0,300)" x2="0" y2="-300" stroke="#888" stroke-width="1" opacity="1"/></g><g class="mark-text role-axis-title" pointer-events="none"><text text-anchor="middle" transform="translate(-74.9501953125,150) rotate(-90) translate(0,-2)" font-family="sans-serif" font-size="11px" font-weight="bold" fill="#000" opacity="1">Sum of population</text></g></g><path class="foreground" aria-hidden="true" d="" pointer-events="none" display="none"/></g></g><g class="mark-group role-scope pathgroup" role="graphics-object" aria-roledescription="group mark container"><g transform="translate(0,0)"><path class="background" aria-hidden="true" d="M0,0h300v300h-300Z"/><g><g class="mark-area role-mark marks" role="graphics-symbol" aria-roledescription="area mark container"><path d="M0,268.232L1.375,268.12L2.75,267.975L4.126,267.799L5.501,267.645L6.88,267.499L8.255,267.353L9.63,267.207L11.006,267.065L12.385,266.878L13.76,266.691L15.135,266.573L16.51,266.392L17.889,266.228L19.265,266.067L20.64,265.867L22.015,265.697L23.394,265.487L24.769,265.32L26.144,265.109L27.52,264.936L28.899,264.712L30.274,264.518L31.649,264.337L33.024,264.141L34.403,263.956L35.779,263.764L37.154,263.598L38.529,263.389L39.908,263.184L41.283,263.055L42.659,262.839L44.034,262.661L45.413,262.535L46.788,262.345L48.163,262.173L49.538,262.036L50.917,261.861L52.293,261.678L53.668,261.55L55.043,261.447L56.422,261.314L57.797,261.172L59.173,261.073L60.548,260.972L61.927,260.874L63.302,260.774L64.677,260.712L66.053,260.592L67.432,260.538L68.807,260.43L70.182,260.4L71.557,260.329L72.936,260.255L74.311,260.183L75.687,260.107L77.062,260.032L78.441,260.001L79.816,259.959L81.191,259.877L82.567,259.837L83.946,259.759L85.321,259.704L86.696,259.624L88.071,259.567L89.45,259.431L90.826,259.344L92.201,259.213L93.576,259.066L94.955,258.932L96.33,258.746L97.705,258.594L99.081,258.41L100.46,258.31L101.835,258.125L103.21,257.89L104.585,257.711L105.964,257.47L107.34,257.272L108.715,256.995L110.09,256.751L111.469,256.496L112.844,256.242L114.22,255.992L116.974,255.49L118.349,255.19L119.724,254.935L121.099,254.675L122.478,254.367L123.854,254.11L125.229,253.8L126.604,253.495L127.983,253.187L129.358,252.899L130.734,252.591L132.109,252.274L133.488,251.947L134.863,251.576L136.238,251.232L137.613,250.902L138.989,250.554L140.364,250.215L141.739,249.874L143.114,249.492L144.493,249.146L145.869,248.795L147.244,248.419L148.619,248.022L149.998,247.624L151.373,247.233L152.749,246.831L154.124,246.364L155.503,245.906L156.878,245.431L158.253,245.072L159.628,244.665L161.007,244.333L162.383,244.02L163.758,243.674L165.133,243.294L166.512,242.922L167.887,242.478L169.263,242.071L170.638,241.656L172.017,241.199L173.392,240.788L174.767,240.345L176.143,239.959L177.522,239.46L178.897,238.987L180.272,238.392L181.647,237.752L183.026,237.167L184.401,236.604L185.777,235.999L187.152,235.396L188.531,234.842L189.906,234.222L191.281,233.652L192.657,233.129L194.036,232.639L195.411,232.146L196.786,231.636L198.161,231.204L199.54,230.783L200.916,230.232L202.291,229.56L203.666,228.781L205.045,227.803L206.42,226.689L207.795,225.334L209.171,224.039L210.55,222.785L211.925,221.549L213.3,220.334L214.675,219L216.054,217.697L217.43,216.344L218.805,214.915L220.18,213.467L221.559,212.004L222.934,210.359L224.31,208.751L225.685,207.093L227.064,205.242L228.439,203.36L229.814,201.359L231.189,199.326L232.568,197.258L233.944,195.16L235.319,193.124L236.694,190.994L238.073,188.913L239.448,186.845L240.824,184.815L242.199,182.782L243.578,180.883L244.953,178.874L246.328,176.914L247.704,174.911L249.083,172.784L250.458,170.825L251.833,168.526L253.208,166.534L254.587,164.164L255.962,161.787L257.338,159.382L258.713,157.032L260.092,154.607L261.467,152.254L262.842,149.879L264.218,147.975L265.597,145.63L266.972,143.764L268.347,141.879L269.722,139.963L271.101,138.106L272.477,136.152L273.852,134.599L275.227,132.996L276.606,131.09L277.981,129.157L279.356,127.221L280.732,125.682L282.111,124.101L283.486,122.178L284.861,120.166L286.236,118.531L287.615,116.95L288.991,114.907L290.366,112.935L291.741,111.318L293.12,109.661L294.495,108.075L295.871,106.102L297.246,104.891L298.625,102.941L300,101.38L300,270.663L298.625,270.701L297.246,270.753L295.871,270.789L294.495,270.825L293.12,270.865L291.741,270.941L290.366,270.993L288.991,271.053L287.615,271.114L286.236,271.193L284.861,271.278L283.486,271.363L282.111,271.397L280.732,271.471L279.356,271.508L277.981,271.565L276.606,271.587L275.227,271.625L273.852,271.62L272.477,271.643L271.101,271.62L269.722,271.633L268.347,271.662L266.972,271.695L265.597,271.748L264.218,271.807L262.842,271.878L261.467,271.951L260.092,272.064L258.713,272.189L257.338,272.3L255.962,272.425L254.587,272.552L253.208,272.667L251.833,272.779L250.458,272.906L249.083,273.02L247.704,273.147L246.328,273.267L244.953,273.402L243.578,273.544L242.199,273.655L240.824,273.805L239.448,273.965L238.073,274.141L236.694,274.284L235.319,274.463L233.944,274.649L232.568,274.827L231.189,274.972L229.814,275.165L228.439,275.362L227.064,275.556L225.685,275.776L224.31,275.995L222.934,276.219L221.559,276.486L220.18,276.706L218.805,276.952L217.43,277.162L216.054,277.388L214.675,277.627L213.3,277.865L211.925,278.06L210.55,278.293L209.171,278.522L207.795,278.756L206.42,278.938L205.045,279.111L203.666,279.308L202.291,279.516L200.916,279.655L199.54,279.711L198.161,279.721L196.786,279.737L195.411,279.788L194.036,279.821L192.657,279.888L191.281,279.959L189.906,280.084L188.531,280.241L187.152,280.384L185.777,280.522L184.401,280.666L183.026,280.811L181.647,280.943L180.272,281.094L178.897,281.239L177.522,281.385L176.143,281.537L174.767,281.685L173.392,281.829L172.017,281.981L170.638,282.14L169.263,282.302L167.887,282.466L166.512,282.629L165.133,282.766L163.758,282.797L162.383,282.777L161.007,282.724L159.628,282.728L158.253,282.766L156.878,282.826L155.503,282.93L154.124,283.053L152.749,283.187L151.373,283.338L149.998,283.475L148.619,283.626L147.244,283.77L145.869,283.908L144.493,284.051L143.114,284.193L141.739,284.331L140.364,284.469L138.989,284.598L137.613,284.74L136.238,284.869L134.863,285.007L133.488,285.135L132.109,285.263L130.734,285.38L129.358,285.5L127.983,285.627L126.604,285.742L125.229,285.853L123.854,285.975L122.478,286.081L121.099,286.203L119.724,286.312L118.349,286.424L116.974,286.537L114.22,286.75L112.844,286.862L111.469,286.972L110.09,287.09L108.715,287.193L107.34,287.294L105.964,287.396L104.585,287.496L103.21,287.589L101.835,287.692L100.46,287.784L99.081,287.869L97.705,287.969L96.33,288.068L94.955,288.159L93.576,288.252L92.201,288.346L90.826,288.43L89.45,288.514L88.071,288.6L86.696,288.693L85.321,288.77L83.946,288.854L82.567,288.93L81.191,289.008L79.816,289.092L78.441,289.169L77.062,289.242L75.687,289.317L74.311,289.393L72.936,289.468L71.557,289.544L70.182,289.617L68.807,289.691L67.432,289.759L66.053,289.824L64.677,289.905L63.302,289.97L61.927,290.042L60.548,290.111L59.173,290.18L57.797,290.249L56.422,290.323L55.043,290.392L53.668,290.461L52.293,290.526L50.917,290.602L49.538,290.674L48.163,290.743L46.788,290.815L45.413,290.896L44.034,290.966L42.659,291.041L41.283,291.116L39.908,291.182L38.529,291.247L37.154,291.316L35.779,291.385L34.403,291.446L33.024,291.498L31.649,291.558L30.274,291.614L28.899,291.669L27.52,291.728L26.144,291.779L24.769,291.822L23.394,291.864L22.015,291.912L20.64,291.95L19.265,291.996L17.889,292.033L16.51,292.071L15.135,292.099L13.76,292.129L12.385,292.166L11.006,292.19L9.63,292.215L8.255,292.247L6.88,292.272L5.501,292.296L4.126,292.329L2.75,292.354L1.375,292.379L0,292.407Z" fill="#e45756"/></g></g><path class="foreground" aria-hidden="true" d="" display="none"/></g><g transform="translate(0,0)"><path class="background" aria-hidden="true" d="M0,0h300v300h-300Z"/><g><g class="mark-area role-mark marks" role="graphics-symbol" aria-roledescription="area mark container"><path d="M0,292.407L1.375,292.379L2.75,292.354L4.126,292.329L5.501,292.296L6.88,292.272L8.255,292.247L9.63,292.215L11.006,292.19L12.385,292.166L13.76,292.129L15.135,292.099L16.51,292.071L17.889,292.033L19.265,291.996L20.64,291.95L22.015,291.912L23.394,291.864L24.769,291.822L26.144,291.779L27.52,291.728L28.899,291.669L30.274,291.614L31.649,291.558L33.024,291.498L34.403,291.446L35.779,291.385L37.154,291.316L38.529,291.247L39.908,291.182L41.283,291.116L42.659,291.041L44.034,290.966L45.413,290.896L46.788,290.815L48.163,290.743L49.538,290.674L50.917,290.602L52.293,290.526L53.668,290.461L55.043,290.392L56.422,290.323L57.797,290.249L59.173,290.18L60.548,290.111L61.927,290.042L63.302,289.97L64.677,289.905L66.053,289.824L67.432,289.759L68.807,289.691L70.182,289.617L71.557,289.544L72.936,289.468L74.311,289.393L75.687,289.317L77.062,289.242L78.441,289.169L79.816,289.092L81.191,289.008L82.567,288.93L83.946,288.854L85.321,288.77L86.696,288.693L88.071,288.6L89.45,288.514L90.826,288.43L92.201,288.346L93.576,288.252L94.955,288.159L96.33,288.068L97.705,287.969L99.081,287.869L100.46,287.784L101.835,287.692L103.21,287.589L104.585,287.496L105.964,287.396L107.34,287.294L108.715,287.193L110.09,287.09L111.469,286.972L112.844,286.862L114.22,286.75L116.974,286.537L118.349,286.424L119.724,286.312L121.099,286.203L122.478,286.081L123.854,285.975L125.229,285.853L126.604,285.742L127.983,285.627L129.358,285.5L130.734,285.38L132.109,285.263L133.488,285.135L134.863,285.007L136.238,284.869L137.613,284.74L138.989,284.598L140.364,284.469L141.739,284.331L143.114,284.193L144.493,284.051L145.869,283.908L147.244,283.77L148.619,283.626L149.998,283.475L151.373,283.338L152.749,283.187L154.124,283.053L155.503,282.93L156.878,282.826L158.253,282.766L159.628,282.728L161.007,282.724L162.383,282.777L163.758,282.797L165.133,282.766L166.512,282.629L167.887,282.466L169.263,282.302L170.638,282.14L172.017,281.981L173.392,281.829L174.767,281.685L176.143,281.537L177.522,281.385L178.897,281.239L180.272,281.094L181.647,280.943L183.026,280.811L184.401,280.666L185.777,280.522L187.152,280.384L188.531,280.241L189.906,280.084L191.281,279.959L192.657,279.888L194.036,279.821L195.411,279.788L196.786,279.737L198.161,279.721L199.54,279.711L200.916,279.655L202.291,279.516L203.666,279.308L205.045,279.111L206.42,278.938L207.795,278.756L209.171,278.522L210.55,278.293L211.925,278.06L213.3,277.865L214.675,277.627L216.054,277.388L217.43,277.162L218.805,276.952L220.18,276.706L221.559,276.486L222.934,276.219L224.31,275.995L225.685,275.776L227.064,275.556L228.439,275.362L229.814,275.165L231.189,274.972L232.568,274.827L233.944,274.649L235.319,274.463L236.694,274.284L238.073,274.141L239.448,273.965L240.824,273.805L242.199,273.655L243.578,273.544L244.953,273.402L246.328,273.267L247.704,273.147L249.083,273.02L250.458,272.906L251.833,272.779L253.208,272.667L254.587,272.552L255.962,272.425L257.338,272.3L258.713,272.189L260.092,272.064L261.467,271.951L262.842,271.878L264.218,271.807L265.597,271.748L266.972,271.695L268.347,271.662L269.722,271.633L271.101,271.62L272.477,271.643L273.852,271.62L275.227,271.625L276.606,271.587L277.981,271.565L279.356,271.508L280.732,271.471L282.111,271.397L283.486,271.363L284.861,271.278L286.236,271.193L287.615,271.114L288.991,271.053L290.366,270.993L291.741,270.941L293.12,270.865L294.495,270.825L295.871,270.789L297.246,270.753L298.625,270.701L300,270.663L300,298.492L298.625,298.512L297.246,298.537L295.871,298.557L294.495,298.577L293.12,298.597L291.741,298.621L290.366,298.641L288.991,298.665L287.615,298.689L286.236,298.713L284.861,298.737L283.486,298.756L282.111,298.78L280.732,298.8L279.356,298.817L277.981,298.833L276.606,298.848L275.227,298.864L273.852,298.879L272.477,298.894L271.101,298.909L269.722,298.923L268.347,298.939L266.972,298.953L265.597,298.969L264.218,298.984L262.842,298.998L261.467,299.016L260.092,299.03L258.713,299.047L257.338,299.06L255.962,299.076L254.587,299.093L253.208,299.106L251.833,299.119L250.458,299.136L249.083,299.15L247.704,299.162L246.328,299.171L244.953,299.183L243.578,299.191L242.199,299.203L240.824,299.215L239.448,299.225L238.073,299.237L236.694,299.251L235.319,299.264L233.944,299.28L232.568,299.293L231.189,299.309L229.814,299.328L228.439,299.343L227.064,299.355L225.685,299.371L224.31,299.384L222.934,299.396L221.559,299.408L220.18,299.42L218.805,299.432L217.43,299.445L216.054,299.457L214.675,299.469L213.3,299.481L211.925,299.492L210.55,299.503L209.171,299.514L207.795,299.525L206.42,299.537L205.045,299.548L203.666,299.558L202.291,299.565L200.916,299.572L199.54,299.578L198.161,299.583L196.786,299.588L195.411,299.591L194.036,299.594L192.657,299.598L191.281,299.601L189.906,299.605L188.531,299.609L187.152,299.612L185.777,299.615L184.401,299.618L183.026,299.621L181.647,299.624L180.272,299.628L178.897,299.631L177.522,299.635L176.143,299.639L174.767,299.645L173.392,299.651L172.017,299.657L170.638,299.663L169.263,299.669L167.887,299.675L166.512,299.681L165.133,299.688L163.758,299.695L162.383,299.701L161.007,299.705L159.628,299.707L158.253,299.707L156.878,299.71L155.503,299.715L154.124,299.722L152.749,299.728L151.373,299.734L149.998,299.739L148.619,299.744L147.244,299.748L145.869,299.751L144.493,299.755L143.114,299.759L141.739,299.762L140.364,299.765L138.989,299.768L137.613,299.771L136.238,299.774L134.863,299.778L133.488,299.78L132.109,299.783L130.734,299.787L129.358,299.79L127.983,299.793L126.604,299.797L125.229,299.8L123.854,299.804L122.478,299.808L121.099,299.812L119.724,299.816L118.349,299.82L116.974,299.824L114.22,299.832L112.844,299.836L111.469,299.84L110.09,299.844L108.715,299.848L107.34,299.851L105.964,299.854L104.585,299.857L103.21,299.86L101.835,299.863L100.46,299.866L99.081,299.868L97.705,299.871L96.33,299.874L94.955,299.876L93.576,299.879L92.201,299.881L90.826,299.884L89.45,299.886L88.071,299.889L86.696,299.891L85.321,299.894L83.946,299.896L82.567,299.899L81.191,299.902L79.816,299.904L78.441,299.907L77.062,299.909L75.687,299.912L74.311,299.914L72.936,299.916L71.557,299.918L70.182,299.92L68.807,299.922L67.432,299.924L66.053,299.926L64.677,299.928L63.302,299.93L61.927,299.931L60.548,299.933L59.173,299.934L57.797,299.935L56.422,299.936L55.043,299.937L53.668,299.937L52.293,299.938L50.917,299.939L49.538,299.939L48.163,299.94L46.788,299.94L45.413,299.94L44.034,299.941L42.659,299.941L41.283,299.942L39.908,299.942L38.529,299.942L37.154,299.943L35.779,299.943L34.403,299.943L33.024,299.943L31.649,299.943L30.274,299.943L28.899,299.943L27.52,299.944L26.144,299.944L24.769,299.944L23.394,299.944L22.015,299.944L20.64,299.944L19.265,299.944L17.889,299.944L16.51,299.944L15.135,299.944L13.76,299.944L12.385,299.944L11.006,299.944L9.63,299.944L8.255,299.944L6.88,299.944L5.501,299.944L4.126,299.944L2.75,299.944L1.375,299.944L0,299.944Z" fill="#72b7b2"/></g></g><path class="foreground" aria-hidden="true" d="" display="none"/></g><g transform="translate(0,0)"><path class="background" aria-hidden="true" d="M0,0h300v300h-300Z"/><g><g class="mark-area role-mark marks" role="graphics-symbol" aria-roledescription="area mark container"><path d="M0,264.481L1.375,264.358L2.75,264.203L4.126,264.017L5.501,263.853L6.88,263.697L8.255,263.54L9.63,263.384L11.006,263.231L12.385,263.034L13.76,262.832L15.135,262.702L16.51,262.508L17.889,262.329L19.265,262.151L20.64,261.934L22.015,261.74L23.394,261.511L24.769,261.321L26.144,261.089L27.52,260.889L28.899,260.637L30.274,260.415L31.649,260.203L33.024,259.972L34.403,259.756L35.779,259.528L37.154,259.326L38.529,259.078L39.908,258.83L41.283,258.66L42.659,258.395L44.034,258.175L45.413,258.001L46.788,257.763L48.163,257.544L49.538,257.354L50.917,257.131L52.293,256.898L53.668,256.72L55.043,256.562L56.422,256.374L57.797,256.176L59.173,256.017L60.548,255.863L61.927,255.703L63.302,255.546L64.677,255.42L66.053,255.243L67.432,255.121L68.807,254.948L70.182,254.853L71.557,254.717L72.936,254.574L74.311,254.436L75.687,254.289L77.062,254.147L78.441,254.047L79.816,253.936L81.191,253.782L82.567,253.667L83.946,253.521L85.321,253.389L86.696,253.235L88.071,253.104L89.45,252.889L90.826,252.723L92.201,252.515L93.576,252.287L94.955,252.072L96.33,251.802L97.705,251.565L99.081,251.296L100.46,251.115L101.835,250.839L103.21,250.512L104.585,250.242L105.964,249.914L107.34,249.615L108.715,249.241L110.09,248.89L111.469,248.539L112.844,248.186L114.22,247.822L116.974,247.114L118.349,246.699L119.724,246.335L121.099,245.963L122.478,245.541L123.854,245.163L125.229,244.741L126.604,244.317L127.983,243.888L129.358,243.477L130.734,243.056L132.109,242.611L133.488,242.153L134.863,241.65L136.238,241.176L137.613,240.707L138.989,240.225L140.364,239.752L141.739,239.262L143.114,238.73L144.493,238.233L145.869,237.73L147.244,237.202L148.619,236.64L149.998,236.078L151.373,235.527L152.749,234.963L154.124,234.343L155.503,233.713L156.878,233.072L158.253,232.538L159.628,232L161.007,231.488L162.383,231.037L163.758,230.544L165.133,230.011L166.512,229.456L167.887,228.807L169.263,228.195L170.638,227.567L172.017,226.934L173.392,226.309L174.767,225.639L176.143,225.065L177.522,224.337L178.897,223.677L180.272,222.884L181.647,222.036L183.026,221.242L184.401,220.492L185.777,219.664L187.152,218.832L188.531,218.052L189.906,217.193L191.281,216.378L192.657,215.597L194.036,214.807L195.411,214.033L196.786,213.21L198.161,212.45L199.54,211.72L200.916,210.817L202.291,209.784L203.666,208.598L205.045,207.118L206.42,205.44L207.795,203.653L209.171,201.909L210.55,200.165L211.925,198.407L213.3,196.671L214.675,194.794L216.054,192.94L217.43,191.013L218.805,188.998L220.18,186.955L221.559,184.873L222.934,182.64L224.31,180.384L225.685,178.095L227.064,175.588L228.439,173.054L229.814,170.389L231.189,167.681L232.568,164.924L233.944,162.12L235.319,159.407L236.694,156.543L238.073,153.703L239.448,150.884L240.824,148.046L242.199,145.244L243.578,142.512L244.953,139.641L246.328,136.809L247.704,133.924L249.083,130.905L250.458,128.017L251.833,124.781L253.208,121.79L254.587,118.455L255.962,115.123L257.338,111.726L258.713,108.314L260.092,104.861L261.467,101.467L262.842,98.043L264.218,95.076L265.597,91.648L266.972,88.695L268.347,85.712L269.722,82.666L271.101,79.675L272.477,76.613L273.852,73.93L275.227,71.177L276.606,68.119L277.981,65.016L279.356,61.93L280.732,59.17L282.111,56.401L283.486,53.175L284.861,49.883L286.236,46.944L287.615,43.999L288.991,40.56L290.366,37.204L291.741,34.172L293.12,31.04L294.495,28.053L295.871,24.555L297.246,21.84L298.625,18.408L300,15.24L300,63.479L298.625,65.433L297.246,67.676L295.871,69.252L294.495,71.589L293.12,73.5L291.741,75.521L290.366,77.507L288.991,79.853L287.615,82.262L286.236,84.25L284.861,86.247L283.486,88.671L282.111,90.996L280.732,92.907L279.356,94.849L277.981,97.152L276.606,99.45L275.227,101.758L273.852,103.771L272.477,105.738L271.101,108.125L269.722,110.411L268.347,112.769L266.972,115.051L265.597,117.357L264.218,120.114L262.842,122.427L261.467,125.212L260.092,127.972L258.713,130.804L257.338,133.593L255.962,136.395L254.587,139.137L253.208,141.9L251.833,144.325L250.458,147.023L249.083,149.369L247.704,151.885L246.328,154.276L244.953,156.625L243.578,159.019L242.199,161.305L240.824,163.679L239.448,166.104L238.073,168.521L236.694,170.983L235.319,173.475L233.944,175.828L232.568,178.284L231.189,180.696L229.814,183.081L228.439,185.425L227.064,187.647L225.685,189.863L224.31,191.863L222.934,193.835L221.559,195.8L220.18,197.623L218.805,199.421L217.43,201.189L216.054,202.883L214.675,204.513L213.3,206.172L211.925,207.704L210.55,209.26L209.171,210.815L207.795,212.381L206.42,213.995L205.045,215.506L203.666,216.833L202.291,217.87L200.916,218.756L199.54,219.52L198.161,220.114L196.786,220.742L195.411,221.441L194.036,222.087L192.657,222.76L191.281,223.419L189.906,224.123L188.531,224.865L187.152,225.54L185.777,226.264L184.401,226.987L183.026,227.637L181.647,228.336L180.272,229.095L178.897,229.811L177.522,230.402L176.143,231.059L174.767,231.564L173.392,232.163L172.017,232.728L170.638,233.297L169.263,233.866L167.887,234.421L166.512,235.01L165.133,235.516L163.758,235.996L162.383,236.436L161.007,236.838L159.628,237.298L158.253,237.792L156.878,238.279L155.503,238.873L154.124,239.457L152.749,240.041L151.373,240.566L149.998,241.075L148.619,241.595L147.244,242.12L145.869,242.611L144.493,243.076L143.114,243.536L141.739,244.03L140.364,244.484L138.989,244.923L137.613,245.369L136.238,245.802L134.863,246.244L133.488,246.713L132.109,247.136L130.734,247.547L129.358,247.937L127.983,248.314L126.604,248.711L125.229,249.105L123.854,249.495L122.478,249.841L121.099,250.23L119.724,250.573L118.349,250.906L116.974,251.29L114.22,251.94L112.844,252.274L111.469,252.6L110.09,252.923L108.715,253.243L107.34,253.587L105.964,253.861L104.585,254.162L103.21,254.404L101.835,254.706L100.46,254.954L99.081,255.111L97.705,255.356L96.33,255.568L94.955,255.811L93.576,256.004L92.201,256.207L90.826,256.392L89.45,256.534L88.071,256.723L86.696,256.835L85.321,256.965L83.946,257.073L82.567,257.2L81.191,257.292L79.816,257.422L78.441,257.513L77.062,257.592L75.687,257.716L74.311,257.839L72.936,257.956L71.557,258.079L70.182,258.194L68.807,258.272L67.432,258.423L66.053,258.522L64.677,258.682L63.302,258.786L61.927,258.925L60.548,259.064L59.173,259.202L57.797,259.339L56.422,259.516L55.043,259.687L53.668,259.825L52.293,259.988L50.917,260.2L49.538,260.408L48.163,260.579L46.788,260.781L45.413,260.999L44.034,261.154L42.659,261.36L41.283,261.605L39.908,261.761L38.529,261.99L37.154,262.225L35.779,262.412L34.403,262.627L33.024,262.832L31.649,263.049L30.274,263.251L28.899,263.464L27.52,263.704L26.144,263.896L24.769,264.122L23.394,264.304L22.015,264.528L20.64,264.712L19.265,264.924L17.889,265.098L16.51,265.274L15.135,265.465L13.76,265.593L12.385,265.793L11.006,265.989L9.63,266.14L8.255,266.295L6.88,266.45L5.501,266.604L4.126,266.767L2.75,266.951L1.375,267.105L0,267.225Z" fill="#4c78a8"/></g></g><path class="foreground" aria-hidden="true" d="" display="none"/></g><g transform="translate(0,0)"><path class="background" aria-hidden="true" d="M0,0h300v300h-300Z"/><g><g class="mark-area role-mark marks" role="graphics-symbol" aria-roledescription="area mark container"><path d="M0,267.225L1.375,267.105L2.75,266.951L4.126,266.767L5.501,266.604L6.88,266.45L8.255,266.295L9.63,266.14L11.006,265.989L12.385,265.793L13.76,265.593L15.135,265.465L16.51,265.274L17.889,265.098L19.265,264.924L20.64,264.712L22.015,264.528L23.394,264.304L24.769,264.122L26.144,263.896L27.52,263.704L28.899,263.464L30.274,263.251L31.649,263.049L33.024,262.832L34.403,262.627L35.779,262.412L37.154,262.225L38.529,261.99L39.908,261.761L41.283,261.605L42.659,261.36L44.034,261.154L45.413,260.999L46.788,260.781L48.163,260.579L49.538,260.408L50.917,260.2L52.293,259.988L53.668,259.825L55.043,259.687L56.422,259.516L57.797,259.339L59.173,259.202L60.548,259.064L61.927,258.925L63.302,258.786L64.677,258.682L66.053,258.522L67.432,258.423L68.807,258.272L70.182,258.194L71.557,258.079L72.936,257.956L74.311,257.839L75.687,257.716L77.062,257.592L78.441,257.513L79.816,257.422L81.191,257.292L82.567,257.2L83.946,257.073L85.321,256.965L86.696,256.835L88.071,256.723L89.45,256.534L90.826,256.392L92.201,256.207L93.576,256.004L94.955,255.811L96.33,255.568L97.705,255.356L99.081,255.111L100.46,254.954L101.835,254.706L103.21,254.404L104.585,254.162L105.964,253.861L107.34,253.587L108.715,253.243L110.09,252.923L111.469,252.6L112.844,252.274L114.22,251.94L116.974,251.29L118.349,250.906L119.724,250.573L121.099,250.23L122.478,249.841L123.854,249.495L125.229,249.105L126.604,248.711L127.983,248.314L129.358,247.937L130.734,247.547L132.109,247.136L133.488,246.713L134.863,246.244L136.238,245.802L137.613,245.369L138.989,244.923L140.364,244.484L141.739,244.03L143.114,243.536L144.493,243.076L145.869,242.611L147.244,242.12L148.619,241.595L149.998,241.075L151.373,240.566L152.749,240.041L154.124,239.457L155.503,238.873L156.878,238.279L158.253,237.792L159.628,237.298L161.007,236.838L162.383,236.436L163.758,235.996L165.133,235.516L166.512,235.01L167.887,234.421L169.263,233.866L170.638,233.297L172.017,232.728L173.392,232.163L174.767,231.564L176.143,231.059L177.522,230.402L178.897,229.811L180.272,229.095L181.647,228.336L183.026,227.637L184.401,226.987L185.777,226.264L187.152,225.54L188.531,224.865L189.906,224.123L191.281,223.419L192.657,222.76L194.036,222.087L195.411,221.441L196.786,220.742L198.161,220.114L199.54,219.52L200.916,218.756L202.291,217.87L203.666,216.833L205.045,215.506L206.42,213.995L207.795,212.381L209.171,210.815L210.55,209.26L211.925,207.704L213.3,206.172L214.675,204.513L216.054,202.883L217.43,201.189L218.805,199.421L220.18,197.623L221.559,195.8L222.934,193.835L224.31,191.863L225.685,189.863L227.064,187.647L228.439,185.425L229.814,183.081L231.189,180.696L232.568,178.284L233.944,175.828L235.319,173.475L236.694,170.983L238.073,168.521L239.448,166.104L240.824,163.679L242.199,161.305L243.578,159.019L244.953,156.625L246.328,154.276L247.704,151.885L249.083,149.369L250.458,147.023L251.833,144.325L253.208,141.9L254.587,139.137L255.962,136.395L257.338,133.593L258.713,130.804L260.092,127.972L261.467,125.212L262.842,122.427L264.218,120.114L265.597,117.357L266.972,115.051L268.347,112.769L269.722,110.411L271.101,108.125L272.477,105.738L273.852,103.771L275.227,101.758L276.606,99.45L277.981,97.152L279.356,94.849L280.732,92.907L282.111,90.996L283.486,88.671L284.861,86.247L286.236,84.25L287.615,82.262L288.991,79.853L290.366,77.507L291.741,75.521L293.12,73.5L294.495,71.589L295.871,69.252L297.246,67.676L298.625,65.433L300,63.479L300,101.38L298.625,102.941L297.246,104.891L295.871,106.102L294.495,108.075L293.12,109.661L291.741,111.318L290.366,112.935L288.991,114.907L287.615,116.95L286.236,118.531L284.861,120.166L283.486,122.178L282.111,124.101L280.732,125.682L279.356,127.221L277.981,129.157L276.606,131.09L275.227,132.996L273.852,134.599L272.477,136.152L271.101,138.106L269.722,139.963L268.347,141.879L266.972,143.764L265.597,145.63L264.218,147.975L262.842,149.879L261.467,152.254L260.092,154.607L258.713,157.032L257.338,159.382L255.962,161.787L254.587,164.164L253.208,166.534L251.833,168.526L250.458,170.825L249.083,172.784L247.704,174.911L246.328,176.914L244.953,178.874L243.578,180.883L242.199,182.782L240.824,184.815L239.448,186.845L238.073,188.913L236.694,190.994L235.319,193.124L233.944,195.16L232.568,197.258L231.189,199.326L229.814,201.359L228.439,203.36L227.064,205.242L225.685,207.093L224.31,208.751L222.934,210.359L221.559,212.004L220.18,213.467L218.805,214.915L217.43,216.344L216.054,217.697L214.675,219L213.3,220.334L211.925,221.549L210.55,222.785L209.171,224.039L207.795,225.334L206.42,226.689L205.045,227.803L203.666,228.781L202.291,229.56L200.916,230.232L199.54,230.783L198.161,231.204L196.786,231.636L195.411,232.146L194.036,232.639L192.657,233.129L191.281,233.652L189.906,234.222L188.531,234.842L187.152,235.396L185.777,235.999L184.401,236.604L183.026,237.167L181.647,237.752L180.272,238.392L178.897,238.987L177.522,239.46L176.143,239.959L174.767,240.345L173.392,240.788L172.017,241.199L170.638,241.656L169.263,242.071L167.887,242.478L166.512,242.922L165.133,243.294L163.758,243.674L162.383,244.02L161.007,244.333L159.628,244.665L158.253,245.072L156.878,245.431L155.503,245.906L154.124,246.364L152.749,246.831L151.373,247.233L149.998,247.624L148.619,248.022L147.244,248.419L145.869,248.795L144.493,249.146L143.114,249.492L141.739,249.874L140.364,250.215L138.989,250.554L137.613,250.902L136.238,251.232L134.863,251.576L133.488,251.947L132.109,252.274L130.734,252.591L129.358,252.899L127.983,253.187L126.604,253.495L125.229,253.8L123.854,254.11L122.478,254.367L121.099,254.675L119.724,254.935L118.349,255.19L116.974,255.49L114.22,255.992L112.844,256.242L111.469,256.496L110.09,256.751L108.715,256.995L107.34,257.272L105.964,257.47L104.585,257.711L103.21,257.89L101.835,258.125L100.46,258.31L99.081,258.41L97.705,258.594L96.33,258.746L94.955,258.932L93.576,259.066L92.201,259.213L90.826,259.344L89.45,259.431L88.071,259.567L86.696,259.624L85.321,259.704L83.946,259.759L82.567,259.837L81.191,259.877L79.816,259.959L78.441,260.001L77.062,260.032L75.687,260.107L74.311,260.183L72.936,260.255L71.557,260.329L70.182,260.4L68.807,260.43L67.432,260.538L66.053,260.592L64.677,260.712L63.302,260.774L61.927,260.874L60.548,260.972L59.173,261.073L57.797,261.172L56.422,261.314L55.043,261.447L53.668,261.55L52.293,261.678L50.917,261.861L49.538,262.036L48.163,262.173L46.788,262.345L45.413,262.535L44.034,262.661L42.659,262.839L41.283,263.055L39.908,263.184L38.529,263.389L37.154,263.598L35.779,263.764L34.403,263.956L33.024,264.141L31.649,264.337L30.274,264.518L28.899,264.712L27.52,264.936L26.144,265.109L24.769,265.32L23.394,265.487L22.015,265.697L20.64,265.867L19.265,266.067L17.889,266.228L16.51,266.392L15.135,266.573L13.76,266.691L12.385,266.878L11.006,267.065L9.63,267.207L8.255,267.353L6.88,267.499L5.501,267.645L4.126,267.799L2.75,267.975L1.375,268.12L0,268.232Z" fill="#f58518"/></g></g><path class="foreground" aria-hidden="true" d="" display="none"/></g><g transform="translate(0,0)"><path class="background" aria-hidden="true" d="M0,0h300v300h-300Z"/><g><g class="mark-area role-mark marks" role="graphics-symbol" aria-roledescription="area mark container"><path d="M0,299.944L1.375,299.944L2.75,299.944L4.126,299.944L5.501,299.944L6.88,299.944L8.255,299.944L9.63,299.944L11.006,299.944L12.385,299.944L13.76,299.944L15.135,299.944L16.51,299.944L17.889,299.944L19.265,299.944L20.64,299.944L22.015,299.944L23.394,299.944L24.769,299.944L26.144,299.944L27.52,299.944L28.899,299.943L30.274,299.943L31.649,299.943L33.024,299.943L34.403,299.943L35.779,299.943L37.154,299.943L38.529,299.942L39.908,299.942L41.283,299.942L42.659,299.941L44.034,299.941L45.413,299.94L46.788,299.94L48.163,299.94L49.538,299.939L50.917,299.939L52.293,299.938L53.668,299.937L55.043,299.937L56.422,299.936L57.797,299.935L59.173,299.934L60.548,299.933L61.927,299.931L63.302,299.93L64.677,299.928L66.053,299.926L67.432,299.924L68.807,299.922L70.182,299.92L71.557,299.918L72.936,299.916L74.311,299.914L75.687,299.912L77.062,299.909L78.441,299.907L79.816,299.904L81.191,299.902L82.567,299.899L83.946,299.896L85.321,299.894L86.696,299.891L88.071,299.889L89.45,299.886L90.826,299.884L92.201,299.881L93.576,299.879L94.955,299.876L96.33,299.874L97.705,299.871L99.081,299.868L100.46,299.866L101.835,299.863L103.21,299.86L104.585,299.857L105.964,299.854L107.34,299.851L108.715,299.848L110.09,299.844L111.469,299.84L112.844,299.836L114.22,299.832L116.974,299.824L118.349,299.82L119.724,299.816L121.099,299.812L122.478,299.808L123.854,299.804L125.229,299.8L126.604,299.797L127.983,299.793L129.358,299.79L130.734,299.787L132.109,299.783L133.488,299.78L134.863,299.778L136.238,299.774L137.613,299.771L138.989,299.768L140.364,299.765L141.739,299.762L143.114,299.759L144.493,299.755L145.869,299.751L147.244,299.748L148.619,299.744L149.998,299.739L151.373,299.734L152.749,299.728L154.124,299.722L155.503,299.715L156.878,299.71L158.253,299.707L159.628,299.707L161.007,299.705L162.383,299.701L163.758,299.695L165.133,299.688L166.512,299.681L167.887,299.675L169.263,299.669L170.638,299.663L172.017,299.657L173.392,299.651L174.767,299.645L176.143,299.639L177.522,299.635L178.897,299.631L180.272,299.628L181.647,299.624L183.026,299.621L184.401,299.618L185.777,299.615L187.152,299.612L188.531,299.609L189.906,299.605L191.281,299.601L192.657,299.598L194.036,299.594L195.411,299.591L196.786,299.588L198.161,299.583L199.54,299.578L200.916,299.572L202.291,299.565L203.666,299.558L205.045,299.548L206.42,299.537L207.795,299.525L209.171,299.514L210.55,299.503L211.925,299.492L213.3,299.481L214.675,299.469L216.054,299.457L217.43,299.445L218.805,299.432L220.18,299.42L221.559,299.408L222.934,299.396L224.31,299.384L225.685,299.371L227.064,299.355L228.439,299.343L229.814,299.328L231.189,299.309L232.568,299.293L233.944,299.28L235.319,299.264L236.694,299.251L238.073,299.237L239.448,299.225L240.824,299.215L242.199,299.203L243.578,299.191L244.953,299.183L246.328,299.171L247.704,299.162L249.083,299.15L250.458,299.136L251.833,299.119L253.208,299.106L254.587,299.093L255.962,299.076L257.338,299.06L258.713,299.047L260.092,299.03L261.467,299.016L262.842,298.998L264.218,298.984L265.597,298.969L266.972,298.953L268.347,298.939L269.722,298.923L271.101,298.909L272.477,298.894L273.852,298.879L275.227,298.864L276.606,298.848L277.981,298.833L279.356,298.817L280.732,298.8L282.111,298.78L283.486,298.756L284.861,298.737L286.236,298.713L287.615,298.689L288.991,298.665L290.366,298.641L291.741,298.621L293.12,298.597L294.495,298.577L295.871,298.557L297.246,298.537L298.625,298.512L300,298.492L300,300L298.625,300L297.246,300L295.871,300L294.495,300L293.12,300L291.741,300L290.366,300L288.991,300L287.615,300L286.236,300L284.861,300L283.486,300L282.111,300L280.732,300L279.356,300L277.981,300L276.606,300L275.227,300L273.852,300L272.477,300L271.101,300L269.722,300L268.347,300L266.972,300L265.597,300L264.218,300L262.842,300L261.467,300L260.092,300L258.713,300L257.338,300L255.962,300L254.587,300L253.208,300L251.833,300L250.458,300L249.083,300L247.704,300L246.328,300L244.953,300L243.578,300L242.199,300L240.824,300L239.448,300L238.073,300L236.694,300L235.319,300L233.944,300L232.568,300L231.189,300L229.814,300L228.439,300L227.064,300L225.685,300L224.31,300L222.934,300L221.559,300L220.18,300L218.805,300L217.43,300L216.054,300L214.675,300L213.3,300L211.925,300L210.55,300L209.171,300L207.795,300L206.42,300L205.045,300L203.666,300L202.291,300L200.916,300L199.54,300L198.161,300L196.786,300L195.411,300L194.036,300L192.657,300L191.281,300L189.906,300L188.531,300L187.152,300L185.777,300L184.401,300L183.026,300L181.647,300L180.272,300L178.897,300L177.522,300L176.143,300L174.767,300L173.392,300L172.017,300L170.638,300L169.263,300L167.887,300L166.512,300L165.133,300L163.758,300L162.383,300L161.007,300L159.628,300L158.253,300L156.878,300L155.503,300L154.124,300L152.749,300L151.373,300L149.998,300L148.619,300L147.244,300L145.869,300L144.493,300L143.114,300L141.739,300L140.364,300L138.989,300L137.613,300L136.238,300L134.863,300L133.488,300L132.109,300L130.734,300L129.358,300L127.983,300L126.604,300L125.229,300L123.854,300L122.478,300L121.099,300L119.724,300L118.349,300L116.974,300L114.22,300L112.844,300L111.469,300L110.09,300L108.715,300L107.34,300L105.964,300L104.585,300L103.21,300L101.835,300L100.46,300L99.081,300L97.705,300L96.33,300L94.955,300L93.576,300L92.201,300L90.826,300L89.45,300L88.071,300L86.696,300L85.321,300L83.946,300L82.567,300L81.191,300L79.816,300L78.441,300L77.062,300L75.687,300L74.311,300L72.936,300L71.557,300L70.182,300L68.807,300L67.432,300L66.053,300L64.677,300L63.302,300L61.927,300L60.548,300L59.173,300L57.797,300L56.422,300L55.043,300L53.668,300L52.293,300L50.917,300L49.538,300L48.163,300L46.788,300L45.413,300L44.034,300L42.659,300L41.283,300L39.908,300L38.529,300L37.154,300L35.779,300L34.403,300L33.024,300L31.649,300L30.274,300L28.899,300L27.52,300L26.144,300L24.769,300L23.394,300L22.015,300L20.64,300L19.265,300L17.889,300L16.51,300L15.135,300L13.76,300L12.385,300L11.006,300L9.63,300L8.255,300L6.88,300L5.501,300L4.126,300L2.75,300L1.375,300L0,300Z" fill="#54a24b"/></g></g><path class="foreground" aria-hidden="true" d="" display="none"/></g></g><g class="mark-group role-legend" role="graphics-symbol" aria-roledescription="legend" aria-label="Symbol legend titled 'region' for fill color with 5 values: Africa, Americas, Asia, Europe, Oceania"><g transform="translate(318,0)"><path class="background" aria-hidden="true" d="M0,0h58v79h-58Z" pointer-events="none"/><g><g class="mark-group role-legend-entry"><g transform="translate(0,16)"><path class="background" aria-hidden="true" d="M0,0h0v0h0Z" pointer-events="none"/><g><g class="mark-group role-scope" role="graphics-object" aria-roledescription="group mark container"><g transform="translate(0,0)"><path class="background" aria-hidden="true" d="M0,0h57.6748046875v11h-57.6748046875Z" pointer-events="none" opacity="1"/><g><g class="mark-symbol role-legend-symbol" pointer-events="none"><path transform="translate(6,6)" d="M5,0A5,5,0,1,1,-5,0A5,5,0,1,1,5,0" fill="#4c78a8" stroke-width="1.5" opacity="1"/></g><g class="mark-text role-legend-label" pointer-events="none"><text text-anchor="start" transform="translate(16,9)" font-family="sans-serif" font-size="10px" fill="#000" opacity="1">Africa</text></g></g><path class="foreground" aria-hidden="true" d="" pointer-events="none" display="none"/></g><g transform="translate(0,13)"><path class="background" aria-hidden="true" d="M0,0h57.6748046875v11h-57.6748046875Z" pointer-events="none" opacity="1"/><g><g class="mark-symbol role-legend-symbol" pointer-events="none"><path transform="translate(6,6)" d="M5,0A5,5,0,1,1,-5,0A5,5,0,1,1,5,0" fill="#f58518" stroke-width="1.5" opacity="1"/></g><g class="mark-text role-legend-label" pointer-events="none"><text text-anchor="start" transform="translate(16,9)" font-family="sans-serif" font-size="10px" fill="#000" opacity="1">Americas</text></g></g><path class="foreground" aria-hidden="true" d="" pointer-events="none" display="none"/></g><g transform="translate(0,26)"><path class="background" aria-hidden="true" d="M0,0h57.6748046875v11h-57.6748046875Z" pointer-events="none" opacity="1"/><g><g class="mark-symbol role-legend-symbol" pointer-events="none"><path transform="translate(6,6)" d="M5,0A5,5,0,1,1,-5,0A5,5,0,1,1,5,0" fill="#e45756" stroke-width="1.5" opacity="1"/></g><g class="mark-text role-legend-label" pointer-events="none"><text text-anchor="start" transform="translate(16,9)" font-family="sans-serif" font-size="10px" fill="#000" opacity="1">Asia</text></g></g><path class="foreground" aria-hidden="true" d="" pointer-events="none" display="none"/></g><g transform="translate(0,39)"><path class="background" aria-hidden="true" d="M0,0h57.6748046875v11h-57.6748046875Z" pointer-events="none" opacity="1"/><g><g class="mark-symbol role-legend-symbol" pointer-events="none"><path transform="translate(6,6)" d="M5,0A5,5,0,1,1,-5,0A5,5,0,1,1,5,0" fill="#72b7b2" stroke-width="1.5" opacity="1"/></g><g class="mark-text role-legend-label" pointer-events="none"><text text-anchor="start" transform="translate(16,9)" font-family="sans-serif" font-size="10px" fill="#000" opacity="1">Europe</text></g></g><path class="foreground" aria-hidden="true" d="" pointer-events="none" display="none"/></g><g transform="translate(0,52)"><path class="background" aria-hidden="true" d="M0,0h57.6748046875v11h-57.6748046875Z" pointer-events="none" opacity="1"/><g><g class="mark-symbol role-legend-symbol" pointer-events="none"><path transform="translate(6,6)" d="M5,0A5,5,0,1,1,-5,0A5,5,0,1,1,5,0" fill="#54a24b" stroke-width="1.5" opacity="1"/></g><g class="mark-text role-legend-label" pointer-events="none"><text text-anchor="start" transform="translate(16,9)" font-family="sans-serif" font-size="10px" fill="#000" opacity="1">Oceania</text></g></g><path class="foreground" aria-hidden="true" d="" pointer-events="none" display="none"/></g></g></g><path class="foreground" aria-hidden="true" d="" pointer-events="none" display="none"/></g></g><g class="mark-text role-legend-title" pointer-events="none"><text text-anchor="start" transform="translate(0,9)" font-family="sans-serif" font-size="11px" font-weight="bold" fill="#000" opacity="1">region</text></g></g><path class="foreground" aria-hidden="true" d="" pointer-events="none" display="none"/></g></g></g><path class="foreground" aria-hidden="true" d="" display="none"/></g></g></g></svg>