<svg xmlns="http://www.w3.org/2000/svg" xmlns:xlink="http://www.w3.org/1999/xlink" version="1.1" class="marks" width="420" height="347" viewBox="0 0 420 347"><rect width="420" height="347" fill="white"/><g fill="none" stroke-miterlimit="10" transform="translate(39,10)"><g class="mark-group role-frame root" role="graphics-object" aria-roledescription="group mark container"><g transform="translate(0,0)"><path class="background" aria-hidden="true" d="M0.5,0.5h300v300h-300Z" stroke="#ddd"/><g><g class="mark-group role-axis" aria-hidden="true"><g transform="translate(0.5,0.5)"><path class="background" aria-hidden="true" d="M0,0h0v0h0Z" pointer-events="none"/><g><g class="mark-rule role-axis-grid" pointer-events="none"><line transform="translate(0,300)" x2="300" y2="0" stroke="#ddd" stroke-width="1" opacity="1"/><line transform="translate(0,273)" x2="300" y2="0" stroke="#ddd" stroke-width="1" opacity="1"/><line transform="translate(0,245)" x2="300" y2="0" stroke="#ddd" stroke-width="1" opacity="1"/><line transform="translate(0,218)" x2="300" y2="0" stroke="#ddd" stroke-width="1" opacity="1"/><line transform="translate(0,191)" x2="300" y2="0" stroke="#ddd" stroke-width="1" opacity="1"/><line transform="translate(0,164)" x2="300" y2="0" stroke="#ddd" stroke-width="1" opacity="1"/><line transform="translate(0,136)" x2="300" y2="0" stroke="#ddd" stroke-width="1" opacity="1"/><line transform="translate(0,109)" x2="300" y2="0" stroke="#ddd" stroke-width="1" opacity="1"/><line transform="translate(0,82)" x2="300" y2="0" stroke="#ddd" stroke-width="1" opacity="1"/><line transform="translate(0,55)" x2="300" y2="0" stroke="#ddd" stroke-width="1" opacity="1"/><line transform="translate(0,27)" x2="300" y2="0" stroke="#ddd" stroke-width="1" opacity="1"/><line transform="translate(0,0)" x2="300" y2="0" stroke="#ddd" stroke-width="1" opacity="1"/></g></g><path class="foreground" aria-hidden="true" d="" pointer-events="none" display="none"/></g></g><g class="mark-group role-axis" role="graphics-symbol" aria-roledescription="axis" aria-label="X-axis titled 'life_expectancy (binned)' for a linear scale with values from 50 to 86"><g transform="translate(0.5,300.5)"><path class="background" aria-hidden="true" d="M0,0h0v0h0Z" pointer-events="none"/><g><g class="mark-rule role-axis-tick" pointer-events="none"><line transform="translate(0,0)" x2="0" y2="5" stroke="#888" stroke-width="1" opacity="1"/><line transform="translate(17,0)" x2="0" y2="5" stroke="#888" stroke-width="1" opacity="1"/><line transform="translate(33,0)" x2="0" y2="5" stroke="#888" stroke-width="1" opacity="1"/><line transform="translate(50,0)" x2="0" y2="5" stroke="#888" stroke-width="1" opacity="1"/><line transform="translate(67,0)" x2="0" y2="5" stroke="#888" stroke-width="1" opacity="1"/><line transform="translate(83,0)" x2="0" y2="5" stroke="#888" stroke-width="1" opacity="1"/><line transform="translate(100,0)" x2="0" y2="5" stroke="#888" stroke-width="1" opacity="1"/><line transform="translate(117,0)" x2="0" y2="5" stroke="#888" stroke-width="1" opacity="1"/><line transform="translate(133,0)" x2="0" y2="5" stroke="#888" stroke-width="1" opacity="1"/><line transform="translate(150,0)" x2="0" y2="5" stroke="#888" stroke-width="1" opacity="1"/><line transform="translate(167,0)" x2="0" y2="5" stroke="#888" stroke-width="1" opacity="1"/><line transform="translate(183,0)" x2="0" y2="5" stroke="#888" stroke-width="1" opacity="1"/><line transform="translate(200,0)" x2="0" y2="5" stroke="#888" stroke-width="1" opacity="1"/><line transform="translate(217,0)" x2="0" y2="5" stroke="#888" stroke-width="1" opacity="1"/><line transform="translate(233,0)" x2="0" y2="5" stroke="#888" stroke-width="1" opacity="1"/><line transform="translate(250,0)" x2="0" y2="5" stroke="#888" stroke-width="1" opacity="1"/><line transform="translate(267,0)" x2="0" y2="5" stroke="#888" stroke-width="1" opacity="1"/><line transform="translate(283,0)" x2="0" y2="5" stroke="#888" stroke-width="1" opacity="1"/><line transform="translate(300,0)" x2="0" y2="5" stroke="#888" stroke-width="1" opacity="1"/></g><g class="mark-text role-axis-label" pointer-events="none"><text text-anchor="start" transform="translate(0,15)" font-family="sans-serif" font-size="10px" fill="#000" opacity="1">50</text><text text-anchor="middle" transform="translate(16.666666666666664,15)" font-family="sans-serif" font-size="10px" fill="#000" opacity="0">52</text><text text-anchor="middle" transform="translate(33.33333333333333,15)" font-family="sans-serif" font-size="10px" fill="#000" opacity="1">54</text><text text-anchor="middle" transform="translate(50,15)" font-family="sans-serif" font-size="10px" fill="#000" opacity="0">56</text><text text-anchor="middle" transform="translate(66.66666666666666,15)" font-family="sans-serif" font-size="10px" fill="#000" opacity="1">58</text><text text-anchor="middle" transform="translate(83.33333333333334,15)" font-family="sans-serif" font-size="10px" fill="#000" opacity="0">60</text><text text-anchor="middle" transform="translate(100,15)" font-family="sans-serif" font-size="10px" fill="#000" opacity="1">62</text><text text-anchor="middle" transform="translate(116.66666666666667,15)" font-family="sans-serif" font-size="10px" fill="#000" opacity="0">64</text><text text-anchor="middle" transform="translate(133.33333333333331,15)" font-family="sans-serif" font-size="10px" fill="#000" opacity="1">66</text><text text-anchor="middle" transform="translate(150,15)" font-family="sans-serif" font-size="10px" fill="#000" opacity="0">68</text><text text-anchor="middle" transform="translate(166.66666666666669,15)" font-family="sans-serif" font-size="10px" fill="#000" opacity="1">70</text><text text-anchor="middle" transform="translate(183.33333333333334,15)" font-family="sans-serif" font-size="10px" fill="#000" opacity="0">72</text><text text-anchor="middle" transform="translate(200,15)" font-family="sans-serif" font-size="10px" fill="#000" opacity="1">74</text><text text-anchor="middle" transform="translate(216.66666666666666,15)" font-family="sans-serif" font-size="10px" fill="#000" opacity="0">76</text><text text-anchor="middle" transform="translate(233.33333333333334,15)" font-family="sans-serif" font-size="10px" fill="#000" opacity="1">78</text><text text-anchor="middle" transform="translate(250,15)" font-family="sans-serif" font-size="10px" fill="#000" opacity="0">80</text><text text-anchor="middle" transform="translate(266.66666666666663,15)" font-family="sans-serif" font-size="10px" fill="#000" opacity="1">82</text><text text-anchor="middle" transform="translate(283.3333333333333,15)" font-family="sans-serif" font-size="10px" fill="#000" opacity="0">84</text><text text-anchor="end" transform="translate(300,15)" font-family="sans-serif" font-size="10px" fill="#000" opacity="1">86</text></g><g class="mark-rule role-axis-domain" pointer-events="none"><line transform="translate(0,0)" x2="300" y2="0" stroke="#888" stroke-width="1" opacity="1"/></g><g class="mark-text role-axis-title" pointer-events="none"><text text-anchor="middle" transform="translate(150,30)" font-family="sans-serif" font-size="11px" font-weight="bold" fill="#000" opacity="1">life_expectancy (binned)</text></g></g><path class="foreground" aria-hidden="true" d="" pointer-events="none" display="none"/></g></g><g class="mark-group role-axis" role="graphics-symbol" aria-roledescription="axis" aria-label="Y-axis titled 'Count of Records' for a linear scale with values from 0 to 11"><g transform="translate(0.5,0.5)"><path class="background" aria-hidden="true" d="M0,0h0v0h0Z" pointer-events="none"/><g><g class="mark-rule role-axis-tick" pointer-events="none"><line transform="translate(0,300)" x2="-5" y2="0" stroke="#888" stroke-width="1" opacity="1"/><line transform="translate(0,273)" x2="-5" y2="0" stroke="#888" stroke-width="1" opacity="1"/><line transform="translate(0,245)" x2="-5" y2="0" stroke="#888" stroke-width="1" opacity="1"/><line transform="translate(0,218)" x2="-5" y2="0" stroke="#888" stroke-width="1" opacity="1"/><line transform="translate(0,191)" x2="-5" y2="0" stroke="#888" stroke-width="1" opacity="1"/><line transform="translate(0,164)" x2="-5" y2="0" stroke="#888" stroke-width="1" opacity="1"/><line transform="translate(0,136)" x2="-5" y2="0" stroke="#888" stroke-width="1" opacity="1"/><line transform="translate(0,109)" x2="-5" y2="0" stroke="#888" stroke-width="1" opacity="1"/><line transform="translate(0,82)" x2="-5" y2="0" stroke="#888" stroke-width="1" opacity="1"/><line transform="translate(0,55)" x2="-5" y2="0" stroke="#888" stroke-width="1" opacity="1"/><line transform="translate(0,27)" x2="-5" y2="0" stroke="#888" stroke-width="1" opacity="1"/><line transform="translate(0,0)" x2="-5" y2="0" stroke="#888" stroke-width="1" opacity="1"/></g><g class="mark-text role-axis-label" pointer-events="none"><text text-anchor="end" transform="translate(-7,303)" font-family="sans-serif" font-size="10px" fill="#000" opacity="1">0</text><text text-anchor="end" transform="translate(-7,275.7272727272727)" font-family="sans-serif" font-size="10px" fill="#000" opacity="1">1</text><text text-anchor="end" transform="translate(-7,248.45454545454544)" font-family="sans-serif" font-size="10px" fill="#000" opacity="1">2</text><text text-anchor="end" transform="translate(-7,221.1818181818182)" font-family="sans-serif" font-size="10px" fill="#000" opacity="1">3</text><text text-anchor="end" transform="translate(-7,193.9090909090909)" font-family="sans-serif" font-size="10px" fill="#000" opacity="1">4</text><text text-anchor="end" transform="translate(-7,166.63636363636363)" font-family="sans-serif" font-size="10px" fill="#000" opacity="1">5</text><text text-anchor="end" transform="translate(-7,139.36363636363637)" font-family="sans-serif" font-size="10px" fill="#000" opacity="1">6</text><text text-anchor="end" transform="translate(-7,112.0909090909091)" font-family="sans-serif" font-size="10px" fill="#000" opacity="1">7</text><text text-anchor="end" transform="translate(-7,84.81818181818181)" font-family="sans-serif" font-size="10px" fill="#000" opacity="1">8</text><text text-anchor="end" transform="translate(-7,57.54545454545453)" font-family="sans-serif" font-size="10px" fill="#000" opacity="1">9</text><text text-anchor="end" transform="translate(-7,30.27272727272728)" font-family="sans-serif" font-size="10px" fill="#000" opacity="1">10</text><text text-anchor="end" transform="translate(-7,3)" font-family="sans-serif" font-size="10px" fill="#000" opacity="1">11</text></g><g class="mark-rule role-axis-domain" pointer-events="none"><line transform="translate(0,300)" x2="0" y2="-300" stroke="#888" stroke-width="1" opacity="1"/></g><g class="mark-text role-axis-title" pointer-events="none"><text text-anchor="middle" transform="translate(-22.123046875,150) rotate(-90) translate(0,-2)" font-family="sans-serif" font-size="11px" font-weight="bold" fill="#000" opacity="1">Count of Records</text></g></g><path class="foreground" aria-hidden="true" d="" pointer-events="none" display="none"/></g></g><g class="mark-rect role-mark marks" role="graphics-symbol" aria-roledescription="rect mark container"><path d="M67.66666666666666,272.7272727272727h15.666666666666686v27.27272727272731h-15.666666666666686Z" fill="#e45756" opacity="0.7"/><path d="M234.33333333333334,218.1818181818182h15.666666666666657v81.81818181818181h-15.666666666666657Z" fill="#72b7b2" opacity="0.7"/><path d="M217.66666666666666,272.7272727272727h15.666666666666686v27.27272727272731h-15.666666666666686Z" fill="#4c78a8" opacity="0.7"/><path d="M117.66666666666667,136.36363636363637h15.666666666666643v163.63636363636363h-15.666666666666643Z" fill="#4c78a8" opacity="0.7"/><path d="M217.66666666666666,136.36363636363637h15.666666666666686v163.63636363636363h-15.666666666666686Z" fill="#f58518" opacity="0.7"/><path d="M217.66666666666666,81.81818181818181h15.666666666666686v218.1818181818182h-15.666666666666686Z" fill="#e45756" opacity="0.7"/><path d="M267.66666666666663,272.7272727272727h15.666666666666686v27.27272727272731h-15.666666666666686Z" fill="#54a24b" opacity="0.7"/><path d="M251,0h15.666666666666629v300h-15.666666666666629Z" fill="#72b7b2" opacity="0.7"/><path d="M184.33333333333334,109.0909090909091h15.666666666666657v190.9090909090909h-15.666666666666657Z" fill="#e45756" opacity="0.7"/><path d="M201,109.0909090909091h15.666666666666657v190.9090909090909h-15.666666666666657Z" fill="#f58518" opacity="0.7"/><path d="M184.33333333333334,218.1818181818182h15.666666666666657v81.81818181818181h-15.666666666666657Z" fill="#72b7b2" opacity="0.7"/><path d="M184.33333333333334,190.9090909090909h15.666666666666657v109.0909090909091h-15.666666666666657Z" fill="#f58518" opacity="0.7"/><path d="M201,190.9090909090909h15.666666666666657v109.0909090909091h-15.666666666666657Z" fill="#e45756" opacity="0.7"/><path d="M217.66666666666666,136.36363636363637h15.666666666666686v163.63636363636363h-15.666666666666686Z" fill="#72b7b2" opacity="0.7"/><path d="M134.33333333333331,27.27272727272728h15.666666666666686v272.72727272727275h-15.666666666666686Z" fill="#4c78a8" opacity="0.7"/><path d="M201,136.36363636363637h15.666666666666657v163.63636363636363h-15.666666666666657Z" fill="#72b7b2" opacity="0.7"/><path d="M84.33333333333334,0h15.666666666666657v300h-15.666666666666657Z" fill="#4c78a8" opacity="0.7"/><path d="M151,136.36363636363637h15.666666666666686v163.63636363636363h-15.666666666666686Z" fill="#e45756" opacity="0.7"/><path d="M267.66666666666663,272.7272727272727h15.666666666666686v27.27272727272731h-15.666666666666686Z" fill="#f58518" opacity="0.7"/><path d="M1,245.45454545454544h15.666666666666664v54.54545454545456h-15.666666666666664Z" fill="#4c78a8" opacity="0.7"/><path d="M251,218.1818181818182h15.666666666666629v81.81818181818181h-15.666666666666629Z" fill="#f58518" opacity="0.7"/><path d="M234.33333333333334,136.36363636363637h15.666666666666657v163.63636363636363h-15.666666666666657Z" fill="#f58518" opacity="0.7"/><path d="M151,218.1818181818182h15.666666666666686v81.81818181818181h-15.666666666666686Z" fill="#4c78a8" opacity="0.7"/><path d="M101,81.81818181818181h15.666666666666671v218.1818181818182h-15.666666666666671Z" fill="#4c78a8" opacity="0.7"/><path d="M251,136.36363636363637h15.666666666666629v163.63636363636363h-15.666666666666629Z" fill="#e45756" opacity="0.7"/><path d="M184.33333333333334,272.7272727272727h15.666666666666657v27.27272727272731h-15.666666666666657Z" fill="#4c78a8" opacity="0.7"/><path d="M117.66666666666667,245.45454545454544h15.666666666666643v54.54545454545456h-15.666666666666643Z" fill="#54a24b" opacity="0.7"/><path d="M267.66666666666663,54.54545454545453h15.666666666666686v245.45454545454547h-15.666666666666686Z" fill="#72b7b2" opacity="0.7"/><path d="M167.66666666666669,245.45454545454544h15.666666666666657v54.54545454545456h-15.666666666666657Z" fill="#f58518" opacity="0.7"/><path d="M67.66666666666666,190.9090909090909h15.666666666666686v109.0909090909091h-15.666666666666686Z" fill="#4c78a8" opacity="0.7"/><path d="M151,272.7272727272727h15.666666666666686v27.27272727272731h-15.666666666666686Z" fill="#f58518" opacity="0.7"/><path d="M117.66666666666667,272.7272727272727h15.666666666666643v27.27272727272731h-15.666666666666643Z" fill="#f58518" opacity="0.7"/><path d="M267.66666666666663,272.7272727272727h15.666666666666686v27.27272727272731h-15.666666666666686Z" fill="#e45756" opacity="0.7"/><path d="M284.3333333333333,245.45454545454544h15.666666666666686v54.54545454545456h-15.666666666666686Z" fill="#e45756" opacity="0.7"/><path d="M101,245.45454545454544h15.666666666666671v54.54545454545456h-15.666666666666671Z" fill="#54a24b" opacity="0.7"/><path d="M167.66666666666669,109.0909090909091h15.666666666666657v190.9090909090909h-15.666666666666657Z" fill="#e45756" opacity="0.7"/><path d="M134.33333333333331,245.45454545454544h15.666666666666686v54.54545454545456h-15.666666666666686Z" fill="#e45756" opacity="0.7"/><path d="M201,190.9090909090909h15.666666666666657v109.0909090909091h-15.666666666666657Z" fill="#4c78a8" opacity="0.7"/><path d="M167.66666666666669,272.7272727272727h15.666666666666657v27.27272727272731h-15.666666666666657Z" fill="#4c78a8" opacity="0.7"/><path d="M251,272.7272727272727h15.666666666666629v27.27272727272731h-15.666666666666629Z" fill="#54a24b" opacity="0.7"/><path d="M234.33333333333334,218.1818181818182h15.666666666666657v81.81818181818181h-15.666666666666657Z" fill="#e45756" opacity="0.7"/><path d="M84.33333333333334,272.7272727272727h15.666666666666657v27.27272727272731h-15.666666666666657Z" fill="#54a24b" opacity="0.7"/><path d="M167.66666666666669,272.7272727272727h15.666666666666657v27.27272727272731h-15.666666666666657Z" fill="#72b7b2" opacity="0.7"/><path d="M184.33333333333334,272.7272727272727h15.666666666666657v27.27272727272731h-15.666666666666657Z" fill="#54a24b" opacity="0.7"/><path d="M167.66666666666669,272.7272727272727h15.666666666666657v27.27272727272731h-15.666666666666657Z" fill="#54a24b" opacity="0.7"/><path d="M234.33333333333334,272.7272727272727h15.666666666666657v27.27272727272731h-15.666666666666657Z" fill="#4c78a8" opacity="0.7"/></g><g class="mark-group role-legend" role="graphics-symbol" aria-roledescription="legend" aria-label="Symbol legend titled 'region' for fill color with 5 values: Africa, Americas, Asia, Europe, Oceania"><g transform="translate(318,0)"><path class="background" aria-hidden="true" d="M0,0h58v79h-58Z" pointer-events="none"/><g><g class="mark-group role-legend-entry"><g transform="translate(0,16)"><path class="background" aria-hidden="true" d="M0,0h0v0h0Z" pointer-events="none"/><g><g class="mark-group role-scope" role="graphics-object" aria-roledescription="group mark container"><g transform="translate(0,0)"><path class="background" aria-hidden="true" d="M0,0h57.6748046875v11h-57.6748046875Z" pointer-events="none" opacity="1"/><g><g class="mark-symbol role-legend-symbol" pointer-events="none"><path transform="translate(6,6)" d="M-5,-5h10v10h-10Z" fill="#4c78a8" stroke-width="1.5" opacity="0.7"/></g><g class="mark-text role-legend-label" pointer-events="none"><text text-anchor="start" transform="translate(16,9)" font-family="sans-serif" font-size="10px" fill="#000" opacity="1">Africa</text></g></g><path class="foreground" aria-hidden="true" d="" pointer-events="none" display="none"/></g><g transform="translate(0,13)"><path class="background" aria-hidden="true" d="M0,0h57.6748046875v11h-57.6748046875Z" pointer-events="none" opacity="1"/><g><g class="mark-symbol role-legend-symbol" pointer-events="none"><path transform="translate(6,6)" d="M-5,-5h10v10h-10Z" fill="#f58518" stroke-width="1.5" opacity="0.7"/></g><g class="mark-text role-legend-label" pointer-events="none"><text text-anchor="start" transform="translate(16,9)" font-family="sans-serif" font-size="10px" fill="#000" opacity="1">Americas</text></g></g><path class="foreground" aria-hidden="true" d="" pointer-events="none" display="none"/></g><g transform="translate(0,26)"><path class="background" aria-hidden="true" d="M0,0h57.6748046875v11h-57.6748046875Z" pointer-events="none" opacity="1"/><g><g class="mark-symbol role-legend-symbol" pointer-events="none"><path transform="translate(6,6)" d="M-5,-5h10v10h-10Z" fill="#e45756" stroke-width="1.5" opacity="0.7"/></g><g class="mark-text role-legend-label" pointer-events="none"><text text-anchor="start" transform="translate(16,9)" font-family="sans-serif" font-size="10px" fill="#000" opacity="1">Asia</text></g></g><path class="foreground" aria-hidden="true" d="" pointer-events="none" display="none"/></g><g transform="translate(0,39)"><path class="background" aria-hidden="true" d="M0,0h57.6748046875v11h-57.6748046875Z" pointer-events="none" opacity="1"/><g><g class="mark-symbol role-legend-symbol" pointer-events="none"><path transform="translate(6,6)" d="M-5,-5h10v10h-10Z" fill="#72b7b2" stroke-width="1.5" opacity="0.7"/></g><g class="mark-text role-legend-label" pointer-events="none"><text text-anchor="start" transform="translate(16,9)" font-family="sans-serif" font-size="10px" fill="#000" opacity="1">Europe</text></g></g><path class="foreground" aria-hidden="true" d="" pointer-events="none" display="none"/></g><g transform="translate(0,52)"><path class="background" aria-hidden="true" d="M0,0h57.6748046875v11h-57.6748046875Z" pointer-events="none" opacity="1"/><g><g class="mark-symbol role-legend-symbol" pointer-events="none"><path transform="translate(6,6)" d="M-5,-5h10v10h-10Z" fill="#54a24b" stroke-width="1.5" opacity="0.7"/></g><g class="mark-text role-legend-label" pointer-events="none"><text text-anchor="start" transform="translate(16,9)" font-family="sans-serif" font-size="10px" fill="#000" opacity="1">Oceania</text></g></g><path class="foreground" aria-hidden="true" d="" pointer-events="none" display="none"/></g></g></g><path class="foreground" aria-hidden="true" d="" pointer-events="none" display="none"/></g></g><g class="mark-text role-legend-title" pointer-events="none"><text text-anchor="start" transform="translate(0,9)" font-family="sans-serif" font-size="11px" font-weight="bold" fill="#000" opacity="1">region</text></g></g><path class="foreground" aria-hidden="true" d="" pointer-events="none" display="none"/></g></g></g><path class="foreground" aria-hidden="true" d="" display="none"/></g></g></g></svg>