<svg xmlns="http://www.w3.org/2000/svg" xmlns:xlink="http://www.w3.org/1999/xlink" version="1.1" class="marks" width="347" height="347" viewBox="0 0 347 347"><rect width="347" height="347" fill="white"/><g fill="none" stroke-miterlimit="10" transform="translate(41,10)"><g class="mark-group role-frame root" role="graphics-object" aria-roledescription="group mark container"><g transform="translate(0,0)"><path class="background" aria-hidden="true" d="M0.5,0.5h300v300h-300Z" stroke="#ddd"/><g><g class="mark-group role-axis" aria-hidden="true"><g transform="translate(0.5,300.5)"><path class="background" aria-hidden="true" d="M0,0h0v0h0Z" pointer-events="none"/><g><g class="mark-rule role-axis-grid" pointer-events="none"><line transform="translate(0,-300)" x2="0" y2="300" stroke="#ddd" stroke-width="1" opacity="1"/><line transform="translate(43,-300)" x2="0" y2="300" stroke="#ddd" stroke-width="1" opacity="1"/><line transform="translate(86,-300)" x2="0" y2="300" stroke="#ddd" stroke-width="1" opacity="1"/><line transform="translate(129,-300)" x2="0" y2="300" stroke="#ddd" stroke-width="1" opacity="1"/><line transform="translate(171,-300)" x2="0" y2="300" stroke="#ddd" stroke-width="1" opacity="1"/><line transform="translate(214,-300)" x2="0" y2="300" stroke="#ddd" stroke-width="1" opacity="1"/><line transform="translate(257,-300)" x2="0" y2="300" stroke="#ddd" stroke-width="1" opacity="1"/><line transform="translate(300,-300)" x2="0" y2="300" stroke="#ddd" stroke-width="1" opacity="1"/></g></g><path class="foreground" aria-hidden="true" d="" pointer-events="none" display="none"/></g></g><g class="mark-group role-axis" aria-hidden="true"><g transform="translate(0.5,0.5)"><path class="background" aria-hidden="true" d="M0,0h0v0h0Z" pointer-events="none"/><g><g class="mark-rule role-axis-grid" pointer-events="none"><line transform="translate(0,300)" x2="300" y2="0" stroke="#ddd" stroke-width="1" opacity="1"/><line transform="translate(0,263)" x2="300" y2="0" stroke="#ddd" stroke-width="1" opacity="1"/><line transform="translate(0,225)" x2="300" y2="0" stroke="#ddd" stroke-width="1" opacity="1"/><line transform="translate(0,188)" x2="300" y2="0" stroke="#ddd" stroke-width="1" opacity="1"/><line transform="translate(0,150)" x2="300" y2="0" stroke="#ddd" stroke-width="1" opacity="1"/><line transform="translate(0,113)" x2="300" y2="0" stroke="#ddd" stroke-width="1" opacity="1"/><line transform="translate(0,75)" x2="300" y2="0" stroke="#ddd" stroke-width="1" opacity="1"/><line transform="translate(0,38)" x2="300" y2="0" stroke="#ddd" stroke-width="1" opacity="1"/><line transform="translate(0,0)" x2="300" y2="0" stroke="#ddd" stroke-width="1" opacity="1"/></g></g><path class="foreground" aria-hidden="true" d="" pointer-events="none" display="none"/></g></g><g class="mark-group role-axis" role="graphics-symbol" aria-roledescription="axis" aria-label="X-axis titled 'life_expectancy' for a linear scale with values from 50 to 85"><g transform="translate(0.5,300.5)"><path class="background" aria-hidden="true" d="M0,0h0v0h0Z" pointer-events="none"/><g><g class="mark-rule role-axis-tick" pointer-events="none"><line transform="translate(0,0)" x2="0" y2="5" stroke="#888" stroke-width="1" opacity="1"/><line transform="translate(43,0)" x2="0" y2="5" stroke="#888" stroke-width="1" opacity="1"/><line transform="translate(86,0)" x2="0" y2="5" stroke="#888" stroke-width="1" opacity="1"/><line transform="translate(129,0)" x2="0" y2="5" stroke="#888" stroke-width="1" opacity="1"/><line transform="translate(171,0)" x2="0" y2="5" stroke="#888" stroke-width="1" opacity="1"/><line transform="translate(214,0)" x2="0" y2="5" stroke="#888" stroke-width="1" opacity="1"/><line transform="translate(257,0)" x2="0" y2="5" stroke="#888" stroke-width="1" opacity="1"/><line transform="translate(300,0)" x2="0" y2="5" stroke="#888" stroke-width="1" opacity="1"/></g><g class="mark-text role-axis-label" pointer-events="none"><text text-anchor="start" transform="translate(0,15)" font-family="sans-serif" font-size="10px" fill="#000" opacity="1">50</text><text text-anchor="middle" transform="translate(42.857142857142854,15)" font-family="sans-serif" font-size="10px" fill="#000" opacity="1">55</text><text text-anchor="middle" transform="translate(85.71428571428571,15)" font-family="sans-serif" font-size="10px" fill="#000" opacity="1">60</text><text text-anchor="middle" transform="translate(128.57142857142856,15)" font-family="sans-serif" font-size="10px" fill="#000" opacity="1">65</text><text text-anchor="middle" transform="translate(171.42857142857142,15)" font-family="sans-serif" font-size="10px" fill="#000" opacity="1">70</text><text text-anchor="middle" transform="translate(214.28571428571428,15)" font-family="sans-serif" font-size="10px" fill="#000" opacity="1">75</text><text text-anchor="middle" transform="translate(257.1428571428571,15)" font-family="sans-serif" font-size="10px" fill="#000" opacity="1">80</text><text text-anchor="end" transform="translate(300,15)" font-family="sans-serif" font-size="10px" fill="#000" opacity="1">85</text></g><g class="mark-rule role-axis-domain" pointer-events="none"><line transform="translate(0,0)" x2="300" y2="0" stroke="#888" stroke-width="1" opacity="1"/></g><g class="mark-text role-axis-title" pointer-events="none"><text text-anchor="middle" transform="translate(150,30)" font-family="sans-serif" font-size="11px" font-weight="bold" fill="#000" opacity="1">life_expectancy</text></g></g><path class="foreground" aria-hidden="true" d="" pointer-events="none" display="none"/></g></g><g class="mark-group role-axis" role="graphics-symbol" aria-roledescription="axis" aria-label="Y-axis titled 'Count of Records' for a linear scale with values from 0 to 4"><g transform="translate(0.5,0.5)"><path class="background" aria-hidden="true" d="M0,0h0v0h0Z" pointer-events="none"/><g><g class="mark-rule role-axis-tick" pointer-events="none"><line transform="translate(0,300)" x2="-5" y2="0" stroke="#888" stroke-width="1" opacity="1"/><line transform="translate(0,263)" x2="-5" y2="0" stroke="#888" stroke-width="1" opacity="1"/><line transform="translate(0,225)" x2="-5" y2="0" stroke="#888" stroke-width="1" opacity="1"/><line transform="translate(0,188)" x2="-5" y2="0" stroke="#888" stroke-width="1" opacity="1"/><line transform="translate(0,150)" x2="-5" y2="0" stroke="#888" stroke-width="1" opacity="1"/><line transform="translate(0,113)" x2="-5" y2="0" stroke="#888" stroke-width="1" opacity="1"/><line transform="translate(0,75)" x2="-5" y2="0" stroke="#888" stroke-width="1" opacity="1"/><line transform="translate(0,38)" x2="-5" y2="0" stroke="#888" stroke-width="1" opacity="1"/><line transform="translate(0,0)" x2="-5" y2="0" stroke="#888" stroke-width="1" opacity="1"/></g><g class="mark-text role-axis-label" pointer-events="none"><text text-anchor="end" transform="translate(-7,303)" font-family="sans-serif" font-size="10px" fill="#000" opacity="1">0.0</text><text text-anchor="end" transform="translate(-7,265.5)" font-family="sans-serif" font-size="10px" fill="#000" opacity="1">0.5</text><text text-anchor="end" transform="translate(-7,228)" font-family="sans-serif" font-size="10px" fill="#000" opacity="1">1.0</text><text text-anchor="end" transform="translate(-7,190.5)" font-family="sans-serif" font-size="10px" fill="#000" opacity="1">1.5</text><text text-anchor="end" transform="translate(-7,153)" font-family="sans-serif" font-size="10px" fill="#000" opacity="1">2.0</text><text text-anchor="end" transform="translate(-7,115.5)" font-family="sans-serif" font-size="10px" fill="#000" opacity="1">2.5</text><text text-anchor="end" transform="translate(-7,78)" font-family="sans-serif" font-size="10px" fill="#000" opacity="1">3.0</text><text text-anchor="end" transform="translate(-7,40.5)" font-family="sans-serif" font-size="10px" fill="#000" opacity="1">3.5</text><text text-anchor="end" transform="translate(-7,3)" font-family="sans-serif" font-size="10px" fill="#000" opacity="1">4.0</text></g><g class="mark-rule role-axis-domain" pointer-events="none"><line transform="translate(0,300)" x2="0" y2="-300" stroke="#888" stroke-width="1" opacity="1"/></g><g class="mark-text role-axis-title" pointer-events="none"><text text-anchor="middle" transform="translate(-24.9013671875,150) rotate(-90) translate(0,-2)" font-family="sans-serif" font-size="11px" font-weight="bold" fill="#000" opacity="1">Count of Records</text></g></g><path class="foreground" aria-hidden="true" d="" pointer-events="none" display="none"/></g></g><g class="mark-rect role-mark marks" role="graphics-symbol" aria-roledescription="rect mark container"><path d="M72.0714285714286,225h5v75h-5Z" fill="#4c78a8"/><path d="M237.5,150h5v150h-5Z" fill="#4c78a8"/><path d="M236.64285714285717,150h5v150h-5Z" fill="#4c78a8"/><path d="M127.7857142857143,225h5v75h-5Z" fill="#4c78a8"/><path d="M234.0714285714285,75h5v225h-5Z" fill="#4c78a8"/><path d="M228.92857142857144,225h5v75h-5Z" fill="#4c78a8"/><path d="M220.35714285714286,225h5v75h-5Z" fill="#4c78a8"/><path d="M279.50000000000006,225h5v75h-5Z" fill="#4c78a8"/><path d="M270.07142857142856,75h5v225h-5Z" fill="#4c78a8"/><path d="M188.6428571428571,150h5v150h-5Z" fill="#4c78a8"/><path d="M204.07142857142853,225h5v75h-5Z" fill="#4c78a8"/><path d="M230.64285714285717,150h5v150h-5Z" fill="#4c78a8"/><path d="M198.0714285714286,150h5v150h-5Z" fill="#4c78a8"/><path d="M227.2142857142857,150h5v150h-5Z" fill="#4c78a8"/><path d="M201.49999999999997,225h5v75h-5Z" fill="#4c78a8"/><path d="M264.92857142857144,150h5v150h-5Z" fill="#4c78a8"/><path d="M190.35714285714286,225h5v75h-5Z" fill="#4c78a8"/><path d="M126.07142857142856,225h5v75h-5Z" fill="#4c78a8"/><path d="M210.07142857142856,150h5v150h-5Z" fill="#4c78a8"/><path d="M203.21428571428572,225h5v75h-5Z" fill="#4c78a8"/><path d="M142.35714285714292,225h5v75h-5Z" fill="#4c78a8"/><path d="M217.7857142857143,225h5v75h-5Z" fill="#4c78a8"/><path d="M214.35714285714283,150h5v150h-5Z" fill="#4c78a8"/><path d="M96.92857142857144,225h5v75h-5Z" fill="#4c78a8"/><path d="M92.64285714285715,75h5v225h-5Z" fill="#4c78a8"/><path d="M162.92857142857142,225h5v75h-5Z" fill="#4c78a8"/><path d="M93.50000000000001,150h5v150h-5Z" fill="#4c78a8"/><path d="M273.5,225h5v75h-5Z" fill="#4c78a8"/><path d="M11.214285714285726,225h5v75h-5Z" fill="#4c78a8"/><path d="M87.5,225h5v75h-5Z" fill="#4c78a8"/><path d="M260.64285714285717,150h5v150h-5Z" fill="#4c78a8"/><path d="M228.0714285714286,150h5v150h-5Z" fill="#4c78a8"/><path d="M242.64285714285708,225h5v75h-5Z" fill="#4c78a8"/><path d="M151.78571428571428,75h5v225h-5Z" fill="#4c78a8"/><path d="M103.78571428571428,225h5v75h-5Z" fill="#4c78a8"/><path d="M116.64285714285712,225h5v75h-5Z" fill="#4c78a8"/><path d="M266.6428571428572,225h5v75h-5Z" fill="#4c78a8"/><path d="M234.92857142857144,150h5v150h-5Z" fill="#4c78a8"/><path d="M248.6428571428571,225h5v75h-5Z" fill="#4c78a8"/><path d="M261.49999999999994,225h5v75h-5Z" fill="#4c78a8"/><path d="M249.50000000000006,150h5v150h-5Z" fill="#4c78a8"/><path d="M264.07142857142856,150h5v150h-5Z" fill="#4c78a8"/><path d="M144.07142857142853,150h5v150h-5Z" fill="#4c78a8"/><path d="M221.21428571428567,225h5v75h-5Z" fill="#4c78a8"/><path d="M240.07142857142856,225h5v75h-5Z" fill="#4c78a8"/><path d="M191.21428571428567,225h5v75h-5Z" fill="#4c78a8"/><path d="M218.64285714285714,225h5v75h-5Z" fill="#4c78a8"/><path d="M135.49999999999994,150h5v150h-5Z" fill="#4c78a8"/><path d="M122.6428571428571,225h5v75h-5Z" fill="#4c78a8"/><path d="M138.0714285714286,225h5v75h-5Z" fill="#4c78a8"/><path d="M132.92857142857142,225h5v75h-5Z" fill="#4c78a8"/><path d="M272.64285714285705,225h5v75h-5Z" fill="#4c78a8"/><path d="M276.9285714285714,75h5v225h-5Z" fill="#4c78a8"/><path d="M145.78571428571428,150h5v150h-5Z" fill="#4c78a8"/><path d="M150.07142857142853,225h5v75h-5Z" fill="#4c78a8"/><path d="M205.78571428571425,225h5v75h-5Z" fill="#4c78a8"/><path d="M265.7857142857143,0h5v300h-5Z" fill="#4c78a8"/><path d="M139.78571428571425,225h5v75h-5Z" fill="#4c78a8"/><path d="M185.21428571428578,225h5v75h-5Z" fill="#4c78a8"/><path d="M196.3571428571429,225h5v75h-5Z" fill="#4c78a8"/><path d="M99.49999999999999,225h5v75h-5Z" fill="#4c78a8"/><path d="M80.64285714285717,225h5v75h-5Z" fill="#4c78a8"/><path d="M153.50000000000003,225h5v75h-5Z" fill="#4c78a8"/><path d="M121.78571428571429,225h5v75h-5Z" fill="#4c78a8"/><path d="M195.49999999999994,225h5v75h-5Z" fill="#4c78a8"/><path d="M219.50000000000006,75h5v225h-5Z" fill="#4c78a8"/><path d="M161.21428571428567,225h5v75h-5Z" fill="#4c78a8"/><path d="M186.07142857142856,150h5v150h-5Z" fill="#4c78a8"/><path d="M224.64285714285714,225h5v75h-5Z" fill="#4c78a8"/><path d="M267.5,225h5v75h-5Z" fill="#4c78a8"/><path d="M275.2142857142857,0h5v300h-5Z" fill="#4c78a8"/><path d="M213.50000000000003,150h5v150h-5Z" fill="#4c78a8"/><path d="M290.64285714285717,225h5v75h-5Z" fill="#4c78a8"/><path d="M226.35714285714286,225h5v75h-5Z" fill="#4c78a8"/><path d="M102.0714285714286,225h5v75h-5Z" fill="#4c78a8"/><path d="M254.6428571428571,225h5v75h-5Z" fill="#4c78a8"/><path d="M181.7857142857143,150h5v150h-5Z" fill="#4c78a8"/><path d="M150.92857142857147,225h5v75h-5Z" fill="#4c78a8"/><path d="M212.64285714285708,225h5v75h-5Z" fill="#4c78a8"/><path d="M258.92857142857144,225h5v75h-5Z" fill="#4c78a8"/><path d="M6.928571428571441,225h5v75h-5Z" fill="#4c78a8"/><path d="M129.50000000000006,225h5v75h-5Z" fill="#4c78a8"/><path d="M216.07142857142856,75h5v225h-5Z" fill="#4c78a8"/><path d="M112.35714285714285,225h5v75h-5Z" fill="#4c78a8"/><path d="M91.78571428571428,225h5v75h-5Z" fill="#4c78a8"/><path d="M255.49999999999994,225h5v75h-5Z" fill="#4c78a8"/><path d="M108.07142857142857,150h5v150h-5Z" fill="#4c78a8"/><path d="M174.07142857142853,225h5v75h-5Z" fill="#4c78a8"/><path d="M210.9285714285715,150h5v150h-5Z" fill="#4c78a8"/><path d="M189.50000000000003,150h5v150h-5Z" fill="#4c78a8"/><path d="M157.7857142857143,225h5v75h-5Z" fill="#4c78a8"/><path d="M231.49999999999997,225h5v75h-5Z" fill="#4c78a8"/><path d="M171.5,225h5v75h-5Z" fill="#4c78a8"/><path d="M132.0714285714286,225h5v75h-5Z" fill="#4c78a8"/><path d="M270.9285714285715,225h5v75h-5Z" fill="#4c78a8"/><path d="M243.50000000000003,225h5v75h-5Z" fill="#4c78a8"/><path d="M104.64285714285714,225h5v75h-5Z" fill="#4c78a8"/><path d="M178.3571428571428,150h5v150h-5Z" fill="#4c78a8"/><path d="M238.3571428571428,225h5v75h-5Z" fill="#4c78a8"/><path d="M187.7857142857143,150h5v150h-5Z" fill="#4c78a8"/><path d="M256.3571428571429,225h5v75h-5Z" fill="#4c78a8"/><path d="M173.21428571428572,75h5v225h-5Z" fill="#4c78a8"/><path d="M239.21428571428575,150h5v150h-5Z" fill="#4c78a8"/><path d="M154.35714285714283,225h5v75h-5Z" fill="#4c78a8"/><path d="M141.49999999999997,225h5v75h-5Z" fill="#4c78a8"/><path d="M222.0714285714286,225h5v75h-5Z" fill="#4c78a8"/><path d="M204.92857142857144,225h5v75h-5Z" fill="#4c78a8"/><path d="M83.21428571428571,225h5v75h-5Z" fill="#4c78a8"/><path d="M288.92857142857144,225h5v75h-5Z" fill="#4c78a8"/><path d="M114.07142857142858,225h5v75h-5Z" fill="#4c78a8"/><path d="M66.07142857142857,225h5v75h-5Z" fill="#4c78a8"/><path d="M113.21428571428572,225h5v75h-5Z" fill="#4c78a8"/><path d="M89.21428571428574,225h5v75h-5Z" fill="#4c78a8"/><path d="M282.0714285714286,225h5v75h-5Z" fill="#4c78a8"/><path d="M235.78571428571425,225h5v75h-5Z" fill="#4c78a8"/><path d="M158.6428571428571,225h5v75h-5Z" fill="#4c78a8"/><path d="M182.6428571428571,225h5v75h-5Z" fill="#4c78a8"/><path d="M71.21428571428572,225h5v75h-5Z" fill="#4c78a8"/><path d="M284.64285714285717,225h5v75h-5Z" fill="#4c78a8"/><path d="M167.2142857142857,225h5v75h-5Z" fill="#4c78a8"/><path d="M130.35714285714286,225h5v75h-5Z" fill="#4c78a8"/><path d="M197.21428571428567,225h5v75h-5Z" fill="#4c78a8"/><path d="M109.7857142857143,225h5v75h-5Z" fill="#4c78a8"/><path d="M174.92857142857144,225h5v75h-5Z" fill="#4c78a8"/><path d="M251.21428571428567,225h5v75h-5Z" fill="#4c78a8"/><path d="M246.9285714285714,225h5v75h-5Z" fill="#4c78a8"/><path d="M120.07142857142854,225h5v75h-5Z" fill="#4c78a8"/><path d="M78.92857142857142,225h5v75h-5Z" fill="#4c78a8"/><path d="M84.92857142857146,225h5v75h-5Z" fill="#4c78a8"/></g></g><path class="foreground" aria-hidden="true" d="" display="none"/></g></g></g></svg>