<svg xmlns="http://www.w3.org/2000/svg" xmlns:xlink="http://www.w3.org/1999/xlink" version="1.1" class="marks" width="476" height="396" viewBox="0 0 476 396"><rect width="476" height="396" fill="white"/><g fill="none" stroke-miterlimit="10" transform="translate(52,46)"><g class="mark-group role-frame root" role="graphics-object" aria-roledescription="group mark container"><g transform="translate(0,0)"><path class="background" aria-hidden="true" d="M0.5,0.5h300v300h-300Z" stroke="#ddd"/><g><g class="mark-group role-axis" aria-hidden="true"><g transform="translate(0.5,300.5)"><path class="background" aria-hidden="true" d="M0,0h0v0h0Z" pointer-events="none"/><g><g class="mark-rule role-axis-grid" pointer-events="none"><line transform="translate(0,-300)" x2="0" y2="300" stroke="#ddd" stroke-width="1" opacity="1"/><line transform="translate(46,-300)" x2="0" y2="300" stroke="#ddd" stroke-width="1" opacity="1"/><line transform="translate(92,-300)" x2="0" y2="300" stroke="#ddd" stroke-width="1" opacity="1"/><line transform="translate(138,-300)" x2="0" y2="300" stroke="#ddd" stroke-width="1" opacity="1"/><line transform="translate(185,-300)" x2="0" y2="300" stroke="#ddd" stroke-width="1" opacity="1"/><line transform="translate(231,-300)" x2="0" y2="300" stroke="#ddd" stroke-width="1" opacity="1"/><line transform="translate(277,-300)" x2="0" y2="300" stroke="#ddd" stroke-width="1" opacity="1"/></g></g><path class="foreground" aria-hidden="true" d="" pointer-events="none" display="none"/></g></g><g class="mark-group role-axis" aria-hidden="true"><g transform="translate(0.5,0.5)"><path class="background" aria-hidden="true" d="M0,0h0v0h0Z" pointer-events="none"/><g><g class="mark-rule role-axis-grid" pointer-events="none"><line transform="translate(0,300)" x2="300" y2="0" stroke="#ddd" stroke-width="1" opacity="1"/><line transform="translate(0,257)" x2="300" y2="0" stroke="#ddd" stroke-width="1" opacity="1"/><line transform="translate(0,214)" x2="300" y2="0" stroke="#ddd" stroke-width="1" opacity="1"/><line transform="translate(0,171)" x2="300" y2="0" stroke="#ddd" stroke-width="1" opacity="1"/><line transform="translate(0,129)" x2="300" y2="0" stroke="#ddd" stroke-width="1" opacity="1"/><line transform="translate(0,86)" x2="300" y2="0" stroke="#ddd" stroke-width="1" opacity="1"/><line transform="translate(0,43)" x2="300" y2="0" stroke="#ddd" stroke-width="1" opacity="1"/><line transform="translate(0,0)" x2="300" y2="0" stroke="#ddd" stroke-width="1" opacity="1"/></g></g><path class="foreground" aria-hidden="true" d="" pointer-events="none" display="none"/></g></g><g class="mark-group role-axis" role="graphics-symbol" aria-roledescription="axis" aria-label="X-axis titled 'Child mortality' for a linear scale with values from 0 to 130"><g transform="translate(0.5,300.5)"><path class="background" aria-hidden="true" d="M0,0h0v0h0Z" pointer-events="none"/><g><g class="mark-rule role-axis-tick" pointer-events="none"><line transform="translate(0,0)" x2="0" y2="5" stroke="#888" stroke-width="1" opacity="1"/><line transform="translate(46,0)" x2="0" y2="5" stroke="#888" stroke-width="1" opacity="1"/><line transform="translate(92,0)" x2="0" y2="5" stroke="#888" stroke-width="1" opacity="1"/><line transform="translate(138,0)" x2="0" y2="5" stroke="#888" stroke-width="1" opacity="1"/><line transform="translate(185,0)" x2="0" y2="5" stroke="#888" stroke-width="1" opacity="1"/><line transform="translate(231,0)" x2="0" y2="5" stroke="#888" stroke-width="1" opacity="1"/><line transform="translate(277,0)" x2="0" y2="5" stroke="#888" stroke-width="1" opacity="1"/></g><g class="mark-text role-axis-label" pointer-events="none"><text text-anchor="start" transform="translate(0,18)" font-family="sans-serif" font-size="14px" fill="#000" opacity="1">0</text><text text-anchor="middle" transform="translate(46.15384615384615,18)" font-family="sans-serif" font-size="14px" fill="#000" opacity="1">20</text><text text-anchor="middle" transform="translate(92.3076923076923,18)" font-family="sans-serif" font-size="14px" fill="#000" opacity="1">40</text><text text-anchor="middle" transform="translate(138.46153846153848,18)" font-family="sans-serif" font-size="14px" fill="#000" opacity="1">60</text><text text-anchor="middle" transform="translate(184.6153846153846,18)" font-family="sans-serif" font-size="14px" fill="#000" opacity="1">80</text><text text-anchor="middle" transform="translate(230.76923076923077,18)" font-family="sans-serif" font-size="14px" fill="#000" opacity="1">100</text><text text-anchor="middle" transform="translate(276.92307692307696,18)" font-family="sans-serif" font-size="14px" fill="#000" opacity="1">120</text></g><g class="mark-rule role-axis-domain" pointer-events="none"><line transform="translate(0,0)" x2="300" y2="0" stroke="#888" stroke-width="1" opacity="1"/></g><g class="mark-text role-axis-title" pointer-events="none"><text text-anchor="middle" transform="translate(150,41)" font-family="sans-serif" font-size="20px" font-weight="bold" fill="#000" opacity="1">Child mortality</text></g></g><path class="foreground" aria-hidden="true" d="" pointer-events="none" display="none"/></g></g><g class="mark-group role-axis" role="graphics-symbol" aria-roledescription="axis" aria-label="Y-axis titled 'life_expectancy' for a linear scale with values from 50 to 85"><g transform="translate(0.5,0.5)"><path class="background" aria-hidden="true" d="M0,0h0v0h0Z" pointer-events="none"/><g><g class="mark-rule role-axis-tick" pointer-events="none"><line transform="translate(0,300)" x2="-5" y2="0" stroke="#888" stroke-width="1" opacity="1"/><line transform="translate(0,257)" x2="-5" y2="0" stroke="#888" stroke-width="1" opacity="1"/><line transform="translate(0,214)" x2="-5" y2="0" stroke="#888" stroke-width="1" opacity="1"/><line transform="translate(0,171)" x2="-5" y2="0" stroke="#888" stroke-width="1" opacity="1"/><line transform="translate(0,129)" x2="-5" y2="0" stroke="#888" stroke-width="1" opacity="1"/><line transform="translate(0,86)" x2="-5" y2="0" stroke="#888" stroke-width="1" opacity="1"/><line transform="translate(0,43)" x2="-5" y2="0" stroke="#888" stroke-width="1" opacity="1"/><line transform="translate(0,0)" x2="-5" y2="0" stroke="#888" stroke-width="1" opacity="1"/></g><g class="mark-text role-axis-label" pointer-events="none"><text text-anchor="end" transform="translate(-7,304)" font-family="sans-serif" font-size="14px" fill="#000" opacity="1">50</text><text text-anchor="end" transform="translate(-7,261.14285714285717)" font-family="sans-serif" font-size="14px" fill="#000" opacity="1">55</text><text text-anchor="end" transform="translate(-7,218.28571428571428)" font-family="sans-serif" font-size="14px" fill="#000" opacity="1">60</text><text text-anchor="end" transform="translate(-7,175.42857142857142)" font-family="sans-serif" font-size="14px" fill="#000" opacity="1">65</text><text text-anchor="end" transform="translate(-7,132.57142857142858)" font-family="sans-serif" font-size="14px" fill="#000" opacity="1">70</text><text text-anchor="end" transform="translate(-7,89.71428571428571)" font-family="sans-serif" font-size="14px" fill="#000" opacity="1">75</text><text text-anchor="end" transform="translate(-7,46.85714285714287)" font-family="sans-serif" font-size="14px" fill="#000" opacity="1">80</text><text text-anchor="end" transform="translate(-7,4)" font-family="sans-serif" font-size="14px" fill="#000" opacity="1">85</text></g><g class="mark-rule role-axis-domain" pointer-events="none"><line transform="translate(0,300)" x2="0" y2="-300" stroke="#888" stroke-width="1" opacity="1"/></g><g class="mark-text role-axis-title" pointer-events="none"><text text-anchor="middle" transform="translate(-26.572265625,150) rotate(-90) translate(0,-4)" font-family="sans-serif" font-size="20px" font-weight="bold" fill="#000" opacity="1">life_expectancy</text></g></g><path class="foreground" aria-hidden="true" d="" pointer-events="none" display="none"/></g></g><g class="mark-symbol role-mark marks" role="graphics-symbol" aria-roledescription="symbol mark container"><path transform="translate(152.07692307692307,225.4285714285714)" d="M5.547,0A5.547,5.547,0,1,1,-5.547,0A5.547,5.547,0,1,1,5.547,0" stroke="#4c78a8" stroke-width="2" opacity="0.7"/><path transform="translate(29.76923076923077,59.999999999999986)" d="M5.046,0A5.046,5.046,0,1,1,-5.046,0A5.046,5.046,0,1,1,5.046,0" stroke="#4c78a8" stroke-width="2" opacity="0.7"/><path transform="translate(53.307692307692314,60.85714285714282)" d="M5.626,0A5.626,5.626,0,1,1,-5.626,0A5.626,5.626,0,1,1,5.626,0" stroke="#4c78a8" stroke-width="2" opacity="0.7"/><path transform="translate(188.3076923076923,169.7142857142857)" d="M5.466,0A5.466,5.466,0,1,1,-5.466,0A5.466,5.466,0,1,1,5.466,0" stroke="#4c78a8" stroke-width="2" opacity="0.7"/><path transform="translate(18.20769230769231,63.42857142857149)" d="M5.002,0A5.002,5.002,0,1,1,-5.002,0A5.002,5.002,0,1,1,5.002,0" stroke="#4c78a8" stroke-width="2" opacity="0.7"/><path transform="translate(24.46153846153846,68.57142857142856)" d="M5.664,0A5.664,5.664,0,1,1,-5.664,0A5.664,5.664,0,1,1,5.664,0" stroke="#4c78a8" stroke-width="2" opacity="0.7"/><path transform="translate(29.76923076923077,77.14285714285714)" d="M5.046,0A5.046,5.046,0,1,1,-5.046,0A5.046,5.046,0,1,1,5.046,0" stroke="#4c78a8" stroke-width="2" opacity="0.7"/><path transform="translate(7.846153846153846,17.99999999999995)" d="M5.379,0A5.379,5.379,0,1,1,-5.379,0A5.379,5.379,0,1,1,5.379,0" stroke="#4c78a8" stroke-width="2" opacity="0.7"/><path transform="translate(6.6692307692307695,27.42857142857146)" d="M5.137,0A5.137,5.137,0,1,1,-5.137,0A5.137,5.137,0,1,1,5.137,0" stroke="#4c78a8" stroke-width="2" opacity="0.7"/><path transform="translate(69.92307692307692,108.85714285714289)" d="M5.155,0A5.155,5.155,0,1,1,-5.155,0A5.155,5.155,0,1,1,5.155,0" stroke="#4c78a8" stroke-width="2" opacity="0.7"/><path transform="translate(23.76923076923077,93.42857142857149)" d="M5.006,0A5.006,5.006,0,1,1,-5.006,0A5.006,5.006,0,1,1,5.006,0" stroke="#4c78a8" stroke-width="2" opacity="0.7"/><path transform="translate(16.384615384615383,66.85714285714283)" d="M5.025,0A5.025,5.025,0,1,1,-5.025,0A5.025,5.025,0,1,1,5.025,0" stroke="#4c78a8" stroke-width="2" opacity="0.7"/><path transform="translate(73.84615384615385,99.42857142857139)" d="M7.163,0A7.163,7.163,0,1,1,-7.163,0A7.163,7.163,0,1,1,7.163,0" stroke="#4c78a8" stroke-width="2" opacity="0.7"/><path transform="translate(26.53846153846154,70.28571428571429)" d="M5.005,0A5.005,5.005,0,1,1,-5.005,0A5.005,5.005,0,1,1,5.005,0" stroke="#4c78a8" stroke-width="2" opacity="0.7"/><path transform="translate(8.584615384615384,96.00000000000001)" d="M5.148,0A5.148,5.148,0,1,1,-5.148,0A5.148,5.148,0,1,1,5.148,0" stroke="#4c78a8" stroke-width="2" opacity="0.7"/><path transform="translate(8.192307692307692,32.57142857142856)" d="M5.179,0A5.179,5.179,0,1,1,-5.179,0A5.179,5.179,0,1,1,5.179,0" stroke="#4c78a8" stroke-width="2" opacity="0.7"/><path transform="translate(31.846153846153847,107.14285714285712)" d="M5.006,0A5.006,5.006,0,1,1,-5.006,0A5.006,5.006,0,1,1,5.006,0" stroke="#4c78a8" stroke-width="2" opacity="0.7"/><path transform="translate(218.53846153846155,171.42857142857142)" d="M5.179,0A5.179,5.179,0,1,1,-5.179,0A5.179,5.179,0,1,1,5.179,0" stroke="#4c78a8" stroke-width="2" opacity="0.7"/><path transform="translate(68.07692307692308,87.42857142857144)" d="M5.013,0A5.013,5.013,0,1,1,-5.013,0A5.013,5.013,0,1,1,5.013,0" stroke="#4c78a8" stroke-width="2" opacity="0.7"/><path transform="translate(77.99999999999999,94.28571428571428)" d="M5.174,0A5.174,5.174,0,1,1,-5.174,0A5.174,5.174,0,1,1,5.174,0" stroke="#4c78a8" stroke-width="2" opacity="0.7"/><path transform="translate(12.669230769230769,60.85714285714282)" d="M5.055,0A5.055,5.055,0,1,1,-5.055,0A5.055,5.055,0,1,1,5.055,0" stroke="#4c78a8" stroke-width="2" opacity="0.7"/><path transform="translate(84.46153846153847,155.14285714285708)" d="M5.037,0A5.037,5.037,0,1,1,-5.037,0A5.037,5.037,0,1,1,5.037,0" stroke="#4c78a8" stroke-width="2" opacity="0.7"/><path transform="translate(32.76923076923077,79.71428571428571)" d="M7.644,0A7.644,7.644,0,1,1,-7.644,0A7.644,7.644,0,1,1,7.644,0" stroke="#4c78a8" stroke-width="2" opacity="0.7"/><path transform="translate(17.423076923076923,83.14285714285717)" d="M5.11,0A5.11,5.11,0,1,1,-5.11,0A5.11,5.11,0,1,1,5.11,0" stroke="#4c78a8" stroke-width="2" opacity="0.7"/><path transform="translate(185.53846153846155,200.57142857142858)" d="M5.304,0A5.304,5.304,0,1,1,-5.304,0A5.304,5.304,0,1,1,5.304,0" stroke="#4c78a8" stroke-width="2" opacity="0.7"/><path transform="translate(159.9230769230769,204.85714285714286)" d="M5.174,0A5.174,5.174,0,1,1,-5.174,0A5.174,5.174,0,1,1,5.174,0" stroke="#4c78a8" stroke-width="2" opacity="0.7"/><path transform="translate(62.307692307692314,134.57142857142858)" d="M5.25,0A5.25,5.25,0,1,1,-5.25,0A5.25,5.25,0,1,1,5.25,0" stroke="#4c78a8" stroke-width="2" opacity="0.7"/><path transform="translate(174.69230769230768,203.99999999999997)" d="M5.377,0A5.377,5.377,0,1,1,-5.377,0A5.377,5.377,0,1,1,5.377,0" stroke="#4c78a8" stroke-width="2" opacity="0.7"/><path transform="translate(11.123076923076923,23.99999999999999)" d="M5.555,0A5.555,5.555,0,1,1,-5.555,0A5.555,5.555,0,1,1,5.555,0" stroke="#4c78a8" stroke-width="2" opacity="0.7"/><path transform="translate(272.3076923076923,286.2857142857143)" d="M5.075,0A5.075,5.075,0,1,1,-5.075,0A5.075,5.075,0,1,1,5.075,0" stroke="#4c78a8" stroke-width="2" opacity="0.7"/><path transform="translate(283.8461538461538,210)" d="M5.238,0A5.238,5.238,0,1,1,-5.238,0A5.238,5.238,0,1,1,5.238,0" stroke="#4c78a8" stroke-width="2" opacity="0.7"/><path transform="translate(17.584615384615386,36.85714285714283)" d="M5.281,0A5.281,5.281,0,1,1,-5.281,0A5.281,5.281,0,1,1,5.281,0" stroke="#4c78a8" stroke-width="2" opacity="0.7"/><path transform="translate(22.96153846153846,69.42857142857139)" d="M15.811,0A15.811,15.811,0,1,1,-15.811,0A15.811,15.811,0,1,1,15.811,0" stroke="#4c78a8" stroke-width="2" opacity="0.7"/><path transform="translate(33.46153846153846,54.85714285714292)" d="M5.731,0A5.731,5.731,0,1,1,-5.731,0A5.731,5.731,0,1,1,5.731,0" stroke="#4c78a8" stroke-width="2" opacity="0.7"/><path transform="translate(164.7692307692308,145.71428571428572)" d="M5.013,0A5.013,5.013,0,1,1,-5.013,0A5.013,5.013,0,1,1,5.013,0" stroke="#4c78a8" stroke-width="2" opacity="0.7"/><path transform="translate(207.69230769230768,193.7142857142857)" d="M6.189,0A6.189,6.189,0,1,1,-6.189,0A6.189,6.189,0,1,1,6.189,0" stroke="#4c78a8" stroke-width="2" opacity="0.7"/><path transform="translate(114.69230769230771,180.8571428571429)" d="M5.085,0A5.085,5.085,0,1,1,-5.085,0A5.085,5.085,0,1,1,5.085,0" stroke="#4c78a8" stroke-width="2" opacity="0.7"/><path transform="translate(20.1,30.857142857142794)" d="M5.078,0A5.078,5.078,0,1,1,-5.078,0A5.078,5.078,0,1,1,5.078,0" stroke="#4c78a8" stroke-width="2" opacity="0.7"/><path transform="translate(194.3076923076923,203.99999999999997)" d="M5.38,0A5.38,5.38,0,1,1,-5.38,0A5.38,5.38,0,1,1,5.38,0" stroke="#4c78a8" stroke-width="2" opacity="0.7"/><path transform="translate(10.200000000000001,62.571428571428555)" d="M5.065,0A5.065,5.065,0,1,1,-5.065,0A5.065,5.065,0,1,1,5.065,0" stroke="#4c78a8" stroke-width="2" opacity="0.7"/><path transform="translate(11.884615384615385,48.857142857142875)" d="M5.179,0A5.179,5.179,0,1,1,-5.179,0A5.179,5.179,0,1,1,5.179,0" stroke="#4c78a8" stroke-width="2" opacity="0.7"/><path transform="translate(5.653846153846153,36.00000000000003)" d="M5.019,0A5.019,5.019,0,1,1,-5.019,0A5.019,5.019,0,1,1,5.019,0" stroke="#4c78a8" stroke-width="2" opacity="0.7"/><path transform="translate(8.907692307692308,33.428571428571466)" d="M5.09,0A5.09,5.09,0,1,1,-5.09,0A5.09,5.09,0,1,1,5.09,0" stroke="#4c78a8" stroke-width="2" opacity="0.7"/><path transform="translate(145.84615384615384,153.42857142857147)" d="M5.015,0A5.015,5.015,0,1,1,-5.015,0A5.015,5.015,0,1,1,5.015,0" stroke="#4c78a8" stroke-width="2" opacity="0.7"/><path transform="translate(67.38461538461539,76.28571428571433)" d="M5.17,0A5.17,5.17,0,1,1,-5.17,0A5.17,5.17,0,1,1,5.17,0" stroke="#4c78a8" stroke-width="2" opacity="0.7"/><path transform="translate(45.92307692307692,57.42857142857145)" d="M5.261,0A5.261,5.261,0,1,1,-5.261,0A5.261,5.261,0,1,1,5.261,0" stroke="#4c78a8" stroke-width="2" opacity="0.7"/><path transform="translate(49.15384615384616,106.28571428571433)" d="M6.384,0A6.384,6.384,0,1,1,-6.384,0A6.384,6.384,0,1,1,6.384,0" stroke="#4c78a8" stroke-width="2" opacity="0.7"/><path transform="translate(32.07692307692308,78.85714285714288)" d="M5.101,0A5.101,5.101,0,1,1,-5.101,0A5.101,5.101,0,1,1,5.101,0" stroke="#4c78a8" stroke-width="2" opacity="0.7"/><path transform="translate(198.92307692307693,162.00000000000006)" d="M5.021,0A5.021,5.021,0,1,1,-5.021,0A5.021,5.021,0,1,1,5.021,0" stroke="#4c78a8" stroke-width="2" opacity="0.7"/><path transform="translate(89.76923076923077,174.8571428571429)" d="M5.082,0A5.082,5.082,0,1,1,-5.082,0A5.082,5.082,0,1,1,5.082,0" stroke="#4c78a8" stroke-width="2" opacity="0.7"/><path transform="translate(6.692307692307692,62.571428571428555)" d="M5.021,0A5.021,5.021,0,1,1,-5.021,0A5.021,5.021,0,1,1,5.021,0" stroke="#4c78a8" stroke-width="2" opacity="0.7"/><path transform="translate(124.38461538461539,159.4285714285714)" d="M6.489,0A6.489,6.489,0,1,1,-6.489,0A6.489,6.489,0,1,1,6.489,0" stroke="#4c78a8" stroke-width="2" opacity="0.7"/><path transform="translate(47.30769230769231,164.5714285714286)" d="M5.014,0A5.014,5.014,0,1,1,-5.014,0A5.014,5.014,0,1,1,5.014,0" stroke="#4c78a8" stroke-width="2" opacity="0.7"/><path transform="translate(4.5,24.85714285714292)" d="M5.087,0A5.087,5.087,0,1,1,-5.087,0A5.087,5.087,0,1,1,5.087,0" stroke="#4c78a8" stroke-width="2" opacity="0.7"/><path transform="translate(8.146153846153846,20.57142857142862)" d="M5.944,0A5.944,5.944,0,1,1,-5.944,0A5.944,5.944,0,1,1,5.944,0" stroke="#4c78a8" stroke-width="2" opacity="0.7"/><path transform="translate(105.69230769230768,151.71428571428572)" d="M5.033,0A5.033,5.033,0,1,1,-5.033,0A5.033,5.033,0,1,1,5.033,0" stroke="#4c78a8" stroke-width="2" opacity="0.7"/><path transform="translate(147.23076923076923,147.42857142857147)" d="M5.034,0A5.034,5.034,0,1,1,-5.034,0A5.034,5.034,0,1,1,5.034,0" stroke="#4c78a8" stroke-width="2" opacity="0.7"/><path transform="translate(24.46153846153846,91.71428571428575)" d="M5.062,0A5.062,5.062,0,1,1,-5.062,0A5.062,5.062,0,1,1,5.062,0" stroke="#4c78a8" stroke-width="2" opacity="0.7"/><path transform="translate(7.038461538461538,31.71428571428573)" d="M6.168,0A6.168,6.168,0,1,1,-6.168,0A6.168,6.168,0,1,1,6.168,0" stroke="#4c78a8" stroke-width="2" opacity="0.7"/><path transform="translate(130.15384615384616,157.71428571428575)" d="M5.447,0A5.447,5.447,0,1,1,-5.447,0A5.447,5.447,0,1,1,5.447,0" stroke="#4c78a8" stroke-width="2" opacity="0.7"/><path transform="translate(8.007692307692308,31.71428571428573)" d="M5.173,0A5.173,5.173,0,1,1,-5.173,0A5.173,5.173,0,1,1,5.173,0" stroke="#4c78a8" stroke-width="2" opacity="0.7"/><path transform="translate(33.69230769230769,112.28571428571423)" d="M5.002,0A5.002,5.002,0,1,1,-5.002,0A5.002,5.002,0,1,1,5.002,0" stroke="#4c78a8" stroke-width="2" opacity="0.7"/><path transform="translate(60.69230769230769,101.14285714285712)" d="M5.265,0A5.265,5.265,0,1,1,-5.265,0A5.265,5.265,0,1,1,5.265,0" stroke="#4c78a8" stroke-width="2" opacity="0.7"/><path transform="translate(183.92307692307693,198)" d="M5.203,0A5.203,5.203,0,1,1,-5.203,0A5.203,5.203,0,1,1,5.203,0" stroke="#4c78a8" stroke-width="2" opacity="0.7"/><path transform="translate(194.0769230769231,216.85714285714283)" d="M5.03,0A5.03,5.03,0,1,1,-5.03,0A5.03,5.03,0,1,1,5.03,0" stroke="#4c78a8" stroke-width="2" opacity="0.7"/><path transform="translate(73.38461538461539,143.99999999999997)" d="M5.012,0A5.012,5.012,0,1,1,-5.012,0A5.012,5.012,0,1,1,5.012,0" stroke="#4c78a8" stroke-width="2" opacity="0.7"/><path transform="translate(148.6153846153846,175.7142857142857)" d="M5.173,0A5.173,5.173,0,1,1,-5.173,0A5.173,5.173,0,1,1,5.173,0" stroke="#4c78a8" stroke-width="2" opacity="0.7"/><path transform="translate(41.3076923076923,102.00000000000006)" d="M5.147,0A5.147,5.147,0,1,1,-5.147,0A5.147,5.147,0,1,1,5.147,0" stroke="#4c78a8" stroke-width="2" opacity="0.7"/><path transform="translate(11.653846153846153,77.99999999999994)" d="M5.151,0A5.151,5.151,0,1,1,-5.151,0A5.151,5.151,0,1,1,5.151,0" stroke="#4c78a8" stroke-width="2" opacity="0.7"/><path transform="translate(4.8,20.57142857142862)" d="M5.005,0A5.005,5.005,0,1,1,-5.005,0A5.005,5.005,0,1,1,5.005,0" stroke="#4c78a8" stroke-width="2" opacity="0.7"/><path transform="translate(94.84615384615385,136.28571428571433)" d="M15.457,0A15.457,15.457,0,1,1,-15.457,0A15.457,15.457,0,1,1,15.457,0" stroke="#4c78a8" stroke-width="2" opacity="0.7"/><path transform="translate(57.69230769230769,111.42857142857143)" d="M8.204,0A8.204,8.204,0,1,1,-8.204,0A8.204,8.204,0,1,1,8.204,0" stroke="#4c78a8" stroke-width="2" opacity="0.7"/><path transform="translate(32.07692307692308,72.85714285714286)" d="M6.164,0A6.164,6.164,0,1,1,-6.164,0A6.164,6.164,0,1,1,6.164,0" stroke="#4c78a8" stroke-width="2" opacity="0.7"/><path transform="translate(67.38461538461539,145.71428571428572)" d="M5.588,0A5.588,5.588,0,1,1,-5.588,0A5.588,5.588,0,1,1,5.588,0" stroke="#4c78a8" stroke-width="2" opacity="0.7"/><path transform="translate(6.438461538461539,29.999999999999993)" d="M5.075,0A5.075,5.075,0,1,1,-5.075,0A5.075,5.075,0,1,1,5.075,0" stroke="#4c78a8" stroke-width="2" opacity="0.7"/><path transform="translate(7.684615384615385,22.285714285714253)" d="M5.132,0A5.132,5.132,0,1,1,-5.132,0A5.132,5.132,0,1,1,5.132,0" stroke="#4c78a8" stroke-width="2" opacity="0.7"/><path transform="translate(6.7153846153846155,20.57142857142862)" d="M5.865,0A5.865,5.865,0,1,1,-5.865,0A5.865,5.865,0,1,1,5.865,0" stroke="#4c78a8" stroke-width="2" opacity="0.7"/><path transform="translate(33.92307692307692,83.99999999999997)" d="M5.046,0A5.046,5.046,0,1,1,-5.046,0A5.046,5.046,0,1,1,5.046,0" stroke="#4c78a8" stroke-width="2" opacity="0.7"/><path transform="translate(6.369230769230769,6.85714285714284)" d="M6.717,0A6.717,6.717,0,1,1,-6.717,0A6.717,6.717,0,1,1,6.717,0" stroke="#4c78a8" stroke-width="2" opacity="0.7"/><path transform="translate(38.53846153846154,71.14285714285712)" d="M5.154,0A5.154,5.154,0,1,1,-5.154,0A5.154,5.154,0,1,1,5.154,0" stroke="#4c78a8" stroke-width="2" opacity="0.7"/><path transform="translate(26.53846153846154,111.42857142857143)" d="M5.284,0A5.284,5.284,0,1,1,-5.284,0A5.284,5.284,0,1,1,5.284,0" stroke="#4c78a8" stroke-width="2" opacity="0.7"/><path transform="translate(108.6923076923077,151.71428571428572)" d="M5.752,0A5.752,5.752,0,1,1,-5.752,0A5.752,5.752,0,1,1,5.752,0" stroke="#4c78a8" stroke-width="2" opacity="0.7"/><path transform="translate(121.15384615384616,195.42857142857142)" d="M5.002,0A5.002,5.002,0,1,1,-5.002,0A5.002,5.002,0,1,1,5.002,0" stroke="#4c78a8" stroke-width="2" opacity="0.7"/><path transform="translate(18.43846153846154,42.85714285714287)" d="M5.066,0A5.066,5.066,0,1,1,-5.066,0A5.066,5.066,0,1,1,5.066,0" stroke="#4c78a8" stroke-width="2" opacity="0.7"/><path transform="translate(47.53846153846154,115.71428571428571)" d="M5.096,0A5.096,5.096,0,1,1,-5.096,0A5.096,5.096,0,1,1,5.096,0" stroke="#4c78a8" stroke-width="2" opacity="0.7"/><path transform="translate(135.69230769230768,146.57142857142853)" d="M5.109,0A5.109,5.109,0,1,1,-5.109,0A5.109,5.109,0,1,1,5.109,0" stroke="#4c78a8" stroke-width="2" opacity="0.7"/><path transform="translate(10.407692307692306,84.8571428571429)" d="M5.03,0A5.03,5.03,0,1,1,-5.03,0A5.03,5.03,0,1,1,5.03,0" stroke="#4c78a8" stroke-width="2" opacity="0.7"/><path transform="translate(18.392307692307693,38.57142857142857)" d="M5.096,0A5.096,5.096,0,1,1,-5.096,0A5.096,5.096,0,1,1,5.096,0" stroke="#4c78a8" stroke-width="2" opacity="0.7"/><path transform="translate(198,290.57142857142856)" d="M5.036,0A5.036,5.036,0,1,1,-5.036,0A5.036,5.036,0,1,1,5.036,0" stroke="#4c78a8" stroke-width="2" opacity="0.7"/><path transform="translate(141,167.99999999999994)" d="M5.076,0A5.076,5.076,0,1,1,-5.076,0A5.076,5.076,0,1,1,5.076,0" stroke="#4c78a8" stroke-width="2" opacity="0.7"/><path transform="translate(28.153846153846153,81.42857142857144)" d="M5.101,0A5.101,5.101,0,1,1,-5.101,0A5.101,5.101,0,1,1,5.101,0" stroke="#4c78a8" stroke-width="2" opacity="0.7"/><path transform="translate(11.007692307692308,83.14285714285717)" d="M5.045,0A5.045,5.045,0,1,1,-5.045,0A5.045,5.045,0,1,1,5.045,0" stroke="#4c78a8" stroke-width="2" opacity="0.7"/><path transform="translate(5.3076923076923075,22.285714285714253)" d="M5.009,0A5.009,5.009,0,1,1,-5.009,0A5.009,5.009,0,1,1,5.009,0" stroke="#4c78a8" stroke-width="2" opacity="0.7"/><path transform="translate(25.846153846153847,83.99999999999997)" d="M5.033,0A5.033,5.033,0,1,1,-5.033,0A5.033,5.033,0,1,1,5.033,0" stroke="#4c78a8" stroke-width="2" opacity="0.7"/><path transform="translate(97.61538461538461,185.14285714285717)" d="M5.401,0A5.401,5.401,0,1,1,-5.401,0A5.401,5.401,0,1,1,5.401,0" stroke="#4c78a8" stroke-width="2" opacity="0.7"/><path transform="translate(126.46153846153845,205.71428571428572)" d="M5.295,0A5.295,5.295,0,1,1,-5.295,0A5.295,5.295,0,1,1,5.295,0" stroke="#4c78a8" stroke-width="2" opacity="0.7"/><path transform="translate(17.1,77.99999999999994)" d="M5.484,0A5.484,5.484,0,1,1,-5.484,0A5.484,5.484,0,1,1,5.484,0" stroke="#4c78a8" stroke-width="2" opacity="0.7"/><path transform="translate(17.884615384615387,42.000000000000036)" d="M5.007,0A5.007,5.007,0,1,1,-5.007,0A5.007,5.007,0,1,1,5.007,0" stroke="#4c78a8" stroke-width="2" opacity="0.7"/><path transform="translate(237.69230769230768,189.42857142857144)" d="M5.294,0A5.294,5.294,0,1,1,-5.294,0A5.294,5.294,0,1,1,5.294,0" stroke="#4c78a8" stroke-width="2" opacity="0.7"/><path transform="translate(14.584615384615384,27.42857142857146)" d="M5.007,0A5.007,5.007,0,1,1,-5.007,0A5.007,5.007,0,1,1,5.007,0" stroke="#4c78a8" stroke-width="2" opacity="0.7"/><path transform="translate(186,123.42857142857147)" d="M5.071,0A5.071,5.071,0,1,1,-5.071,0A5.071,5.071,0,1,1,5.071,0" stroke="#4c78a8" stroke-width="2" opacity="0.7"/><path transform="translate(30.46153846153846,86.57142857142851)" d="M5.02,0A5.02,5.02,0,1,1,-5.02,0A5.02,5.02,0,1,1,5.02,0" stroke="#4c78a8" stroke-width="2" opacity="0.7"/><path transform="translate(31.846153846153847,70.28571428571429)" d="M6.764,0A6.764,6.764,0,1,1,-6.764,0A6.764,6.764,0,1,1,6.764,0" stroke="#4c78a8" stroke-width="2" opacity="0.7"/><path transform="translate(34.38461538461539,107.99999999999996)" d="M5.064,0A5.064,5.064,0,1,1,-5.064,0A5.064,5.064,0,1,1,5.064,0" stroke="#4c78a8" stroke-width="2" opacity="0.7"/><path transform="translate(38.76923076923077,139.7142857142857)" d="M5.049,0A5.049,5.049,0,1,1,-5.049,0A5.049,5.049,0,1,1,5.049,0" stroke="#4c78a8" stroke-width="2" opacity="0.7"/><path transform="translate(8.607692307692307,66.00000000000003)" d="M5.01,0A5.01,5.01,0,1,1,-5.01,0A5.01,5.01,0,1,1,5.01,0" stroke="#4c78a8" stroke-width="2" opacity="0.7"/><path transform="translate(55.38461538461539,81.42857142857144)" d="M5.544,0A5.544,5.544,0,1,1,-5.544,0A5.544,5.544,0,1,1,5.544,0" stroke="#4c78a8" stroke-width="2" opacity="0.7"/><path transform="translate(164.53846153846155,204.85714285714286)" d="M5.462,0A5.462,5.462,0,1,1,-5.462,0A5.462,5.462,0,1,1,5.462,0" stroke="#4c78a8" stroke-width="2" opacity="0.7"/><path transform="translate(116.07692307692308,126.00000000000001)" d="M5.791,0A5.791,5.791,0,1,1,-5.791,0A5.791,5.791,0,1,1,5.791,0" stroke="#4c78a8" stroke-width="2" opacity="0.7"/><path transform="translate(100.15384615384616,165.42857142857142)" d="M5.041,0A5.041,5.041,0,1,1,-5.041,0A5.041,5.041,0,1,1,5.041,0" stroke="#4c78a8" stroke-width="2" opacity="0.7"/><path transform="translate(72.46153846153847,115.71428571428571)" d="M5.449,0A5.449,5.449,0,1,1,-5.449,0A5.449,5.449,0,1,1,5.449,0" stroke="#4c78a8" stroke-width="2" opacity="0.7"/><path transform="translate(7.5,26.571428571428523)" d="M5.264,0A5.264,5.264,0,1,1,-5.264,0A5.264,5.264,0,1,1,5.264,0" stroke="#4c78a8" stroke-width="2" opacity="0.7"/><path transform="translate(12.346153846153845,27.42857142857146)" d="M5.075,0A5.075,5.075,0,1,1,-5.075,0A5.075,5.075,0,1,1,5.075,0" stroke="#4c78a8" stroke-width="2" opacity="0.7"/><path transform="translate(41.769230769230774,53.99999999999998)" d="M5.099,0A5.099,5.099,0,1,1,-5.099,0A5.099,5.099,0,1,1,5.099,0" stroke="#4c78a8" stroke-width="2" opacity="0.7"/><path transform="translate(202.15384615384613,192.85714285714283)" d="M5.342,0A5.342,5.342,0,1,1,-5.342,0A5.342,5.342,0,1,1,5.342,0" stroke="#4c78a8" stroke-width="2" opacity="0.7"/><path transform="translate(225.92307692307693,162.00000000000006)" d="M7.487,0A7.487,7.487,0,1,1,-7.487,0A7.487,7.487,0,1,1,7.487,0" stroke="#4c78a8" stroke-width="2" opacity="0.7"/><path transform="translate(41.99999999999999,119.14285714285721)" d="M5.39,0A5.39,5.39,0,1,1,-5.39,0A5.39,5.39,0,1,1,5.39,0" stroke="#4c78a8" stroke-width="2" opacity="0.7"/><path transform="translate(5.2153846153846155,22.285714285714253)" d="M5.084,0A5.084,5.084,0,1,1,-5.084,0A5.084,5.084,0,1,1,5.084,0" stroke="#4c78a8" stroke-width="2" opacity="0.7"/><path transform="translate(22.338461538461537,59.14285714285719)" d="M5.076,0A5.076,5.076,0,1,1,-5.076,0A5.076,5.076,0,1,1,5.076,0" stroke="#4c78a8" stroke-width="2" opacity="0.7"/><path transform="translate(177.23076923076923,145.71428571428572)" d="M7.54,0A7.54,7.54,0,1,1,-7.54,0A7.54,7.54,0,1,1,7.54,0" stroke="#4c78a8" stroke-width="2" opacity="0.7"/><path transform="translate(42.923076923076934,109.7142857142857)" d="M5.079,0A5.079,5.079,0,1,1,-5.079,0A5.079,5.079,0,1,1,5.079,0" stroke="#4c78a8" stroke-width="2" opacity="0.7"/><path transform="translate(36.69230769230769,47.99999999999994)" d="M5.065,0A5.065,5.065,0,1,1,-5.065,0A5.065,5.065,0,1,1,5.065,0" stroke="#4c78a8" stroke-width="2" opacity="0.7"/><path transform="translate(122.99999999999999,204.85714285714286)" d="M5.132,0A5.132,5.132,0,1,1,-5.132,0A5.132,5.132,0,1,1,5.132,0" stroke="#4c78a8" stroke-width="2" opacity="0.7"/><path transform="translate(46.38461538461539,87.42857142857144)" d="M5.108,0A5.108,5.108,0,1,1,-5.108,0A5.108,5.108,0,1,1,5.108,0" stroke="#4c78a8" stroke-width="2" opacity="0.7"/><path transform="translate(33,41.1428571428571)" d="M5.492,0A5.492,5.492,0,1,1,-5.492,0A5.492,5.492,0,1,1,5.492,0" stroke="#4c78a8" stroke-width="2" opacity="0.7"/><path transform="translate(60,124.28571428571428)" d="M6.477,0A6.477,6.477,0,1,1,-6.477,0A6.477,6.477,0,1,1,6.477,0" stroke="#4c78a8" stroke-width="2" opacity="0.7"/><path transform="translate(10.569230769230769,58.28571428571425)" d="M5.571,0A5.571,5.571,0,1,1,-5.571,0A5.571,5.571,0,1,1,5.571,0" stroke="#4c78a8" stroke-width="2" opacity="0.7"/><path transform="translate(5.838461538461538,31.71428571428573)" d="M5.161,0A5.161,5.161,0,1,1,-5.161,0A5.161,5.161,0,1,1,5.161,0" stroke="#4c78a8" stroke-width="2" opacity="0.7"/><path transform="translate(18.415384615384614,36.85714285714283)" d="M5.042,0A5.042,5.042,0,1,1,-5.042,0A5.042,5.042,0,1,1,5.042,0" stroke="#4c78a8" stroke-width="2" opacity="0.7"/><path transform="translate(19.54615384615385,81.42857142857144)" d="M5.301,0A5.301,5.301,0,1,1,-5.301,0A5.301,5.301,0,1,1,5.301,0" stroke="#4c78a8" stroke-width="2" opacity="0.7"/><path transform="translate(16.915384615384617,119.14285714285721)" d="M6.915,0A6.915,6.915,0,1,1,-6.915,0A6.915,6.915,0,1,1,6.915,0" stroke="#4c78a8" stroke-width="2" opacity="0.7"/><path transform="translate(84.46153846153847,143.14285714285717)" d="M5.194,0A5.194,5.194,0,1,1,-5.194,0A5.194,5.194,0,1,1,5.194,0" stroke="#4c78a8" stroke-width="2" opacity="0.7"/><path transform="translate(38.53846153846154,107.99999999999996)" d="M5.003,0A5.003,5.003,0,1,1,-5.003,0A5.003,5.003,0,1,1,5.003,0" stroke="#4c78a8" stroke-width="2" opacity="0.7"/><path transform="translate(27.692307692307693,63.42857142857149)" d="M5.507,0A5.507,5.507,0,1,1,-5.507,0A5.507,5.507,0,1,1,5.507,0" stroke="#4c78a8" stroke-width="2" opacity="0.7"/><path transform="translate(99,156)" d="M5.252,0A5.252,5.252,0,1,1,-5.252,0A5.252,5.252,0,1,1,5.252,0" stroke="#4c78a8" stroke-width="2" opacity="0.7"/><path transform="translate(13.153846153846153,75.4285714285714)" d="M5.137,0A5.137,5.137,0,1,1,-5.137,0A5.137,5.137,0,1,1,5.137,0" stroke="#4c78a8" stroke-width="2" opacity="0.7"/><path transform="translate(29.307692307692307,92.57142857142856)" d="M5.002,0A5.002,5.002,0,1,1,-5.002,0A5.002,5.002,0,1,1,5.002,0" stroke="#4c78a8" stroke-width="2" opacity="0.7"/><path transform="translate(251.53846153846155,214.28571428571428)" d="M5.121,0A5.121,5.121,0,1,1,-5.121,0A5.121,5.121,0,1,1,5.121,0" stroke="#4c78a8" stroke-width="2" opacity="0.7"/><path transform="translate(5.815384615384616,8.571428571428575)" d="M5.091,0A5.091,5.091,0,1,1,-5.091,0A5.091,5.091,0,1,1,5.091,0" stroke="#4c78a8" stroke-width="2" opacity="0.7"/><path transform="translate(13.038461538461538,66.85714285714283)" d="M5.086,0A5.086,5.086,0,1,1,-5.086,0A5.086,5.086,0,1,1,5.086,0" stroke="#4c78a8" stroke-width="2" opacity="0.7"/><path transform="translate(5.007692307692307,33.428571428571466)" d="M5.033,0A5.033,5.033,0,1,1,-5.033,0A5.033,5.033,0,1,1,5.033,0" stroke="#4c78a8" stroke-width="2" opacity="0.7"/><path transform="translate(54,183.42857142857142)" d="M5.01,0A5.01,5.01,0,1,1,-5.01,0A5.01,5.01,0,1,1,5.01,0" stroke="#4c78a8" stroke-width="2" opacity="0.7"/><path transform="translate(290.7692307692308,231.42857142857144)" d="M5.235,0A5.235,5.235,0,1,1,-5.235,0A5.235,5.235,0,1,1,5.235,0" stroke="#4c78a8" stroke-width="2" opacity="0.7"/><path transform="translate(91.84615384615384,184.2857142857143)" d="M5.839,0A5.839,5.839,0,1,1,-5.839,0A5.839,5.839,0,1,1,5.839,0" stroke="#4c78a8" stroke-width="2" opacity="0.7"/><path transform="translate(7.107692307692308,31.71428571428573)" d="M5.754,0A5.754,5.754,0,1,1,-5.754,0A5.754,5.754,0,1,1,5.754,0" stroke="#4c78a8" stroke-width="2" opacity="0.7"/><path transform="translate(197.0769230769231,208.28571428571425)" d="M5.2,0A5.2,5.2,0,1,1,-5.2,0A5.2,5.2,0,1,1,5.2,0" stroke="#4c78a8" stroke-width="2" opacity="0.7"/><path transform="translate(6.969230769230769,15.428571428571413)" d="M5.688,0A5.688,5.688,0,1,1,-5.688,0A5.688,5.688,0,1,1,5.688,0" stroke="#4c78a8" stroke-width="2" opacity="0.7"/><path transform="translate(19.869230769230768,61.71428571428576)" d="M5.322,0A5.322,5.322,0,1,1,-5.322,0A5.322,5.322,0,1,1,5.322,0" stroke="#4c78a8" stroke-width="2" opacity="0.7"/><path transform="translate(145.6153846153846,138.8571428571429)" d="M5.619,0A5.619,5.619,0,1,1,-5.619,0A5.619,5.619,0,1,1,5.619,0" stroke="#4c78a8" stroke-width="2" opacity="0.7"/><path transform="translate(44.30769230769231,114.8571428571429)" d="M5.009,0A5.009,5.009,0,1,1,-5.009,0A5.009,5.009,0,1,1,5.009,0" stroke="#4c78a8" stroke-width="2" opacity="0.7"/><path transform="translate(139.6153846153846,226.28571428571428)" d="M5.022,0A5.022,5.022,0,1,1,-5.022,0A5.022,5.022,0,1,1,5.022,0" stroke="#4c78a8" stroke-width="2" opacity="0.7"/><path transform="translate(5.93076923076923,22.285714285714253)" d="M5.156,0A5.156,5.156,0,1,1,-5.156,0A5.156,5.156,0,1,1,5.156,0" stroke="#4c78a8" stroke-width="2" opacity="0.7"/><path transform="translate(8.653846153846155,12.857142857142845)" d="M5.134,0A5.134,5.134,0,1,1,-5.134,0A5.134,5.134,0,1,1,5.134,0" stroke="#4c78a8" stroke-width="2" opacity="0.7"/><path transform="translate(40.61538461538462,130.2857142857143)" d="M5.282,0A5.282,5.282,0,1,1,-5.282,0A5.282,5.282,0,1,1,5.282,0" stroke="#4c78a8" stroke-width="2" opacity="0.7"/><path transform="translate(95.53846153846153,109.7142857142857)" d="M5.142,0A5.142,5.142,0,1,1,-5.142,0A5.142,5.142,0,1,1,5.142,0" stroke="#4c78a8" stroke-width="2" opacity="0.7"/><path transform="translate(125.07692307692308,167.14285714285714)" d="M5.862,0A5.862,5.862,0,1,1,-5.862,0A5.862,5.862,0,1,1,5.862,0" stroke="#4c78a8" stroke-width="2" opacity="0.7"/><path transform="translate(26.307692307692307,58.28571428571425)" d="M5.997,0A5.997,5.997,0,1,1,-5.997,0A5.997,5.997,0,1,1,5.997,0" stroke="#4c78a8" stroke-width="2" opacity="0.7"/><path transform="translate(102.6923076923077,100.28571428571432)" d="M5.021,0A5.021,5.021,0,1,1,-5.021,0A5.021,5.021,0,1,1,5.021,0" stroke="#4c78a8" stroke-width="2" opacity="0.7"/><path transform="translate(168.92307692307693,187.7142857142857)" d="M5.125,0A5.125,5.125,0,1,1,-5.125,0A5.125,5.125,0,1,1,5.125,0" stroke="#4c78a8" stroke-width="2" opacity="0.7"/><path transform="translate(37.15384615384615,122.57142857142854)" d="M5.002,0A5.002,5.002,0,1,1,-5.002,0A5.002,5.002,0,1,1,5.002,0" stroke="#4c78a8" stroke-width="2" opacity="0.7"/><path transform="translate(41.53846153846154,99.42857142857139)" d="M5.022,0A5.022,5.022,0,1,1,-5.022,0A5.022,5.022,0,1,1,5.022,0" stroke="#4c78a8" stroke-width="2" opacity="0.7"/><path transform="translate(29.076923076923077,59.999999999999986)" d="M5.182,0A5.182,5.182,0,1,1,-5.182,0A5.182,5.182,0,1,1,5.182,0" stroke="#4c78a8" stroke-width="2" opacity="0.7"/><path transform="translate(27.461538461538463,46.28571428571434)" d="M6.163,0A6.163,6.163,0,1,1,-6.163,0A6.163,6.163,0,1,1,6.163,0" stroke="#4c78a8" stroke-width="2" opacity="0.7"/><path transform="translate(115.61538461538461,124.28571428571428)" d="M5.092,0A5.092,5.092,0,1,1,-5.092,0A5.092,5.092,0,1,1,5.092,0" stroke="#4c78a8" stroke-width="2" opacity="0.7"/><path transform="translate(120.6923076923077,189.42857142857144)" d="M5.659,0A5.659,5.659,0,1,1,-5.659,0A5.659,5.659,0,1,1,5.659,0" stroke="#4c78a8" stroke-width="2" opacity="0.7"/><path transform="translate(19.66153846153846,108.85714285714289)" d="M5.654,0A5.654,5.654,0,1,1,-5.654,0A5.654,5.654,0,1,1,5.654,0" stroke="#4c78a8" stroke-width="2" opacity="0.7"/><path transform="translate(16.430769230769233,69.42857142857139)" d="M5.149,0A5.149,5.149,0,1,1,-5.149,0A5.149,5.149,0,1,1,5.149,0" stroke="#4c78a8" stroke-width="2" opacity="0.7"/><path transform="translate(9.715384615384616,32.57142857142856)" d="M5.963,0A5.963,5.963,0,1,1,-5.963,0A5.963,5.963,0,1,1,5.963,0" stroke="#4c78a8" stroke-width="2" opacity="0.7"/><path transform="translate(13.984615384615385,50.57142857142861)" d="M8.764,0A8.764,8.764,0,1,1,-8.764,0A8.764,8.764,0,1,1,8.764,0" stroke="#4c78a8" stroke-width="2" opacity="0.7"/><path transform="translate(19.8,63.42857142857149)" d="M5.055,0A5.055,5.055,0,1,1,-5.055,0A5.055,5.055,0,1,1,5.055,0" stroke="#4c78a8" stroke-width="2" opacity="0.7"/><path transform="translate(56.07692307692308,124.28571428571428)" d="M5.489,0A5.489,5.489,0,1,1,-5.489,0A5.489,5.489,0,1,1,5.489,0" stroke="#4c78a8" stroke-width="2" opacity="0.7"/><path transform="translate(60,177.42857142857144)" d="M5.004,0A5.004,5.004,0,1,1,-5.004,0A5.004,5.004,0,1,1,5.004,0" stroke="#4c78a8" stroke-width="2" opacity="0.7"/><path transform="translate(35.53846153846154,77.99999999999994)" d="M5.489,0A5.489,5.489,0,1,1,-5.489,0A5.489,5.489,0,1,1,5.489,0" stroke="#4c78a8" stroke-width="2" opacity="0.7"/><path transform="translate(46.61538461538461,86.57142857142851)" d="M6.347,0A6.347,6.347,0,1,1,-6.347,0A6.347,6.347,0,1,1,6.347,0" stroke="#4c78a8" stroke-width="2" opacity="0.7"/><path transform="translate(119.76923076923077,153.42857142857147)" d="M5.439,0A5.439,5.439,0,1,1,-5.439,0A5.439,5.439,0,1,1,5.439,0" stroke="#4c78a8" stroke-width="2" opacity="0.7"/><path transform="translate(137.3076923076923,218.57142857142858)" d="M5.272,0A5.272,5.272,0,1,1,-5.272,0A5.272,5.272,0,1,1,5.272,0" stroke="#4c78a8" stroke-width="2" opacity="0.7"/><path transform="translate(128.07692307692307,212.57142857142853)" d="M5.261,0A5.261,5.261,0,1,1,-5.261,0A5.261,5.261,0,1,1,5.261,0" stroke="#4c78a8" stroke-width="2" opacity="0.7"/></g><g class="mark-group role-legend" role="graphics-symbol" aria-roledescription="legend" aria-label="Symbol legend titled 'population' for size with values from 0 to 1,420,000,000"><g transform="translate(318,0)"><path class="background" aria-hidden="true" d="M0,0h101v242h-101Z" pointer-events="none"/><g><g class="mark-group role-legend-entry"><g transform="translate(0,19)"><path class="background" aria-hidden="true" d="M0,0h0v0h0Z" pointer-events="none"/><g><g class="mark-group role-scope" role="graphics-object" aria-roledescription="group mark container"><g transform="translate(0,0)"><path class="background" aria-hidden="true" d="M0,0h100.9501953125v12.5h-100.9501953125Z" pointer-events="none" opacity="1"/><g><g class="mark-symbol role-legend-symbol" pointer-events="none"><path transform="translate(16.5,6)" d="M5,0A5,5,0,1,1,-5,0A5,5,0,1,1,5,0" stroke="#4c78a8" stroke-width="1.5" opacity="0.7"/></g><g class="mark-text role-legend-label" pointer-events="none"><text text-anchor="start" transform="translate(37,9)" font-family="sans-serif" font-size="10px" fill="#000" opacity="1">0</text></g></g><path class="foreground" aria-hidden="true" d="" pointer-events="none" display="none"/></g><g transform="translate(0,16)"><path class="background" aria-hidden="true" d="M0,0h100.9501953125v17.529285546787982h-100.9501953125Z" pointer-events="none" opacity="1"/><g><g class="mark-symbol role-legend-symbol" pointer-events="none"><path transform="translate(16.5,8.5)" d="M7.529,0A7.529,7.529,0,1,1,-7.529,0A7.529,7.529,0,1,1,7.529,0" stroke="#4c78a8" stroke-width="1.5" opacity="0.7"/></g><g class="mark-text role-legend-label" pointer-events="none"><text text-anchor="start" transform="translate(37,11.5)" font-family="sans-serif" font-size="10px" fill="#000" opacity="1">200,000,000</text></g></g><path class="foreground" aria-hidden="true" d="" pointer-events="none" display="none"/></g><g transform="translate(0,37)"><path class="background" aria-hidden="true" d="M0,0h100.9501953125v21.40107875140618h-100.9501953125Z" pointer-events="none" opacity="1"/><g><g class="mark-symbol role-legend-symbol" pointer-events="none"><path transform="translate(16.5,10.5)" d="M9.401,0A9.401,9.401,0,1,1,-9.401,0A9.401,9.401,0,1,1,9.401,0" stroke="#4c78a8" stroke-width="1.5" opacity="0.7"/></g><g class="mark-text role-legend-label" pointer-events="none"><text text-anchor="start" transform="translate(37,13.5)" font-family="sans-serif" font-size="10px" fill="#000" opacity="1">400,000,000</text></g></g><path class="foreground" aria-hidden="true" d="" pointer-events="none" display="none"/></g><g transform="translate(0,62)"><path class="background" aria-hidden="true" d="M0,0h100.9501953125v24.457665012912713h-100.9501953125Z" pointer-events="none" opacity="1"/><g><g class="mark-symbol role-legend-symbol" pointer-events="none"><path transform="translate(16.5,12)" d="M10.958,0A10.958,10.958,0,1,1,-10.958,0A10.958,10.958,0,1,1,10.958,0" stroke="#4c78a8" stroke-width="1.5" opacity="0.7"/></g><g class="mark-text role-legend-label" pointer-events="none"><text text-anchor="start" transform="translate(37,15)" font-family="sans-serif" font-size="10px" fill="#000" opacity="1">600,000,000</text></g></g><path class="foreground" aria-hidden="true" d="" pointer-events="none" display="none"/></g><g transform="translate(0,90)"><path class="background" aria-hidden="true" d="M0,0h100.9501953125v27.319113741673206h-100.9501953125Z" pointer-events="none" opacity="1"/><g><g class="mark-symbol role-legend-symbol" pointer-events="none"><path transform="translate(16.5,13.5)" d="M12.319,0A12.319,12.319,0,1,1,-12.319,0A12.319,12.319,0,1,1,12.319,0" stroke="#4c78a8" stroke-width="1.5" opacity="0.7"/></g><g class="mark-text role-legend-label" pointer-events="none"><text text-anchor="start" transform="translate(37,16.5)" font-family="sans-serif" font-size="10px" fill="#000" opacity="1">800,000,000</text></g></g><path class="foreground" aria-hidden="true" d="" pointer-events="none" display="none"/></g><g transform="translate(0,121)"><path class="background" aria-hidden="true" d="M0,0h100.9501953125v29.544397521682242h-100.9501953125Z" pointer-events="none" opacity="1"/><g><g class="mark-symbol role-legend-symbol" pointer-events="none"><path transform="translate(16.5,14.5)" d="M13.544,0A13.544,13.544,0,1,1,-13.544,0A13.544,13.544,0,1,1,13.544,0" stroke="#4c78a8" stroke-width="1.5" opacity="0.7"/></g><g class="mark-text role-legend-label" pointer-events="none"><text text-anchor="start" transform="translate(37,17.5)" font-family="sans-serif" font-size="10px" fill="#000" opacity="1">1,000,000,000</text></g></g><path class="foreground" aria-hidden="true" d="" pointer-events="none" display="none"/></g><g transform="translate(0,154)"><path class="background" aria-hidden="true" d="M0,0h100.9501953125v31.667680289344418h-100.9501953125Z" pointer-events="none" opacity="1"/><g><g class="mark-symbol role-legend-symbol" pointer-events="none"><path transform="translate(16.5,15.5)" d="M14.668,0A14.668,14.668,0,1,1,-14.668,0A14.668,14.668,0,1,1,14.668,0" stroke="#4c78a8" stroke-width="1.5" opacity="0.7"/></g><g class="mark-text role-legend-label" pointer-events="none"><text text-anchor="start" transform="translate(37,18.5)" font-family="sans-serif" font-size="10px" fill="#000" opacity="1">1,200,000,000</text></g></g><path class="foreground" aria-hidden="true" d="" pointer-events="none" display="none"/></g><g transform="translate(0,189)"><path class="background" aria-hidden="true" d="M0,0h100.9501953125v33.710855671015906h-100.9501953125Z" pointer-events="none" opacity="1"/><g><g class="mark-symbol role-legend-symbol" pointer-events="none"><path transform="translate(16.5,16.5)" d="M15.711,0A15.711,15.711,0,1,1,-15.711,0A15.711,15.711,0,1,1,15.711,0" stroke="#4c78a8" stroke-width="1.5" opacity="0.7"/></g><g class="mark-text role-legend-label" pointer-events="none"><text text-anchor="start" transform="translate(37,19.5)" font-family="sans-serif" font-size="10px" fill="#000" opacity="1">1,400,000,000</text></g></g><path class="foreground" aria-hidden="true" d="" pointer-events="none" display="none"/></g></g></g><path class="foreground" aria-hidden="true" d="" pointer-events="none" display="none"/></g></g><g class="mark-text role-legend-title" pointer-events="none"><text text-anchor="start" transform="translate(0,11)" font-family="sans-serif" font-size="14px" font-weight="bold" fill="#000" opacity="1">population</text></g></g><path class="foreground" aria-hidden="true" d="" pointer-events="none" display="none"/></g></g><g class="mark-group role-title"><g transform="translate(150,-41)"><path class="background" aria-hidden="true" d="M0,0h0v0h0Z" pointer-events="none"/><g><g class="mark-text role-title-text" role="graphics-symbol" aria-roledescription="title" aria-label="Title text 'My plot title'" pointer-events="none"><text text-anchor="middle" transform="translate(0,24)" font-family="sans-serif" font-size="30px" font-weight="bold" fill="#000" opacity="1">My plot title</text></g></g><path class="foreground" aria-hidden="true" d="" pointer-events="none" display="none"/></g></g></g><path class="foreground" aria-hidden="true" d="" display="none"/></g></g></g></svg>