<svg xmlns="http://www.w3.org/2000/svg" xmlns:xlink="http://www.w3.org/1999/xlink" version="1.1" class="marks" width="398" height="347" viewBox="0 0 398 347"><rect width="398" height="347" fill="white"/><g fill="none" stroke-miterlimit="10" transform="translate(91,10)"><g class="mark-group role-frame root" role="graphics-object" aria-roledescription="group mark container"><g transform="translate(0,0)"><path class="background" aria-hidden="true" d="M0.5,0.5h300v300h-300Z" stroke="#ddd"/><g><g class="mark-group role-axis" aria-hidden="true"><g transform="translate(0.5,300.5)"><path class="background" aria-hidden="true" d="M0,0h0v0h0Z" pointer-events="none"/><g><g class="mark-rule role-axis-grid" pointer-events="none"><line transform="translate(0,-300)" x2="0" y2="300" stroke="#ddd" stroke-width="1" opacity="1"/><line transform="translate(28,-300)" x2="0" y2="300" stroke="#ddd" stroke-width="1" opacity="1"/><line transform="translate(55,-300)" x2="0" y2="300" stroke="#ddd" stroke-width="1" opacity="1"/><line transform="translate(83,-300)" x2="0" y2="300" stroke="#ddd" stroke-width="1" opacity="1"/><line transform="translate(110,-300)" x2="0" y2="300" stroke="#ddd" stroke-width="1" opacity="1"/><line transform="translate(138,-300)" x2="0" y2="300" stroke="#ddd" stroke-width="1" opacity="1"/><line transform="translate(165,-300)" x2="0" y2="300" stroke="#ddd" stroke-width="1" opacity="1"/><line transform="translate(193,-300)" x2="0" y2="300" stroke="#ddd" stroke-width="1" opacity="1"/><line transform="translate(220,-300)" x2="0" y2="300" stroke="#ddd" stroke-width="1" opacity="1"/><line transform="translate(248,-300)" x2="0" y2="300" stroke="#ddd" stroke-width="1" opacity="1"/><line transform="translate(275,-300)" x2="0" y2="300" stroke="#ddd" stroke-width="1" opacity="1"/></g></g><path class="foreground" aria-hidden="true" d="" pointer-events="none" display="none"/></g></g><g class="mark-group role-axis" aria-hidden="true"><g transform="translate(0.5,0.5)"><path class="background" aria-hidden="true" d="M0,0h0v0h0Z" pointer-events="none"/><g><g class="mark-rule role-axis-grid" pointer-events="none"><line transform="translate(0,300)" x2="300" y2="0" stroke="#ddd" stroke-width="1" opacity="1"/><line transform="translate(0,263)" x2="300" y2="0" stroke="#ddd" stroke-width="1" opacity="1"/><line transform="translate(0,225)" x2="300" y2="0" stroke="#ddd" stroke-width="1" opacity="1"/><line transform="translate(0,188)" x2="300" y2="0" stroke="#ddd" stroke-width="1" opacity="1"/><line transform="translate(0,150)" x2="300" y2="0" stroke="#ddd" stroke-width="1" opacity="1"/><line transform="translate(0,113)" x2="300" y2="0" stroke="#ddd" stroke-width="1" opacity="1"/><line transform="translate(0,75)" x2="300" y2="0" stroke="#ddd" stroke-width="1" opacity="1"/><line transform="translate(0,38)" x2="300" y2="0" stroke="#ddd" stroke-width="1" opacity="1"/><line transform="translate(0,0)" x2="300" y2="0" stroke="#ddd" stroke-width="1" opacity="1"/></g></g><path class="foreground" aria-hidden="true" d="" pointer-events="none" display="none"/></g></g><g class="mark-group role-axis" role="graphics-symbol" aria-roledescription="axis" aria-label="X-axis titled 'year' for a time scale with values from Wednesday, 01 January 1800, 12:00:00 AM to Monday, 01 January 2018, 12:00:00 AM"><g transform="translate(0.5,300.5)"><path class="background" aria-hidden="true" d="M0,0h0v0h0Z" pointer-events="none"/><g><g class="mark-rule role-axis-tick" pointer-events="none"><line transform="translate(0,0)" x2="0" y2="5" stroke="#888" stroke-width="1" opacity="1"/><line transform="translate(28,0)" x2="0" y2="5" stroke="#888" stroke-width="1" opacity="1"/><line transform="translate(55,0)" x2="0" y2="5" stroke="#888" stroke-width="1" opacity="1"/><line transform="translate(83,0)" x2="0" y2="5" stroke="#888" stroke-width="1" opacity="1"/><line transform="translate(110,0)" x2="0" y2="5" stroke="#888" stroke-width="1" opacity="1"/><line transform="translate(138,0)" x2="0" y2="5" stroke="#888" stroke-width="1" opacity="1"/><line transform="translate(165,0)" x2="0" y2="5" stroke="#888" stroke-width="1" opacity="1"/><line transform="translate(193,0)" x2="0" y2="5" stroke="#888" stroke-width="1" opacity="1"/><line transform="translate(220,0)" x2="0" y2="5" stroke="#888" stroke-width="1" opacity="1"/><line transform="translate(248,0)" x2="0" y2="5" stroke="#888" stroke-width="1" opacity="1"/><line transform="translate(275,0)" x2="0" y2="5" stroke="#888" stroke-width="1" opacity="1"/></g><g class="mark-text role-axis-label" pointer-events="none"><text text-anchor="start" transform="translate(0,15)" font-family="sans-serif" font-size="10px" fill="#000" opacity="1">1800</text><text text-anchor="middle" transform="translate(27.519689514953768,15)" font-family="sans-serif" font-size="10px" fill="#000" opacity="0">1820</text><text text-anchor="middle" transform="translate(55.043146785865225,15)" font-family="sans-serif" font-size="10px" fill="#000" opacity="1">1840</text><text text-anchor="middle" transform="translate(82.56660405677668,15)" font-family="sans-serif" font-size="10px" fill="#000" opacity="0">1860</text><text text-anchor="middle" transform="translate(110.09006132768815,15)" font-family="sans-serif" font-size="10px" fill="#000" opacity="1">1880</text><text text-anchor="middle" transform="translate(137.61348597960125,15)" font-family="sans-serif" font-size="10px" fill="#000" opacity="0">1900</text><text text-anchor="middle" transform="translate(165.13317549455502,15)" font-family="sans-serif" font-size="10px" fill="#000" opacity="1">1920</text><text text-anchor="middle" transform="translate(192.65663276546647,15)" font-family="sans-serif" font-size="10px" fill="#000" opacity="0">1940</text><text text-anchor="middle" transform="translate(220.18009003637792,15)" font-family="sans-serif" font-size="10px" fill="#000" opacity="1">1960</text><text text-anchor="middle" transform="translate(247.70354730728937,15)" font-family="sans-serif" font-size="10px" fill="#000" opacity="0">1980</text><text text-anchor="middle" transform="translate(275.2270045782009,15)" font-family="sans-serif" font-size="10px" fill="#000" opacity="1">2000</text></g><g class="mark-rule role-axis-domain" pointer-events="none"><line transform="translate(0,0)" x2="300" y2="0" stroke="#888" stroke-width="1" opacity="1"/></g><g class="mark-text role-axis-title" pointer-events="none"><text text-anchor="middle" transform="translate(150,30)" font-family="sans-serif" font-size="11px" font-weight="bold" fill="#000" opacity="1">year</text></g></g><path class="foreground" aria-hidden="true" d="" pointer-events="none" display="none"/></g></g><g class="mark-group role-axis" role="graphics-symbol" aria-roledescription="axis" aria-label="Y-axis titled 'Sum of population' for a linear scale with values from 0 to 8,000,000,000"><g transform="translate(0.5,0.5)"><path class="background" aria-hidden="true" d="M0,0h0v0h0Z" pointer-events="none"/><g><g class="mark-rule role-axis-tick" pointer-events="none"><line transform="translate(0,300)" x2="-5" y2="0" stroke="#888" stroke-width="1" opacity="1"/><line transform="translate(0,263)" x2="-5" y2="0" stroke="#888" stroke-width="1" opacity="1"/><line transform="translate(0,225)" x2="-5" y2="0" stroke="#888" stroke-width="1" opacity="1"/><line transform="translate(0,188)" x2="-5" y2="0" stroke="#888" stroke-width="1" opacity="1"/><line transform="translate(0,150)" x2="-5" y2="0" stroke="#888" stroke-width="1" opacity="1"/><line transform="translate(0,113)" x2="-5" y2="0" stroke="#888" stroke-width="1" opacity="1"/><line transform="translate(0,75)" x2="-5" y2="0" stroke="#888" stroke-width="1" opacity="1"/><line transform="translate(0,38)" x2="-5" y2="0" stroke="#888" stroke-width="1" opacity="1"/><line transform="translate(0,0)" x2="-5" y2="0" stroke="#888" stroke-width="1" opacity="1"/></g><g class="mark-text role-axis-label" pointer-events="none"><text text-anchor="end" transform="translate(-7,303)" font-family="sans-serif" font-size="10px" fill="#000" opacity="1">0</text><text text-anchor="end" transform="translate(-7,265.5)" font-family="sans-serif" font-size="10px" fill="#000" opacity="1">1,000,000,000</text><text text-anchor="end" transform="translate(-7,228)" font-family="sans-serif" font-size="10px" fill="#000" opacity="1">2,000,000,000</text><text text-anchor="end" transform="translate(-7,190.5)" font-family="sans-serif" font-size="10px" fill="#000" opacity="1">3,000,000,000</text><text text-anchor="end" transform="translate(-7,153)" font-family="sans-serif" font-size="10px" fill="#000" opacity="1">4,000,000,000</text><text text-anchor="end" transform="translate(-7,115.5)" font-family="sans-serif" font-size="10px" fill="#000" opacity="1">5,000,000,000</text><text text-anchor="end" transform="translate(-7,78)" font-family="sans-serif" font-size="10px" fill="#000" opacity="1">6,000,000,000</text><text text-anchor="end" transform="translate(-7,40.5)" font-family="sans-serif" font-size="10px" fill="#000" opacity="1">7,000,000,000</text><text text-anchor="end" transform="translate(-7,3)" font-family="sans-serif" font-size="10px" fill="#000" opacity="1">8,000,000,000</text></g><g class="mark-rule role-axis-domain" pointer-events="none"><line transform="translate(0,300)" x2="0" y2="-300" stroke="#888" stroke-width="1" opacity="1"/></g><g class="mark-text role-axis-title" pointer-events="none"><text text-anchor="middle" transform="translate(-74.9501953125,150) rotate(-90) translate(0,-2)" font-family="sans-serif" font-size="11px" font-weight="bold" fill="#000" opacity="1">Sum of population</text></g></g><path class="foreground" aria-hidden="true" d="" pointer-events="none" display="none"/></g></g><g class="mark-line role-mark marks" role="graphics-symbol" aria-roledescription="line mark container"><path d="M0,264.481L1.375,264.358L2.75,264.203L4.126,264.017L5.501,263.853L6.88,263.697L8.255,263.54L9.63,263.384L11.006,263.231L12.385,263.034L13.76,262.832L15.135,262.702L16.51,262.508L17.889,262.329L19.265,262.151L20.64,261.934L22.015,261.74L23.394,261.511L24.769,261.321L26.144,261.089L27.52,260.889L28.899,260.637L30.274,260.415L31.649,260.203L33.024,259.972L34.403,259.756L35.779,259.528L37.154,259.326L38.529,259.078L39.908,258.83L41.283,258.66L42.659,258.395L44.034,258.175L45.413,258.001L46.788,257.763L48.163,257.544L49.538,257.354L50.917,257.131L52.293,256.898L53.668,256.72L55.043,256.562L56.422,256.374L57.797,256.176L59.173,256.017L60.548,255.863L61.927,255.703L63.302,255.546L64.677,255.42L66.053,255.243L67.432,255.121L68.807,254.948L70.182,254.853L71.557,254.717L72.936,254.574L74.311,254.436L75.687,254.289L77.062,254.147L78.441,254.047L79.816,253.936L81.191,253.782L82.567,253.667L83.946,253.521L85.321,253.389L86.696,253.235L88.071,253.104L89.45,252.889L90.826,252.723L92.201,252.515L93.576,252.287L94.955,252.072L96.33,251.802L97.705,251.565L99.081,251.296L100.46,251.115L101.835,250.839L103.21,250.512L104.585,250.242L105.964,249.914L107.34,249.615L108.715,249.241L110.09,248.89L111.469,248.539L112.844,248.186L114.22,247.822L116.974,247.114L118.349,246.699L119.724,246.335L121.099,245.963L122.478,245.541L123.854,245.163L125.229,244.741L126.604,244.317L127.983,243.888L129.358,243.477L130.734,243.056L132.109,242.611L133.488,242.153L134.863,241.65L136.238,241.176L137.613,240.707L138.989,240.225L140.364,239.752L141.739,239.262L143.114,238.73L144.493,238.233L145.869,237.73L147.244,237.202L148.619,236.64L149.998,236.078L151.373,235.527L152.749,234.963L154.124,234.343L155.503,233.713L156.878,233.072L158.253,232.538L159.628,232L161.007,231.488L162.383,231.037L163.758,230.544L165.133,230.011L166.512,229.456L167.887,228.807L169.263,228.195L170.638,227.567L172.017,226.934L173.392,226.309L174.767,225.639L176.143,225.065L177.522,224.337L178.897,223.677L180.272,222.884L181.647,222.036L183.026,221.242L184.401,220.492L185.777,219.664L187.152,218.832L188.531,218.052L189.906,217.193L191.281,216.378L192.657,215.597L194.036,214.807L195.411,214.033L196.786,213.21L198.161,212.45L199.54,211.72L200.916,210.817L202.291,209.784L203.666,208.598L205.045,207.118L206.42,205.44L207.795,203.653L209.171,201.909L210.55,200.165L211.925,198.407L213.3,196.671L214.675,194.794L216.054,192.94L217.43,191.013L218.805,188.998L220.18,186.955L221.559,184.873L222.934,182.64L224.31,180.384L225.685,178.095L227.064,175.588L228.439,173.054L229.814,170.389L231.189,167.681L232.568,164.924L233.944,162.12L235.319,159.407L236.694,156.543L238.073,153.703L239.448,150.884L240.824,148.046L242.199,145.244L243.578,142.512L244.953,139.641L246.328,136.809L247.704,133.924L249.083,130.905L250.458,128.017L251.833,124.781L253.208,121.79L254.587,118.455L255.962,115.123L257.338,111.726L258.713,108.314L260.092,104.861L261.467,101.467L262.842,98.043L264.218,95.076L265.597,91.648L266.972,88.695L268.347,85.712L269.722,82.666L271.101,79.675L272.477,76.613L273.852,73.93L275.227,71.177L276.606,68.119L277.981,65.016L279.356,61.93L280.732,59.17L282.111,56.401L283.486,53.175L284.861,49.883L286.236,46.944L287.615,43.999L288.991,40.56L290.366,37.204L291.741,34.172L293.12,31.04L294.495,28.053L295.871,24.555L297.246,21.84L298.625,18.408L300,15.24" stroke="#4c78a8" stroke-width="2"/></g></g><path class="foreground" aria-hidden="true" d="" display="none"/></g></g></g></svg>