<svg xmlns="http://www.w3.org/2000/svg" xmlns:xlink="http://www.w3.org/1999/xlink" version="1.1" class="marks" width="420" height="347" viewBox="0 0 420 347"><rect width="420" height="347" fill="white"/><g fill="none" stroke-miterlimit="10" transform="translate(39,10)"><g class="mark-group role-frame root" role="graphics-object" aria-roledescription="group mark container"><g transform="translate(0,0)"><path class="background" aria-hidden="true" d="M0.5,0.5h300v300h-300Z" stroke="#ddd"/><g><g class="mark-group role-axis" aria-hidden="true"><g transform="translate(0.5,300.5)"><path class="background" aria-hidden="true" d="M0,0h0v0h0Z" pointer-events="none"/><g><g class="mark-rule role-axis-grid" pointer-events="none"><line transform="translate(0,-300)" x2="0" y2="300" stroke="#ddd" stroke-width="1" opacity="1"/><line transform="translate(28,-300)" x2="0" y2="300" stroke="#ddd" stroke-width="1" opacity="1"/><line transform="translate(55,-300)" x2="0" y2="300" stroke="#ddd" stroke-width="1" opacity="1"/><line transform="translate(83,-300)" x2="0" y2="300" stroke="#ddd" stroke-width="1" opacity="1"/><line transform="translate(110,-300)" x2="0" y2="300" stroke="#ddd" stroke-width="1" opacity="1"/><line transform="translate(138,-300)" x2="0" y2="300" stroke="#ddd" stroke-width="1" opacity="1"/><line transform="translate(165,-300)" x2="0" y2="300" stroke="#ddd" stroke-width="1" opacity="1"/><line transform="translate(193,-300)" x2="0" y2="300" stroke="#ddd" stroke-width="1" opacity="1"/><line transform="translate(220,-300)" x2="0" y2="300" stroke="#ddd" stroke-width="1" opacity="1"/><line transform="translate(248,-300)" x2="0" y2="300" stroke="#ddd" stroke-width="1" opacity="1"/><line transform="translate(275,-300)" x2="0" y2="300" stroke="#ddd" stroke-width="1" opacity="1"/></g></g><path class="foreground" aria-hidden="true" d="" pointer-events="none" display="none"/></g></g><g class="mark-group role-axis" aria-hidden="true"><g transform="translate(0.5,0.5)"><path class="background" aria-hidden="true" d="M0,0h0v0h0Z" pointer-events="none"/><g><g class="mark-rule role-axis-grid" pointer-events="none"><line transform="translate(0,300)" x2="300" y2="0" stroke="#ddd" stroke-width="1" opacity="1"/><line transform="translate(0,257)" x2="300" y2="0" stroke="#ddd" stroke-width="1" opacity="1"/><line transform="translate(0,214)" x2="300" y2="0" stroke="#ddd" stroke-width="1" opacity="1"/><line transform="translate(0,171)" x2="300" y2="0" stroke="#ddd" stroke-width="1" opacity="1"/><line transform="translate(0,129)" x2="300" y2="0" stroke="#ddd" stroke-width="1" opacity="1"/><line transform="translate(0,86)" x2="300" y2="0" stroke="#ddd" stroke-width="1" opacity="1"/><line transform="translate(0,43)" x2="300" y2="0" stroke="#ddd" stroke-width="1" opacity="1"/><line transform="translate(0,0)" x2="300" y2="0" stroke="#ddd" stroke-width="1" opacity="1"/></g></g><path class="foreground" aria-hidden="true" d="" pointer-events="none" display="none"/></g></g><g class="mark-group role-axis" role="graphics-symbol" aria-roledescription="axis" aria-label="X-axis titled 'year' for a time scale with values from Wednesday, 01 January 1800, 12:00:00 AM to Monday, 01 January 2018, 12:00:00 AM"><g transform="translate(0.5,300.5)"><path class="background" aria-hidden="true" d="M0,0h0v0h0Z" pointer-events="none"/><g><g class="mark-rule role-axis-tick" pointer-events="none"><line transform="translate(0,0)" x2="0" y2="5" stroke="#888" stroke-width="1" opacity="1"/><line transform="translate(28,0)" x2="0" y2="5" stroke="#888" stroke-width="1" opacity="1"/><line transform="translate(55,0)" x2="0" y2="5" stroke="#888" stroke-width="1" opacity="1"/><line transform="translate(83,0)" x2="0" y2="5" stroke="#888" stroke-width="1" opacity="1"/><line transform="translate(110,0)" x2="0" y2="5" stroke="#888" stroke-width="1" opacity="1"/><line transform="translate(138,0)" x2="0" y2="5" stroke="#888" stroke-width="1" opacity="1"/><line transform="translate(165,0)" x2="0" y2="5" stroke="#888" stroke-width="1" opacity="1"/><line transform="translate(193,0)" x2="0" y2="5" stroke="#888" stroke-width="1" opacity="1"/><line transform="translate(220,0)" x2="0" y2="5" stroke="#888" stroke-width="1" opacity="1"/><line transform="translate(248,0)" x2="0" y2="5" stroke="#888" stroke-width="1" opacity="1"/><line transform="translate(275,0)" x2="0" y2="5" stroke="#888" stroke-width="1" opacity="1"/></g><g class="mark-text role-axis-label" pointer-events="none"><text text-anchor="start" transform="translate(0,15)" font-family="sans-serif" font-size="10px" fill="#000" opacity="1">1800</text><text text-anchor="middle" transform="translate(27.519689514953768,15)" font-family="sans-serif" font-size="10px" fill="#000" opacity="0">1820</text><text text-anchor="middle" transform="translate(55.043146785865225,15)" font-family="sans-serif" font-size="10px" fill="#000" opacity="1">1840</text><text text-anchor="middle" transform="translate(82.56660405677668,15)" font-family="sans-serif" font-size="10px" fill="#000" opacity="0">1860</text><text text-anchor="middle" transform="translate(110.09006132768815,15)" font-family="sans-serif" font-size="10px" fill="#000" opacity="1">1880</text><text text-anchor="middle" transform="translate(137.61348597960125,15)" font-family="sans-serif" font-size="10px" fill="#000" opacity="0">1900</text><text text-anchor="middle" transform="translate(165.13317549455502,15)" font-family="sans-serif" font-size="10px" fill="#000" opacity="1">1920</text><text text-anchor="middle" transform="translate(192.65663276546647,15)" font-family="sans-serif" font-size="10px" fill="#000" opacity="0">1940</text><text text-anchor="middle" transform="translate(220.18009003637792,15)" font-family="sans-serif" font-size="10px" fill="#000" opacity="1">1960</text><text text-anchor="middle" transform="translate(247.70354730728937,15)" font-family="sans-serif" font-size="10px" fill="#000" opacity="0">1980</text><text text-anchor="middle" transform="translate(275.2270045782009,15)" font-family="sans-serif" font-size="10px" fill="#000" opacity="1">2000</text></g><g class="mark-rule role-axis-domain" pointer-events="none"><line transform="translate(0,0)" x2="300" y2="0" stroke="#888" stroke-width="1" opacity="1"/></g><g class="mark-text role-axis-title" pointer-events="none"><text text-anchor="middle" transform="translate(150,30)" font-family="sans-serif" font-size="11px" font-weight="bold" fill="#000" opacity="1">year</text></g></g><path class="foreground" aria-hidden="true" d="" pointer-events="none" display="none"/></g></g><g class="mark-group role-axis" role="graphics-symbol" aria-roledescription="axis" aria-label="Y-axis titled 'Mean of children_per_woman' for a linear scale with values from 0 to 35"><g transform="translate(0.5,0.5)"><path class="background" aria-hidden="true" d="M0,0h0v0h0Z" pointer-events="none"/><g><g class="mark-rule role-axis-tick" pointer-events="none"><line transform="translate(0,300)" x2="-5" y2="0" stroke="#888" stroke-width="1" opacity="1"/><line transform="translate(0,257)" x2="-5" y2="0" stroke="#888" stroke-width="1" opacity="1"/><line transform="translate(0,214)" x2="-5" y2="0" stroke="#888" stroke-width="1" opacity="1"/><line transform="translate(0,171)" x2="-5" y2="0" stroke="#888" stroke-width="1" opacity="1"/><line transform="translate(0,129)" x2="-5" y2="0" stroke="#888" stroke-width="1" opacity="1"/><line transform="translate(0,86)" x2="-5" y2="0" stroke="#888" stroke-width="1" opacity="1"/><line transform="translate(0,43)" x2="-5" y2="0" stroke="#888" stroke-width="1" opacity="1"/><line transform="translate(0,0)" x2="-5" y2="0" stroke="#888" stroke-width="1" opacity="1"/></g><g class="mark-text role-axis-label" pointer-events="none"><text text-anchor="end" transform="translate(-7,303)" font-family="sans-serif" font-size="10px" fill="#000" opacity="1">0</text><text text-anchor="end" transform="translate(-7,260.14285714285717)" font-family="sans-serif" font-size="10px" fill="#000" opacity="1">5</text><text text-anchor="end" transform="translate(-7,217.28571428571428)" font-family="sans-serif" font-size="10px" fill="#000" opacity="1">10</text><text text-anchor="end" transform="translate(-7,174.42857142857142)" font-family="sans-serif" font-size="10px" fill="#000" opacity="1">15</text><text text-anchor="end" transform="translate(-7,131.57142857142858)" font-family="sans-serif" font-size="10px" fill="#000" opacity="1">20</text><text text-anchor="end" transform="translate(-7,88.71428571428571)" font-family="sans-serif" font-size="10px" fill="#000" opacity="1">25</text><text text-anchor="end" transform="translate(-7,45.85714285714287)" font-family="sans-serif" font-size="10px" fill="#000" opacity="1">30</text><text text-anchor="end" transform="translate(-7,3)" font-family="sans-serif" font-size="10px" fill="#000" opacity="1">35</text></g><g class="mark-rule role-axis-domain" pointer-events="none"><line transform="translate(0,300)" x2="0" y2="-300" stroke="#888" stroke-width="1" opacity="1"/></g><g class="mark-text role-axis-title" pointer-events="none"><text text-anchor="middle" transform="translate(-22.123046875,150) rotate(-90) translate(0,-2)" font-family="sans-serif" font-size="11px" font-weight="bold" fill="#000" opacity="1">Mean of children_per_woman</text></g></g><path class="foreground" aria-hidden="true" d="" pointer-events="none" display="none"/></g></g><g class="mark-group role-scope pathgroup" role="graphics-object" aria-roledescription="group mark container"><g transform="translate(0,0)"><path class="background" aria-hidden="true" d="M0,0h300v300h-300Z"/><g><g class="mark-area role-mark marks" role="graphics-symbol" aria-roledescription="area mark container"><path d="M0,145.403L1.375,145.529L2.75,145.391L4.126,145.434L5.501,145.423L6.88,145.433L8.255,145.616L9.63,145.669L11.006,146.003L12.385,146.485L13.76,145.862L15.135,145.881L16.51,145.878L17.889,146.148L19.265,146.128L20.64,145.675L22.015,145.595L23.394,145.739L24.769,145.824L26.144,145.871L27.52,145.899L28.899,145.532L30.274,145.792L31.649,145.698L33.024,146.009L34.403,145.634L35.779,145.887L37.154,146.22L38.529,146.176L39.908,146.326L41.283,146.587L42.659,146.85L44.034,146.974L45.413,146.858L46.788,146.673L48.163,146.998L49.538,147.209L50.917,147.313L52.293,147.461L53.668,147.479L55.043,147.389L56.422,147.539L57.797,147.412L59.173,147.574L60.548,147.665L61.927,147.834L63.302,147.97L64.677,148.16L66.053,148.169L67.432,147.873L68.807,148.004L70.182,148.089L71.557,148.804L72.936,148.803L74.311,148.991L75.687,149.183L77.062,149.344L78.441,148.801L79.816,148.672L81.191,148.523L82.567,148.752L83.946,148.678L85.321,148.772L86.696,148.921L88.071,148.274L89.45,148.364L90.826,148.657L92.201,149.154L93.576,149.442L94.955,149.355L96.33,149.097L97.705,149.551L99.081,149.902L100.46,149.678L101.835,149.467L103.21,149.46L104.585,149.196L105.964,149.877L107.34,150.429L108.715,150.311L110.09,150.775L111.469,151.157L112.844,151.233L114.22,151.213L116.974,151.406L118.349,151.825L119.724,151.626L121.099,151.949L122.478,152.711L123.854,153.42L125.229,152.79L126.604,153.893L127.983,153.711L129.358,154.005L130.734,153.928L132.109,154.301L133.488,154.269L134.863,154.96L136.238,155.119L137.613,155.063L138.989,155.184L140.364,155.655L141.739,156.354L143.114,156.821L144.493,157.656L145.869,157.849L147.244,158.078L148.619,158.085L149.998,158.753L151.373,159.384L152.749,159.599L154.124,160.256L155.503,160.868L156.878,161.575L158.253,164.053L159.628,164.912L161.007,165.773L162.383,166.473L163.758,167.654L165.133,164.407L166.512,165.22L167.887,165.609L169.263,166.106L170.638,166.944L172.017,167.374L173.392,167.848L174.767,168.918L176.143,169.271L177.522,170.329L178.897,170.554L180.272,171.719L181.647,172.564L183.026,173.665L184.401,174.031L185.777,174.468L187.152,174.354L188.531,174.315L189.906,174.374L191.281,174.552L192.657,174.457L194.036,174.515L195.411,175.016L196.786,174.865L198.161,174.665L199.54,174.499L200.916,171.793L202.291,170.92L203.666,171.215L205.045,171.323L206.42,172.017L207.795,172.084L209.171,171.382L210.55,171.09L211.925,170.675L213.3,170.35L214.675,170.222L216.054,169.907L217.43,170.087L218.805,170.435L220.18,170.781L221.559,171.178L222.934,171.537L224.31,172.202L225.685,173.768L227.064,175.353L228.439,176.647L229.814,178.49L231.189,179.812L232.568,181.465L233.944,183.091L235.319,184.452L236.694,186.274L238.073,188.24L239.448,189.917L240.824,191.703L242.199,193.308L243.578,194.798L244.953,196.212L246.328,197.382L247.704,198.698L249.083,199.793L250.458,201.064L251.833,202.353L253.208,203.73L254.587,205.047L255.962,206.51L257.338,207.924L258.713,209.303L260.092,210.924L261.467,212.408L262.842,214.167L264.218,215.916L265.597,217.784L266.972,219.513L268.347,221.311L269.722,222.996L271.101,224.579L272.477,226.2L273.852,227.535L275.227,228.72L276.606,229.882L277.981,230.818L279.356,231.512L280.732,232.089L282.111,232.634L283.486,233.019L284.861,233.404L286.236,233.757L287.615,234.163L288.991,234.623L290.366,235.261L291.741,235.796L293.12,236.309L294.495,236.911L295.871,237.513L297.246,238.095L298.625,238.646L300,239.176L300,259.771L298.625,259.513L297.246,259.261L295.871,258.969L294.495,258.651L293.12,258.327L291.741,258.06L290.366,257.725L288.991,257.323L287.615,257.092L286.236,256.874L284.861,256.78L283.486,256.663L282.111,256.626L280.732,256.481L279.356,256.379L277.981,256.197L276.606,255.873L275.227,255.445L273.852,255.011L272.477,254.5L271.101,253.786L269.722,253.104L268.347,252.329L266.972,251.539L265.597,250.786L264.218,249.905L262.842,249.135L261.467,248.36L260.092,247.809L258.713,247.125L257.338,246.545L255.962,245.909L254.587,245.221L253.208,244.574L251.833,243.788L250.458,243.067L249.083,242.324L247.704,241.653L246.328,240.91L244.953,240.295L243.578,239.528L242.199,238.796L240.824,237.976L239.448,237.045L238.073,236.174L236.694,234.98L235.319,233.867L233.944,233.137L232.568,231.991L231.189,230.927L229.814,229.806L228.439,228.506L227.064,227.503L225.685,226.196L224.31,225.051L222.934,224.227L221.559,223.404L220.18,223.112L218.805,222.711L217.43,222.442L216.054,222.224L214.675,222.234L213.3,222.233L211.925,222.343L210.55,222.481L209.171,222.608L207.795,222.982L206.42,222.816L205.045,222.447L203.666,222.407L202.291,222.286L200.916,222.826L199.54,225.302L198.161,225.63L196.786,226.097L195.411,226.567L194.036,226.449L192.657,226.634L191.281,226.942L189.906,226.971L188.531,227.168L187.152,227.139L185.777,227.365L184.401,227.078L183.026,226.818L181.647,225.763L180.272,224.982L178.897,224.014L177.522,223.795L176.143,222.855L174.767,222.505L173.392,221.486L172.017,221.022L170.638,220.566L169.263,219.81L167.887,219.363L166.512,219.001L165.133,218.093L163.758,221.136L162.383,220.327L161.007,219.758L159.628,218.866L158.253,217.977L156.878,215.606L155.503,214.89L154.124,214.158L152.749,213.679L151.373,213.472L149.998,212.731L148.619,212.297L147.244,212.053L145.869,211.648L144.493,211.381L143.114,210.7L141.739,210.618L140.364,209.974L138.989,209.551L137.613,209.484L136.238,209.418L134.863,209.489L133.488,208.837L132.109,208.708L130.734,208.324L129.358,208.503L127.983,208.169L126.604,208.393L125.229,207.255L123.854,207.881L122.478,207.172L121.099,206.687L119.724,206.412L118.349,206.382L116.974,205.982L114.22,205.818L112.844,205.695L111.469,205.662L110.09,205.24L108.715,204.758L107.34,204.919L105.964,204.422L104.585,203.796L103.21,204.089L101.835,204.071L100.46,204.278L99.081,204.551L97.705,204.221L96.33,203.788L94.955,204.072L93.576,204.181L92.201,203.916L90.826,203.453L89.45,203.193L88.071,203.138L86.696,203.817L85.321,203.675L83.946,203.577L82.567,203.645L81.191,203.415L79.816,203.56L78.441,203.687L77.062,204.232L75.687,204.071L74.311,203.881L72.936,203.697L71.557,203.701L70.182,202.975L68.807,202.881L67.432,202.739L66.053,203.026L64.677,203.01L63.302,202.805L61.927,202.654L60.548,202.471L59.173,202.367L57.797,202.193L56.422,202.33L55.043,202.188L53.668,202.291L52.293,202.281L50.917,202.147L49.538,202.066L48.163,201.883L46.788,201.583L45.413,201.793L44.034,201.936L42.659,201.833L41.283,201.586L39.908,201.344L38.529,201.215L37.154,201.278L35.779,200.934L34.403,200.674L33.024,201.04L31.649,200.719L30.274,200.804L28.899,200.541L27.52,200.904L26.144,200.872L24.769,200.822L23.394,200.735L22.015,200.558L20.64,200.607L19.265,201.025L17.889,201.01L16.51,200.71L15.135,200.722L13.76,200.716L12.385,201.349L11.006,200.88L9.63,200.553L8.255,200.505L6.88,200.328L5.501,200.322L4.126,200.336L2.75,200.297L1.375,200.439L0,200.316Z" fill="#e45756"/></g></g><path class="foreground" aria-hidden="true" d="" display="none"/></g><g transform="translate(0,0)"><path class="background" aria-hidden="true" d="M0,0h300v300h-300Z"/><g><g class="mark-area role-mark marks" role="graphics-symbol" aria-roledescription="area mark container"><path d="M0,200.316L1.375,200.439L2.75,200.297L4.126,200.336L5.501,200.322L6.88,200.328L8.255,200.505L9.63,200.553L11.006,200.88L12.385,201.349L13.76,200.716L15.135,200.722L16.51,200.71L17.889,201.01L19.265,201.025L20.64,200.607L22.015,200.558L23.394,200.735L24.769,200.822L26.144,200.872L27.52,200.904L28.899,200.541L30.274,200.804L31.649,200.719L33.024,201.04L34.403,200.674L35.779,200.934L37.154,201.278L38.529,201.215L39.908,201.344L41.283,201.586L42.659,201.833L44.034,201.936L45.413,201.793L46.788,201.583L48.163,201.883L49.538,202.066L50.917,202.147L52.293,202.281L53.668,202.291L55.043,202.188L56.422,202.33L57.797,202.193L59.173,202.367L60.548,202.471L61.927,202.654L63.302,202.805L64.677,203.01L66.053,203.026L67.432,202.739L68.807,202.881L70.182,202.975L71.557,203.701L72.936,203.697L74.311,203.881L75.687,204.071L77.062,204.232L78.441,203.687L79.816,203.56L81.191,203.415L82.567,203.645L83.946,203.577L85.321,203.675L86.696,203.817L88.071,203.138L89.45,203.193L90.826,203.453L92.201,203.916L93.576,204.181L94.955,204.072L96.33,203.788L97.705,204.221L99.081,204.551L100.46,204.278L101.835,204.071L103.21,204.089L104.585,203.796L105.964,204.422L107.34,204.919L108.715,204.758L110.09,205.24L111.469,205.662L112.844,205.695L114.22,205.818L116.974,205.982L118.349,206.382L119.724,206.412L121.099,206.687L122.478,207.172L123.854,207.881L125.229,207.255L126.604,208.393L127.983,208.169L129.358,208.503L130.734,208.324L132.109,208.708L133.488,208.837L134.863,209.489L136.238,209.418L137.613,209.484L138.989,209.551L140.364,209.974L141.739,210.618L143.114,210.7L144.493,211.381L145.869,211.648L147.244,212.053L148.619,212.297L149.998,212.731L151.373,213.472L152.749,213.679L154.124,214.158L155.503,214.89L156.878,215.606L158.253,217.977L159.628,218.866L161.007,219.758L162.383,220.327L163.758,221.136L165.133,218.093L166.512,219.001L167.887,219.363L169.263,219.81L170.638,220.566L172.017,221.022L173.392,221.486L174.767,222.505L176.143,222.855L177.522,223.795L178.897,224.014L180.272,224.982L181.647,225.763L183.026,226.818L184.401,227.078L185.777,227.365L187.152,227.139L188.531,227.168L189.906,226.971L191.281,226.942L192.657,226.634L194.036,226.449L195.411,226.567L196.786,226.097L198.161,225.63L199.54,225.302L200.916,222.826L202.291,222.286L203.666,222.407L205.045,222.447L206.42,222.816L207.795,222.982L209.171,222.608L210.55,222.481L211.925,222.343L213.3,222.233L214.675,222.234L216.054,222.224L217.43,222.442L218.805,222.711L220.18,223.112L221.559,223.404L222.934,224.227L224.31,225.051L225.685,226.196L227.064,227.503L228.439,228.506L229.814,229.806L231.189,230.927L232.568,231.991L233.944,233.137L235.319,233.867L236.694,234.98L238.073,236.174L239.448,237.045L240.824,237.976L242.199,238.796L243.578,239.528L244.953,240.295L246.328,240.91L247.704,241.653L249.083,242.324L250.458,243.067L251.833,243.788L253.208,244.574L254.587,245.221L255.962,245.909L257.338,246.545L258.713,247.125L260.092,247.809L261.467,248.36L262.842,249.135L264.218,249.905L265.597,250.786L266.972,251.539L268.347,252.329L269.722,253.104L271.101,253.786L272.477,254.5L273.852,255.011L275.227,255.445L276.606,255.873L277.981,256.197L279.356,256.379L280.732,256.481L282.111,256.626L283.486,256.663L284.861,256.78L286.236,256.874L287.615,257.092L288.991,257.323L290.366,257.725L291.741,258.06L293.12,258.327L294.495,258.651L295.871,258.969L297.246,259.261L298.625,259.513L300,259.771L300,273.543L298.625,273.238L297.246,272.933L295.871,272.629L294.495,272.295L293.12,271.962L291.741,271.61L290.366,271.257L288.991,270.914L287.615,270.6L286.236,270.305L284.861,270.057L283.486,269.819L282.111,269.629L280.732,269.4L279.356,269.21L277.981,268.962L276.606,268.638L275.227,268.324L273.852,267.971L272.477,267.648L271.101,267.162L269.722,266.752L268.347,266.305L266.972,265.867L265.597,265.419L264.218,264.933L262.842,264.524L261.467,264.086L260.092,263.771L258.713,263.343L257.338,262.914L255.962,262.448L254.587,261.876L253.208,261.371L251.833,260.752L250.458,260.219L249.083,259.667L247.704,259.238L246.328,258.743L244.953,258.4L243.578,257.924L242.199,257.552L240.824,257.114L239.448,256.533L238.073,255.952L236.694,255.2L235.319,254.476L233.944,254.067L232.568,253.343L231.189,252.676L229.814,252.019L228.439,251.181L227.064,250.543L225.685,249.638L224.31,248.781L222.934,248.181L221.559,247.619L220.18,247.514L218.805,247.333L217.43,247.229L216.054,247.229L214.675,247.39L213.3,247.486L211.925,247.714L210.55,247.962L209.171,248.276L207.795,248.733L206.42,248.695L205.045,249.038L203.666,249.229L202.291,249.324L200.916,249.762L199.54,250.61L198.161,251.048L196.786,251.457L195.411,251.543L194.036,251.581L192.657,251.981L191.281,252.476L189.906,252.771L188.531,252.952L187.152,253.238L185.777,253.543L184.401,253.638L183.026,253.695L181.647,253.752L180.272,253.571L178.897,253.524L177.522,253.476L176.143,253.343L174.767,253.257L173.392,253.152L172.017,253.086L170.638,252.962L169.263,252.819L167.887,252.514L166.512,252.438L165.133,252.21L163.758,252.629L162.383,252.314L161.007,251.971L159.628,251.886L158.253,251.495L156.878,251.362L155.503,251.286L154.124,251.19L152.749,251.2L151.373,251.276L149.998,251.076L148.619,251L147.244,250.971L145.869,250.943L144.493,250.724L143.114,250.676L141.739,250.81L140.364,250.667L138.989,250.505L137.613,250.524L136.238,250.581L134.863,250.524L133.488,250.362L132.109,250.286L130.734,249.981L129.358,249.857L127.983,249.571L126.604,249.419L125.229,249.171L123.854,249.057L122.478,249.01L121.099,248.762L119.724,248.638L118.349,248.533L116.974,248.343L114.22,248.21L112.844,248.114L111.469,247.924L110.09,247.571L108.715,247.562L107.34,247.41L105.964,247.543L104.585,247.371L103.21,247.562L101.835,247.467L100.46,247.533L99.081,247.505L97.705,247.238L96.33,246.933L94.955,246.99L93.576,246.724L92.201,246.743L90.826,246.724L89.45,246.657L88.071,246.886L86.696,247.448L85.321,247.143L83.946,246.962L82.567,247.019L81.191,247.076L79.816,246.962L78.441,246.876L77.062,247.505L75.687,247.21L74.311,247.648L72.936,247.486L71.557,247.8L70.182,247.505L68.807,247.571L67.432,247.524L66.053,247.486L64.677,247.448L63.302,247.41L61.927,247.362L60.548,247.324L59.173,247.286L57.797,247.248L56.422,247.21L55.043,247.162L53.668,247.124L52.293,247.086L50.917,247.048L49.538,247L48.163,246.962L46.788,246.924L45.413,246.886L44.034,246.848L42.659,246.8L41.283,246.762L39.908,246.724L38.529,246.686L37.154,246.638L35.779,246.6L34.403,246.562L33.024,246.543L31.649,246.524L30.274,246.505L28.899,246.486L27.52,246.467L26.144,246.448L24.769,246.429L23.394,246.41L22.015,246.39L20.64,246.371L19.265,246.352L17.889,246.333L16.51,246.314L15.135,246.295L13.76,246.276L12.385,246.257L11.006,246.238L9.63,246.219L8.255,246.2L6.88,246.181L5.501,246.162L4.126,246.143L2.75,246.124L1.375,246.105L0,246.086Z" fill="#72b7b2"/></g></g><path class="foreground" aria-hidden="true" d="" display="none"/></g><g transform="translate(0,0)"><path class="background" aria-hidden="true" d="M0,0h300v300h-300Z"/><g><g class="mark-area role-mark marks" role="graphics-symbol" aria-roledescription="area mark container"><path d="M0,38.624L1.375,38.764L2.75,38.645L4.126,38.701L5.501,38.705L6.88,38.73L8.255,38.924L9.63,38.994L11.006,39.34L12.385,39.837L13.76,39.229L15.135,39.262L16.51,39.273L17.889,39.558L19.265,39.554L20.64,39.119L22.015,39.05L23.394,39.208L24.769,39.304L26.144,39.334L27.52,39.349L28.899,38.968L30.274,39.214L31.649,39.109L33.024,39.404L34.403,39.019L35.779,39.259L37.154,39.575L38.529,39.52L39.908,39.656L41.283,39.901L42.659,40.154L44.034,40.262L45.413,40.135L46.788,39.96L48.163,40.283L49.538,40.497L50.917,40.616L52.293,40.764L53.668,40.79L55.043,40.7L56.422,40.857L57.797,40.74L59.173,40.905L60.548,40.999L61.927,41.182L63.302,41.324L64.677,41.524L66.053,41.536L67.432,41.246L68.807,41.384L70.182,41.475L71.557,42.193L72.936,42.28L74.311,42.523L75.687,42.676L77.062,42.818L78.441,42.317L79.816,42.314L81.191,42.177L82.567,42.193L83.946,42.428L85.321,42.505L86.696,42.684L88.071,42.015L89.45,42.373L90.826,42.606L92.201,43.093L93.576,43.348L94.955,43.268L96.33,43.049L97.705,43.608L99.081,43.917L100.46,43.693L101.835,43.527L103.21,43.632L104.585,43.469L105.964,44.247L107.34,44.921L108.715,44.686L110.09,45.08L111.469,45.207L112.844,45.501L114.22,45.542L116.974,46.628L118.349,46.882L119.724,46.728L121.099,47.056L122.478,47.793L123.854,48.659L125.229,48.24L126.604,49.262L127.983,49.114L129.358,49.268L130.734,49.204L132.109,49.868L133.488,50.223L134.863,50.953L136.238,51.105L137.613,50.74L138.989,50.753L140.364,51.11L141.739,51.755L143.114,52.18L144.493,52.972L145.869,53.186L147.244,53.524L148.619,53.62L149.998,54.38L151.373,55.088L152.749,55.251L154.124,56.004L155.503,56.982L156.878,57.986L158.253,60.842L159.628,61.974L161.007,63.142L162.383,63.676L163.758,64.748L165.133,61.307L166.512,62.01L167.887,62.396L169.263,62.988L170.638,63.864L172.017,64.396L173.392,64.94L174.767,66.135L176.143,66.81L177.522,68.198L178.897,68.661L180.272,70.173L181.647,71.326L183.026,72.722L184.401,73.241L185.777,73.845L187.152,73.915L188.531,74.061L189.906,74.001L191.281,74.12L192.657,73.888L194.036,73.751L195.411,73.992L196.786,73.633L198.161,73.279L199.54,72.925L200.916,69.858L202.291,68.797L203.666,68.912L205.045,68.492L206.42,68.688L207.795,68.566L209.171,67.495L210.55,66.83L211.925,66.013L213.3,65.29L214.675,64.746L216.054,64.028L217.43,63.868L218.805,63.922L220.18,64.084L221.559,64.415L222.934,64.905L224.31,65.843L225.685,67.864L227.064,70.108L228.439,72.163L229.814,74.838L231.189,77.021L232.568,79.542L233.944,82.073L235.319,84.376L236.694,87.2L238.073,90.178L239.448,92.863L240.824,95.693L242.199,98.309L243.578,100.77L244.953,103.163L246.328,105.268L247.704,107.522L249.083,109.581L250.458,111.844L251.833,114.181L253.208,116.642L254.587,119.089L255.962,121.741L257.338,124.346L258.713,126.942L260.092,129.755L261.467,132.435L262.842,135.412L264.218,138.371L265.597,141.437L266.972,144.327L268.347,147.298L269.722,150.115L271.101,152.814L272.477,155.512L273.852,157.907L275.227,160.115L276.606,162.262L277.981,164.124L279.356,165.696L280.732,167.119L282.111,168.458L283.486,169.588L284.861,170.716L286.236,171.799L287.615,172.944L288.991,174.125L290.366,175.502L291.741,176.781L293.12,178.025L294.495,179.39L295.871,180.755L297.246,182.115L298.625,183.415L300,184.689L300,220.795L298.625,220.079L297.246,219.343L295.871,218.557L294.495,217.747L293.12,216.929L291.741,216.209L290.366,215.439L288.991,214.541L287.615,213.815L286.236,213.113L284.861,212.459L283.486,211.773L282.111,211.078L280.732,210.177L279.356,209.213L277.981,208.107L276.606,206.725L275.227,205.085L273.852,203.405L272.477,201.564L271.101,199.437L269.722,197.337L268.347,195.146L266.972,192.828L265.597,190.607L264.218,188.231L262.842,185.967L261.467,183.685L260.092,181.693L258.713,179.527L257.338,177.573L255.962,175.561L254.587,173.468L253.208,171.523L251.833,169.524L250.458,167.605L249.083,165.718L247.704,163.989L246.328,162.02L244.953,160.157L243.578,157.971L242.199,155.676L240.824,153.201L239.448,150.483L238.073,147.877L236.694,144.963L235.319,142.162L233.944,139.869L232.568,137.336L231.189,134.792L229.814,132.553L228.439,129.814L227.064,127.665L225.685,125.309L224.31,123.135L222.934,122.016L221.559,121.326L220.18,120.776L218.805,120.386L217.43,120.093L216.054,120.033L214.675,120.533L213.3,120.899L211.925,121.459L210.55,122.147L209.171,122.713L207.795,123.73L206.42,123.848L205.045,123.467L203.666,123.696L202.291,123.636L200.916,124.749L199.54,127.779L198.161,128.089L196.786,128.408L195.411,128.722L194.036,128.437L192.657,128.531L191.281,128.781L189.906,128.685L188.531,128.765L187.152,128.64L185.777,128.575L184.401,127.981L183.026,127.467L181.647,126.085L180.272,124.936L178.897,123.436L177.522,122.996L176.143,121.633L174.767,120.976L173.392,119.812L172.017,119.291L170.638,118.728L169.263,117.821L167.887,117.197L166.512,116.78L165.133,116.047L163.758,119.483L162.383,118.404L161.007,117.864L159.628,116.693L158.253,115.555L156.878,112.732L155.503,111.757L154.124,110.81L152.749,110.084L151.373,109.817L149.998,109.122L148.619,108.376L147.244,108.292L145.869,107.969L144.493,107.768L143.114,106.985L141.739,106.568L140.364,105.933L138.989,105.581L137.613,105.575L136.238,105.936L134.863,105.779L133.488,105.042L132.109,104.681L130.734,104.012L129.358,104.073L127.983,103.917L126.604,104.06L125.229,103.034L123.854,103.448L122.478,102.587L121.099,101.855L119.724,101.533L118.349,101.691L116.974,101.437L114.22,100.365L112.844,100.33L111.469,100.041L110.09,99.921L108.715,99.526L107.34,99.763L105.964,99.09L104.585,98.312L103.21,98.474L101.835,98.371L100.46,98.537L99.081,98.761L97.705,98.452L96.33,97.892L94.955,98.112L93.576,98.194L92.201,97.939L90.826,97.452L89.45,97.22L88.071,96.862L86.696,97.532L85.321,97.349L83.946,97.272L82.567,97.038L81.191,97.022L79.816,97.16L78.441,97.162L77.062,97.664L75.687,97.522L74.311,97.368L72.936,97.126L71.557,97.041L70.182,96.32L68.807,96.23L67.432,96.093L66.053,96.381L64.677,96.37L63.302,96.171L61.927,96.029L60.548,95.849L59.173,95.755L57.797,95.591L56.422,95.709L55.043,95.552L53.668,95.639L52.293,95.615L50.917,95.467L49.538,95.349L48.163,95.136L46.788,94.81L45.413,94.987L44.034,95.115L42.659,95.007L41.283,94.754L39.908,94.51L38.529,94.374L37.154,94.429L35.779,94.113L34.403,93.874L33.024,94.26L31.649,93.963L30.274,94.07L28.899,93.822L27.52,94.202L26.144,94.188L24.769,94.158L23.394,94.062L22.015,93.903L20.64,93.972L19.265,94.412L17.889,94.415L16.51,94.132L15.135,94.121L13.76,94.088L12.385,94.697L11.006,94.201L9.63,93.853L8.255,93.783L6.88,93.587L5.501,93.563L4.126,93.56L2.75,93.503L1.375,93.625L0,93.485Z" fill="#4c78a8"/></g></g><path class="foreground" aria-hidden="true" d="" display="none"/></g><g transform="translate(0,0)"><path class="background" aria-hidden="true" d="M0,0h300v300h-300Z"/><g><g class="mark-area role-mark marks" role="graphics-symbol" aria-roledescription="area mark container"><path d="M0,93.485L1.375,93.625L2.75,93.503L4.126,93.56L5.501,93.563L6.88,93.587L8.255,93.783L9.63,93.853L11.006,94.201L12.385,94.697L13.76,94.088L15.135,94.121L16.51,94.132L17.889,94.415L19.265,94.412L20.64,93.972L22.015,93.903L23.394,94.062L24.769,94.158L26.144,94.188L27.52,94.202L28.899,93.822L30.274,94.07L31.649,93.963L33.024,94.26L34.403,93.874L35.779,94.113L37.154,94.429L38.529,94.374L39.908,94.51L41.283,94.754L42.659,95.007L44.034,95.115L45.413,94.987L46.788,94.81L48.163,95.136L49.538,95.349L50.917,95.467L52.293,95.615L53.668,95.639L55.043,95.552L56.422,95.709L57.797,95.591L59.173,95.755L60.548,95.849L61.927,96.029L63.302,96.171L64.677,96.37L66.053,96.381L67.432,96.093L68.807,96.23L70.182,96.32L71.557,97.041L72.936,97.126L74.311,97.368L75.687,97.522L77.062,97.664L78.441,97.162L79.816,97.16L81.191,97.022L82.567,97.038L83.946,97.272L85.321,97.349L86.696,97.532L88.071,96.862L89.45,97.22L90.826,97.452L92.201,97.939L93.576,98.194L94.955,98.112L96.33,97.892L97.705,98.452L99.081,98.761L100.46,98.537L101.835,98.371L103.21,98.474L104.585,98.312L105.964,99.09L107.34,99.763L108.715,99.526L110.09,99.921L111.469,100.041L112.844,100.33L114.22,100.365L116.974,101.437L118.349,101.691L119.724,101.533L121.099,101.855L122.478,102.587L123.854,103.448L125.229,103.034L126.604,104.06L127.983,103.917L129.358,104.073L130.734,104.012L132.109,104.681L133.488,105.042L134.863,105.779L136.238,105.936L137.613,105.575L138.989,105.581L140.364,105.933L141.739,106.568L143.114,106.985L144.493,107.768L145.869,107.969L147.244,108.292L148.619,108.376L149.998,109.122L151.373,109.817L152.749,110.084L154.124,110.81L155.503,111.757L156.878,112.732L158.253,115.555L159.628,116.693L161.007,117.864L162.383,118.404L163.758,119.483L165.133,116.047L166.512,116.78L167.887,117.197L169.263,117.821L170.638,118.728L172.017,119.291L173.392,119.812L174.767,120.976L176.143,121.633L177.522,122.996L178.897,123.436L180.272,124.936L181.647,126.085L183.026,127.467L184.401,127.981L185.777,128.575L187.152,128.64L188.531,128.765L189.906,128.685L191.281,128.781L192.657,128.531L194.036,128.437L195.411,128.722L196.786,128.408L198.161,128.089L199.54,127.779L200.916,124.749L202.291,123.636L203.666,123.696L205.045,123.467L206.42,123.848L207.795,123.73L209.171,122.713L210.55,122.147L211.925,121.459L213.3,120.899L214.675,120.533L216.054,120.033L217.43,120.093L218.805,120.386L220.18,120.776L221.559,121.326L222.934,122.016L224.31,123.135L225.685,125.309L227.064,127.665L228.439,129.814L229.814,132.553L231.189,134.792L232.568,137.336L233.944,139.869L235.319,142.162L236.694,144.963L238.073,147.877L239.448,150.483L240.824,153.201L242.199,155.676L243.578,157.971L244.953,160.157L246.328,162.02L247.704,163.989L249.083,165.718L250.458,167.605L251.833,169.524L253.208,171.523L254.587,173.468L255.962,175.561L257.338,177.573L258.713,179.527L260.092,181.693L261.467,183.685L262.842,185.967L264.218,188.231L265.597,190.607L266.972,192.828L268.347,195.146L269.722,197.337L271.101,199.437L272.477,201.564L273.852,203.405L275.227,205.085L276.606,206.725L277.981,208.107L279.356,209.213L280.732,210.177L282.111,211.078L283.486,211.773L284.861,212.459L286.236,213.113L287.615,213.815L288.991,214.541L290.366,215.439L291.741,216.209L293.12,216.929L294.495,217.747L295.871,218.557L297.246,219.343L298.625,220.079L300,220.795L300,239.176L298.625,238.646L297.246,238.095L295.871,237.513L294.495,236.911L293.12,236.309L291.741,235.796L290.366,235.261L288.991,234.623L287.615,234.163L286.236,233.757L284.861,233.404L283.486,233.019L282.111,232.634L280.732,232.089L279.356,231.512L277.981,230.818L276.606,229.882L275.227,228.72L273.852,227.535L272.477,226.2L271.101,224.579L269.722,222.996L268.347,221.311L266.972,219.513L265.597,217.784L264.218,215.916L262.842,214.167L261.467,212.408L260.092,210.924L258.713,209.303L257.338,207.924L255.962,206.51L254.587,205.047L253.208,203.73L251.833,202.353L250.458,201.064L249.083,199.793L247.704,198.698L246.328,197.382L244.953,196.212L243.578,194.798L242.199,193.308L240.824,191.703L239.448,189.917L238.073,188.24L236.694,186.274L235.319,184.452L233.944,183.091L232.568,181.465L231.189,179.812L229.814,178.49L228.439,176.647L227.064,175.353L225.685,173.768L224.31,172.202L222.934,171.537L221.559,171.178L220.18,170.781L218.805,170.435L217.43,170.087L216.054,169.907L214.675,170.222L213.3,170.35L211.925,170.675L210.55,171.09L209.171,171.382L207.795,172.084L206.42,172.017L205.045,171.323L203.666,171.215L202.291,170.92L200.916,171.793L199.54,174.499L198.161,174.665L196.786,174.865L195.411,175.016L194.036,174.515L192.657,174.457L191.281,174.552L189.906,174.374L188.531,174.315L187.152,174.354L185.777,174.468L184.401,174.031L183.026,173.665L181.647,172.564L180.272,171.719L178.897,170.554L177.522,170.329L176.143,169.271L174.767,168.918L173.392,167.848L172.017,167.374L170.638,166.944L169.263,166.106L167.887,165.609L166.512,165.22L165.133,164.407L163.758,167.654L162.383,166.473L161.007,165.773L159.628,164.912L158.253,164.053L156.878,161.575L155.503,160.868L154.124,160.256L152.749,159.599L151.373,159.384L149.998,158.753L148.619,158.085L147.244,158.078L145.869,157.849L144.493,157.656L143.114,156.821L141.739,156.354L140.364,155.655L138.989,155.184L137.613,155.063L136.238,155.119L134.863,154.96L133.488,154.269L132.109,154.301L130.734,153.928L129.358,154.005L127.983,153.711L126.604,153.893L125.229,152.79L123.854,153.42L122.478,152.711L121.099,151.949L119.724,151.626L118.349,151.825L116.974,151.406L114.22,151.213L112.844,151.233L111.469,151.157L110.09,150.775L108.715,150.311L107.34,150.429L105.964,149.877L104.585,149.196L103.21,149.46L101.835,149.467L100.46,149.678L99.081,149.902L97.705,149.551L96.33,149.097L94.955,149.355L93.576,149.442L92.201,149.154L90.826,148.657L89.45,148.364L88.071,148.274L86.696,148.921L85.321,148.772L83.946,148.678L82.567,148.752L81.191,148.523L79.816,148.672L78.441,148.801L77.062,149.344L75.687,149.183L74.311,148.991L72.936,148.803L71.557,148.804L70.182,148.089L68.807,148.004L67.432,147.873L66.053,148.169L64.677,148.16L63.302,147.97L61.927,147.834L60.548,147.665L59.173,147.574L57.797,147.412L56.422,147.539L55.043,147.389L53.668,147.479L52.293,147.461L50.917,147.313L49.538,147.209L48.163,146.998L46.788,146.673L45.413,146.858L44.034,146.974L42.659,146.85L41.283,146.587L39.908,146.326L38.529,146.176L37.154,146.22L35.779,145.887L34.403,145.634L33.024,146.009L31.649,145.698L30.274,145.792L28.899,145.532L27.52,145.899L26.144,145.871L24.769,145.824L23.394,145.739L22.015,145.595L20.64,145.675L19.265,146.128L17.889,146.148L16.51,145.878L15.135,145.881L13.76,145.862L12.385,146.485L11.006,146.003L9.63,145.669L8.255,145.616L6.88,145.433L5.501,145.423L4.126,145.434L2.75,145.391L1.375,145.529L0,145.403Z" fill="#f58518"/></g></g><path class="foreground" aria-hidden="true" d="" display="none"/></g><g transform="translate(0,0)"><path class="background" aria-hidden="true" d="M0,0h300v300h-300Z"/><g><g class="mark-area role-mark marks" role="graphics-symbol" aria-roledescription="area mark container"><path d="M0,246.086L1.375,246.105L2.75,246.124L4.126,246.143L5.501,246.162L6.88,246.181L8.255,246.2L9.63,246.219L11.006,246.238L12.385,246.257L13.76,246.276L15.135,246.295L16.51,246.314L17.889,246.333L19.265,246.352L20.64,246.371L22.015,246.39L23.394,246.41L24.769,246.429L26.144,246.448L27.52,246.467L28.899,246.486L30.274,246.505L31.649,246.524L33.024,246.543L34.403,246.562L35.779,246.6L37.154,246.638L38.529,246.686L39.908,246.724L41.283,246.762L42.659,246.8L44.034,246.848L45.413,246.886L46.788,246.924L48.163,246.962L49.538,247L50.917,247.048L52.293,247.086L53.668,247.124L55.043,247.162L56.422,247.21L57.797,247.248L59.173,247.286L60.548,247.324L61.927,247.362L63.302,247.41L64.677,247.448L66.053,247.486L67.432,247.524L68.807,247.571L70.182,247.505L71.557,247.8L72.936,247.486L74.311,247.648L75.687,247.21L77.062,247.505L78.441,246.876L79.816,246.962L81.191,247.076L82.567,247.019L83.946,246.962L85.321,247.143L86.696,247.448L88.071,246.886L89.45,246.657L90.826,246.724L92.201,246.743L93.576,246.724L94.955,246.99L96.33,246.933L97.705,247.238L99.081,247.505L100.46,247.533L101.835,247.467L103.21,247.562L104.585,247.371L105.964,247.543L107.34,247.41L108.715,247.562L110.09,247.571L111.469,247.924L112.844,248.114L114.22,248.21L116.974,248.343L118.349,248.533L119.724,248.638L121.099,248.762L122.478,249.01L123.854,249.057L125.229,249.171L126.604,249.419L127.983,249.571L129.358,249.857L130.734,249.981L132.109,250.286L133.488,250.362L134.863,250.524L136.238,250.581L137.613,250.524L138.989,250.505L140.364,250.667L141.739,250.81L143.114,250.676L144.493,250.724L145.869,250.943L147.244,250.971L148.619,251L149.998,251.076L151.373,251.276L152.749,251.2L154.124,251.19L155.503,251.286L156.878,251.362L158.253,251.495L159.628,251.886L161.007,251.971L162.383,252.314L163.758,252.629L165.133,252.21L166.512,252.438L167.887,252.514L169.263,252.819L170.638,252.962L172.017,253.086L173.392,253.152L174.767,253.257L176.143,253.343L177.522,253.476L178.897,253.524L180.272,253.571L181.647,253.752L183.026,253.695L184.401,253.638L185.777,253.543L187.152,253.238L188.531,252.952L189.906,252.771L191.281,252.476L192.657,251.981L194.036,251.581L195.411,251.543L196.786,251.457L198.161,251.048L199.54,250.61L200.916,249.762L202.291,249.324L203.666,249.229L205.045,249.038L206.42,248.695L207.795,248.733L209.171,248.276L210.55,247.962L211.925,247.714L213.3,247.486L214.675,247.39L216.054,247.229L217.43,247.229L218.805,247.333L220.18,247.514L221.559,247.619L222.934,248.181L224.31,248.781L225.685,249.638L227.064,250.543L228.439,251.181L229.814,252.019L231.189,252.676L232.568,253.343L233.944,254.067L235.319,254.476L236.694,255.2L238.073,255.952L239.448,256.533L240.824,257.114L242.199,257.552L243.578,257.924L244.953,258.4L246.328,258.743L247.704,259.238L249.083,259.667L250.458,260.219L251.833,260.752L253.208,261.371L254.587,261.876L255.962,262.448L257.338,262.914L258.713,263.343L260.092,263.771L261.467,264.086L262.842,264.524L264.218,264.933L265.597,265.419L266.972,265.867L268.347,266.305L269.722,266.752L271.101,267.162L272.477,267.648L273.852,267.971L275.227,268.324L276.606,268.638L277.981,268.962L279.356,269.21L280.732,269.4L282.111,269.629L283.486,269.819L284.861,270.057L286.236,270.305L287.615,270.6L288.991,270.914L290.366,271.257L291.741,271.61L293.12,271.962L294.495,272.295L295.871,272.629L297.246,272.933L298.625,273.238L300,273.543L300,300L298.625,300L297.246,300L295.871,300L294.495,300L293.12,300L291.741,300L290.366,300L288.991,300L287.615,300L286.236,300L284.861,300L283.486,300L282.111,300L280.732,300L279.356,300L277.981,300L276.606,300L275.227,300L273.852,300L272.477,300L271.101,300L269.722,300L268.347,300L266.972,300L265.597,300L264.218,300L262.842,300L261.467,300L260.092,300L258.713,300L257.338,300L255.962,300L254.587,300L253.208,300L251.833,300L250.458,300L249.083,300L247.704,300L246.328,300L244.953,300L243.578,300L242.199,300L240.824,300L239.448,300L238.073,300L236.694,300L235.319,300L233.944,300L232.568,300L231.189,300L229.814,300L228.439,300L227.064,300L225.685,300L224.31,300L222.934,300L221.559,300L220.18,300L218.805,300L217.43,300L216.054,300L214.675,300L213.3,300L211.925,300L210.55,300L209.171,300L207.795,300L206.42,300L205.045,300L203.666,300L202.291,300L200.916,300L199.54,300L198.161,300L196.786,300L195.411,300L194.036,300L192.657,300L191.281,300L189.906,300L188.531,300L187.152,300L185.777,300L184.401,300L183.026,300L181.647,300L180.272,300L178.897,300L177.522,300L176.143,300L174.767,300L173.392,300L172.017,300L170.638,300L169.263,300L167.887,300L166.512,300L165.133,300L163.758,300L162.383,300L161.007,300L159.628,300L158.253,300L156.878,300L155.503,300L154.124,300L152.749,300L151.373,300L149.998,300L148.619,300L147.244,300L145.869,300L144.493,300L143.114,300L141.739,300L140.364,300L138.989,300L137.613,300L136.238,300L134.863,300L133.488,300L132.109,300L130.734,300L129.358,300L127.983,300L126.604,300L125.229,300L123.854,300L122.478,300L121.099,300L119.724,300L118.349,300L116.974,300L114.22,300L112.844,300L111.469,300L110.09,300L108.715,300L107.34,300L105.964,300L104.585,300L103.21,300L101.835,300L100.46,300L99.081,300L97.705,300L96.33,300L94.955,300L93.576,300L92.201,300L90.826,300L89.45,300L88.071,300L86.696,300L85.321,300L83.946,300L82.567,300L81.191,300L79.816,300L78.441,300L77.062,300L75.687,300L74.311,300L72.936,300L71.557,300L70.182,300L68.807,300L67.432,300L66.053,300L64.677,300L63.302,300L61.927,300L60.548,300L59.173,300L57.797,300L56.422,300L55.043,300L53.668,300L52.293,300L50.917,300L49.538,300L48.163,300L46.788,300L45.413,300L44.034,300L42.659,300L41.283,300L39.908,300L38.529,300L37.154,300L35.779,300L34.403,300L33.024,300L31.649,300L30.274,300L28.899,300L27.52,300L26.144,300L24.769,300L23.394,300L22.015,300L20.64,300L19.265,300L17.889,300L16.51,300L15.135,300L13.76,300L12.385,300L11.006,300L9.63,300L8.255,300L6.88,300L5.501,300L4.126,300L2.75,300L1.375,300L0,300Z" fill="#54a24b"/></g></g><path class="foreground" aria-hidden="true" d="" display="none"/></g></g><g class="mark-group role-legend" role="graphics-symbol" aria-roledescription="legend" aria-label="Symbol legend titled 'region' for fill color with 5 values: Africa, Americas, Asia, Europe, Oceania"><g transform="translate(318,0)"><path class="background" aria-hidden="true" d="M0,0h58v79h-58Z" pointer-events="none"/><g><g class="mark-group role-legend-entry"><g transform="translate(0,16)"><path class="background" aria-hidden="true" d="M0,0h0v0h0Z" pointer-events="none"/><g><g class="mark-group role-scope" role="graphics-object" aria-roledescription="group mark container"><g transform="translate(0,0)"><path class="background" aria-hidden="true" d="M0,0h57.6748046875v11h-57.6748046875Z" pointer-events="none" opacity="1"/><g><g class="mark-symbol role-legend-symbol" pointer-events="none"><path transform="translate(6,6)" d="M5,0A5,5,0,1,1,-5,0A5,5,0,1,1,5,0" fill="#4c78a8" stroke-width="1.5" opacity="1"/></g><g class="mark-text role-legend-label" pointer-events="none"><text text-anchor="start" transform="translate(16,9)" font-family="sans-serif" font-size="10px" fill="#000" opacity="1">Africa</text></g></g><path class="foreground" aria-hidden="true" d="" pointer-events="none" display="none"/></g><g transform="translate(0,13)"><path class="background" aria-hidden="true" d="M0,0h57.6748046875v11h-57.6748046875Z" pointer-events="none" opacity="1"/><g><g class="mark-symbol role-legend-symbol" pointer-events="none"><path transform="translate(6,6)" d="M5,0A5,5,0,1,1,-5,0A5,5,0,1,1,5,0" fill="#f58518" stroke-width="1.5" opacity="1"/></g><g class="mark-text role-legend-label" pointer-events="none"><text text-anchor="start" transform="translate(16,9)" font-family="sans-serif" font-size="10px" fill="#000" opacity="1">Americas</text></g></g><path class="foreground" aria-hidden="true" d="" pointer-events="none" display="none"/></g><g transform="translate(0,26)"><path class="background" aria-hidden="true" d="M0,0h57.6748046875v11h-57.6748046875Z" pointer-events="none" opacity="1"/><g><g class="mark-symbol role-legend-symbol" pointer-events="none"><path transform="translate(6,6)" d="M5,0A5,5,0,1,1,-5,0A5,5,0,1,1,5,0" fill="#e45756" stroke-width="1.5" opacity="1"/></g><g class="mark-text role-legend-label" pointer-events="none"><text text-anchor="start" transform="translate(16,9)" font-family="sans-serif" font-size="10px" fill="#000" opacity="1">Asia</text></g></g><path class="foreground" aria-hidden="true" d="" pointer-events="none" display="none"/></g><g transform="translate(0,39)"><path class="background" aria-hidden="true" d="M0,0h57.6748046875v11h-57.6748046875Z" pointer-events="none" opacity="1"/><g><g class="mark-symbol role-legend-symbol" pointer-events="none"><path transform="translate(6,6)" d="M5,0A5,5,0,1,1,-5,0A5,5,0,1,1,5,0" fill="#72b7b2" stroke-width="1.5" opacity="1"/></g><g class="mark-text role-legend-label" pointer-events="none"><text text-anchor="start" transform="translate(16,9)" font-family="sans-serif" font-size="10px" fill="#000" opacity="1">Europe</text></g></g><path class="foreground" aria-hidden="true" d="" pointer-events="none" display="none"/></g><g transform="translate(0,52)"><path class="background" aria-hidden="true" d="M0,0h57.6748046875v11h-57.6748046875Z" pointer-events="none" opacity="1"/><g><g class="mark-symbol role-legend-symbol" pointer-events="none"><path transform="translate(6,6)" d="M5,0A5,5,0,1,1,-5,0A5,5,0,1,1,5,0" fill="#54a24b" stroke-width="1.5" opacity="1"/></g><g class="mark-text role-legend-label" pointer-events="none"><text text-anchor="start" transform="translate(16,9)" font-family="sans-serif" font-size="10px" fill="#000" opacity="1">Oceania</text></g></g><path class="foreground" aria-hidden="true" d="" pointer-events="none" display="none"/></g></g></g><path class="foreground" aria-hidden="true" d="" pointer-events="none" display="none"/></g></g><g class="mark-text role-legend-title" pointer-events="none"><text text-anchor="start" transform="translate(0,9)" font-family="sans-serif" font-size="11px" font-weight="bold" fill="#000" opacity="1">region</text></g></g><path class="foreground" aria-hidden="true" d="" pointer-events="none" display="none"/></g></g></g><path class="foreground" aria-hidden="true" d="" display="none"/></g></g></g></svg>