<svg xmlns="http://www.w3.org/2000/svg" xmlns:xlink="http://www.w3.org/1999/xlink" version="1.1" class="marks" width="474" height="347" viewBox="0 0 474 347"><rect width="474" height="347" fill="white"/><g fill="none" stroke-miterlimit="10" transform="translate(91,10)"><g class="mark-group role-frame root" role="graphics-object" aria-roledescription="group mark container"><g transform="translate(0,0)"><path class="background" aria-hidden="true" d="M0.5,0.5h300v300h-300Z" stroke="#ddd"/><g><g class="mark-group role-axis" aria-hidden="true"><g transform="translate(0.5,300.5)"><path class="background" aria-hidden="true" d="M0,0h0v0h0Z" pointer-events="none"/><g><g class="mark-rule role-axis-grid" pointer-events="none"><line transform="translate(0,-300)" x2="0" y2="300" stroke="#ddd" stroke-width="1" opacity="1"/><line transform="translate(28,-300)" x2="0" y2="300" stroke="#ddd" stroke-width="1" opacity="1"/><line transform="translate(55,-300)" x2="0" y2="300" stroke="#ddd" stroke-width="1" opacity="1"/><line transform="translate(83,-300)" x2="0" y2="300" stroke="#ddd" stroke-width="1" opacity="1"/><line transform="translate(110,-300)" x2="0" y2="300" stroke="#ddd" stroke-width="1" opacity="1"/><line transform="translate(138,-300)" x2="0" y2="300" stroke="#ddd" stroke-width="1" opacity="1"/><line transform="translate(165,-300)" x2="0" y2="300" stroke="#ddd" stroke-width="1" opacity="1"/><line transform="translate(193,-300)" x2="0" y2="300" stroke="#ddd" stroke-width="1" opacity="1"/><line transform="translate(220,-300)" x2="0" y2="300" stroke="#ddd" stroke-width="1" opacity="1"/><line transform="translate(248,-300)" x2="0" y2="300" stroke="#ddd" stroke-width="1" opacity="1"/><line transform="translate(275,-300)" x2="0" y2="300" stroke="#ddd" stroke-width="1" opacity="1"/></g></g><path class="foreground" aria-hidden="true" d="" pointer-events="none" display="none"/></g></g><g class="mark-group role-axis" aria-hidden="true"><g transform="translate(0.5,0.5)"><path class="background" aria-hidden="true" d="M0,0h0v0h0Z" pointer-events="none"/><g><g class="mark-rule role-axis-grid" pointer-events="none"><line transform="translate(0,300)" x2="300" y2="0" stroke="#ddd" stroke-width="1" opacity="1"/><line transform="translate(0,270)" x2="300" y2="0" stroke="#ddd" stroke-width="1" opacity="1"/><line transform="translate(0,240)" x2="300" y2="0" stroke="#ddd" stroke-width="1" opacity="1"/><line transform="translate(0,210)" x2="300" y2="0" stroke="#ddd" stroke-width="1" opacity="1"/><line transform="translate(0,180)" x2="300" y2="0" stroke="#ddd" stroke-width="1" opacity="1"/><line transform="translate(0,150)" x2="300" y2="0" stroke="#ddd" stroke-width="1" opacity="1"/><line transform="translate(0,120)" x2="300" y2="0" stroke="#ddd" stroke-width="1" opacity="1"/><line transform="translate(0,90)" x2="300" y2="0" stroke="#ddd" stroke-width="1" opacity="1"/><line transform="translate(0,60)" x2="300" y2="0" stroke="#ddd" stroke-width="1" opacity="1"/><line transform="translate(0,30)" x2="300" y2="0" stroke="#ddd" stroke-width="1" opacity="1"/><line transform="translate(0,0)" x2="300" y2="0" stroke="#ddd" stroke-width="1" opacity="1"/></g></g><path class="foreground" aria-hidden="true" d="" pointer-events="none" display="none"/></g></g><g class="mark-group role-axis" role="graphics-symbol" aria-roledescription="axis" aria-label="X-axis titled 'year' for a time scale with values from Wednesday, 01 January 1800, 12:00:00 AM to Monday, 01 January 2018, 12:00:00 AM"><g transform="translate(0.5,300.5)"><path class="background" aria-hidden="true" d="M0,0h0v0h0Z" pointer-events="none"/><g><g class="mark-rule role-axis-tick" pointer-events="none"><line transform="translate(0,0)" x2="0" y2="5" stroke="#888" stroke-width="1" opacity="1"/><line transform="translate(28,0)" x2="0" y2="5" stroke="#888" stroke-width="1" opacity="1"/><line transform="translate(55,0)" x2="0" y2="5" stroke="#888" stroke-width="1" opacity="1"/><line transform="translate(83,0)" x2="0" y2="5" stroke="#888" stroke-width="1" opacity="1"/><line transform="translate(110,0)" x2="0" y2="5" stroke="#888" stroke-width="1" opacity="1"/><line transform="translate(138,0)" x2="0" y2="5" stroke="#888" stroke-width="1" opacity="1"/><line transform="translate(165,0)" x2="0" y2="5" stroke="#888" stroke-width="1" opacity="1"/><line transform="translate(193,0)" x2="0" y2="5" stroke="#888" stroke-width="1" opacity="1"/><line transform="translate(220,0)" x2="0" y2="5" stroke="#888" stroke-width="1" opacity="1"/><line transform="translate(248,0)" x2="0" y2="5" stroke="#888" stroke-width="1" opacity="1"/><line transform="translate(275,0)" x2="0" y2="5" stroke="#888" stroke-width="1" opacity="1"/></g><g class="mark-text role-axis-label" pointer-events="none"><text text-anchor="start" transform="translate(0,15)" font-family="sans-serif" font-size="10px" fill="#000" opacity="1">1800</text><text text-anchor="middle" transform="translate(27.519689514953768,15)" font-family="sans-serif" font-size="10px" fill="#000" opacity="0">1820</text><text text-anchor="middle" transform="translate(55.043146785865225,15)" font-family="sans-serif" font-size="10px" fill="#000" opacity="1">1840</text><text text-anchor="middle" transform="translate(82.56660405677668,15)" font-family="sans-serif" font-size="10px" fill="#000" opacity="0">1860</text><text text-anchor="middle" transform="translate(110.09006132768815,15)" font-family="sans-serif" font-size="10px" fill="#000" opacity="1">1880</text><text text-anchor="middle" transform="translate(137.61348597960125,15)" font-family="sans-serif" font-size="10px" fill="#000" opacity="0">1900</text><text text-anchor="middle" transform="translate(165.13317549455502,15)" font-family="sans-serif" font-size="10px" fill="#000" opacity="1">1920</text><text text-anchor="middle" transform="translate(192.65663276546647,15)" font-family="sans-serif" font-size="10px" fill="#000" opacity="0">1940</text><text text-anchor="middle" transform="translate(220.18009003637792,15)" font-family="sans-serif" font-size="10px" fill="#000" opacity="1">1960</text><text text-anchor="middle" transform="translate(247.70354730728937,15)" font-family="sans-serif" font-size="10px" fill="#000" opacity="0">1980</text><text text-anchor="middle" transform="translate(275.2270045782009,15)" font-family="sans-serif" font-size="10px" fill="#000" opacity="1">2000</text></g><g class="mark-rule role-axis-domain" pointer-events="none"><line transform="translate(0,0)" x2="300" y2="0" stroke="#888" stroke-width="1" opacity="1"/></g><g class="mark-text role-axis-title" pointer-events="none"><text text-anchor="middle" transform="translate(150,30)" font-family="sans-serif" font-size="11px" font-weight="bold" fill="#000" opacity="1">year</text></g></g><path class="foreground" aria-hidden="true" d="" pointer-events="none" display="none"/></g></g><g class="mark-group role-axis" role="graphics-symbol" aria-roledescription="axis" aria-label="Y-axis titled 'Sum of population' for a linear scale with values from 0 to 5,000,000,000"><g transform="translate(0.5,0.5)"><path class="background" aria-hidden="true" d="M0,0h0v0h0Z" pointer-events="none"/><g><g class="mark-rule role-axis-tick" pointer-events="none"><line transform="translate(0,300)" x2="-5" y2="0" stroke="#888" stroke-width="1" opacity="1"/><line transform="translate(0,270)" x2="-5" y2="0" stroke="#888" stroke-width="1" opacity="1"/><line transform="translate(0,240)" x2="-5" y2="0" stroke="#888" stroke-width="1" opacity="1"/><line transform="translate(0,210)" x2="-5" y2="0" stroke="#888" stroke-width="1" opacity="1"/><line transform="translate(0,180)" x2="-5" y2="0" stroke="#888" stroke-width="1" opacity="1"/><line transform="translate(0,150)" x2="-5" y2="0" stroke="#888" stroke-width="1" opacity="1"/><line transform="translate(0,120)" x2="-5" y2="0" stroke="#888" stroke-width="1" opacity="1"/><line transform="translate(0,90)" x2="-5" y2="0" stroke="#888" stroke-width="1" opacity="1"/><line transform="translate(0,60)" x2="-5" y2="0" stroke="#888" stroke-width="1" opacity="1"/><line transform="translate(0,30)" x2="-5" y2="0" stroke="#888" stroke-width="1" opacity="1"/><line transform="translate(0,0)" x2="-5" y2="0" stroke="#888" stroke-width="1" opacity="1"/></g><g class="mark-text role-axis-label" pointer-events="none"><text text-anchor="end" transform="translate(-7,303)" font-family="sans-serif" font-size="10px" fill="#000" opacity="1">0</text><text text-anchor="end" transform="translate(-7,273)" font-family="sans-serif" font-size="10px" fill="#000" opacity="1">500,000,000</text><text text-anchor="end" transform="translate(-7,243)" font-family="sans-serif" font-size="10px" fill="#000" opacity="1">1,000,000,000</text><text text-anchor="end" transform="translate(-7,213)" font-family="sans-serif" font-size="10px" fill="#000" opacity="1">1,500,000,000</text><text text-anchor="end" transform="translate(-7,183)" font-family="sans-serif" font-size="10px" fill="#000" opacity="1">2,000,000,000</text><text text-anchor="end" transform="translate(-7,153)" font-family="sans-serif" font-size="10px" fill="#000" opacity="1">2,500,000,000</text><text text-anchor="end" transform="translate(-7,123)" font-family="sans-serif" font-size="10px" fill="#000" opacity="1">3,000,000,000</text><text text-anchor="end" transform="translate(-7,93.00000000000001)" font-family="sans-serif" font-size="10px" fill="#000" opacity="1">3,500,000,000</text><text text-anchor="end" transform="translate(-7,62.999999999999986)" font-family="sans-serif" font-size="10px" fill="#000" opacity="1">4,000,000,000</text><text text-anchor="end" transform="translate(-7,32.99999999999999)" font-family="sans-serif" font-size="10px" fill="#000" opacity="1">4,500,000,000</text><text text-anchor="end" transform="translate(-7,3)" font-family="sans-serif" font-size="10px" fill="#000" opacity="1">5,000,000,000</text></g><g class="mark-rule role-axis-domain" pointer-events="none"><line transform="translate(0,300)" x2="0" y2="-300" stroke="#888" stroke-width="1" opacity="1"/></g><g class="mark-text role-axis-title" pointer-events="none"><text text-anchor="middle" transform="translate(-74.9501953125,150) rotate(-90) translate(0,-2)" font-family="sans-serif" font-size="11px" font-weight="bold" fill="#000" opacity="1">Sum of population</text></g></g><path class="foreground" aria-hidden="true" d="" pointer-events="none" display="none"/></g></g><g class="mark-group role-scope pathgroup" role="graphics-object" aria-roledescription="group mark container"><g transform="translate(0,0)"><path class="background" aria-hidden="true" d="M0,0h300v300h-300Z"/><g><g class="mark-line role-mark marks" role="graphics-symbol" aria-roledescription="line mark container"><path d="M0,261.32L1.375,261.187L2.75,260.993L4.126,260.751L5.501,260.557L6.88,260.363L8.255,260.17L9.63,259.988L11.006,259.801L12.385,259.54L13.76,259.299L15.135,259.157L16.51,258.913L17.889,258.711L19.265,258.514L20.64,258.267L22.015,258.056L23.394,257.797L24.769,257.597L26.144,257.329L27.52,257.133L28.899,256.869L30.274,256.647L31.649,256.446L33.024,256.228L34.403,256.015L35.779,255.805L37.154,255.65L38.529,255.427L39.908,255.202L41.283,255.104L42.659,254.877L44.034,254.711L45.413,254.622L46.788,254.449L48.163,254.288L49.538,254.179L50.917,254.013L52.293,253.845L53.668,253.743L55.043,253.688L56.422,253.586L57.797,253.477L59.173,253.429L60.548,253.378L61.927,253.33L63.302,253.286L64.677,253.292L66.053,253.228L67.432,253.245L68.807,253.182L70.182,253.252L71.557,253.255L72.936,253.26L74.311,253.263L75.687,253.265L77.062,253.263L78.441,253.331L79.816,253.389L81.191,253.39L82.567,253.451L83.946,253.449L85.321,253.495L86.696,253.489L88.071,253.547L89.45,253.467L90.826,253.462L92.201,253.387L93.576,253.302L94.955,253.237L96.33,253.085L97.705,252.999L99.081,252.865L100.46,252.841L101.835,252.692L103.21,252.482L104.585,252.345L105.964,252.118L107.34,251.964L108.715,251.684L110.09,251.457L111.469,251.239L112.844,251.008L114.22,250.787L116.974,250.325L118.349,250.025L119.724,249.797L121.099,249.556L122.478,249.257L123.854,249.015L125.229,248.714L126.604,248.406L127.983,248.096L129.358,247.838L130.734,247.539L132.109,247.218L133.488,246.899L134.863,246.511L136.238,246.18L137.613,245.86L138.989,245.529L140.364,245.195L141.739,244.869L143.114,244.479L144.493,244.152L145.869,243.819L147.244,243.438L148.619,243.033L149.998,242.639L151.373,242.231L152.749,241.83L154.124,241.297L155.503,240.762L156.878,240.169L158.253,239.689L159.628,239.1L161.007,238.574L162.383,237.988L163.758,237.403L165.133,236.843L166.512,236.469L167.887,236.019L169.263,235.629L170.638,235.226L172.017,234.749L173.392,234.334L174.767,233.856L176.143,233.475L177.522,232.92L178.897,232.396L180.272,231.677L181.647,230.895L183.026,230.169L184.401,229.501L185.777,228.764L187.152,228.019L188.531,227.361L189.906,226.621L191.281,225.908L192.657,225.186L194.036,224.509L195.411,223.772L196.786,223.039L198.161,222.373L199.54,221.715L200.916,220.923L202.291,220.071L203.666,219.156L205.045,217.906L206.42,216.401L207.795,214.525L209.171,212.826L210.55,211.187L211.925,209.581L213.3,207.949L214.675,206.198L216.054,204.495L217.43,202.69L218.805,200.74L220.18,198.818L221.559,196.828L222.934,194.624L224.31,192.41L225.685,190.108L227.064,187.498L228.439,184.797L229.814,181.91L231.189,178.967L232.568,175.889L233.944,172.818L235.319,169.858L236.694,166.736L238.073,163.636L239.448,160.608L240.824,157.615L242.199,154.603L243.578,151.743L244.953,148.755L246.328,145.835L247.704,142.823L249.083,139.623L250.458,136.672L251.833,133.196L253.208,130.187L254.587,126.58L255.962,122.979L257.338,119.331L258.713,115.748L260.092,112.068L261.467,108.485L262.842,104.802L264.218,101.869L265.597,98.211L266.972,95.31L268.347,92.348L269.722,89.329L271.101,86.378L272.477,83.215L273.852,80.766L275.227,78.194L276.606,75.205L277.981,72.147L279.356,69.141L280.732,66.737L282.111,64.326L283.486,61.304L284.861,58.221L286.236,55.742L287.615,53.337L288.991,50.167L290.366,47.107L291.741,44.603L293.12,42.074L294.495,39.6L295.871,36.502L297.246,34.62L298.625,31.584L300,29.147" stroke="#e45756" stroke-width="2"/></g></g><path class="foreground" aria-hidden="true" d="" display="none"/></g><g transform="translate(0,0)"><path class="background" aria-hidden="true" d="M0,0h300v300h-300Z"/><g><g class="mark-line role-mark marks" role="graphics-symbol" aria-roledescription="line mark container"><path d="M0,287.941L1.375,287.896L2.75,287.857L4.126,287.817L5.501,287.765L6.88,287.726L8.255,287.685L9.63,287.634L11.006,287.593L12.385,287.555L13.76,287.496L15.135,287.449L16.51,287.404L17.889,287.343L19.265,287.283L20.64,287.21L22.015,287.149L23.394,287.072L24.769,287.005L26.144,286.936L27.52,286.855L28.899,286.761L30.274,286.673L31.649,286.584L33.024,286.488L34.403,286.405L35.779,286.308L37.154,286.198L38.529,286.088L39.908,285.985L41.283,285.878L42.659,285.76L44.034,285.641L45.413,285.529L46.788,285.399L48.163,285.285L49.538,285.175L50.917,285.062L52.293,284.94L53.668,284.837L55.043,284.729L56.422,284.619L57.797,284.502L59.173,284.393L60.548,284.285L61.927,284.178L63.302,284.065L64.677,283.963L66.053,283.837L67.432,283.736L68.807,283.629L70.182,283.515L71.557,283.401L72.936,283.282L74.311,283.166L75.687,283.048L77.062,282.933L78.441,282.819L79.816,282.7L81.191,282.571L82.567,282.45L83.946,282.332L85.321,282.202L86.696,282.083L88.071,281.938L89.45,281.805L90.826,281.673L92.201,281.544L93.576,281.398L94.955,281.252L96.33,281.11L97.705,280.957L99.081,280.802L100.46,280.669L101.835,280.527L103.21,280.367L104.585,280.222L105.964,280.067L107.34,279.91L108.715,279.752L110.09,279.594L111.469,279.411L112.844,279.241L114.22,279.068L116.974,278.741L118.349,278.567L119.724,278.394L121.099,278.226L122.478,278.038L123.854,277.874L125.229,277.685L126.604,277.512L127.983,277.334L129.358,277.136L130.734,276.949L132.109,276.767L133.488,276.568L134.863,276.366L136.238,276.152L137.613,275.949L138.989,275.728L140.364,275.525L141.739,275.31L143.114,275.095L144.493,274.873L145.869,274.651L147.244,274.435L148.619,274.212L149.998,273.977L151.373,273.767L152.749,273.534L154.124,273.33L155.503,273.144L156.878,272.986L158.253,272.894L159.628,272.834L161.007,272.83L162.383,272.922L163.758,272.964L165.133,272.926L166.512,272.717L167.887,272.465L169.263,272.213L170.638,271.963L172.017,271.718L173.392,271.486L174.767,271.264L176.143,271.036L177.522,270.8L178.897,270.573L180.272,270.346L181.647,270.11L183.026,269.904L184.401,269.676L185.777,269.451L187.152,269.235L188.531,269.012L189.906,268.767L191.281,268.573L192.657,268.464L194.036,268.363L195.411,268.315L196.786,268.239L198.161,268.221L199.54,268.212L200.916,268.133L202.291,267.92L203.666,267.601L205.045,267.301L206.42,267.042L207.795,266.769L209.171,266.413L210.55,266.064L211.925,265.709L213.3,265.415L214.675,265.052L216.054,264.69L217.43,264.348L218.805,264.033L220.18,263.658L221.559,263.325L222.934,262.918L224.31,262.578L225.685,262.248L227.064,261.921L228.439,261.63L229.814,261.339L231.189,261.062L232.568,260.855L233.944,260.589L235.319,260.318L236.694,260.053L238.073,259.846L239.448,259.585L240.824,259.344L242.199,259.124L243.578,258.964L244.953,258.75L246.328,258.554L247.704,258.376L249.083,258.192L250.458,258.031L251.833,257.855L253.208,257.697L254.587,257.534L255.962,257.359L257.338,257.185L258.713,257.028L260.092,256.855L261.467,256.695L262.842,256.607L264.218,256.518L265.597,256.448L266.972,256.387L268.347,256.357L269.722,256.335L271.101,256.338L272.477,256.398L273.852,256.386L275.227,256.418L276.606,256.382L277.981,256.371L279.356,256.306L280.732,256.274L282.111,256.187L283.486,256.17L284.861,256.066L286.236,255.968L287.615,255.88L288.991,255.82L290.366,255.763L291.741,255.712L293.12,255.629L294.495,255.598L295.871,255.571L297.246,255.546L298.625,255.502L300,255.473" stroke="#72b7b2" stroke-width="2"/></g></g><path class="foreground" aria-hidden="true" d="" display="none"/></g><g transform="translate(0,0)"><path class="background" aria-hidden="true" d="M0,0h300v300h-300Z"/><g><g class="mark-line role-mark marks" role="graphics-symbol" aria-roledescription="line mark container"><path d="M0,295.609L1.375,295.606L2.75,295.604L4.126,295.6L5.501,295.598L6.88,295.595L8.255,295.592L9.63,295.59L11.006,295.587L12.385,295.585L13.76,295.582L15.135,295.579L16.51,295.574L17.889,295.569L19.265,295.563L20.64,295.555L22.015,295.539L23.394,295.531L24.769,295.519L26.144,295.51L27.52,295.496L28.899,295.477L30.274,295.462L31.649,295.447L33.024,295.423L34.403,295.406L35.779,295.386L37.154,295.362L38.529,295.341L39.908,295.311L41.283,295.288L42.659,295.256L44.034,295.232L45.413,295.203L46.788,295.172L48.163,295.145L49.538,295.114L50.917,295.09L52.293,295.057L53.668,295.031L55.043,295L56.422,294.972L57.797,294.939L59.173,294.904L60.548,294.878L61.927,294.844L63.302,294.816L64.677,294.781L66.053,294.754L67.432,294.717L68.807,294.682L70.182,294.655L71.557,294.622L72.936,294.59L74.311,294.555L75.687,294.518L77.062,294.488L78.441,294.454L79.816,294.421L81.191,294.384L82.567,294.348L83.946,294.317L85.321,294.278L86.696,294.239L88.071,294.208L89.45,294.168L90.826,294.129L92.201,294.094L93.576,294.052L94.955,294.018L96.33,293.974L97.705,293.934L99.081,293.897L100.46,293.858L101.835,293.813L103.21,293.773L104.585,293.729L105.964,293.684L107.34,293.644L108.715,293.597L110.09,293.548L111.469,293.502L112.844,293.46L114.22,293.411L116.974,293.318L118.349,293.269L119.724,293.219L121.099,293.172L122.478,293.121L123.854,293.069L125.229,293.018L126.604,292.97L127.983,292.918L129.358,292.864L130.734,292.814L132.109,292.761L133.488,292.703L134.863,292.649L136.238,292.598L137.613,292.54L138.989,292.484L140.364,292.43L141.739,292.37L143.114,292.31L144.493,292.251L145.869,292.19L147.244,292.131L148.619,292.072L149.998,292.004L151.373,291.939L152.749,291.875L154.124,291.817L155.503,291.743L156.878,291.668L158.253,291.593L159.628,291.523L161.007,291.44L162.383,291.361L163.758,291.277L165.133,291.191L166.512,291.114L167.887,291.018L169.263,290.927L170.638,290.832L172.017,290.729L173.392,290.634L174.767,290.52L176.143,290.41L177.522,290.296L178.897,290.186L180.272,290.064L181.647,289.921L183.026,289.768L184.401,289.608L185.777,289.439L187.152,289.267L188.531,289.098L189.906,288.913L191.281,288.736L192.657,288.54L194.036,288.352L195.411,288.147L196.786,287.949L198.161,287.737L199.54,287.52L200.916,287.298L202.291,287.062L203.666,286.825L205.045,286.579L206.42,286.312L207.795,286.034L209.171,285.751L210.55,285.448L211.925,285.124L213.3,284.799L214.675,284.449L216.054,284.091L217.43,283.72L218.805,283.324L220.18,282.931L221.559,282.517L222.934,282.089L224.31,281.633L225.685,281.172L227.064,280.704L228.439,280.207L229.814,279.693L231.189,279.176L232.568,278.624L233.944,278.067L235.319,277.49L236.694,276.896L238.073,276.291L239.448,275.648L240.824,274.986L242.199,274.302L243.578,273.589L244.953,272.826L246.328,272.052L247.704,271.263L249.083,270.459L250.458,269.592L251.833,268.73L253.208,267.824L254.587,266.909L255.962,265.964L257.338,265.012L258.713,264.016L260.092,263.023L261.467,262.007L262.842,260.986L264.218,259.94L265.597,258.865L266.972,257.83L268.347,256.709L269.722,255.607L271.101,254.48L272.477,253.401L273.852,252.253L275.227,251.07L276.606,249.869L277.981,248.583L279.356,247.33L280.732,246.022L282.111,244.647L283.486,243.207L284.861,241.817L286.236,240.31L287.615,238.78L288.991,237.13L290.366,235.515L291.741,233.841L293.12,232.064L294.495,230.342L295.871,228.485L297.246,226.662L298.625,224.761L300,222.817" stroke="#4c78a8" stroke-width="2"/></g></g><path class="foreground" aria-hidden="true" d="" display="none"/></g><g transform="translate(0,0)"><path class="background" aria-hidden="true" d="M0,0h300v300h-300Z"/><g><g class="mark-line role-mark marks" role="graphics-symbol" aria-roledescription="line mark container"><path d="M0,298.389L1.375,298.376L2.75,298.362L4.126,298.349L5.501,298.335L6.88,298.321L8.255,298.307L9.63,298.293L11.006,298.278L12.385,298.264L13.76,298.244L15.135,298.229L16.51,298.211L17.889,298.193L19.265,298.172L20.64,298.152L22.015,298.13L23.394,298.107L24.769,298.083L26.144,298.058L27.52,298.028L28.899,298.003L30.274,297.972L31.649,297.939L33.024,297.907L34.403,297.873L35.779,297.837L37.154,297.803L38.529,297.761L39.908,297.723L41.283,297.679L42.659,297.633L44.034,297.59L45.413,297.543L46.788,297.497L48.163,297.449L49.538,297.397L50.917,297.342L52.293,297.295L53.668,297.241L55.043,297.185L56.422,297.124L57.797,297.068L59.173,297.007L60.548,296.946L61.927,296.883L63.302,296.819L64.677,296.751L66.053,296.687L67.432,296.617L68.807,296.549L70.182,296.471L71.557,296.4L72.936,296.321L74.311,296.251L75.687,296.173L77.062,296.097L78.441,296.019L79.816,295.941L81.191,295.863L82.567,295.781L83.946,295.702L85.321,295.617L86.696,295.538L88.071,295.451L89.45,295.364L90.826,295.277L92.201,295.19L93.576,295.101L94.955,295.006L96.33,294.915L97.705,294.82L99.081,294.721L100.46,294.631L101.835,294.53L103.21,294.422L104.585,294.321L105.964,294.226L107.34,294.105L108.715,293.996L110.09,293.875L111.469,293.767L112.844,293.651L114.22,293.517L116.974,293.279L118.349,293.145L119.724,293.021L121.099,292.888L122.478,292.759L123.854,292.617L125.229,292.488L126.604,292.345L127.983,292.203L129.358,292.061L130.734,291.929L132.109,291.779L133.488,291.626L134.863,291.47L136.238,291.313L137.613,291.148L138.989,290.989L140.364,290.83L141.739,290.651L143.114,290.471L144.493,290.289L145.869,290.105L147.244,289.922L148.619,289.718L149.998,289.522L151.373,289.333L152.749,289.136L154.124,288.949L155.503,288.747L156.878,288.556L158.253,288.352L159.628,288.213L161.007,288.008L162.383,287.866L163.758,287.714L165.133,287.557L166.512,287.34L167.887,287.108L169.263,286.872L170.638,286.625L172.017,286.446L173.392,286.199L174.767,285.951L176.143,285.76L177.522,285.507L178.897,285.319L180.272,285.124L181.647,284.934L183.026,284.752L184.401,284.613L185.777,284.423L187.152,284.231L188.531,284.037L189.906,283.841L191.281,283.627L192.657,283.409L194.036,283.116L195.411,282.873L196.786,282.569L198.161,282.256L199.54,281.979L200.916,281.639L202.291,281.296L203.666,280.884L205.045,280.325L206.42,279.691L207.795,279.276L209.171,278.842L210.55,278.36L211.925,277.849L213.3,277.341L214.675,276.82L216.054,276.297L217.43,275.752L218.805,275.21L220.18,274.65L221.559,274.074L222.934,273.561L224.31,272.979L225.685,272.431L227.064,271.848L228.439,271.304L229.814,270.756L231.189,270.191L232.568,269.641L233.944,269.069L235.319,268.562L236.694,267.982L238.073,267.372L239.448,266.814L240.824,266.183L242.199,265.637L243.578,265.018L244.953,264.403L246.328,263.781L247.704,263.158L249.083,262.536L250.458,261.916L251.833,261.279L253.208,260.587L254.587,259.957L255.962,259.374L257.338,258.738L258.713,258.036L260.092,257.384L261.467,256.734L262.842,256.076L264.218,255.422L265.597,254.763L266.972,254.059L268.347,253.424L269.722,252.717L271.101,252.03L272.477,251.337L273.852,250.675L275.227,250.02L276.606,249.377L277.981,248.791L279.356,248.205L280.732,247.559L282.111,247.033L283.486,246.388L284.861,245.73L286.236,245.15L287.615,244.499L288.991,243.914L290.366,243.314L291.741,242.726L293.12,242.142L294.495,241.622L295.871,241.039L297.246,240.457L298.625,239.987L300,239.359" stroke="#f58518" stroke-width="2"/></g></g><path class="foreground" aria-hidden="true" d="" display="none"/></g><g transform="translate(0,0)"><path class="background" aria-hidden="true" d="M0,0h300v300h-300Z"/><g><g class="mark-line role-mark marks" role="graphics-symbol" aria-roledescription="line mark container"><path d="M0,299.91L1.375,299.91L2.75,299.91L4.126,299.91L5.501,299.91L6.88,299.91L8.255,299.91L9.63,299.91L11.006,299.91L12.385,299.91L13.76,299.91L15.135,299.91L16.51,299.91L17.889,299.91L19.265,299.91L20.64,299.91L22.015,299.91L23.394,299.91L24.769,299.91L26.144,299.91L27.52,299.91L28.899,299.909L30.274,299.909L31.649,299.909L33.024,299.909L34.403,299.909L35.779,299.908L37.154,299.908L38.529,299.908L39.908,299.907L41.283,299.907L42.659,299.906L44.034,299.905L45.413,299.905L46.788,299.904L48.163,299.903L49.538,299.903L50.917,299.902L52.293,299.901L53.668,299.9L55.043,299.899L56.422,299.897L57.797,299.896L59.173,299.894L60.548,299.892L61.927,299.89L63.302,299.888L64.677,299.885L66.053,299.882L67.432,299.879L68.807,299.876L70.182,299.873L71.557,299.87L72.936,299.866L74.311,299.863L75.687,299.859L77.062,299.855L78.441,299.851L79.816,299.847L81.191,299.842L82.567,299.838L83.946,299.834L85.321,299.83L86.696,299.826L88.071,299.822L89.45,299.818L90.826,299.814L92.201,299.81L93.576,299.806L94.955,299.802L96.33,299.798L97.705,299.794L99.081,299.789L100.46,299.785L101.835,299.781L103.21,299.776L104.585,299.771L105.964,299.767L107.34,299.761L108.715,299.757L110.09,299.751L111.469,299.744L112.844,299.738L114.22,299.732L116.974,299.719L118.349,299.712L119.724,299.705L121.099,299.699L122.478,299.692L123.854,299.686L125.229,299.681L126.604,299.675L127.983,299.669L129.358,299.664L130.734,299.659L132.109,299.653L133.488,299.648L134.863,299.644L136.238,299.639L137.613,299.634L138.989,299.629L140.364,299.624L141.739,299.619L143.114,299.614L144.493,299.608L145.869,299.602L147.244,299.597L148.619,299.59L149.998,299.583L151.373,299.575L152.749,299.565L154.124,299.554L155.503,299.544L156.878,299.536L158.253,299.532L159.628,299.531L161.007,299.529L162.383,299.522L163.758,299.512L165.133,299.5L166.512,299.49L167.887,299.48L169.263,299.471L170.638,299.461L172.017,299.451L173.392,299.442L174.767,299.432L176.143,299.423L177.522,299.416L178.897,299.41L180.272,299.404L181.647,299.398L183.026,299.394L184.401,299.389L185.777,299.385L187.152,299.379L188.531,299.374L189.906,299.368L191.281,299.362L192.657,299.356L194.036,299.351L195.411,299.346L196.786,299.34L198.161,299.334L199.54,299.325L200.916,299.315L202.291,299.305L203.666,299.292L205.045,299.277L206.42,299.259L207.795,299.24L209.171,299.222L210.55,299.204L211.925,299.187L213.3,299.169L214.675,299.151L216.054,299.131L217.43,299.111L218.805,299.091L220.18,299.072L221.559,299.053L222.934,299.033L224.31,299.014L225.685,298.994L227.064,298.968L228.439,298.949L229.814,298.925L231.189,298.894L232.568,298.869L233.944,298.848L235.319,298.822L236.694,298.801L238.073,298.78L239.448,298.759L240.824,298.745L242.199,298.724L243.578,298.706L244.953,298.692L246.328,298.673L247.704,298.66L249.083,298.639L250.458,298.618L251.833,298.591L253.208,298.57L254.587,298.549L255.962,298.522L257.338,298.495L258.713,298.475L260.092,298.448L261.467,298.426L262.842,298.397L264.218,298.374L265.597,298.35L266.972,298.325L268.347,298.302L269.722,298.277L271.101,298.254L272.477,298.231L273.852,298.206L275.227,298.182L276.606,298.157L277.981,298.132L279.356,298.106L280.732,298.081L282.111,298.049L283.486,298.01L284.861,297.979L286.236,297.94L287.615,297.902L288.991,297.864L290.366,297.826L291.741,297.794L293.12,297.755L294.495,297.722L295.871,297.691L297.246,297.659L298.625,297.62L300,297.587" stroke="#54a24b" stroke-width="2"/></g></g><path class="foreground" aria-hidden="true" d="" display="none"/></g></g><g class="mark-group role-legend" role="graphics-symbol" aria-roledescription="legend" aria-label="Symbol legend titled 'region' for stroke color with 5 values: Africa, Americas, Asia, Europe, Oceania"><g transform="translate(320,0)"><path class="background" aria-hidden="true" d="M0,0h58v79h-58Z" pointer-events="none"/><g><g class="mark-group role-legend-entry"><g transform="translate(0,16)"><path class="background" aria-hidden="true" d="M0,0h0v0h0Z" pointer-events="none"/><g><g class="mark-group role-scope" role="graphics-object" aria-roledescription="group mark container"><g transform="translate(0,0)"><path class="background" aria-hidden="true" d="M0,0h57.6748046875v11h-57.6748046875Z" pointer-events="none" opacity="1"/><g><g class="mark-symbol role-legend-symbol" pointer-events="none"><path transform="translate(6,6)" d="M-5,0L5,0" stroke="#4c78a8" stroke-width="1.5" opacity="1"/></g><g class="mark-text role-legend-label" pointer-events="none"><text text-anchor="start" transform="translate(16,9)" font-family="sans-serif" font-size="10px" fill="#000" opacity="1">Africa</text></g></g><path class="foreground" aria-hidden="true" d="" pointer-events="none" display="none"/></g><g transform="translate(0,13)"><path class="background" aria-hidden="true" d="M0,0h57.6748046875v11h-57.6748046875Z" pointer-events="none" opacity="1"/><g><g class="mark-symbol role-legend-symbol" pointer-events="none"><path transform="translate(6,6)" d="M-5,0L5,0" stroke="#f58518" stroke-width="1.5" opacity="1"/></g><g class="mark-text role-legend-label" pointer-events="none"><text text-anchor="start" transform="translate(16,9)" font-family="sans-serif" font-size="10px" fill="#000" opacity="1">Americas</text></g></g><path class="foreground" aria-hidden="true" d="" pointer-events="none" display="none"/></g><g transform="translate(0,26)"><path class="background" aria-hidden="true" d="M0,0h57.6748046875v11h-57.6748046875Z" pointer-events="none" opacity="1"/><g><g class="mark-symbol role-legend-symbol" pointer-events="none"><path transform="translate(6,6)" d="M-5,0L5,0" stroke="#e45756" stroke-width="1.5" opacity="1"/></g><g class="mark-text role-legend-label" pointer-events="none"><text text-anchor="start" transform="translate(16,9)" font-family="sans-serif" font-size="10px" fill="#000" opacity="1">Asia</text></g></g><path class="foreground" aria-hidden="true" d="" pointer-events="none" display="none"/></g><g transform="translate(0,39)"><path class="background" aria-hidden="true" d="M0,0h57.6748046875v11h-57.6748046875Z" pointer-events="none" opacity="1"/><g><g class="mark-symbol role-legend-symbol" pointer-events="none"><path transform="translate(6,6)" d="M-5,0L5,0" stroke="#72b7b2" stroke-width="1.5" opacity="1"/></g><g class="mark-text role-legend-label" pointer-events="none"><text text-anchor="start" transform="translate(16,9)" font-family="sans-serif" font-size="10px" fill="#000" opacity="1">Europe</text></g></g><path class="foreground" aria-hidden="true" d="" pointer-events="none" display="none"/></g><g transform="translate(0,52)"><path class="background" aria-hidden="true" d="M0,0h57.6748046875v11h-57.6748046875Z" pointer-events="none" opacity="1"/><g><g class="mark-symbol role-legend-symbol" pointer-events="none"><path transform="translate(6,6)" d="M-5,0L5,0" stroke="#54a24b" stroke-width="1.5" opacity="1"/></g><g class="mark-text role-legend-label" pointer-events="none"><text text-anchor="start" transform="translate(16,9)" font-family="sans-serif" font-size="10px" fill="#000" opacity="1">Oceania</text></g></g><path class="foreground" aria-hidden="true" d="" pointer-events="none" display="none"/></g></g></g><path class="foreground" aria-hidden="true" d="" pointer-events="none" display="none"/></g></g><g class="mark-text role-legend-title" pointer-events="none"><text text-anchor="start" transform="translate(0,9)" font-family="sans-serif" font-size="11px" font-weight="bold" fill="#000" opacity="1">region</text></g></g><path class="foreground" aria-hidden="true" d="" pointer-events="none" display="none"/></g></g></g><path class="foreground" aria-hidden="true" d="" display="none"/></g></g></g></svg>