<?xml version="1.0" encoding="utf-8" standalone="no"?>
<!DOCTYPE svg PUBLIC "-//W3C//DTD SVG 1.1//EN"
  "http://www.w3.org/Graphics/SVG/1.1/DTD/svg11.dtd">
<svg xmlns:xlink="http://www.w3.org/1999/xlink" width="302.4pt" height="230.4pt" viewBox="0 0 302.4 230.4" xmlns="http://www.w3.org/2000/svg" version="1.1">
 <metadata>
  <rdf:RDF xmlns:dc="http://purl.org/dc/elements/1.1/" xmlns:cc="http://creativecommons.org/ns#" xmlns:rdf="http://www.w3.org/1999/02/22-rdf-syntax-ns#">
   <cc:Work>
    <dc:type rdf:resource="http://purl.org/dc/dcmitype/StillImage"/>
    <dc:date>2025-10-12T15:39:26.510722</dc:date>
    <dc:format>image/svg+xml</dc:format>
    <dc:creator>
     <cc:Agent>
      <dc:title>Matplotlib v3.10.5, https://matplotlib.org/</dc:title>
     </cc:Agent>
    </dc:creator>
   </cc:Work>
  </rdf:RDF>
 </metadata>
 <defs>
  <style type="text/css">*{stroke-linejoin: round; stroke-linecap: butt}</style>
 </defs>
 <g id="figure_1">
  <g id="patch_1">
   <path d="M 0 230.4 
L 302.4 230.4 
L 302.4 0 
L 0 0 
z
" style="fill: #ffffff"/>
  </g>
  <g id="axes_1">
   <g id="LineCollection_1">
    <path d="M 154.531593 112.9141 
L 207.299912 108.327059 
" clip-path="url(#p00b0dee431)" style="fill: none; stroke: #000000"/>
    <path d="M 154.531593 112.9141 
L 101.824153 119.414258 
" clip-path="url(#p00b0dee431)" style="fill: none; stroke: #000000"/>
    <path d="M 207.299912 108.327059 
L 237.287039 64.699964 
" clip-path="url(#p00b0dee431)" style="fill: none; stroke: #000000"/>
    <path d="M 207.299912 108.327059 
L 238.69133 148.300552 
" clip-path="url(#p00b0dee431)" style="fill: none; stroke: #000000"/>
    <path d="M 101.824153 119.414258 
L 79.127908 166.586679 
" clip-path="url(#p00b0dee431)" style="fill: none; stroke: #000000"/>
    <path d="M 101.824153 119.414258 
L 64.687054 84.196776 
" clip-path="url(#p00b0dee431)" style="fill: none; stroke: #000000"/>
    <path d="M 237.287039 64.699964 
L 268.12952 50.006245 
" clip-path="url(#p00b0dee431)" style="fill: none; stroke: #000000"/>
    <path d="M 237.287039 64.699964 
L 243.96658 25.943802 
" clip-path="url(#p00b0dee431)" style="fill: none; stroke: #000000"/>
    <path d="M 238.69133 148.300552 
L 246.23836 186.240895 
" clip-path="url(#p00b0dee431)" style="fill: none; stroke: #000000"/>
    <path d="M 238.69133 148.300552 
L 270.208264 160.0197 
" clip-path="url(#p00b0dee431)" style="fill: none; stroke: #000000"/>
    <path d="M 79.127908 166.586679 
L 50.96376 188.165945 
" clip-path="url(#p00b0dee431)" style="fill: none; stroke: #000000"/>
    <path d="M 79.127908 166.586679 
L 82.945277 204.456198 
" clip-path="url(#p00b0dee431)" style="fill: none; stroke: #000000"/>
    <path d="M 64.687054 84.196776 
L 51.383789 47.980721 
" clip-path="url(#p00b0dee431)" style="fill: none; stroke: #000000"/>
    <path d="M 64.687054 84.196776 
L 32.191736 78.056053 
" clip-path="url(#p00b0dee431)" style="fill: none; stroke: #000000"/>
   </g>
   <g id="PathCollection_1">
    <defs>
     <path id="mf8970e181f" d="M 0 8.660254 
C 2.296726 8.660254 4.499694 7.747755 6.123724 6.123724 
C 7.747755 4.499694 8.660254 2.296726 8.660254 0 
C 8.660254 -2.296726 7.747755 -4.499694 6.123724 -6.123724 
C 4.499694 -7.747755 2.296726 -8.660254 0 -8.660254 
C -2.296726 -8.660254 -4.499694 -7.747755 -6.123724 -6.123724 
C -7.747755 -4.499694 -8.660254 -2.296726 -8.660254 0 
C -8.660254 2.296726 -7.747755 4.499694 -6.123724 6.123724 
C -4.499694 7.747755 -2.296726 8.660254 0 8.660254 
z
" style="stroke: #1f78b4"/>
    </defs>
    <g clip-path="url(#p00b0dee431)">
     <use xlink:href="#mf8970e181f" x="154.531593" y="112.9141" style="fill: #1f78b4; stroke: #1f78b4"/>
     <use xlink:href="#mf8970e181f" x="207.299912" y="108.327059" style="fill: #1f78b4; stroke: #1f78b4"/>
     <use xlink:href="#mf8970e181f" x="101.824153" y="119.414258" style="fill: #1f78b4; stroke: #1f78b4"/>
     <use xlink:href="#mf8970e181f" x="237.287039" y="64.699964" style="fill: #1f78b4; stroke: #1f78b4"/>
     <use xlink:href="#mf8970e181f" x="238.69133" y="148.300552" style="fill: #1f78b4; stroke: #1f78b4"/>
     <use xlink:href="#mf8970e181f" x="79.127908" y="166.586679" style="fill: #1f78b4; stroke: #1f78b4"/>
     <use xlink:href="#mf8970e181f" x="64.687054" y="84.196776" style="fill: #1f78b4; stroke: #1f78b4"/>
     <use xlink:href="#mf8970e181f" x="268.12952" y="50.006245" style="fill: #1f78b4; stroke: #1f78b4"/>
     <use xlink:href="#mf8970e181f" x="243.96658" y="25.943802" style="fill: #1f78b4; stroke: #1f78b4"/>
     <use xlink:href="#mf8970e181f" x="246.23836" y="186.240895" style="fill: #1f78b4; stroke: #1f78b4"/>
     <use xlink:href="#mf8970e181f" x="270.208264" y="160.0197" style="fill: #1f78b4; stroke: #1f78b4"/>
     <use xlink:href="#mf8970e181f" x="50.96376" y="188.165945" style="fill: #1f78b4; stroke: #1f78b4"/>
     <use xlink:href="#mf8970e181f" x="82.945277" y="204.456198" style="fill: #1f78b4; stroke: #1f78b4"/>
     <use xlink:href="#mf8970e181f" x="51.383789" y="47.980721" style="fill: #1f78b4; stroke: #1f78b4"/>
     <use xlink:href="#mf8970e181f" x="32.191736" y="78.056053" style="fill: #1f78b4; stroke: #1f78b4"/>
    </g>
   </g>
  </g>
 </g>
 <defs>
  <clipPath id="p00b0dee431">
   <rect x="7.2" y="7.2" width="288" height="216"/>
  </clipPath>
 </defs>
</svg>
