<svg xmlns="http://www.w3.org/2000/svg" xmlns:xlink="http://www.w3.org/1999/xlink" version="1.1" class="marks" width="359" height="347" viewBox="0 0 359 347"><rect width="359" height="347" fill="white"/><g fill="none" stroke-miterlimit="10" transform="translate(53,10)"><g class="mark-group role-frame root" role="graphics-object" aria-roledescription="group mark container"><g transform="translate(0,0)"><path class="background" aria-hidden="true" d="M0.5,0.5h300v300h-300Z" stroke="#ddd"/><g><g class="mark-group role-axis" aria-hidden="true"><g transform="translate(0.5,300.5)"><path class="background" aria-hidden="true" d="M0,0h0v0h0Z" pointer-events="none"/><g><g class="mark-rule role-axis-grid" pointer-events="none"><line transform="translate(0,-300)" x2="0" y2="300" stroke="#ddd" stroke-width="1" opacity="1"/><line transform="translate(25,-300)" x2="0" y2="300" stroke="#ddd" stroke-width="1" opacity="1"/><line transform="translate(50,-300)" x2="0" y2="300" stroke="#ddd" stroke-width="1" opacity="1"/><line transform="translate(75,-300)" x2="0" y2="300" stroke="#ddd" stroke-width="1" opacity="1"/><line transform="translate(100,-300)" x2="0" y2="300" stroke="#ddd" stroke-width="1" opacity="1"/><line transform="translate(125,-300)" x2="0" y2="300" stroke="#ddd" stroke-width="1" opacity="1"/><line transform="translate(150,-300)" x2="0" y2="300" stroke="#ddd" stroke-width="1" opacity="1"/><line transform="translate(175,-300)" x2="0" y2="300" stroke="#ddd" stroke-width="1" opacity="1"/><line transform="translate(200,-300)" x2="0" y2="300" stroke="#ddd" stroke-width="1" opacity="1"/><line transform="translate(225,-300)" x2="0" y2="300" stroke="#ddd" stroke-width="1" opacity="1"/><line transform="translate(250,-300)" x2="0" y2="300" stroke="#ddd" stroke-width="1" opacity="1"/><line transform="translate(275,-300)" x2="0" y2="300" stroke="#ddd" stroke-width="1" opacity="1"/><line transform="translate(300,-300)" x2="0" y2="300" stroke="#ddd" stroke-width="1" opacity="1"/></g></g><path class="foreground" aria-hidden="true" d="" pointer-events="none" display="none"/></g></g><g class="mark-group role-axis" aria-hidden="true"><g transform="translate(0.5,0.5)"><path class="background" aria-hidden="true" d="M0,0h0v0h0Z" pointer-events="none"/><g><g class="mark-rule role-axis-grid" pointer-events="none"><line transform="translate(0,300)" x2="300" y2="0" stroke="#ddd" stroke-width="1" opacity="1"/><line transform="translate(0,273)" x2="300" y2="0" stroke="#ddd" stroke-width="1" opacity="1"/><line transform="translate(0,245)" x2="300" y2="0" stroke="#ddd" stroke-width="1" opacity="1"/><line transform="translate(0,218)" x2="300" y2="0" stroke="#ddd" stroke-width="1" opacity="1"/><line transform="translate(0,191)" x2="300" y2="0" stroke="#ddd" stroke-width="1" opacity="1"/><line transform="translate(0,164)" x2="300" y2="0" stroke="#ddd" stroke-width="1" opacity="1"/><line transform="translate(0,136)" x2="300" y2="0" stroke="#ddd" stroke-width="1" opacity="1"/><line transform="translate(0,109)" x2="300" y2="0" stroke="#ddd" stroke-width="1" opacity="1"/><line transform="translate(0,82)" x2="300" y2="0" stroke="#ddd" stroke-width="1" opacity="1"/><line transform="translate(0,55)" x2="300" y2="0" stroke="#ddd" stroke-width="1" opacity="1"/><line transform="translate(0,27)" x2="300" y2="0" stroke="#ddd" stroke-width="1" opacity="1"/><line transform="translate(0,0)" x2="300" y2="0" stroke="#ddd" stroke-width="1" opacity="1"/></g></g><path class="foreground" aria-hidden="true" d="" pointer-events="none" display="none"/></g></g><g class="mark-group role-axis" role="graphics-symbol" aria-roledescription="axis" aria-label="X-axis titled 'runtime' for a linear scale with values from 20 to 260"><g transform="translate(0.5,300.5)"><path class="background" aria-hidden="true" d="M0,0h0v0h0Z" pointer-events="none"/><g><g class="mark-rule role-axis-tick" pointer-events="none"><line transform="translate(0,0)" x2="0" y2="5" stroke="#888" stroke-width="1" opacity="1"/><line transform="translate(25,0)" x2="0" y2="5" stroke="#888" stroke-width="1" opacity="1"/><line transform="translate(50,0)" x2="0" y2="5" stroke="#888" stroke-width="1" opacity="1"/><line transform="translate(75,0)" x2="0" y2="5" stroke="#888" stroke-width="1" opacity="1"/><line transform="translate(100,0)" x2="0" y2="5" stroke="#888" stroke-width="1" opacity="1"/><line transform="translate(125,0)" x2="0" y2="5" stroke="#888" stroke-width="1" opacity="1"/><line transform="translate(150,0)" x2="0" y2="5" stroke="#888" stroke-width="1" opacity="1"/><line transform="translate(175,0)" x2="0" y2="5" stroke="#888" stroke-width="1" opacity="1"/><line transform="translate(200,0)" x2="0" y2="5" stroke="#888" stroke-width="1" opacity="1"/><line transform="translate(225,0)" x2="0" y2="5" stroke="#888" stroke-width="1" opacity="1"/><line transform="translate(250,0)" x2="0" y2="5" stroke="#888" stroke-width="1" opacity="1"/><line transform="translate(275,0)" x2="0" y2="5" stroke="#888" stroke-width="1" opacity="1"/><line transform="translate(300,0)" x2="0" y2="5" stroke="#888" stroke-width="1" opacity="1"/></g><g class="mark-text role-axis-label" pointer-events="none"><text text-anchor="start" transform="translate(0,15)" font-family="sans-serif" font-size="10px" fill="#000" opacity="1">20</text><text text-anchor="middle" transform="translate(25,15)" font-family="sans-serif" font-size="10px" fill="#000" opacity="0">40</text><text text-anchor="middle" transform="translate(50,15)" font-family="sans-serif" font-size="10px" fill="#000" opacity="1">60</text><text text-anchor="middle" transform="translate(75,15)" font-family="sans-serif" font-size="10px" fill="#000" opacity="0">80</text><text text-anchor="middle" transform="translate(100,15)" font-family="sans-serif" font-size="10px" fill="#000" opacity="1">100</text><text text-anchor="middle" transform="translate(125,15)" font-family="sans-serif" font-size="10px" fill="#000" opacity="0">120</text><text text-anchor="middle" transform="translate(150,15)" font-family="sans-serif" font-size="10px" fill="#000" opacity="1">140</text><text text-anchor="middle" transform="translate(175,15)" font-family="sans-serif" font-size="10px" fill="#000" opacity="0">160</text><text text-anchor="middle" transform="translate(200,15)" font-family="sans-serif" font-size="10px" fill="#000" opacity="1">180</text><text text-anchor="middle" transform="translate(225,15)" font-family="sans-serif" font-size="10px" fill="#000" opacity="0">200</text><text text-anchor="middle" transform="translate(250,15)" font-family="sans-serif" font-size="10px" fill="#000" opacity="1">220</text><text text-anchor="middle" transform="translate(275,15)" font-family="sans-serif" font-size="10px" fill="#000" opacity="0">240</text><text text-anchor="end" transform="translate(300,15)" font-family="sans-serif" font-size="10px" fill="#000" opacity="1">260</text></g><g class="mark-rule role-axis-domain" pointer-events="none"><line transform="translate(0,0)" x2="300" y2="0" stroke="#888" stroke-width="1" opacity="1"/></g><g class="mark-text role-axis-title" pointer-events="none"><text text-anchor="middle" transform="translate(150,30)" font-family="sans-serif" font-size="11px" font-weight="bold" fill="#000" opacity="1">runtime</text></g></g><path class="foreground" aria-hidden="true" d="" pointer-events="none" display="none"/></g></g><g class="mark-group role-axis" role="graphics-symbol" aria-roledescription="axis" aria-label="Y-axis titled 'density' for a linear scale with values from 0.000 to 0.022"><g transform="translate(0.5,0.5)"><path class="background" aria-hidden="true" d="M0,0h0v0h0Z" pointer-events="none"/><g><g class="mark-rule role-axis-tick" pointer-events="none"><line transform="translate(0,300)" x2="-5" y2="0" stroke="#888" stroke-width="1" opacity="1"/><line transform="translate(0,273)" x2="-5" y2="0" stroke="#888" stroke-width="1" opacity="1"/><line transform="translate(0,245)" x2="-5" y2="0" stroke="#888" stroke-width="1" opacity="1"/><line transform="translate(0,218)" x2="-5" y2="0" stroke="#888" stroke-width="1" opacity="1"/><line transform="translate(0,191)" x2="-5" y2="0" stroke="#888" stroke-width="1" opacity="1"/><line transform="translate(0,164)" x2="-5" y2="0" stroke="#888" stroke-width="1" opacity="1"/><line transform="translate(0,136)" x2="-5" y2="0" stroke="#888" stroke-width="1" opacity="1"/><line transform="translate(0,109)" x2="-5" y2="0" stroke="#888" stroke-width="1" opacity="1"/><line transform="translate(0,82)" x2="-5" y2="0" stroke="#888" stroke-width="1" opacity="1"/><line transform="translate(0,55)" x2="-5" y2="0" stroke="#888" stroke-width="1" opacity="1"/><line transform="translate(0,27)" x2="-5" y2="0" stroke="#888" stroke-width="1" opacity="1"/><line transform="translate(0,0)" x2="-5" y2="0" stroke="#888" stroke-width="1" opacity="1"/></g><g class="mark-text role-axis-label" pointer-events="none"><text text-anchor="end" transform="translate(-7,303)" font-family="sans-serif" font-size="10px" fill="#000" opacity="1">0.000</text><text text-anchor="end" transform="translate(-7,275.7272727272727)" font-family="sans-serif" font-size="10px" fill="#000" opacity="1">0.002</text><text text-anchor="end" transform="translate(-7,248.45454545454544)" font-family="sans-serif" font-size="10px" fill="#000" opacity="1">0.004</text><text text-anchor="end" transform="translate(-7,221.1818181818182)" font-family="sans-serif" font-size="10px" fill="#000" opacity="1">0.006</text><text text-anchor="end" transform="translate(-7,193.9090909090909)" font-family="sans-serif" font-size="10px" fill="#000" opacity="1">0.008</text><text text-anchor="end" transform="translate(-7,166.63636363636363)" font-family="sans-serif" font-size="10px" fill="#000" opacity="1">0.010</text><text text-anchor="end" transform="translate(-7,139.36363636363635)" font-family="sans-serif" font-size="10px" fill="#000" opacity="1">0.012</text><text text-anchor="end" transform="translate(-7,112.09090909090907)" font-family="sans-serif" font-size="10px" fill="#000" opacity="1">0.014</text><text text-anchor="end" transform="translate(-7,84.81818181818181)" font-family="sans-serif" font-size="10px" fill="#000" opacity="1">0.016</text><text text-anchor="end" transform="translate(-7,57.54545454545456)" font-family="sans-serif" font-size="10px" fill="#000" opacity="1">0.018</text><text text-anchor="end" transform="translate(-7,30.27272727272725)" font-family="sans-serif" font-size="10px" fill="#000" opacity="1">0.020</text><text text-anchor="end" transform="translate(-7,3)" font-family="sans-serif" font-size="10px" fill="#000" opacity="1">0.022</text></g><g class="mark-rule role-axis-domain" pointer-events="none"><line transform="translate(0,300)" x2="0" y2="-300" stroke="#888" stroke-width="1" opacity="1"/></g><g class="mark-text role-axis-title" pointer-events="none"><text text-anchor="middle" transform="translate(-36.0244140625,150) rotate(-90) translate(0,-2)" font-family="sans-serif" font-size="11px" font-weight="bold" fill="#000" opacity="1">density</text></g></g><path class="foreground" aria-hidden="true" d="" pointer-events="none" display="none"/></g></g><g class="mark-area role-mark marks" role="graphics-symbol" aria-roledescription="area mark container"><path d="M7.5,298.768L8.888,298.786L10.275,298.838L11.662,298.92L13.05,299.025L14.438,299.145L15.825,299.272L17.213,299.398L18.6,299.516L19.988,299.623L21.375,299.714L22.763,299.789L24.15,299.848L25.537,299.893L26.925,299.924L28.313,299.944L29.7,299.954L31.088,299.955L32.475,299.945L33.863,299.924L35.25,299.89L36.638,299.837L38.025,299.762L39.412,299.658L40.8,299.515L42.188,299.322L43.575,299.065L44.963,298.725L46.35,298.278L47.738,297.69L49.125,296.919L50.512,295.914L51.9,294.61L53.288,292.93L54.675,290.789L56.062,288.093L57.45,284.746L58.837,280.655L60.225,275.732L61.612,269.908L63,263.126L64.387,255.356L65.775,246.587L67.163,236.831L68.55,226.12L69.938,214.504L71.325,202.052L72.712,188.848L74.1,174.994L75.488,160.617L76.875,145.866L78.263,130.921L79.65,115.988L81.038,101.302L82.425,87.117L83.813,73.694L85.2,61.293L86.587,50.153L87.975,40.479L89.363,32.433L90.75,26.125L92.137,21.609L93.525,18.887L94.913,17.916L96.3,18.614L97.688,20.874L99.075,24.564L100.463,29.543L101.85,35.653L103.237,42.725L104.625,50.574L106.013,59.003L107.4,67.799L108.788,76.746L110.175,85.625L111.563,94.237L112.95,102.405L114.337,109.993L115.725,116.911L117.113,123.117L118.5,128.622L119.888,133.481L121.275,137.787L122.663,141.663L124.05,145.249L125.437,148.691L126.825,152.13L128.212,155.69L129.6,159.47L130.988,163.532L132.375,167.899L133.763,172.552L135.15,177.437L136.538,182.474L137.925,187.566L139.312,192.619L140.7,197.555L142.088,202.321L143.475,206.9L144.862,211.308L146.25,215.59L147.638,219.805L149.025,224.013L150.412,228.26L151.8,232.566L153.188,236.919L154.575,241.274L155.963,245.556L157.35,249.678L158.738,253.55L160.125,257.093L161.513,260.25L162.9,262.994L164.288,265.325L165.675,267.271L167.062,268.875L168.45,270.194L169.838,271.282L171.225,272.191L172.612,272.966L174,273.64L175.388,274.241L176.775,274.788L178.163,275.299L179.55,275.788L180.938,276.27L182.325,276.758L183.713,277.262L185.1,277.793L186.487,278.359L187.875,278.965L189.263,279.614L190.65,280.308L192.038,281.045L193.425,281.821L194.813,282.63L196.2,283.461L197.588,284.3L198.975,285.129L200.363,285.928L201.75,286.679L203.138,287.362L204.525,287.965L205.913,288.482L207.3,288.916L208.687,289.274L210.075,289.574L211.462,289.835L212.85,290.079L214.237,290.329L215.625,290.601L217.013,290.91L218.4,291.265L219.788,291.67L221.175,292.126L222.563,292.627L223.95,293.167L225.338,293.734L226.725,294.317L228.113,294.901L229.5,295.47L230.888,296.009L232.275,296.503L233.662,296.943L235.05,297.319L236.437,297.63L237.825,297.877L239.213,298.069L240.6,298.216L241.988,298.331L243.375,298.428L244.763,298.519L246.15,298.614L247.538,298.719L248.925,298.836L250.313,298.963L251.7,299.098L253.087,299.235L254.475,299.367L255.862,299.49L257.25,299.6L258.638,299.692L260.025,299.767L261.413,299.822L262.8,299.859L264.188,299.879L265.575,299.88L266.963,299.864L268.35,299.83L269.738,299.778L271.125,299.707L272.513,299.619L273.9,299.514L275.287,299.397L276.675,299.271L278.063,299.145L279.45,299.025L280.838,298.92L282.225,298.838L283.613,298.786L285,298.768L285,300L283.613,300L282.225,300L280.838,300L279.45,300L278.063,300L276.675,300L275.287,300L273.9,300L272.513,300L271.125,300L269.738,300L268.35,300L266.963,300L265.575,300L264.188,300L262.8,300L261.413,300L260.025,300L258.638,300L257.25,300L255.862,300L254.475,300L253.087,300L251.7,300L250.313,300L248.925,300L247.538,300L246.15,300L244.763,300L243.375,300L241.988,300L240.6,300L239.213,300L237.825,300L236.437,300L235.05,300L233.662,300L232.275,300L230.888,300L229.5,300L228.113,300L226.725,300L225.338,300L223.95,300L222.563,300L221.175,300L219.788,300L218.4,300L217.013,300L215.625,300L214.237,300L212.85,300L211.462,300L210.075,300L208.687,300L207.3,300L205.913,300L204.525,300L203.138,300L201.75,300L200.363,300L198.975,300L197.588,300L196.2,300L194.813,300L193.425,300L192.038,300L190.65,300L189.263,300L187.875,300L186.487,300L185.1,300L183.713,300L182.325,300L180.938,300L179.55,300L178.163,300L176.775,300L175.388,300L174,300L172.612,300L171.225,300L169.838,300L168.45,300L167.062,300L165.675,300L164.288,300L162.9,300L161.513,300L160.125,300L158.738,300L157.35,300L155.963,300L154.575,300L153.188,300L151.8,300L150.412,300L149.025,300L147.638,300L146.25,300L144.862,300L143.475,300L142.088,300L140.7,300L139.312,300L137.925,300L136.538,300L135.15,300L133.763,300L132.375,300L130.988,300L129.6,300L128.212,300L126.825,300L125.437,300L124.05,300L122.663,300L121.275,300L119.888,300L118.5,300L117.113,300L115.725,300L114.337,300L112.95,300L111.563,300L110.175,300L108.788,300L107.4,300L106.013,300L104.625,300L103.237,300L101.85,300L100.463,300L99.075,300L97.688,300L96.3,300L94.913,300L93.525,300L92.137,300L90.75,300L89.363,300L87.975,300L86.587,300L85.2,300L83.813,300L82.425,300L81.038,300L79.65,300L78.263,300L76.875,300L75.488,300L74.1,300L72.712,300L71.325,300L69.938,300L68.55,300L67.163,300L65.775,300L64.387,300L63,300L61.612,300L60.225,300L58.837,300L57.45,300L56.062,300L54.675,300L53.288,300L51.9,300L50.512,300L49.125,300L47.738,300L46.35,300L44.963,300L43.575,300L42.188,300L40.8,300L39.412,300L38.025,300L36.638,300L35.25,300L33.863,300L32.475,300L31.088,300L29.7,300L28.313,300L26.925,300L25.537,300L24.15,300L22.763,300L21.375,300L19.988,300L18.6,300L17.213,300L15.825,300L14.438,300L13.05,300L11.662,300L10.275,300L8.888,300L7.5,300Z" fill="#4c78a8"/></g></g><path class="foreground" aria-hidden="true" d="" display="none"/></g></g></g></svg>