<svg xmlns="http://www.w3.org/2000/svg" xmlns:xlink="http://www.w3.org/1999/xlink" version="1.1" class="marks" width="747" height="385" viewBox="0 0 747 385"><rect width="747" height="385" fill="white"/><g fill="none" stroke-miterlimit="10" transform="translate(40,47)"><g class="mark-group role-frame root" role="graphics-object" aria-roledescription="group mark container"><g transform="translate(0,0)"><path class="background" aria-hidden="true" d="M0,0h0v0h0Z"/><g><g class="mark-group role-column-title facet-title" role="graphics-object" aria-roledescription="group mark container"><g transform="translate(311,-21)"><path class="background" aria-hidden="true" d="M0,0h0v0h0Z"/><g><g class="mark-group role-title"><g transform="translate(0,-21)"><path class="background" aria-hidden="true" d="M0,0h0v0h0Z" pointer-events="none"/><g><g class="mark-text role-title-text" role="graphics-symbol" aria-roledescription="title" aria-label="Title text 'countries'" pointer-events="none"><text text-anchor="middle" transform="translate(0,9)" font-family="sans-serif" font-size="11px" font-weight="bold" fill="#000" opacity="1">countries</text></g></g><path class="foreground" aria-hidden="true" d="" pointer-events="none" display="none"/></g></g></g><path class="foreground" aria-hidden="true" d="" display="none"/></g></g><g class="mark-group role-row-header row_header" role="graphics-object" aria-roledescription="group mark container"><g transform="translate(-1,0)"><path class="background" aria-hidden="true" d="M0,0h0v300h0Z"/><g><g class="mark-group role-axis" role="graphics-symbol" aria-roledescription="axis" aria-label="Y-axis titled 'density' for a linear scale with values from 0 to 10"><g transform="translate(0.5,0.5)"><path class="background" aria-hidden="true" d="M0,0h0v0h0Z" pointer-events="none"/><g><g class="mark-rule role-axis-tick" pointer-events="none"><line transform="translate(0,300)" x2="-5" y2="0" stroke="#888" stroke-width="1" opacity="1"/><line transform="translate(0,270)" x2="-5" y2="0" stroke="#888" stroke-width="1" opacity="1"/><line transform="translate(0,240)" x2="-5" y2="0" stroke="#888" stroke-width="1" opacity="1"/><line transform="translate(0,210)" x2="-5" y2="0" stroke="#888" stroke-width="1" opacity="1"/><line transform="translate(0,180)" x2="-5" y2="0" stroke="#888" stroke-width="1" opacity="1"/><line transform="translate(0,150)" x2="-5" y2="0" stroke="#888" stroke-width="1" opacity="1"/><line transform="translate(0,120)" x2="-5" y2="0" stroke="#888" stroke-width="1" opacity="1"/><line transform="translate(0,90)" x2="-5" y2="0" stroke="#888" stroke-width="1" opacity="1"/><line transform="translate(0,60)" x2="-5" y2="0" stroke="#888" stroke-width="1" opacity="1"/><line transform="translate(0,30)" x2="-5" y2="0" stroke="#888" stroke-width="1" opacity="1"/><line transform="translate(0,0)" x2="-5" y2="0" stroke="#888" stroke-width="1" opacity="1"/></g><g class="mark-text role-axis-label" pointer-events="none"><text text-anchor="end" transform="translate(-7,303)" font-family="sans-serif" font-size="10px" fill="#000" opacity="1">0</text><text text-anchor="end" transform="translate(-7,273)" font-family="sans-serif" font-size="10px" fill="#000" opacity="1">1</text><text text-anchor="end" transform="translate(-7,243)" font-family="sans-serif" font-size="10px" fill="#000" opacity="1">2</text><text text-anchor="end" transform="translate(-7,213)" font-family="sans-serif" font-size="10px" fill="#000" opacity="1">3</text><text text-anchor="end" transform="translate(-7,183)" font-family="sans-serif" font-size="10px" fill="#000" opacity="1">4</text><text text-anchor="end" transform="translate(-7,153)" font-family="sans-serif" font-size="10px" fill="#000" opacity="1">5</text><text text-anchor="end" transform="translate(-7,123)" font-family="sans-serif" font-size="10px" fill="#000" opacity="1">6</text><text text-anchor="end" transform="translate(-7,93.00000000000001)" font-family="sans-serif" font-size="10px" fill="#000" opacity="1">7</text><text text-anchor="end" transform="translate(-7,62.999999999999986)" font-family="sans-serif" font-size="10px" fill="#000" opacity="1">8</text><text text-anchor="end" transform="translate(-7,32.99999999999999)" font-family="sans-serif" font-size="10px" fill="#000" opacity="1">9</text><text text-anchor="end" transform="translate(-7,3)" font-family="sans-serif" font-size="10px" fill="#000" opacity="1">10</text></g><g class="mark-rule role-axis-domain" pointer-events="none"><line transform="translate(0,300)" x2="0" y2="-300" stroke="#888" stroke-width="1" opacity="1"/></g><g class="mark-text role-axis-title" pointer-events="none"><text text-anchor="middle" transform="translate(-22.123046875,150) rotate(-90) translate(0,-2)" font-family="sans-serif" font-size="11px" font-weight="bold" fill="#000" opacity="1">density</text></g></g><path class="foreground" aria-hidden="true" d="" pointer-events="none" display="none"/></g></g></g><path class="foreground" aria-hidden="true" d="" display="none"/></g></g><g class="mark-group role-column-footer column_footer" role="graphics-object" aria-roledescription="group mark container"><g transform="translate(0,301)"><path class="background" aria-hidden="true" d="M0,0h300v0h-300Z"/><g><g class="mark-group role-axis" role="graphics-symbol" aria-roledescription="axis" aria-label="X-axis titled 'runtime' for a linear scale with values from 20 to 260"><g transform="translate(0.5,0.5)"><path class="background" aria-hidden="true" d="M0,0h0v0h0Z" pointer-events="none"/><g><g class="mark-rule role-axis-tick" pointer-events="none"><line transform="translate(0,0)" x2="0" y2="5" stroke="#888" stroke-width="1" opacity="1"/><line transform="translate(25,0)" x2="0" y2="5" stroke="#888" stroke-width="1" opacity="1"/><line transform="translate(50,0)" x2="0" y2="5" stroke="#888" stroke-width="1" opacity="1"/><line transform="translate(75,0)" x2="0" y2="5" stroke="#888" stroke-width="1" opacity="1"/><line transform="translate(100,0)" x2="0" y2="5" stroke="#888" stroke-width="1" opacity="1"/><line transform="translate(125,0)" x2="0" y2="5" stroke="#888" stroke-width="1" opacity="1"/><line transform="translate(150,0)" x2="0" y2="5" stroke="#888" stroke-width="1" opacity="1"/><line transform="translate(175,0)" x2="0" y2="5" stroke="#888" stroke-width="1" opacity="1"/><line transform="translate(200,0)" x2="0" y2="5" stroke="#888" stroke-width="1" opacity="1"/><line transform="translate(225,0)" x2="0" y2="5" stroke="#888" stroke-width="1" opacity="1"/><line transform="translate(250,0)" x2="0" y2="5" stroke="#888" stroke-width="1" opacity="1"/><line transform="translate(275,0)" x2="0" y2="5" stroke="#888" stroke-width="1" opacity="1"/><line transform="translate(300,0)" x2="0" y2="5" stroke="#888" stroke-width="1" opacity="1"/></g><g class="mark-text role-axis-label" pointer-events="none"><text text-anchor="start" transform="translate(0,15)" font-family="sans-serif" font-size="10px" fill="#000" opacity="1">20</text><text text-anchor="middle" transform="translate(25,15)" font-family="sans-serif" font-size="10px" fill="#000" opacity="0">40</text><text text-anchor="middle" transform="translate(50,15)" font-family="sans-serif" font-size="10px" fill="#000" opacity="1">60</text><text text-anchor="middle" transform="translate(75,15)" font-family="sans-serif" font-size="10px" fill="#000" opacity="0">80</text><text text-anchor="middle" transform="translate(100,15)" font-family="sans-serif" font-size="10px" fill="#000" opacity="1">100</text><text text-anchor="middle" transform="translate(125,15)" font-family="sans-serif" font-size="10px" fill="#000" opacity="0">120</text><text text-anchor="middle" transform="translate(150,15)" font-family="sans-serif" font-size="10px" fill="#000" opacity="1">140</text><text text-anchor="middle" transform="translate(175,15)" font-family="sans-serif" font-size="10px" fill="#000" opacity="0">160</text><text text-anchor="middle" transform="translate(200,15)" font-family="sans-serif" font-size="10px" fill="#000" opacity="1">180</text><text text-anchor="middle" transform="translate(225,15)" font-family="sans-serif" font-size="10px" fill="#000" opacity="0">200</text><text text-anchor="middle" transform="translate(250,15)" font-family="sans-serif" font-size="10px" fill="#000" opacity="1">220</text><text text-anchor="middle" transform="translate(275,15)" font-family="sans-serif" font-size="10px" fill="#000" opacity="0">240</text><text text-anchor="end" transform="translate(300,15)" font-family="sans-serif" font-size="10px" fill="#000" opacity="1">260</text></g><g class="mark-rule role-axis-domain" pointer-events="none"><line transform="translate(0,0)" x2="300" y2="0" stroke="#888" stroke-width="1" opacity="1"/></g><g class="mark-text role-axis-title" pointer-events="none"><text text-anchor="middle" transform="translate(150,30)" font-family="sans-serif" font-size="11px" font-weight="bold" fill="#000" opacity="1">runtime</text></g></g><path class="foreground" aria-hidden="true" d="" pointer-events="none" display="none"/></g></g></g><path class="foreground" aria-hidden="true" d="" display="none"/></g><g transform="translate(322,301)"><path class="background" aria-hidden="true" d="M0,0h300v0h-300Z"/><g><g class="mark-group role-axis" role="graphics-symbol" aria-roledescription="axis" aria-label="X-axis titled 'runtime' for a linear scale with values from 20 to 260"><g transform="translate(0.5,0.5)"><path class="background" aria-hidden="true" d="M0,0h0v0h0Z" pointer-events="none"/><g><g class="mark-rule role-axis-tick" pointer-events="none"><line transform="translate(0,0)" x2="0" y2="5" stroke="#888" stroke-width="1" opacity="1"/><line transform="translate(25,0)" x2="0" y2="5" stroke="#888" stroke-width="1" opacity="1"/><line transform="translate(50,0)" x2="0" y2="5" stroke="#888" stroke-width="1" opacity="1"/><line transform="translate(75,0)" x2="0" y2="5" stroke="#888" stroke-width="1" opacity="1"/><line transform="translate(100,0)" x2="0" y2="5" stroke="#888" stroke-width="1" opacity="1"/><line transform="translate(125,0)" x2="0" y2="5" stroke="#888" stroke-width="1" opacity="1"/><line transform="translate(150,0)" x2="0" y2="5" stroke="#888" stroke-width="1" opacity="1"/><line transform="translate(175,0)" x2="0" y2="5" stroke="#888" stroke-width="1" opacity="1"/><line transform="translate(200,0)" x2="0" y2="5" stroke="#888" stroke-width="1" opacity="1"/><line transform="translate(225,0)" x2="0" y2="5" stroke="#888" stroke-width="1" opacity="1"/><line transform="translate(250,0)" x2="0" y2="5" stroke="#888" stroke-width="1" opacity="1"/><line transform="translate(275,0)" x2="0" y2="5" stroke="#888" stroke-width="1" opacity="1"/><line transform="translate(300,0)" x2="0" y2="5" stroke="#888" stroke-width="1" opacity="1"/></g><g class="mark-text role-axis-label" pointer-events="none"><text text-anchor="start" transform="translate(0,15)" font-family="sans-serif" font-size="10px" fill="#000" opacity="1">20</text><text text-anchor="middle" transform="translate(25,15)" font-family="sans-serif" font-size="10px" fill="#000" opacity="0">40</text><text text-anchor="middle" transform="translate(50,15)" font-family="sans-serif" font-size="10px" fill="#000" opacity="1">60</text><text text-anchor="middle" transform="translate(75,15)" font-family="sans-serif" font-size="10px" fill="#000" opacity="0">80</text><text text-anchor="middle" transform="translate(100,15)" font-family="sans-serif" font-size="10px" fill="#000" opacity="1">100</text><text text-anchor="middle" transform="translate(125,15)" font-family="sans-serif" font-size="10px" fill="#000" opacity="0">120</text><text text-anchor="middle" transform="translate(150,15)" font-family="sans-serif" font-size="10px" fill="#000" opacity="1">140</text><text text-anchor="middle" transform="translate(175,15)" font-family="sans-serif" font-size="10px" fill="#000" opacity="0">160</text><text text-anchor="middle" transform="translate(200,15)" font-family="sans-serif" font-size="10px" fill="#000" opacity="1">180</text><text text-anchor="middle" transform="translate(225,15)" font-family="sans-serif" font-size="10px" fill="#000" opacity="0">200</text><text text-anchor="middle" transform="translate(250,15)" font-family="sans-serif" font-size="10px" fill="#000" opacity="1">220</text><text text-anchor="middle" transform="translate(275,15)" font-family="sans-serif" font-size="10px" fill="#000" opacity="0">240</text><text text-anchor="end" transform="translate(300,15)" font-family="sans-serif" font-size="10px" fill="#000" opacity="1">260</text></g><g class="mark-rule role-axis-domain" pointer-events="none"><line transform="translate(0,0)" x2="300" y2="0" stroke="#888" stroke-width="1" opacity="1"/></g><g class="mark-text role-axis-title" pointer-events="none"><text text-anchor="middle" transform="translate(150,30)" font-family="sans-serif" font-size="11px" font-weight="bold" fill="#000" opacity="1">runtime</text></g></g><path class="foreground" aria-hidden="true" d="" pointer-events="none" display="none"/></g></g></g><path class="foreground" aria-hidden="true" d="" display="none"/></g></g><g class="mark-group role-scope cell" role="graphics-object" aria-roledescription="group mark container"><g transform="translate(0,0)"><path class="background" aria-hidden="true" d="M0.5,0.5h300v300h-300Z" stroke="#ddd"/><g><g class="mark-group role-axis" aria-hidden="true"><g transform="translate(0.5,300.5)"><path class="background" aria-hidden="true" d="M0,0h0v0h0Z" pointer-events="none"/><g><g class="mark-rule role-axis-grid" pointer-events="none"><line transform="translate(0,-300)" x2="0" y2="300" stroke="#ddd" stroke-width="1" opacity="1"/><line transform="translate(25,-300)" x2="0" y2="300" stroke="#ddd" stroke-width="1" opacity="1"/><line transform="translate(50,-300)" x2="0" y2="300" stroke="#ddd" stroke-width="1" opacity="1"/><line transform="translate(75,-300)" x2="0" y2="300" stroke="#ddd" stroke-width="1" opacity="1"/><line transform="translate(100,-300)" x2="0" y2="300" stroke="#ddd" stroke-width="1" opacity="1"/><line transform="translate(125,-300)" x2="0" y2="300" stroke="#ddd" stroke-width="1" opacity="1"/><line transform="translate(150,-300)" x2="0" y2="300" stroke="#ddd" stroke-width="1" opacity="1"/><line transform="translate(175,-300)" x2="0" y2="300" stroke="#ddd" stroke-width="1" opacity="1"/><line transform="translate(200,-300)" x2="0" y2="300" stroke="#ddd" stroke-width="1" opacity="1"/><line transform="translate(225,-300)" x2="0" y2="300" stroke="#ddd" stroke-width="1" opacity="1"/><line transform="translate(250,-300)" x2="0" y2="300" stroke="#ddd" stroke-width="1" opacity="1"/><line transform="translate(275,-300)" x2="0" y2="300" stroke="#ddd" stroke-width="1" opacity="1"/><line transform="translate(300,-300)" x2="0" y2="300" stroke="#ddd" stroke-width="1" opacity="1"/></g></g><path class="foreground" aria-hidden="true" d="" pointer-events="none" display="none"/></g></g><g class="mark-group role-axis" aria-hidden="true"><g transform="translate(0.5,0.5)"><path class="background" aria-hidden="true" d="M0,0h0v0h0Z" pointer-events="none"/><g><g class="mark-rule role-axis-grid" pointer-events="none"><line transform="translate(0,300)" x2="300" y2="0" stroke="#ddd" stroke-width="1" opacity="1"/><line transform="translate(0,270)" x2="300" y2="0" stroke="#ddd" stroke-width="1" opacity="1"/><line transform="translate(0,240)" x2="300" y2="0" stroke="#ddd" stroke-width="1" opacity="1"/><line transform="translate(0,210)" x2="300" y2="0" stroke="#ddd" stroke-width="1" opacity="1"/><line transform="translate(0,180)" x2="300" y2="0" stroke="#ddd" stroke-width="1" opacity="1"/><line transform="translate(0,150)" x2="300" y2="0" stroke="#ddd" stroke-width="1" opacity="1"/><line transform="translate(0,120)" x2="300" y2="0" stroke="#ddd" stroke-width="1" opacity="1"/><line transform="translate(0,90)" x2="300" y2="0" stroke="#ddd" stroke-width="1" opacity="1"/><line transform="translate(0,60)" x2="300" y2="0" stroke="#ddd" stroke-width="1" opacity="1"/><line transform="translate(0,30)" x2="300" y2="0" stroke="#ddd" stroke-width="1" opacity="1"/><line transform="translate(0,0)" x2="300" y2="0" stroke="#ddd" stroke-width="1" opacity="1"/></g></g><path class="foreground" aria-hidden="true" d="" pointer-events="none" display="none"/></g></g><g class="mark-group role-scope child_pathgroup" role="graphics-object" aria-roledescription="group mark container"><g transform="translate(0,0)"><path class="background" aria-hidden="true" d="M0,0h300v300h-300Z"/><g><g class="mark-area role-mark child_marks" role="graphics-symbol" aria-roledescription="area mark container"><path d="M7.5,300L8.888,300L10.275,300L11.662,300L13.05,300L14.438,300L15.825,300L17.213,300L18.6,300L19.988,300L21.375,300L22.763,300L24.15,300L25.537,300L26.925,300L28.313,300L29.7,300L31.088,300L32.475,300L33.863,300L35.25,300L36.638,300L38.025,300L39.412,300L40.8,300L42.188,300L43.575,299.999L44.963,299.999L46.35,299.998L47.738,299.997L49.125,299.995L50.512,299.991L51.9,299.985L53.288,299.976L54.675,299.961L56.062,299.939L57.45,299.906L58.837,299.857L60.225,299.787L61.612,299.687L63,299.549L64.387,299.36L65.775,299.106L67.163,298.772L68.55,298.341L69.938,297.792L71.325,297.109L72.712,296.272L74.1,295.265L75.488,294.075L76.875,292.695L78.263,291.122L79.65,289.361L81.038,287.422L82.425,285.325L83.813,283.096L85.2,280.767L86.587,278.376L87.975,275.963L89.363,273.569L90.75,271.236L92.137,269.005L93.525,266.911L94.913,264.986L96.3,263.257L97.688,261.742L99.075,260.454L100.463,259.4L101.85,258.577L103.237,257.975L104.625,257.581L106.013,257.372L107.4,257.324L108.788,257.406L110.175,257.589L111.563,257.843L112.95,258.138L114.337,258.452L115.725,258.763L117.113,259.06L118.5,259.337L119.888,259.596L121.275,259.845L122.663,260.101L124.05,260.381L125.437,260.71L126.825,261.111L128.212,261.606L129.6,262.215L130.988,262.95L132.375,263.818L133.763,264.818L135.15,265.941L136.538,267.171L137.925,268.486L139.312,269.862L140.7,271.269L142.088,272.683L143.475,274.079L144.862,275.438L146.25,276.744L147.638,277.988L149.025,279.167L150.412,280.279L151.8,281.327L153.188,282.316L154.575,283.25L155.963,284.134L157.35,284.97L158.738,285.762L160.125,286.51L161.513,287.217L162.9,287.884L164.288,288.514L165.675,289.112L167.062,289.682L168.45,290.23L169.838,290.765L171.225,291.293L172.612,291.821L174,292.354L175.388,292.895L176.775,293.446L178.163,294.004L179.55,294.567L180.938,295.128L182.325,295.681L183.713,296.218L185.1,296.73L186.487,297.212L187.875,297.655L189.263,298.057L190.65,298.414L192.038,298.725L193.425,298.991L194.813,299.215L196.2,299.398L197.588,299.547L198.975,299.664L200.363,299.755L201.75,299.825L203.138,299.876L204.525,299.914L205.913,299.942L207.3,299.961L208.687,299.974L210.075,299.984L211.462,299.99L212.85,299.993L214.237,299.996L215.625,299.998L217.013,299.999L218.4,299.999L219.788,300L221.175,300L222.563,300L223.95,300L225.338,300L226.725,300L228.113,300L229.5,300L230.888,300L232.275,300L233.662,300L235.05,300L236.437,300L237.825,300L239.213,300L240.6,300L241.988,300L243.375,300L244.763,300L246.15,300L247.538,300L248.925,300L250.313,300L251.7,300L253.087,300L254.475,300L255.862,300L257.25,300L258.638,300L260.025,300L261.413,300L262.8,300L264.188,300L265.575,300L266.963,300L268.35,300L269.738,300L271.125,300L272.513,300L273.9,300L275.287,300L276.675,300L278.063,300L279.45,300L280.838,300L282.225,300L283.613,300L285,300L285,300L283.613,300L282.225,300L280.838,300L279.45,300L278.063,300L276.675,300L275.287,300L273.9,300L272.513,300L271.125,300L269.738,300L268.35,300L266.963,300L265.575,300L264.188,300L262.8,300L261.413,300L260.025,300L258.638,300L257.25,300L255.862,300L254.475,300L253.087,300L251.7,300L250.313,300L248.925,300L247.538,300L246.15,300L244.763,300L243.375,300L241.988,300L240.6,300L239.213,300L237.825,300L236.437,300L235.05,300L233.662,300L232.275,300L230.888,300L229.5,300L228.113,300L226.725,300L225.338,300L223.95,300L222.563,300L221.175,300L219.788,300L218.4,300L217.013,300L215.625,300L214.237,300L212.85,300L211.462,300L210.075,300L208.687,300L207.3,300L205.913,300L204.525,300L203.138,300L201.75,300L200.363,300L198.975,300L197.588,300L196.2,300L194.813,300L193.425,300L192.038,300L190.65,300L189.263,300L187.875,300L186.487,300L185.1,300L183.713,300L182.325,300L180.938,300L179.55,300L178.163,300L176.775,300L175.388,300L174,300L172.612,300L171.225,300L169.838,300L168.45,300L167.062,300L165.675,300L164.288,300L162.9,300L161.513,300L160.125,300L158.738,300L157.35,300L155.963,300L154.575,300L153.188,300L151.8,300L150.412,300L149.025,300L147.638,300L146.25,300L144.862,300L143.475,300L142.088,300L140.7,300L139.312,300L137.925,300L136.538,300L135.15,300L133.763,300L132.375,300L130.988,300L129.6,300L128.212,300L126.825,300L125.437,300L124.05,300L122.663,300L121.275,300L119.888,300L118.5,300L117.113,300L115.725,300L114.337,300L112.95,300L111.563,300L110.175,300L108.788,300L107.4,300L106.013,300L104.625,300L103.237,300L101.85,300L100.463,300L99.075,300L97.688,300L96.3,300L94.913,300L93.525,300L92.137,300L90.75,300L89.363,300L87.975,300L86.587,300L85.2,300L83.813,300L82.425,300L81.038,300L79.65,300L78.263,300L76.875,300L75.488,300L74.1,300L72.712,300L71.325,300L69.938,300L68.55,300L67.163,300L65.775,300L64.387,300L63,300L61.612,300L60.225,300L58.837,300L57.45,300L56.062,300L54.675,300L53.288,300L51.9,300L50.512,300L49.125,300L47.738,300L46.35,300L44.963,300L43.575,300L42.188,300L40.8,300L39.412,300L38.025,300L36.638,300L35.25,300L33.863,300L32.475,300L31.088,300L29.7,300L28.313,300L26.925,300L25.537,300L24.15,300L22.763,300L21.375,300L19.988,300L18.6,300L17.213,300L15.825,300L14.438,300L13.05,300L11.662,300L10.275,300L8.888,300L7.5,300Z" fill="#f58518" opacity="0.6"/></g></g><path class="foreground" aria-hidden="true" d="" display="none"/></g><g transform="translate(0,0)"><path class="background" aria-hidden="true" d="M0,0h300v300h-300Z"/><g><g class="mark-area role-mark child_marks" role="graphics-symbol" aria-roledescription="area mark container"><path d="M7.5,300L8.888,300L10.275,300L11.662,300L13.05,300L14.438,300L15.825,300L17.213,300L18.6,300L19.988,300L21.375,300L22.763,300L24.15,300L25.537,300L26.925,300L28.313,300L29.7,300L31.088,300L32.475,300L33.863,300L35.25,300L36.638,300L38.025,300L39.412,300L40.8,300L42.188,300L43.575,300L44.963,300L46.35,299.999L47.738,299.999L49.125,299.998L50.512,299.997L51.9,299.996L53.288,299.994L54.675,299.991L56.062,299.987L57.45,299.981L58.837,299.973L60.225,299.963L61.612,299.948L63,299.93L64.387,299.906L65.775,299.875L67.163,299.836L68.55,299.788L69.938,299.729L71.325,299.657L72.712,299.57L74.1,299.467L75.488,299.345L76.875,299.202L78.263,299.035L79.65,298.843L81.038,298.621L82.425,298.366L83.813,298.074L85.2,297.741L86.587,297.363L87.975,296.935L89.363,296.451L90.75,295.908L92.137,295.301L93.525,294.628L94.913,293.886L96.3,293.076L97.688,292.198L99.075,291.257L100.463,290.257L101.85,289.207L103.237,288.116L104.625,286.993L106.013,285.852L107.4,284.705L108.788,283.563L110.175,282.441L111.563,281.351L112.95,280.303L114.337,279.309L115.725,278.378L117.113,277.52L118.5,276.742L119.888,276.051L121.275,275.454L122.663,274.954L124.05,274.557L125.437,274.264L126.825,274.076L128.212,273.993L129.6,274.013L130.988,274.13L132.375,274.341L133.763,274.637L135.15,275.012L136.538,275.457L137.925,275.964L139.312,276.526L140.7,277.136L142.088,277.789L143.475,278.478L144.862,279.202L146.25,279.957L147.638,280.742L149.025,281.552L150.412,282.387L151.8,283.24L153.188,284.109L154.575,284.987L155.963,285.866L157.35,286.74L158.738,287.598L160.125,288.433L161.513,289.237L162.9,290.003L164.288,290.724L165.675,291.395L167.062,292.015L168.45,292.58L169.838,293.09L171.225,293.547L172.612,293.953L174,294.309L175.388,294.619L176.775,294.886L178.163,295.114L179.55,295.308L180.938,295.471L182.325,295.608L183.713,295.723L185.1,295.821L186.487,295.908L187.875,295.987L189.263,296.062L190.65,296.139L192.038,296.219L193.425,296.306L194.813,296.401L196.2,296.504L197.588,296.616L198.975,296.735L200.363,296.86L201.75,296.989L203.138,297.121L204.525,297.253L205.913,297.384L207.3,297.513L208.687,297.64L210.075,297.764L211.462,297.885L212.85,298.003L214.237,298.118L215.625,298.23L217.013,298.339L218.4,298.443L219.788,298.542L221.175,298.634L222.563,298.716L223.95,298.788L225.338,298.847L226.725,298.892L228.113,298.922L229.5,298.937L230.888,298.936L232.275,298.923L233.662,298.898L235.05,298.864L236.437,298.824L237.825,298.783L239.213,298.743L240.6,298.71L241.988,298.684L243.375,298.671L244.763,298.671L246.15,298.685L247.538,298.715L248.925,298.759L250.313,298.815L251.7,298.881L253.087,298.955L254.475,299.033L255.862,299.111L257.25,299.187L258.638,299.256L260.025,299.315L261.413,299.363L262.8,299.396L264.188,299.414L265.575,299.415L266.963,299.4L268.35,299.37L269.738,299.325L271.125,299.267L272.513,299.2L273.9,299.126L275.287,299.049L276.675,298.972L278.063,298.899L279.45,298.834L280.838,298.78L282.225,298.739L283.613,298.714L285,298.707L285,300L283.613,300L282.225,300L280.838,300L279.45,300L278.063,300L276.675,300L275.287,300L273.9,300L272.513,300L271.125,300L269.738,300L268.35,300L266.963,300L265.575,300L264.188,300L262.8,300L261.413,300L260.025,300L258.638,300L257.25,300L255.862,300L254.475,300L253.087,300L251.7,300L250.313,300L248.925,300L247.538,300L246.15,300L244.763,300L243.375,300L241.988,300L240.6,300L239.213,300L237.825,300L236.437,300L235.05,300L233.662,300L232.275,300L230.888,300L229.5,300L228.113,300L226.725,300L225.338,300L223.95,300L222.563,300L221.175,300L219.788,300L218.4,300L217.013,300L215.625,300L214.237,300L212.85,300L211.462,300L210.075,300L208.687,300L207.3,300L205.913,300L204.525,300L203.138,300L201.75,300L200.363,300L198.975,300L197.588,300L196.2,300L194.813,300L193.425,300L192.038,300L190.65,300L189.263,300L187.875,300L186.487,300L185.1,300L183.713,300L182.325,300L180.938,300L179.55,300L178.163,300L176.775,300L175.388,300L174,300L172.612,300L171.225,300L169.838,300L168.45,300L167.062,300L165.675,300L164.288,300L162.9,300L161.513,300L160.125,300L158.738,300L157.35,300L155.963,300L154.575,300L153.188,300L151.8,300L150.412,300L149.025,300L147.638,300L146.25,300L144.862,300L143.475,300L142.088,300L140.7,300L139.312,300L137.925,300L136.538,300L135.15,300L133.763,300L132.375,300L130.988,300L129.6,300L128.212,300L126.825,300L125.437,300L124.05,300L122.663,300L121.275,300L119.888,300L118.5,300L117.113,300L115.725,300L114.337,300L112.95,300L111.563,300L110.175,300L108.788,300L107.4,300L106.013,300L104.625,300L103.237,300L101.85,300L100.463,300L99.075,300L97.688,300L96.3,300L94.913,300L93.525,300L92.137,300L90.75,300L89.363,300L87.975,300L86.587,300L85.2,300L83.813,300L82.425,300L81.038,300L79.65,300L78.263,300L76.875,300L75.488,300L74.1,300L72.712,300L71.325,300L69.938,300L68.55,300L67.163,300L65.775,300L64.387,300L63,300L61.612,300L60.225,300L58.837,300L57.45,300L56.062,300L54.675,300L53.288,300L51.9,300L50.512,300L49.125,300L47.738,300L46.35,300L44.963,300L43.575,300L42.188,300L40.8,300L39.412,300L38.025,300L36.638,300L35.25,300L33.863,300L32.475,300L31.088,300L29.7,300L28.313,300L26.925,300L25.537,300L24.15,300L22.763,300L21.375,300L19.988,300L18.6,300L17.213,300L15.825,300L14.438,300L13.05,300L11.662,300L10.275,300L8.888,300L7.5,300Z" fill="#e45756" opacity="0.6"/></g></g><path class="foreground" aria-hidden="true" d="" display="none"/></g><g transform="translate(0,0)"><path class="background" aria-hidden="true" d="M0,0h300v300h-300Z"/><g><g class="mark-area role-mark child_marks" role="graphics-symbol" aria-roledescription="area mark container"><path d="M7.5,300L8.888,300L10.275,300L11.662,300L13.05,300L14.438,300L15.825,300L17.213,300L18.6,300L19.988,300L21.375,300L22.763,300L24.15,300L25.537,300L26.925,300L28.313,300L29.7,300L31.088,300L32.475,300L33.863,300L35.25,300L36.638,300L38.025,300L39.412,300L40.8,300L42.188,300L43.575,300L44.963,300L46.35,300L47.738,300L49.125,300L50.512,300L51.9,300L53.288,300L54.675,300L56.062,300L57.45,300L58.837,299.998L60.225,299.989L61.612,299.945L63,299.777L64.387,299.299L65.775,298.27L67.163,296.606L68.55,294.57L69.938,292.55L71.325,290.605L72.712,288.54L74.1,286.426L75.488,284.403L76.875,281.928L78.263,278.218L79.65,273.67L81.038,269.892L82.425,268.125L83.813,268.524L85.2,270.798L86.587,274.467L87.975,278.564L89.363,282.031L90.75,284.567L92.137,286.738L93.525,289.263L94.913,292.286L96.3,295.297L97.688,297.639L99.075,299.043L100.463,299.691L101.85,299.921L103.237,299.984L104.625,299.998L106.013,300L107.4,300L108.788,300L110.175,300L111.563,300L112.95,300L114.337,300L115.725,300L117.113,300L118.5,300L119.888,300L121.275,300L122.663,300L124.05,300L125.437,300L126.825,300L128.212,300L129.6,300L130.988,300L132.375,300L133.763,300L135.15,300L136.538,300L137.925,300L139.312,300L140.7,300L142.088,300L143.475,300L144.862,300L146.25,300L147.638,300L149.025,300L150.412,300L151.8,300L153.188,300L154.575,300L155.963,300L157.35,300L158.738,300L160.125,300L161.513,300L162.9,300L164.288,300L165.675,300L167.062,300L168.45,300L169.838,300L171.225,300L172.612,300L174,300L175.388,300L176.775,300L178.163,300L179.55,300L180.938,300L182.325,300L183.713,300L185.1,300L186.487,300L187.875,300L189.263,300L190.65,300L192.038,300L193.425,300L194.813,300L196.2,300L197.588,300L198.975,300L200.363,300L201.75,300L203.138,300L204.525,300L205.913,300L207.3,300L208.687,300L210.075,300L211.462,300L212.85,300L214.237,300L215.625,300L217.013,300L218.4,300L219.788,300L221.175,300L222.563,300L223.95,300L225.338,300L226.725,300L228.113,300L229.5,300L230.888,300L232.275,300L233.662,300L235.05,300L236.437,300L237.825,300L239.213,300L240.6,300L241.988,300L243.375,300L244.763,300L246.15,300L247.538,300L248.925,300L250.313,300L251.7,300L253.087,300L254.475,300L255.862,300L257.25,300L258.638,300L260.025,300L261.413,300L262.8,300L264.188,300L265.575,300L266.963,300L268.35,300L269.738,300L271.125,300L272.513,300L273.9,300L275.287,300L276.675,300L278.063,300L279.45,300L280.838,300L282.225,300L283.613,300L285,300L285,300L283.613,300L282.225,300L280.838,300L279.45,300L278.063,300L276.675,300L275.287,300L273.9,300L272.513,300L271.125,300L269.738,300L268.35,300L266.963,300L265.575,300L264.188,300L262.8,300L261.413,300L260.025,300L258.638,300L257.25,300L255.862,300L254.475,300L253.087,300L251.7,300L250.313,300L248.925,300L247.538,300L246.15,300L244.763,300L243.375,300L241.988,300L240.6,300L239.213,300L237.825,300L236.437,300L235.05,300L233.662,300L232.275,300L230.888,300L229.5,300L228.113,300L226.725,300L225.338,300L223.95,300L222.563,300L221.175,300L219.788,300L218.4,300L217.013,300L215.625,300L214.237,300L212.85,300L211.462,300L210.075,300L208.687,300L207.3,300L205.913,300L204.525,300L203.138,300L201.75,300L200.363,300L198.975,300L197.588,300L196.2,300L194.813,300L193.425,300L192.038,300L190.65,300L189.263,300L187.875,300L186.487,300L185.1,300L183.713,300L182.325,300L180.938,300L179.55,300L178.163,300L176.775,300L175.388,300L174,300L172.612,300L171.225,300L169.838,300L168.45,300L167.062,300L165.675,300L164.288,300L162.9,300L161.513,300L160.125,300L158.738,300L157.35,300L155.963,300L154.575,300L153.188,300L151.8,300L150.412,300L149.025,300L147.638,300L146.25,300L144.862,300L143.475,300L142.088,300L140.7,300L139.312,300L137.925,300L136.538,300L135.15,300L133.763,300L132.375,300L130.988,300L129.6,300L128.212,300L126.825,300L125.437,300L124.05,300L122.663,300L121.275,300L119.888,300L118.5,300L117.113,300L115.725,300L114.337,300L112.95,300L111.563,300L110.175,300L108.788,300L107.4,300L106.013,300L104.625,300L103.237,300L101.85,300L100.463,300L99.075,300L97.688,300L96.3,300L94.913,300L93.525,300L92.137,300L90.75,300L89.363,300L87.975,300L86.587,300L85.2,300L83.813,300L82.425,300L81.038,300L79.65,300L78.263,300L76.875,300L75.488,300L74.1,300L72.712,300L71.325,300L69.938,300L68.55,300L67.163,300L65.775,300L64.387,300L63,300L61.612,300L60.225,300L58.837,300L57.45,300L56.062,300L54.675,300L53.288,300L51.9,300L50.512,300L49.125,300L47.738,300L46.35,300L44.963,300L43.575,300L42.188,300L40.8,300L39.412,300L38.025,300L36.638,300L35.25,300L33.863,300L32.475,300L31.088,300L29.7,300L28.313,300L26.925,300L25.537,300L24.15,300L22.763,300L21.375,300L19.988,300L18.6,300L17.213,300L15.825,300L14.438,300L13.05,300L11.662,300L10.275,300L8.888,300L7.5,300Z" fill="#4c78a8" opacity="0.6"/></g></g><path class="foreground" aria-hidden="true" d="" display="none"/></g></g><g class="mark-group role-title"><g transform="translate(150,-20)"><path class="background" aria-hidden="true" d="M0,0h0v0h0Z" pointer-events="none"/><g><g class="mark-text role-title-text" role="graphics-symbol" aria-roledescription="title" aria-label="Title text 'United Kingdom'" pointer-events="none"><text text-anchor="middle" transform="translate(0,8)" font-family="sans-serif" font-size="10px" fill="#000" opacity="1">United Kingdom</text></g></g><path class="foreground" aria-hidden="true" d="" pointer-events="none" display="none"/></g></g></g><path class="foreground" aria-hidden="true" d="" display="none"/></g><g transform="translate(322,0)"><path class="background" aria-hidden="true" d="M0.5,0.5h300v300h-300Z" stroke="#ddd"/><g><g class="mark-group role-axis" aria-hidden="true"><g transform="translate(0.5,300.5)"><path class="background" aria-hidden="true" d="M0,0h0v0h0Z" pointer-events="none"/><g><g class="mark-rule role-axis-grid" pointer-events="none"><line transform="translate(0,-300)" x2="0" y2="300" stroke="#ddd" stroke-width="1" opacity="1"/><line transform="translate(25,-300)" x2="0" y2="300" stroke="#ddd" stroke-width="1" opacity="1"/><line transform="translate(50,-300)" x2="0" y2="300" stroke="#ddd" stroke-width="1" opacity="1"/><line transform="translate(75,-300)" x2="0" y2="300" stroke="#ddd" stroke-width="1" opacity="1"/><line transform="translate(100,-300)" x2="0" y2="300" stroke="#ddd" stroke-width="1" opacity="1"/><line transform="translate(125,-300)" x2="0" y2="300" stroke="#ddd" stroke-width="1" opacity="1"/><line transform="translate(150,-300)" x2="0" y2="300" stroke="#ddd" stroke-width="1" opacity="1"/><line transform="translate(175,-300)" x2="0" y2="300" stroke="#ddd" stroke-width="1" opacity="1"/><line transform="translate(200,-300)" x2="0" y2="300" stroke="#ddd" stroke-width="1" opacity="1"/><line transform="translate(225,-300)" x2="0" y2="300" stroke="#ddd" stroke-width="1" opacity="1"/><line transform="translate(250,-300)" x2="0" y2="300" stroke="#ddd" stroke-width="1" opacity="1"/><line transform="translate(275,-300)" x2="0" y2="300" stroke="#ddd" stroke-width="1" opacity="1"/><line transform="translate(300,-300)" x2="0" y2="300" stroke="#ddd" stroke-width="1" opacity="1"/></g></g><path class="foreground" aria-hidden="true" d="" pointer-events="none" display="none"/></g></g><g class="mark-group role-axis" aria-hidden="true"><g transform="translate(0.5,0.5)"><path class="background" aria-hidden="true" d="M0,0h0v0h0Z" pointer-events="none"/><g><g class="mark-rule role-axis-grid" pointer-events="none"><line transform="translate(0,300)" x2="300" y2="0" stroke="#ddd" stroke-width="1" opacity="1"/><line transform="translate(0,270)" x2="300" y2="0" stroke="#ddd" stroke-width="1" opacity="1"/><line transform="translate(0,240)" x2="300" y2="0" stroke="#ddd" stroke-width="1" opacity="1"/><line transform="translate(0,210)" x2="300" y2="0" stroke="#ddd" stroke-width="1" opacity="1"/><line transform="translate(0,180)" x2="300" y2="0" stroke="#ddd" stroke-width="1" opacity="1"/><line transform="translate(0,150)" x2="300" y2="0" stroke="#ddd" stroke-width="1" opacity="1"/><line transform="translate(0,120)" x2="300" y2="0" stroke="#ddd" stroke-width="1" opacity="1"/><line transform="translate(0,90)" x2="300" y2="0" stroke="#ddd" stroke-width="1" opacity="1"/><line transform="translate(0,60)" x2="300" y2="0" stroke="#ddd" stroke-width="1" opacity="1"/><line transform="translate(0,30)" x2="300" y2="0" stroke="#ddd" stroke-width="1" opacity="1"/><line transform="translate(0,0)" x2="300" y2="0" stroke="#ddd" stroke-width="1" opacity="1"/></g></g><path class="foreground" aria-hidden="true" d="" pointer-events="none" display="none"/></g></g><g class="mark-group role-scope child_pathgroup" role="graphics-object" aria-roledescription="group mark container"><g transform="translate(0,0)"><path class="background" aria-hidden="true" d="M0,0h300v300h-300Z"/><g><g class="mark-area role-mark child_marks" role="graphics-symbol" aria-roledescription="area mark container"><path d="M7.5,296.47L8.888,296.654L10.275,297.151L11.662,297.821L13.05,298.502L14.438,299.076L15.825,299.487L17.213,299.745L18.6,299.886L19.988,299.954L21.375,299.983L22.763,299.995L24.15,299.998L25.537,300L26.925,300L28.313,300L29.7,300L31.088,300L32.475,300L33.863,300L35.25,300L36.638,299.999L38.025,299.996L39.412,299.988L40.8,299.967L42.188,299.914L43.575,299.802L44.963,299.586L46.35,299.223L47.738,298.685L49.125,297.984L50.512,297.185L51.9,296.374L53.288,295.596L54.675,294.773L56.062,293.665L57.45,291.88L58.837,288.947L60.225,284.415L61.612,277.924L63,269.26L64.387,258.374L65.775,245.403L67.163,230.686L68.55,214.783L69.938,198.456L71.325,182.55L72.712,167.767L74.1,154.389L75.488,142.102L76.875,130.066L78.263,117.271L79.65,103.047L81.038,87.489L82.425,71.58L83.813,56.936L85.2,45.288L86.587,37.975L87.975,35.678L89.363,38.475L90.75,46.078L92.137,58.019L93.525,73.669L94.913,92.143L96.3,112.26L97.688,132.678L99.075,152.175L100.463,169.913L101.85,185.549L103.237,199.162L104.625,211.089L106.013,221.775L107.4,231.677L108.788,241.147L110.175,250.308L111.563,258.954L112.95,266.612L114.337,272.774L115.725,277.191L117.113,280.058L118.5,281.962L119.888,283.623L121.275,285.589L122.663,288.043L124.05,290.807L125.437,293.513L126.825,295.811L128.212,297.498L129.6,298.542L130.988,299.018L132.375,299.035L133.763,298.701L135.15,298.129L136.538,297.46L137.925,296.865L139.312,296.515L140.7,296.518L142.088,296.873L143.475,297.478L144.862,298.172L146.25,298.81L147.638,299.304L149.025,299.634L150.412,299.827L151.8,299.927L153.188,299.972L154.575,299.99L155.963,299.997L157.35,299.999L158.738,300L160.125,300L161.513,300L162.9,300L164.288,300L165.675,300L167.062,300L168.45,300L169.838,300L171.225,300L172.612,300L174,300L175.388,300L176.775,300L178.163,300L179.55,300L180.938,300L182.325,300L183.713,300L185.1,300L186.487,300L187.875,300L189.263,300L190.65,300L192.038,300L193.425,300L194.813,300L196.2,300L197.588,300L198.975,300L200.363,300L201.75,300L203.138,300L204.525,300L205.913,300L207.3,300L208.687,300L210.075,300L211.462,300L212.85,300L214.237,300L215.625,300L217.013,300L218.4,300L219.788,300L221.175,300L222.563,300L223.95,300L225.338,300L226.725,300L228.113,300L229.5,300L230.888,300L232.275,300L233.662,300L235.05,300L236.437,300L237.825,300L239.213,300L240.6,300L241.988,300L243.375,300L244.763,300L246.15,300L247.538,300L248.925,300L250.313,300L251.7,300L253.087,300L254.475,300L255.862,300L257.25,300L258.638,300L260.025,300L261.413,300L262.8,300L264.188,300L265.575,300L266.963,300L268.35,300L269.738,300L271.125,300L272.513,300L273.9,300L275.287,300L276.675,300L278.063,300L279.45,300L280.838,300L282.225,300L283.613,300L285,300L285,300L283.613,300L282.225,300L280.838,300L279.45,300L278.063,300L276.675,300L275.287,300L273.9,300L272.513,300L271.125,300L269.738,300L268.35,300L266.963,300L265.575,300L264.188,300L262.8,300L261.413,300L260.025,300L258.638,300L257.25,300L255.862,300L254.475,300L253.087,300L251.7,300L250.313,300L248.925,300L247.538,300L246.15,300L244.763,300L243.375,300L241.988,300L240.6,300L239.213,300L237.825,300L236.437,300L235.05,300L233.662,300L232.275,300L230.888,300L229.5,300L228.113,300L226.725,300L225.338,300L223.95,300L222.563,300L221.175,300L219.788,300L218.4,300L217.013,300L215.625,300L214.237,300L212.85,300L211.462,300L210.075,300L208.687,300L207.3,300L205.913,300L204.525,300L203.138,300L201.75,300L200.363,300L198.975,300L197.588,300L196.2,300L194.813,300L193.425,300L192.038,300L190.65,300L189.263,300L187.875,300L186.487,300L185.1,300L183.713,300L182.325,300L180.938,300L179.55,300L178.163,300L176.775,300L175.388,300L174,300L172.612,300L171.225,300L169.838,300L168.45,300L167.062,300L165.675,300L164.288,300L162.9,300L161.513,300L160.125,300L158.738,300L157.35,300L155.963,300L154.575,300L153.188,300L151.8,300L150.412,300L149.025,300L147.638,300L146.25,300L144.862,300L143.475,300L142.088,300L140.7,300L139.312,300L137.925,300L136.538,300L135.15,300L133.763,300L132.375,300L130.988,300L129.6,300L128.212,300L126.825,300L125.437,300L124.05,300L122.663,300L121.275,300L119.888,300L118.5,300L117.113,300L115.725,300L114.337,300L112.95,300L111.563,300L110.175,300L108.788,300L107.4,300L106.013,300L104.625,300L103.237,300L101.85,300L100.463,300L99.075,300L97.688,300L96.3,300L94.913,300L93.525,300L92.137,300L90.75,300L89.363,300L87.975,300L86.587,300L85.2,300L83.813,300L82.425,300L81.038,300L79.65,300L78.263,300L76.875,300L75.488,300L74.1,300L72.712,300L71.325,300L69.938,300L68.55,300L67.163,300L65.775,300L64.387,300L63,300L61.612,300L60.225,300L58.837,300L57.45,300L56.062,300L54.675,300L53.288,300L51.9,300L50.512,300L49.125,300L47.738,300L46.35,300L44.963,300L43.575,300L42.188,300L40.8,300L39.412,300L38.025,300L36.638,300L35.25,300L33.863,300L32.475,300L31.088,300L29.7,300L28.313,300L26.925,300L25.537,300L24.15,300L22.763,300L21.375,300L19.988,300L18.6,300L17.213,300L15.825,300L14.438,300L13.05,300L11.662,300L10.275,300L8.888,300L7.5,300Z" fill="#4c78a8" opacity="0.6"/></g></g><path class="foreground" aria-hidden="true" d="" display="none"/></g><g transform="translate(0,0)"><path class="background" aria-hidden="true" d="M0,0h300v300h-300Z"/><g><g class="mark-area role-mark child_marks" role="graphics-symbol" aria-roledescription="area mark container"><path d="M7.5,300L8.888,300L10.275,300L11.662,300L13.05,300L14.438,300L15.825,300L17.213,300L18.6,300L19.988,300L21.375,300L22.763,300L24.15,300L25.537,300L26.925,300L28.313,300L29.7,300L31.088,300L32.475,300L33.863,300L35.25,300L36.638,300L38.025,299.999L39.412,299.998L40.8,299.995L42.188,299.99L43.575,299.98L44.963,299.961L46.35,299.926L47.738,299.866L49.125,299.766L50.512,299.603L51.9,299.35L53.288,298.969L54.675,298.413L56.062,297.631L57.45,296.561L58.837,295.143L60.225,293.313L61.612,291.01L63,288.174L64.387,284.744L65.775,280.657L67.163,275.84L68.55,270.21L69.938,263.675L71.325,256.138L72.712,247.519L74.1,237.768L75.488,226.886L76.875,214.937L78.263,202.051L79.65,188.411L81.038,174.232L82.425,159.725L83.813,145.08L85.2,130.441L86.587,115.914L87.975,101.575L89.363,87.505L90.75,73.811L92.137,60.657L93.525,48.275L94.913,36.966L96.3,27.094L97.688,19.049L99.075,13.22L100.463,9.945L101.85,9.459L103.237,11.853L104.625,17.037L106.013,24.733L107.4,34.496L108.788,45.759L110.175,57.902L111.563,70.328L112.95,82.525L114.337,94.107L115.725,104.832L117.113,114.586L118.5,123.359L119.888,131.208L121.275,138.23L122.663,144.546L124.05,150.291L125.437,155.618L126.825,160.7L128.212,165.724L129.6,170.883L130.988,176.35L132.375,182.256L133.763,188.661L135.15,195.535L136.538,202.753L137.925,210.106L139.312,217.329L140.7,224.148L142.088,230.321L143.475,235.685L144.862,240.18L146.25,243.859L147.638,246.871L149.025,249.428L150.412,251.756L151.8,254.056L153.188,256.463L154.575,259.031L155.963,261.74L157.35,264.51L158.738,267.237L160.125,269.82L161.513,272.187L162.9,274.301L164.288,276.162L165.675,277.794L167.062,279.228L168.45,280.495L169.838,281.615L171.225,282.603L172.612,283.47L174,284.228L175.388,284.898L176.775,285.504L178.163,286.073L179.55,286.631L180.938,287.197L182.325,287.777L183.713,288.369L185.1,288.955L186.487,289.511L187.875,290.009L189.263,290.426L190.65,290.751L192.038,290.99L193.425,291.17L194.813,291.333L196.2,291.525L197.588,291.789L198.975,292.153L200.363,292.621L201.75,293.174L203.138,293.779L204.525,294.393L205.913,294.977L207.3,295.505L208.687,295.963L210.075,296.35L211.462,296.674L212.85,296.944L214.237,297.165L215.625,297.337L217.013,297.46L218.4,297.534L219.788,297.562L221.175,297.557L222.563,297.539L223.95,297.531L225.338,297.558L226.725,297.636L228.113,297.776L229.5,297.975L230.888,298.221L232.275,298.495L233.662,298.777L235.05,299.044L236.437,299.283L237.825,299.484L239.213,299.644L240.6,299.764L241.988,299.85L243.375,299.909L244.763,299.947L246.15,299.97L247.538,299.984L248.925,299.992L250.313,299.996L251.7,299.998L253.087,299.999L254.475,300L255.862,300L257.25,300L258.638,300L260.025,300L261.413,300L262.8,300L264.188,300L265.575,300L266.963,300L268.35,300L269.738,300L271.125,300L272.513,300L273.9,300L275.287,300L276.675,300L278.063,300L279.45,300L280.838,300L282.225,300L283.613,300L285,300L285,300L283.613,300L282.225,300L280.838,300L279.45,300L278.063,300L276.675,300L275.287,300L273.9,300L272.513,300L271.125,300L269.738,300L268.35,300L266.963,300L265.575,300L264.188,300L262.8,300L261.413,300L260.025,300L258.638,300L257.25,300L255.862,300L254.475,300L253.087,300L251.7,300L250.313,300L248.925,300L247.538,300L246.15,300L244.763,300L243.375,300L241.988,300L240.6,300L239.213,300L237.825,300L236.437,300L235.05,300L233.662,300L232.275,300L230.888,300L229.5,300L228.113,300L226.725,300L225.338,300L223.95,300L222.563,300L221.175,300L219.788,300L218.4,300L217.013,300L215.625,300L214.237,300L212.85,300L211.462,300L210.075,300L208.687,300L207.3,300L205.913,300L204.525,300L203.138,300L201.75,300L200.363,300L198.975,300L197.588,300L196.2,300L194.813,300L193.425,300L192.038,300L190.65,300L189.263,300L187.875,300L186.487,300L185.1,300L183.713,300L182.325,300L180.938,300L179.55,300L178.163,300L176.775,300L175.388,300L174,300L172.612,300L171.225,300L169.838,300L168.45,300L167.062,300L165.675,300L164.288,300L162.9,300L161.513,300L160.125,300L158.738,300L157.35,300L155.963,300L154.575,300L153.188,300L151.8,300L150.412,300L149.025,300L147.638,300L146.25,300L144.862,300L143.475,300L142.088,300L140.7,300L139.312,300L137.925,300L136.538,300L135.15,300L133.763,300L132.375,300L130.988,300L129.6,300L128.212,300L126.825,300L125.437,300L124.05,300L122.663,300L121.275,300L119.888,300L118.5,300L117.113,300L115.725,300L114.337,300L112.95,300L111.563,300L110.175,300L108.788,300L107.4,300L106.013,300L104.625,300L103.237,300L101.85,300L100.463,300L99.075,300L97.688,300L96.3,300L94.913,300L93.525,300L92.137,300L90.75,300L89.363,300L87.975,300L86.587,300L85.2,300L83.813,300L82.425,300L81.038,300L79.65,300L78.263,300L76.875,300L75.488,300L74.1,300L72.712,300L71.325,300L69.938,300L68.55,300L67.163,300L65.775,300L64.387,300L63,300L61.612,300L60.225,300L58.837,300L57.45,300L56.062,300L54.675,300L53.288,300L51.9,300L50.512,300L49.125,300L47.738,300L46.35,300L44.963,300L43.575,300L42.188,300L40.8,300L39.412,300L38.025,300L36.638,300L35.25,300L33.863,300L32.475,300L31.088,300L29.7,300L28.313,300L26.925,300L25.537,300L24.15,300L22.763,300L21.375,300L19.988,300L18.6,300L17.213,300L15.825,300L14.438,300L13.05,300L11.662,300L10.275,300L8.888,300L7.5,300Z" fill="#f58518" opacity="0.6"/></g></g><path class="foreground" aria-hidden="true" d="" display="none"/></g><g transform="translate(0,0)"><path class="background" aria-hidden="true" d="M0,0h300v300h-300Z"/><g><g class="mark-area role-mark child_marks" role="graphics-symbol" aria-roledescription="area mark container"><path d="M7.5,300L8.888,300L10.275,300L11.662,300L13.05,300L14.438,300L15.825,300L17.213,300L18.6,300L19.988,300L21.375,300L22.763,300L24.15,300L25.537,300L26.925,300L28.313,300L29.7,300L31.088,300L32.475,300L33.863,299.999L35.25,299.999L36.638,299.998L38.025,299.997L39.412,299.996L40.8,299.994L42.188,299.991L43.575,299.986L44.963,299.981L46.35,299.973L47.738,299.961L49.125,299.947L50.512,299.927L51.9,299.9L53.288,299.866L54.675,299.822L56.062,299.767L57.45,299.696L58.837,299.609L60.225,299.501L61.612,299.371L63,299.214L64.387,299.027L65.775,298.807L67.163,298.553L68.55,298.26L69.938,297.927L71.325,297.554L72.712,297.139L74.1,296.683L75.488,296.187L76.875,295.654L78.263,295.086L79.65,294.487L81.038,293.86L82.425,293.209L83.813,292.538L85.2,291.847L86.587,291.14L87.975,290.416L89.363,289.672L90.75,288.907L92.137,288.113L93.525,287.285L94.913,286.415L96.3,285.492L97.688,284.508L99.075,283.452L100.463,282.316L101.85,281.091L103.237,279.771L104.625,278.351L106.013,276.831L107.4,275.209L108.788,273.491L110.175,271.681L111.563,269.788L112.95,267.824L114.337,265.802L115.725,263.738L117.113,261.649L118.5,259.554L119.888,257.474L121.275,255.428L122.663,253.439L124.05,251.53L125.437,249.722L126.825,248.038L128.212,246.498L129.6,245.124L130.988,243.934L132.375,242.946L133.763,242.175L135.15,241.634L136.538,241.334L137.925,241.282L139.312,241.482L140.7,241.934L142.088,242.633L143.475,243.571L144.862,244.735L146.25,246.108L147.638,247.666L149.025,249.384L150.412,251.234L151.8,253.182L153.188,255.196L154.575,257.242L155.963,259.287L157.35,261.298L158.738,263.249L160.125,265.113L161.513,266.871L162.9,268.506L164.288,270.008L165.675,271.372L167.062,272.596L168.45,273.684L169.838,274.643L171.225,275.482L172.612,276.214L174,276.851L175.388,277.41L176.775,277.904L178.163,278.348L179.55,278.756L180.938,279.143L182.325,279.519L183.713,279.896L185.1,280.283L186.487,280.687L187.875,281.112L189.263,281.563L190.65,282.041L192.038,282.544L193.425,283.07L194.813,283.615L196.2,284.174L197.588,284.741L198.975,285.31L200.363,285.874L201.75,286.429L203.138,286.968L204.525,287.49L205.913,287.99L207.3,288.47L208.687,288.929L210.075,289.369L211.462,289.794L212.85,290.208L214.237,290.615L215.625,291.02L217.013,291.426L218.4,291.837L219.788,292.256L221.175,292.685L222.563,293.123L223.95,293.571L225.338,294.026L226.725,294.485L228.113,294.945L229.5,295.401L230.888,295.849L232.275,296.284L233.662,296.702L235.05,297.099L236.437,297.471L237.825,297.816L239.213,298.132L240.6,298.417L241.988,298.671L243.375,298.895L244.763,299.09L246.15,299.256L247.538,299.396L248.925,299.512L250.313,299.606L251.7,299.68L253.087,299.736L254.475,299.775L255.862,299.799L257.25,299.81L258.638,299.809L260.025,299.795L261.413,299.771L262.8,299.737L264.188,299.692L265.575,299.639L266.963,299.578L268.35,299.509L269.738,299.434L271.125,299.354L272.513,299.272L273.9,299.189L275.287,299.108L276.675,299.031L278.063,298.96L279.45,298.899L280.838,298.848L282.225,298.811L283.613,298.788L285,298.78L285,300L283.613,300L282.225,300L280.838,300L279.45,300L278.063,300L276.675,300L275.287,300L273.9,300L272.513,300L271.125,300L269.738,300L268.35,300L266.963,300L265.575,300L264.188,300L262.8,300L261.413,300L260.025,300L258.638,300L257.25,300L255.862,300L254.475,300L253.087,300L251.7,300L250.313,300L248.925,300L247.538,300L246.15,300L244.763,300L243.375,300L241.988,300L240.6,300L239.213,300L237.825,300L236.437,300L235.05,300L233.662,300L232.275,300L230.888,300L229.5,300L228.113,300L226.725,300L225.338,300L223.95,300L222.563,300L221.175,300L219.788,300L218.4,300L217.013,300L215.625,300L214.237,300L212.85,300L211.462,300L210.075,300L208.687,300L207.3,300L205.913,300L204.525,300L203.138,300L201.75,300L200.363,300L198.975,300L197.588,300L196.2,300L194.813,300L193.425,300L192.038,300L190.65,300L189.263,300L187.875,300L186.487,300L185.1,300L183.713,300L182.325,300L180.938,300L179.55,300L178.163,300L176.775,300L175.388,300L174,300L172.612,300L171.225,300L169.838,300L168.45,300L167.062,300L165.675,300L164.288,300L162.9,300L161.513,300L160.125,300L158.738,300L157.35,300L155.963,300L154.575,300L153.188,300L151.8,300L150.412,300L149.025,300L147.638,300L146.25,300L144.862,300L143.475,300L142.088,300L140.7,300L139.312,300L137.925,300L136.538,300L135.15,300L133.763,300L132.375,300L130.988,300L129.6,300L128.212,300L126.825,300L125.437,300L124.05,300L122.663,300L121.275,300L119.888,300L118.5,300L117.113,300L115.725,300L114.337,300L112.95,300L111.563,300L110.175,300L108.788,300L107.4,300L106.013,300L104.625,300L103.237,300L101.85,300L100.463,300L99.075,300L97.688,300L96.3,300L94.913,300L93.525,300L92.137,300L90.75,300L89.363,300L87.975,300L86.587,300L85.2,300L83.813,300L82.425,300L81.038,300L79.65,300L78.263,300L76.875,300L75.488,300L74.1,300L72.712,300L71.325,300L69.938,300L68.55,300L67.163,300L65.775,300L64.387,300L63,300L61.612,300L60.225,300L58.837,300L57.45,300L56.062,300L54.675,300L53.288,300L51.9,300L50.512,300L49.125,300L47.738,300L46.35,300L44.963,300L43.575,300L42.188,300L40.8,300L39.412,300L38.025,300L36.638,300L35.25,300L33.863,300L32.475,300L31.088,300L29.7,300L28.313,300L26.925,300L25.537,300L24.15,300L22.763,300L21.375,300L19.988,300L18.6,300L17.213,300L15.825,300L14.438,300L13.05,300L11.662,300L10.275,300L8.888,300L7.5,300Z" fill="#e45756" opacity="0.6"/></g></g><path class="foreground" aria-hidden="true" d="" display="none"/></g></g><g class="mark-group role-title"><g transform="translate(150,-20)"><path class="background" aria-hidden="true" d="M0,0h0v0h0Z" pointer-events="none"/><g><g class="mark-text role-title-text" role="graphics-symbol" aria-roledescription="title" aria-label="Title text 'United States of America'" pointer-events="none"><text text-anchor="middle" transform="translate(0,8)" font-family="sans-serif" font-size="10px" fill="#000" opacity="1">United States of America</text></g></g><path class="foreground" aria-hidden="true" d="" pointer-events="none" display="none"/></g></g></g><path class="foreground" aria-hidden="true" d="" display="none"/></g></g><g class="mark-group role-legend" role="graphics-symbol" aria-roledescription="legend" aria-label="Symbol legend titled 'genres' for fill color with 3 values: Animation, Fantasy, History"><g transform="translate(641,0)"><path class="background" aria-hidden="true" d="M0,0h61v53h-61Z" pointer-events="none"/><g><g class="mark-group role-legend-entry"><g transform="translate(0,16)"><path class="background" aria-hidden="true" d="M0,0h0v0h0Z" pointer-events="none"/><g><g class="mark-group role-scope" role="graphics-object" aria-roledescription="group mark container"><g transform="translate(0,0)"><path class="background" aria-hidden="true" d="M0,0h60.4677734375v11h-60.4677734375Z" pointer-events="none" opacity="1"/><g><g class="mark-symbol role-legend-symbol" pointer-events="none"><path transform="translate(6,6)" d="M5,0A5,5,0,1,1,-5,0A5,5,0,1,1,5,0" fill="#4c78a8" stroke-width="1.5" opacity="0.6"/></g><g class="mark-text role-legend-label" pointer-events="none"><text text-anchor="start" transform="translate(16,9)" font-family="sans-serif" font-size="10px" fill="#000" opacity="1">Animation</text></g></g><path class="foreground" aria-hidden="true" d="" pointer-events="none" display="none"/></g><g transform="translate(0,13)"><path class="background" aria-hidden="true" d="M0,0h60.4677734375v11h-60.4677734375Z" pointer-events="none" opacity="1"/><g><g class="mark-symbol role-legend-symbol" pointer-events="none"><path transform="translate(6,6)" d="M5,0A5,5,0,1,1,-5,0A5,5,0,1,1,5,0" fill="#f58518" stroke-width="1.5" opacity="0.6"/></g><g class="mark-text role-legend-label" pointer-events="none"><text text-anchor="start" transform="translate(16,9)" font-family="sans-serif" font-size="10px" fill="#000" opacity="1">Fantasy</text></g></g><path class="foreground" aria-hidden="true" d="" pointer-events="none" display="none"/></g><g transform="translate(0,26)"><path class="background" aria-hidden="true" d="M0,0h60.4677734375v11h-60.4677734375Z" pointer-events="none" opacity="1"/><g><g class="mark-symbol role-legend-symbol" pointer-events="none"><path transform="translate(6,6)" d="M5,0A5,5,0,1,1,-5,0A5,5,0,1,1,5,0" fill="#e45756" stroke-width="1.5" opacity="0.6"/></g><g class="mark-text role-legend-label" pointer-events="none"><text text-anchor="start" transform="translate(16,9)" font-family="sans-serif" font-size="10px" fill="#000" opacity="1">History</text></g></g><path class="foreground" aria-hidden="true" d="" pointer-events="none" display="none"/></g></g></g><path class="foreground" aria-hidden="true" d="" pointer-events="none" display="none"/></g></g><g class="mark-text role-legend-title" pointer-events="none"><text text-anchor="start" transform="translate(0,9)" font-family="sans-serif" font-size="11px" font-weight="bold" fill="#000" opacity="1">genres</text></g></g><path class="foreground" aria-hidden="true" d="" pointer-events="none" display="none"/></g></g></g><path class="foreground" aria-hidden="true" d="" display="none"/></g></g></g></svg>