<svg xmlns="http://www.w3.org/2000/svg" xmlns:xlink="http://www.w3.org/1999/xlink" version="1.1" class="marks" width="752" height="385" viewBox="0 0 752 385"><rect width="752" height="385" fill="white"/><g fill="none" stroke-miterlimit="10" transform="translate(45,47)"><g class="mark-group role-frame root" role="graphics-object" aria-roledescription="group mark container"><g transform="translate(0,0)"><path class="background" aria-hidden="true" d="M0,0h0v0h0Z"/><g><g class="mark-group role-column-title facet-title" role="graphics-object" aria-roledescription="group mark container"><g transform="translate(311,-21)"><path class="background" aria-hidden="true" d="M0,0h0v0h0Z"/><g><g class="mark-group role-title"><g transform="translate(0,-21)"><path class="background" aria-hidden="true" d="M0,0h0v0h0Z" pointer-events="none"/><g><g class="mark-text role-title-text" role="graphics-symbol" aria-roledescription="title" aria-label="Title text 'countries'" pointer-events="none"><text text-anchor="middle" transform="translate(0,9)" font-family="sans-serif" font-size="11px" font-weight="bold" fill="#000" opacity="1">countries</text></g></g><path class="foreground" aria-hidden="true" d="" pointer-events="none" display="none"/></g></g></g><path class="foreground" aria-hidden="true" d="" display="none"/></g></g><g class="mark-group role-row-header row_header" role="graphics-object" aria-roledescription="group mark container"><g transform="translate(-1,0)"><path class="background" aria-hidden="true" d="M0,0h0v300h0Z"/><g><g class="mark-group role-axis" role="graphics-symbol" aria-roledescription="axis" aria-label="Y-axis titled 'Count of Records' for a linear scale with values from 0 to 180"><g transform="translate(0.5,0.5)"><path class="background" aria-hidden="true" d="M0,0h0v0h0Z" pointer-events="none"/><g><g class="mark-rule role-axis-tick" pointer-events="none"><line transform="translate(0,300)" x2="-5" y2="0" stroke="#888" stroke-width="1" opacity="1"/><line transform="translate(0,267)" x2="-5" y2="0" stroke="#888" stroke-width="1" opacity="1"/><line transform="translate(0,233)" x2="-5" y2="0" stroke="#888" stroke-width="1" opacity="1"/><line transform="translate(0,200)" x2="-5" y2="0" stroke="#888" stroke-width="1" opacity="1"/><line transform="translate(0,167)" x2="-5" y2="0" stroke="#888" stroke-width="1" opacity="1"/><line transform="translate(0,133)" x2="-5" y2="0" stroke="#888" stroke-width="1" opacity="1"/><line transform="translate(0,100)" x2="-5" y2="0" stroke="#888" stroke-width="1" opacity="1"/><line transform="translate(0,67)" x2="-5" y2="0" stroke="#888" stroke-width="1" opacity="1"/><line transform="translate(0,33)" x2="-5" y2="0" stroke="#888" stroke-width="1" opacity="1"/><line transform="translate(0,0)" x2="-5" y2="0" stroke="#888" stroke-width="1" opacity="1"/></g><g class="mark-text role-axis-label" pointer-events="none"><text text-anchor="end" transform="translate(-7,303)" font-family="sans-serif" font-size="10px" fill="#000" opacity="1">0</text><text text-anchor="end" transform="translate(-7,269.66666666666663)" font-family="sans-serif" font-size="10px" fill="#000" opacity="1">20</text><text text-anchor="end" transform="translate(-7,236.33333333333334)" font-family="sans-serif" font-size="10px" fill="#000" opacity="1">40</text><text text-anchor="end" transform="translate(-7,203.00000000000003)" font-family="sans-serif" font-size="10px" fill="#000" opacity="1">60</text><text text-anchor="end" transform="translate(-7,169.66666666666669)" font-family="sans-serif" font-size="10px" fill="#000" opacity="1">80</text><text text-anchor="end" transform="translate(-7,136.33333333333331)" font-family="sans-serif" font-size="10px" fill="#000" opacity="1">100</text><text text-anchor="end" transform="translate(-7,103.00000000000001)" font-family="sans-serif" font-size="10px" fill="#000" opacity="1">120</text><text text-anchor="end" transform="translate(-7,69.66666666666666)" font-family="sans-serif" font-size="10px" fill="#000" opacity="1">140</text><text text-anchor="end" transform="translate(-7,36.33333333333335)" font-family="sans-serif" font-size="10px" fill="#000" opacity="1">160</text><text text-anchor="end" transform="translate(-7,3)" font-family="sans-serif" font-size="10px" fill="#000" opacity="1">180</text></g><g class="mark-rule role-axis-domain" pointer-events="none"><line transform="translate(0,300)" x2="0" y2="-300" stroke="#888" stroke-width="1" opacity="1"/></g><g class="mark-text role-axis-title" pointer-events="none"><text text-anchor="middle" transform="translate(-27.6845703125,150) rotate(-90) translate(0,-2)" font-family="sans-serif" font-size="11px" font-weight="bold" fill="#000" opacity="1">Count of Records</text></g></g><path class="foreground" aria-hidden="true" d="" pointer-events="none" display="none"/></g></g></g><path class="foreground" aria-hidden="true" d="" display="none"/></g></g><g class="mark-group role-column-footer column_footer" role="graphics-object" aria-roledescription="group mark container"><g transform="translate(0,301)"><path class="background" aria-hidden="true" d="M0,0h300v0h-300Z"/><g><g class="mark-group role-axis" role="graphics-symbol" aria-roledescription="axis" aria-label="X-axis titled 'runtime (binned)' for a linear scale with values from 20 to 250"><g transform="translate(0.5,0.5)"><path class="background" aria-hidden="true" d="M0,0h0v0h0Z" pointer-events="none"/><g><g class="mark-rule role-axis-tick" pointer-events="none"><line transform="translate(0,0)" x2="0" y2="5" stroke="#888" stroke-width="1" opacity="1"/><line transform="translate(13,0)" x2="0" y2="5" stroke="#888" stroke-width="1" opacity="1"/><line transform="translate(26,0)" x2="0" y2="5" stroke="#888" stroke-width="1" opacity="1"/><line transform="translate(39,0)" x2="0" y2="5" stroke="#888" stroke-width="1" opacity="1"/><line transform="translate(52,0)" x2="0" y2="5" stroke="#888" stroke-width="1" opacity="1"/><line transform="translate(65,0)" x2="0" y2="5" stroke="#888" stroke-width="1" opacity="1"/><line transform="translate(78,0)" x2="0" y2="5" stroke="#888" stroke-width="1" opacity="1"/><line transform="translate(91,0)" x2="0" y2="5" stroke="#888" stroke-width="1" opacity="1"/><line transform="translate(104,0)" x2="0" y2="5" stroke="#888" stroke-width="1" opacity="1"/><line transform="translate(117,0)" x2="0" y2="5" stroke="#888" stroke-width="1" opacity="1"/><line transform="translate(130,0)" x2="0" y2="5" stroke="#888" stroke-width="1" opacity="1"/><line transform="translate(143,0)" x2="0" y2="5" stroke="#888" stroke-width="1" opacity="1"/><line transform="translate(157,0)" x2="0" y2="5" stroke="#888" stroke-width="1" opacity="1"/><line transform="translate(170,0)" x2="0" y2="5" stroke="#888" stroke-width="1" opacity="1"/><line transform="translate(183,0)" x2="0" y2="5" stroke="#888" stroke-width="1" opacity="1"/><line transform="translate(196,0)" x2="0" y2="5" stroke="#888" stroke-width="1" opacity="1"/><line transform="translate(209,0)" x2="0" y2="5" stroke="#888" stroke-width="1" opacity="1"/><line transform="translate(222,0)" x2="0" y2="5" stroke="#888" stroke-width="1" opacity="1"/><line transform="translate(235,0)" x2="0" y2="5" stroke="#888" stroke-width="1" opacity="1"/><line transform="translate(248,0)" x2="0" y2="5" stroke="#888" stroke-width="1" opacity="1"/><line transform="translate(261,0)" x2="0" y2="5" stroke="#888" stroke-width="1" opacity="1"/><line transform="translate(274,0)" x2="0" y2="5" stroke="#888" stroke-width="1" opacity="1"/><line transform="translate(287,0)" x2="0" y2="5" stroke="#888" stroke-width="1" opacity="1"/><line transform="translate(300,0)" x2="0" y2="5" stroke="#888" stroke-width="1" opacity="1"/></g><g class="mark-text role-axis-label" pointer-events="none"><text text-anchor="start" transform="translate(0,15)" font-family="sans-serif" font-size="10px" fill="#000" opacity="1">20</text><text text-anchor="middle" transform="translate(13.043478260869565,15)" font-family="sans-serif" font-size="10px" fill="#000" opacity="0">30</text><text text-anchor="middle" transform="translate(26.08695652173913,15)" font-family="sans-serif" font-size="10px" fill="#000" opacity="1">40</text><text text-anchor="middle" transform="translate(39.130434782608695,15)" font-family="sans-serif" font-size="10px" fill="#000" opacity="0">50</text><text text-anchor="middle" transform="translate(52.17391304347826,15)" font-family="sans-serif" font-size="10px" fill="#000" opacity="1">60</text><text text-anchor="middle" transform="translate(65.21739130434783,15)" font-family="sans-serif" font-size="10px" fill="#000" opacity="0">70</text><text text-anchor="middle" transform="translate(78.26086956521739,15)" font-family="sans-serif" font-size="10px" fill="#000" opacity="1">80</text><text text-anchor="middle" transform="translate(91.30434782608697,15)" font-family="sans-serif" font-size="10px" fill="#000" opacity="0">90</text><text text-anchor="middle" transform="translate(104.34782608695652,15)" font-family="sans-serif" font-size="10px" fill="#000" opacity="1">100</text><text text-anchor="middle" transform="translate(117.3913043478261,15)" font-family="sans-serif" font-size="10px" fill="#000" opacity="0">110</text><text text-anchor="middle" transform="translate(130.43478260869566,15)" font-family="sans-serif" font-size="10px" fill="#000" opacity="1">120</text><text text-anchor="middle" transform="translate(143.47826086956522,15)" font-family="sans-serif" font-size="10px" fill="#000" opacity="0">130</text><text text-anchor="middle" transform="translate(156.52173913043478,15)" font-family="sans-serif" font-size="10px" fill="#000" opacity="1">140</text><text text-anchor="middle" transform="translate(169.56521739130434,15)" font-family="sans-serif" font-size="10px" fill="#000" opacity="0">150</text><text text-anchor="middle" transform="translate(182.60869565217394,15)" font-family="sans-serif" font-size="10px" fill="#000" opacity="1">160</text><text text-anchor="middle" transform="translate(195.65217391304347,15)" font-family="sans-serif" font-size="10px" fill="#000" opacity="0">170</text><text text-anchor="middle" transform="translate(208.69565217391303,15)" font-family="sans-serif" font-size="10px" fill="#000" opacity="1">180</text><text text-anchor="middle" transform="translate(221.7391304347826,15)" font-family="sans-serif" font-size="10px" fill="#000" opacity="0">190</text><text text-anchor="middle" transform="translate(234.7826086956522,15)" font-family="sans-serif" font-size="10px" fill="#000" opacity="1">200</text><text text-anchor="middle" transform="translate(247.82608695652175,15)" font-family="sans-serif" font-size="10px" fill="#000" opacity="0">210</text><text text-anchor="middle" transform="translate(260.8695652173913,15)" font-family="sans-serif" font-size="10px" fill="#000" opacity="1">220</text><text text-anchor="middle" transform="translate(273.9130434782609,15)" font-family="sans-serif" font-size="10px" fill="#000" opacity="0">230</text><text text-anchor="middle" transform="translate(286.95652173913044,15)" font-family="sans-serif" font-size="10px" fill="#000" opacity="1">240</text><text text-anchor="end" transform="translate(300,15)" font-family="sans-serif" font-size="10px" fill="#000" opacity="0">250</text></g><g class="mark-rule role-axis-domain" pointer-events="none"><line transform="translate(0,0)" x2="300" y2="0" stroke="#888" stroke-width="1" opacity="1"/></g><g class="mark-text role-axis-title" pointer-events="none"><text text-anchor="middle" transform="translate(150,30)" font-family="sans-serif" font-size="11px" font-weight="bold" fill="#000" opacity="1">runtime (binned)</text></g></g><path class="foreground" aria-hidden="true" d="" pointer-events="none" display="none"/></g></g></g><path class="foreground" aria-hidden="true" d="" display="none"/></g><g transform="translate(322,301)"><path class="background" aria-hidden="true" d="M0,0h300v0h-300Z"/><g><g class="mark-group role-axis" role="graphics-symbol" aria-roledescription="axis" aria-label="X-axis titled 'runtime (binned)' for a linear scale with values from 20 to 250"><g transform="translate(0.5,0.5)"><path class="background" aria-hidden="true" d="M0,0h0v0h0Z" pointer-events="none"/><g><g class="mark-rule role-axis-tick" pointer-events="none"><line transform="translate(0,0)" x2="0" y2="5" stroke="#888" stroke-width="1" opacity="1"/><line transform="translate(13,0)" x2="0" y2="5" stroke="#888" stroke-width="1" opacity="1"/><line transform="translate(26,0)" x2="0" y2="5" stroke="#888" stroke-width="1" opacity="1"/><line transform="translate(39,0)" x2="0" y2="5" stroke="#888" stroke-width="1" opacity="1"/><line transform="translate(52,0)" x2="0" y2="5" stroke="#888" stroke-width="1" opacity="1"/><line transform="translate(65,0)" x2="0" y2="5" stroke="#888" stroke-width="1" opacity="1"/><line transform="translate(78,0)" x2="0" y2="5" stroke="#888" stroke-width="1" opacity="1"/><line transform="translate(91,0)" x2="0" y2="5" stroke="#888" stroke-width="1" opacity="1"/><line transform="translate(104,0)" x2="0" y2="5" stroke="#888" stroke-width="1" opacity="1"/><line transform="translate(117,0)" x2="0" y2="5" stroke="#888" stroke-width="1" opacity="1"/><line transform="translate(130,0)" x2="0" y2="5" stroke="#888" stroke-width="1" opacity="1"/><line transform="translate(143,0)" x2="0" y2="5" stroke="#888" stroke-width="1" opacity="1"/><line transform="translate(157,0)" x2="0" y2="5" stroke="#888" stroke-width="1" opacity="1"/><line transform="translate(170,0)" x2="0" y2="5" stroke="#888" stroke-width="1" opacity="1"/><line transform="translate(183,0)" x2="0" y2="5" stroke="#888" stroke-width="1" opacity="1"/><line transform="translate(196,0)" x2="0" y2="5" stroke="#888" stroke-width="1" opacity="1"/><line transform="translate(209,0)" x2="0" y2="5" stroke="#888" stroke-width="1" opacity="1"/><line transform="translate(222,0)" x2="0" y2="5" stroke="#888" stroke-width="1" opacity="1"/><line transform="translate(235,0)" x2="0" y2="5" stroke="#888" stroke-width="1" opacity="1"/><line transform="translate(248,0)" x2="0" y2="5" stroke="#888" stroke-width="1" opacity="1"/><line transform="translate(261,0)" x2="0" y2="5" stroke="#888" stroke-width="1" opacity="1"/><line transform="translate(274,0)" x2="0" y2="5" stroke="#888" stroke-width="1" opacity="1"/><line transform="translate(287,0)" x2="0" y2="5" stroke="#888" stroke-width="1" opacity="1"/><line transform="translate(300,0)" x2="0" y2="5" stroke="#888" stroke-width="1" opacity="1"/></g><g class="mark-text role-axis-label" pointer-events="none"><text text-anchor="start" transform="translate(0,15)" font-family="sans-serif" font-size="10px" fill="#000" opacity="1">20</text><text text-anchor="middle" transform="translate(13.043478260869565,15)" font-family="sans-serif" font-size="10px" fill="#000" opacity="0">30</text><text text-anchor="middle" transform="translate(26.08695652173913,15)" font-family="sans-serif" font-size="10px" fill="#000" opacity="1">40</text><text text-anchor="middle" transform="translate(39.130434782608695,15)" font-family="sans-serif" font-size="10px" fill="#000" opacity="0">50</text><text text-anchor="middle" transform="translate(52.17391304347826,15)" font-family="sans-serif" font-size="10px" fill="#000" opacity="1">60</text><text text-anchor="middle" transform="translate(65.21739130434783,15)" font-family="sans-serif" font-size="10px" fill="#000" opacity="0">70</text><text text-anchor="middle" transform="translate(78.26086956521739,15)" font-family="sans-serif" font-size="10px" fill="#000" opacity="1">80</text><text text-anchor="middle" transform="translate(91.30434782608697,15)" font-family="sans-serif" font-size="10px" fill="#000" opacity="0">90</text><text text-anchor="middle" transform="translate(104.34782608695652,15)" font-family="sans-serif" font-size="10px" fill="#000" opacity="1">100</text><text text-anchor="middle" transform="translate(117.3913043478261,15)" font-family="sans-serif" font-size="10px" fill="#000" opacity="0">110</text><text text-anchor="middle" transform="translate(130.43478260869566,15)" font-family="sans-serif" font-size="10px" fill="#000" opacity="1">120</text><text text-anchor="middle" transform="translate(143.47826086956522,15)" font-family="sans-serif" font-size="10px" fill="#000" opacity="0">130</text><text text-anchor="middle" transform="translate(156.52173913043478,15)" font-family="sans-serif" font-size="10px" fill="#000" opacity="1">140</text><text text-anchor="middle" transform="translate(169.56521739130434,15)" font-family="sans-serif" font-size="10px" fill="#000" opacity="0">150</text><text text-anchor="middle" transform="translate(182.60869565217394,15)" font-family="sans-serif" font-size="10px" fill="#000" opacity="1">160</text><text text-anchor="middle" transform="translate(195.65217391304347,15)" font-family="sans-serif" font-size="10px" fill="#000" opacity="0">170</text><text text-anchor="middle" transform="translate(208.69565217391303,15)" font-family="sans-serif" font-size="10px" fill="#000" opacity="1">180</text><text text-anchor="middle" transform="translate(221.7391304347826,15)" font-family="sans-serif" font-size="10px" fill="#000" opacity="0">190</text><text text-anchor="middle" transform="translate(234.7826086956522,15)" font-family="sans-serif" font-size="10px" fill="#000" opacity="1">200</text><text text-anchor="middle" transform="translate(247.82608695652175,15)" font-family="sans-serif" font-size="10px" fill="#000" opacity="0">210</text><text text-anchor="middle" transform="translate(260.8695652173913,15)" font-family="sans-serif" font-size="10px" fill="#000" opacity="1">220</text><text text-anchor="middle" transform="translate(273.9130434782609,15)" font-family="sans-serif" font-size="10px" fill="#000" opacity="0">230</text><text text-anchor="middle" transform="translate(286.95652173913044,15)" font-family="sans-serif" font-size="10px" fill="#000" opacity="1">240</text><text text-anchor="end" transform="translate(300,15)" font-family="sans-serif" font-size="10px" fill="#000" opacity="0">250</text></g><g class="mark-rule role-axis-domain" pointer-events="none"><line transform="translate(0,0)" x2="300" y2="0" stroke="#888" stroke-width="1" opacity="1"/></g><g class="mark-text role-axis-title" pointer-events="none"><text text-anchor="middle" transform="translate(150,30)" font-family="sans-serif" font-size="11px" font-weight="bold" fill="#000" opacity="1">runtime (binned)</text></g></g><path class="foreground" aria-hidden="true" d="" pointer-events="none" display="none"/></g></g></g><path class="foreground" aria-hidden="true" d="" display="none"/></g></g><g class="mark-group role-scope cell" role="graphics-object" aria-roledescription="group mark container"><g transform="translate(0,0)"><path class="background" aria-hidden="true" d="M0.5,0.5h300v300h-300Z" stroke="#ddd"/><g><g class="mark-group role-axis" aria-hidden="true"><g transform="translate(0.5,0.5)"><path class="background" aria-hidden="true" d="M0,0h0v0h0Z" pointer-events="none"/><g><g class="mark-rule role-axis-grid" pointer-events="none"><line transform="translate(0,300)" x2="300" y2="0" stroke="#ddd" stroke-width="1" opacity="1"/><line transform="translate(0,267)" x2="300" y2="0" stroke="#ddd" stroke-width="1" opacity="1"/><line transform="translate(0,233)" x2="300" y2="0" stroke="#ddd" stroke-width="1" opacity="1"/><line transform="translate(0,200)" x2="300" y2="0" stroke="#ddd" stroke-width="1" opacity="1"/><line transform="translate(0,167)" x2="300" y2="0" stroke="#ddd" stroke-width="1" opacity="1"/><line transform="translate(0,133)" x2="300" y2="0" stroke="#ddd" stroke-width="1" opacity="1"/><line transform="translate(0,100)" x2="300" y2="0" stroke="#ddd" stroke-width="1" opacity="1"/><line transform="translate(0,67)" x2="300" y2="0" stroke="#ddd" stroke-width="1" opacity="1"/><line transform="translate(0,33)" x2="300" y2="0" stroke="#ddd" stroke-width="1" opacity="1"/><line transform="translate(0,0)" x2="300" y2="0" stroke="#ddd" stroke-width="1" opacity="1"/></g></g><path class="foreground" aria-hidden="true" d="" pointer-events="none" display="none"/></g></g><g class="mark-rect role-mark child_marks" role="graphics-symbol" aria-roledescription="rect mark container"><path d="M118.3913043478261,268.33333333333337h12.043478260869563v19.999999999999943h-12.043478260869563Z" fill="#f58518"/><path d="M131.43478260869566,281.6666666666667h12.043478260869563v18.333333333333314h-12.043478260869563Z" fill="#e45756"/><path d="M131.43478260869566,256.6666666666667h12.043478260869563v25h-12.043478260869563Z" fill="#f58518"/><path d="M157.52173913043478,280h12.043478260869563v10h-12.043478260869563Z" fill="#f58518"/><path d="M79.26086956521739,281.6666666666667h12.043478260869577v16.66666666666663h-12.043478260869577Z" fill="#4c78a8"/><path d="M157.52173913043478,290h12.043478260869563v10h-12.043478260869563Z" fill="#e45756"/><path d="M170.56521739130434,291.6666666666667h12.043478260869591v5h-12.043478260869591Z" fill="#f58518"/><path d="M183.60869565217394,295h12.043478260869534v3.3333333333333144h-12.043478260869534Z" fill="#f58518"/><path d="M144.47826086956522,280h12.043478260869563v10h-12.043478260869563Z" fill="#f58518"/><path d="M183.60869565217394,298.3333333333333h12.043478260869534v1.6666666666666856h-12.043478260869534Z" fill="#e45756"/><path d="M92.30434782608697,276.6666666666667h12.043478260869549v21.66666666666663h-12.043478260869549Z" fill="#f58518"/><path d="M222.7391304347826,298.3333333333333h12.043478260869591v1.6666666666666856h-12.043478260869591Z" fill="#e45756"/><path d="M248.82608695652175,298.3333333333333h12.043478260869563v1.6666666666666856h-12.043478260869563Z" fill="#e45756"/><path d="M170.56521739130434,296.6666666666667h12.043478260869591v3.3333333333333144h-12.043478260869591Z" fill="#e45756"/><path d="M105.34782608695652,263.3333333333333h12.043478260869577v28.33333333333337h-12.043478260869577Z" fill="#f58518"/><path d="M144.47826086956522,290h12.043478260869563v10h-12.043478260869563Z" fill="#e45756"/><path d="M196.65217391304347,296.6666666666667h12.043478260869563v3.3333333333333144h-12.043478260869563Z" fill="#e45756"/><path d="M92.30434782608697,298.3333333333333h12.043478260869549v1.6666666666666856h-12.043478260869549Z" fill="#e45756"/><path d="M118.3913043478261,288.3333333333333h12.043478260869563v11.666666666666686h-12.043478260869563Z" fill="#e45756"/><path d="M287.95652173913044,298.3333333333333h12.043478260869563v1.6666666666666856h-12.043478260869563Z" fill="#e45756"/><path d="M92.30434782608697,271.6666666666667h12.043478260869549v5h-12.043478260869549Z" fill="#4c78a8"/><path d="M79.26086956521739,298.3333333333333h12.043478260869577v1.6666666666666856h-12.043478260869577Z" fill="#f58518"/><path d="M66.21739130434783,298.3333333333333h12.043478260869563v1.6666666666666856h-12.043478260869563Z" fill="#4c78a8"/><path d="M105.34782608695652,291.6666666666667h12.043478260869577v8.333333333333314h-12.043478260869577Z" fill="#e45756"/></g><g class="mark-group role-title"><g transform="translate(150,-20)"><path class="background" aria-hidden="true" d="M0,0h0v0h0Z" pointer-events="none"/><g><g class="mark-text role-title-text" role="graphics-symbol" aria-roledescription="title" aria-label="Title text 'United Kingdom'" pointer-events="none"><text text-anchor="middle" transform="translate(0,8)" font-family="sans-serif" font-size="10px" fill="#000" opacity="1">United Kingdom</text></g></g><path class="foreground" aria-hidden="true" d="" pointer-events="none" display="none"/></g></g></g><path class="foreground" aria-hidden="true" d="" display="none"/></g><g transform="translate(322,0)"><path class="background" aria-hidden="true" d="M0.5,0.5h300v300h-300Z" stroke="#ddd"/><g><g class="mark-group role-axis" aria-hidden="true"><g transform="translate(0.5,0.5)"><path class="background" aria-hidden="true" d="M0,0h0v0h0Z" pointer-events="none"/><g><g class="mark-rule role-axis-grid" pointer-events="none"><line transform="translate(0,300)" x2="300" y2="0" stroke="#ddd" stroke-width="1" opacity="1"/><line transform="translate(0,267)" x2="300" y2="0" stroke="#ddd" stroke-width="1" opacity="1"/><line transform="translate(0,233)" x2="300" y2="0" stroke="#ddd" stroke-width="1" opacity="1"/><line transform="translate(0,200)" x2="300" y2="0" stroke="#ddd" stroke-width="1" opacity="1"/><line transform="translate(0,167)" x2="300" y2="0" stroke="#ddd" stroke-width="1" opacity="1"/><line transform="translate(0,133)" x2="300" y2="0" stroke="#ddd" stroke-width="1" opacity="1"/><line transform="translate(0,100)" x2="300" y2="0" stroke="#ddd" stroke-width="1" opacity="1"/><line transform="translate(0,67)" x2="300" y2="0" stroke="#ddd" stroke-width="1" opacity="1"/><line transform="translate(0,33)" x2="300" y2="0" stroke="#ddd" stroke-width="1" opacity="1"/><line transform="translate(0,0)" x2="300" y2="0" stroke="#ddd" stroke-width="1" opacity="1"/></g></g><path class="foreground" aria-hidden="true" d="" pointer-events="none" display="none"/></g></g><g class="mark-rect role-mark child_marks" role="graphics-symbol" aria-roledescription="rect mark container"><path d="M105.34782608695652,75h12.043478260869577v48.33333333333333h-12.043478260869577Z" fill="#4c78a8"/><path d="M157.52173913043478,260h12.043478260869563v20h-12.043478260869563Z" fill="#f58518"/><path d="M79.26086956521739,111.66666666666667h12.043478260869577v116.66666666666664h-12.043478260869577Z" fill="#4c78a8"/><path d="M170.56521739130434,276.6666666666667h12.043478260869591v11.666666666666629h-12.043478260869591Z" fill="#f58518"/><path d="M105.34782608695652,123.33333333333333h12.043478260869577v168.33333333333337h-12.043478260869577Z" fill="#f58518"/><path d="M118.3913043478261,280h12.043478260869563v20h-12.043478260869563Z" fill="#e45756"/><path d="M118.3913043478261,185h12.043478260869563v95h-12.043478260869563Z" fill="#f58518"/><path d="M196.65217391304347,283.3333333333333h12.043478260869563v5h-12.043478260869563Z" fill="#f58518"/><path d="M235.7826086956522,296.6666666666667h12.043478260869563v1.6666666666666288h-12.043478260869563Z" fill="#f58518"/><path d="M144.47826086956522,228.33333333333331h12.043478260869563v1.6666666666666572h-12.043478260869563Z" fill="#4c78a8"/><path d="M144.47826086956522,229.99999999999997h12.043478260869563v33.33333333333334h-12.043478260869563Z" fill="#f58518"/><path d="M196.65217391304347,288.3333333333333h12.043478260869563v11.666666666666686h-12.043478260869563Z" fill="#e45756"/><path d="M131.43478260869566,260h12.043478260869563v40h-12.043478260869563Z" fill="#e45756"/><path d="M131.43478260869566,190h12.043478260869563v70h-12.043478260869563Z" fill="#f58518"/><path d="M183.60869565217394,288.3333333333333h12.043478260869534v11.666666666666686h-12.043478260869534Z" fill="#e45756"/><path d="M183.60869565217394,278.33333333333337h12.043478260869534v9.999999999999943h-12.043478260869534Z" fill="#f58518"/><path d="M222.7391304347826,295h12.043478260869591v5h-12.043478260869591Z" fill="#e45756"/><path d="M92.30434782608697,158.33333333333334h12.043478260869549v133.33333333333334h-12.043478260869549Z" fill="#f58518"/><path d="M209.69565217391303,293.3333333333333h12.043478260869563v1.6666666666666856h-12.043478260869563Z" fill="#f58518"/><path d="M92.30434782608697,31.666666666666654h12.043478260869549v126.66666666666669h-12.043478260869549Z" fill="#4c78a8"/><path d="M170.56521739130434,288.3333333333333h12.043478260869591v11.666666666666686h-12.043478260869591Z" fill="#e45756"/><path d="M209.69565217391303,295h12.043478260869563v5h-12.043478260869563Z" fill="#e45756"/><path d="M79.26086956521739,228.33333333333331h12.043478260869577v70h-12.043478260869577Z" fill="#f58518"/><path d="M157.52173913043478,280h12.043478260869563v20h-12.043478260869563Z" fill="#e45756"/><path d="M144.47826086956522,263.3333333333333h12.043478260869563v36.666666666666686h-12.043478260869563Z" fill="#e45756"/><path d="M118.3913043478261,176.66666666666669h12.043478260869563v8.333333333333314h-12.043478260869563Z" fill="#4c78a8"/><path d="M235.7826086956522,298.3333333333333h12.043478260869563v1.6666666666666856h-12.043478260869563Z" fill="#e45756"/><path d="M92.30434782608697,291.6666666666667h12.043478260869549v8.333333333333314h-12.043478260869549Z" fill="#e45756"/><path d="M66.21739130434783,243.33333333333334h12.043478260869563v44.99999999999997h-12.043478260869563Z" fill="#4c78a8"/><path d="M66.21739130434783,288.3333333333333h12.043478260869563v11.666666666666686h-12.043478260869563Z" fill="#f58518"/><path d="M105.34782608695652,291.6666666666667h12.043478260869577v8.333333333333314h-12.043478260869577Z" fill="#e45756"/><path d="M287.95652173913044,298.3333333333333h12.043478260869563v1.6666666666666856h-12.043478260869563Z" fill="#e45756"/><path d="M79.26086956521739,298.3333333333333h12.043478260869577v1.6666666666666856h-12.043478260869577Z" fill="#e45756"/><path d="M53.17391304347826,296.6666666666667h12.04347826086957v3.3333333333333144h-12.04347826086957Z" fill="#4c78a8"/><path d="M1,298.3333333333333h12.043478260869565v1.6666666666666856h-12.043478260869565Z" fill="#4c78a8"/></g><g class="mark-group role-title"><g transform="translate(150,-20)"><path class="background" aria-hidden="true" d="M0,0h0v0h0Z" pointer-events="none"/><g><g class="mark-text role-title-text" role="graphics-symbol" aria-roledescription="title" aria-label="Title text 'United States of America'" pointer-events="none"><text text-anchor="middle" transform="translate(0,8)" font-family="sans-serif" font-size="10px" fill="#000" opacity="1">United States of America</text></g></g><path class="foreground" aria-hidden="true" d="" pointer-events="none" display="none"/></g></g></g><path class="foreground" aria-hidden="true" d="" display="none"/></g></g><g class="mark-group role-legend" role="graphics-symbol" aria-roledescription="legend" aria-label="Symbol legend titled 'genres' for fill color with 3 values: Animation, Fantasy, History"><g transform="translate(641,0)"><path class="background" aria-hidden="true" d="M0,0h61v53h-61Z" pointer-events="none"/><g><g class="mark-group role-legend-entry"><g transform="translate(0,16)"><path class="background" aria-hidden="true" d="M0,0h0v0h0Z" pointer-events="none"/><g><g class="mark-group role-scope" role="graphics-object" aria-roledescription="group mark container"><g transform="translate(0,0)"><path class="background" aria-hidden="true" d="M0,0h60.4677734375v11h-60.4677734375Z" pointer-events="none" opacity="1"/><g><g class="mark-symbol role-legend-symbol" pointer-events="none"><path transform="translate(6,6)" d="M-5,-5h10v10h-10Z" fill="#4c78a8" stroke-width="1.5" opacity="1"/></g><g class="mark-text role-legend-label" pointer-events="none"><text text-anchor="start" transform="translate(16,9)" font-family="sans-serif" font-size="10px" fill="#000" opacity="1">Animation</text></g></g><path class="foreground" aria-hidden="true" d="" pointer-events="none" display="none"/></g><g transform="translate(0,13)"><path class="background" aria-hidden="true" d="M0,0h60.4677734375v11h-60.4677734375Z" pointer-events="none" opacity="1"/><g><g class="mark-symbol role-legend-symbol" pointer-events="none"><path transform="translate(6,6)" d="M-5,-5h10v10h-10Z" fill="#f58518" stroke-width="1.5" opacity="1"/></g><g class="mark-text role-legend-label" pointer-events="none"><text text-anchor="start" transform="translate(16,9)" font-family="sans-serif" font-size="10px" fill="#000" opacity="1">Fantasy</text></g></g><path class="foreground" aria-hidden="true" d="" pointer-events="none" display="none"/></g><g transform="translate(0,26)"><path class="background" aria-hidden="true" d="M0,0h60.4677734375v11h-60.4677734375Z" pointer-events="none" opacity="1"/><g><g class="mark-symbol role-legend-symbol" pointer-events="none"><path transform="translate(6,6)" d="M-5,-5h10v10h-10Z" fill="#e45756" stroke-width="1.5" opacity="1"/></g><g class="mark-text role-legend-label" pointer-events="none"><text text-anchor="start" transform="translate(16,9)" font-family="sans-serif" font-size="10px" fill="#000" opacity="1">History</text></g></g><path class="foreground" aria-hidden="true" d="" pointer-events="none" display="none"/></g></g></g><path class="foreground" aria-hidden="true" d="" pointer-events="none" display="none"/></g></g><g class="mark-text role-legend-title" pointer-events="none"><text text-anchor="start" transform="translate(0,9)" font-family="sans-serif" font-size="11px" font-weight="bold" fill="#000" opacity="1">genres</text></g></g><path class="foreground" aria-hidden="true" d="" pointer-events="none" display="none"/></g></g></g><path class="foreground" aria-hidden="true" d="" display="none"/></g></g></g></svg>