<svg xmlns="http://www.w3.org/2000/svg" xmlns:xlink="http://www.w3.org/1999/xlink" version="1.1" class="marks" width="755" height="385" viewBox="0 0 755 385"><rect width="755" height="385" fill="white"/><g fill="none" stroke-miterlimit="10" transform="translate(48,47)"><g class="mark-group role-frame root" role="graphics-object" aria-roledescription="group mark container"><g transform="translate(0,0)"><path class="background" aria-hidden="true" d="M0,0h0v0h0Z"/><g><g class="mark-group role-column-title facet-title" role="graphics-object" aria-roledescription="group mark container"><g transform="translate(311,-21)"><path class="background" aria-hidden="true" d="M0,0h0v0h0Z"/><g><g class="mark-group role-title"><g transform="translate(0,-21)"><path class="background" aria-hidden="true" d="M0,0h0v0h0Z" pointer-events="none"/><g><g class="mark-text role-title-text" role="graphics-symbol" aria-roledescription="title" aria-label="Title text 'countries'" pointer-events="none"><text text-anchor="middle" transform="translate(0,9)" font-family="sans-serif" font-size="11px" font-weight="bold" fill="#000" opacity="1">countries</text></g></g><path class="foreground" aria-hidden="true" d="" pointer-events="none" display="none"/></g></g></g><path class="foreground" aria-hidden="true" d="" display="none"/></g></g><g class="mark-group role-row-header row_header" role="graphics-object" aria-roledescription="group mark container"><g transform="translate(-1,0)"><path class="background" aria-hidden="true" d="M0,0h0v300h0Z"/><g><g class="mark-group role-axis" role="graphics-symbol" aria-roledescription="axis" aria-label="Y-axis titled 'density' for a linear scale with values from 0.00 to 0.08"><g transform="translate(0.5,0.5)"><path class="background" aria-hidden="true" d="M0,0h0v0h0Z" pointer-events="none"/><g><g class="mark-rule role-axis-tick" pointer-events="none"><line transform="translate(0,300)" x2="-5" y2="0" stroke="#888" stroke-width="1" opacity="1"/><line transform="translate(0,263)" x2="-5" y2="0" stroke="#888" stroke-width="1" opacity="1"/><line transform="translate(0,225)" x2="-5" y2="0" stroke="#888" stroke-width="1" opacity="1"/><line transform="translate(0,188)" x2="-5" y2="0" stroke="#888" stroke-width="1" opacity="1"/><line transform="translate(0,150)" x2="-5" y2="0" stroke="#888" stroke-width="1" opacity="1"/><line transform="translate(0,113)" x2="-5" y2="0" stroke="#888" stroke-width="1" opacity="1"/><line transform="translate(0,75)" x2="-5" y2="0" stroke="#888" stroke-width="1" opacity="1"/><line transform="translate(0,37)" x2="-5" y2="0" stroke="#888" stroke-width="1" opacity="1"/><line transform="translate(0,0)" x2="-5" y2="0" stroke="#888" stroke-width="1" opacity="1"/></g><g class="mark-text role-axis-label" pointer-events="none"><text text-anchor="end" transform="translate(-7,303)" font-family="sans-serif" font-size="10px" fill="#000" opacity="1">0.00</text><text text-anchor="end" transform="translate(-7,265.5)" font-family="sans-serif" font-size="10px" fill="#000" opacity="1">0.01</text><text text-anchor="end" transform="translate(-7,228)" font-family="sans-serif" font-size="10px" fill="#000" opacity="1">0.02</text><text text-anchor="end" transform="translate(-7,190.5)" font-family="sans-serif" font-size="10px" fill="#000" opacity="1">0.03</text><text text-anchor="end" transform="translate(-7,153)" font-family="sans-serif" font-size="10px" fill="#000" opacity="1">0.04</text><text text-anchor="end" transform="translate(-7,115.5)" font-family="sans-serif" font-size="10px" fill="#000" opacity="1">0.05</text><text text-anchor="end" transform="translate(-7,78)" font-family="sans-serif" font-size="10px" fill="#000" opacity="1">0.06</text><text text-anchor="end" transform="translate(-7,40.499999999999964)" font-family="sans-serif" font-size="10px" fill="#000" opacity="1">0.07</text><text text-anchor="end" transform="translate(-7,3)" font-family="sans-serif" font-size="10px" fill="#000" opacity="1">0.08</text></g><g class="mark-rule role-axis-domain" pointer-events="none"><line transform="translate(0,300)" x2="0" y2="-300" stroke="#888" stroke-width="1" opacity="1"/></g><g class="mark-text role-axis-title" pointer-events="none"><text text-anchor="middle" transform="translate(-30.462890625,150) rotate(-90) translate(0,-2)" font-family="sans-serif" font-size="11px" font-weight="bold" fill="#000" opacity="1">density</text></g></g><path class="foreground" aria-hidden="true" d="" pointer-events="none" display="none"/></g></g></g><path class="foreground" aria-hidden="true" d="" display="none"/></g></g><g class="mark-group role-column-footer column_footer" role="graphics-object" aria-roledescription="group mark container"><g transform="translate(0,301)"><path class="background" aria-hidden="true" d="M0,0h300v0h-300Z"/><g><g class="mark-group role-axis" role="graphics-symbol" aria-roledescription="axis" aria-label="X-axis titled 'runtime' for a linear scale with values from 20 to 260"><g transform="translate(0.5,0.5)"><path class="background" aria-hidden="true" d="M0,0h0v0h0Z" pointer-events="none"/><g><g class="mark-rule role-axis-tick" pointer-events="none"><line transform="translate(0,0)" x2="0" y2="5" stroke="#888" stroke-width="1" opacity="1"/><line transform="translate(25,0)" x2="0" y2="5" stroke="#888" stroke-width="1" opacity="1"/><line transform="translate(50,0)" x2="0" y2="5" stroke="#888" stroke-width="1" opacity="1"/><line transform="translate(75,0)" x2="0" y2="5" stroke="#888" stroke-width="1" opacity="1"/><line transform="translate(100,0)" x2="0" y2="5" stroke="#888" stroke-width="1" opacity="1"/><line transform="translate(125,0)" x2="0" y2="5" stroke="#888" stroke-width="1" opacity="1"/><line transform="translate(150,0)" x2="0" y2="5" stroke="#888" stroke-width="1" opacity="1"/><line transform="translate(175,0)" x2="0" y2="5" stroke="#888" stroke-width="1" opacity="1"/><line transform="translate(200,0)" x2="0" y2="5" stroke="#888" stroke-width="1" opacity="1"/><line transform="translate(225,0)" x2="0" y2="5" stroke="#888" stroke-width="1" opacity="1"/><line transform="translate(250,0)" x2="0" y2="5" stroke="#888" stroke-width="1" opacity="1"/><line transform="translate(275,0)" x2="0" y2="5" stroke="#888" stroke-width="1" opacity="1"/><line transform="translate(300,0)" x2="0" y2="5" stroke="#888" stroke-width="1" opacity="1"/></g><g class="mark-text role-axis-label" pointer-events="none"><text text-anchor="start" transform="translate(0,15)" font-family="sans-serif" font-size="10px" fill="#000" opacity="1">20</text><text text-anchor="middle" transform="translate(25,15)" font-family="sans-serif" font-size="10px" fill="#000" opacity="0">40</text><text text-anchor="middle" transform="translate(50,15)" font-family="sans-serif" font-size="10px" fill="#000" opacity="1">60</text><text text-anchor="middle" transform="translate(75,15)" font-family="sans-serif" font-size="10px" fill="#000" opacity="0">80</text><text text-anchor="middle" transform="translate(100,15)" font-family="sans-serif" font-size="10px" fill="#000" opacity="1">100</text><text text-anchor="middle" transform="translate(125,15)" font-family="sans-serif" font-size="10px" fill="#000" opacity="0">120</text><text text-anchor="middle" transform="translate(150,15)" font-family="sans-serif" font-size="10px" fill="#000" opacity="1">140</text><text text-anchor="middle" transform="translate(175,15)" font-family="sans-serif" font-size="10px" fill="#000" opacity="0">160</text><text text-anchor="middle" transform="translate(200,15)" font-family="sans-serif" font-size="10px" fill="#000" opacity="1">180</text><text text-anchor="middle" transform="translate(225,15)" font-family="sans-serif" font-size="10px" fill="#000" opacity="0">200</text><text text-anchor="middle" transform="translate(250,15)" font-family="sans-serif" font-size="10px" fill="#000" opacity="1">220</text><text text-anchor="middle" transform="translate(275,15)" font-family="sans-serif" font-size="10px" fill="#000" opacity="0">240</text><text text-anchor="end" transform="translate(300,15)" font-family="sans-serif" font-size="10px" fill="#000" opacity="1">260</text></g><g class="mark-rule role-axis-domain" pointer-events="none"><line transform="translate(0,0)" x2="300" y2="0" stroke="#888" stroke-width="1" opacity="1"/></g><g class="mark-text role-axis-title" pointer-events="none"><text text-anchor="middle" transform="translate(150,30)" font-family="sans-serif" font-size="11px" font-weight="bold" fill="#000" opacity="1">runtime</text></g></g><path class="foreground" aria-hidden="true" d="" pointer-events="none" display="none"/></g></g></g><path class="foreground" aria-hidden="true" d="" display="none"/></g><g transform="translate(322,301)"><path class="background" aria-hidden="true" d="M0,0h300v0h-300Z"/><g><g class="mark-group role-axis" role="graphics-symbol" aria-roledescription="axis" aria-label="X-axis titled 'runtime' for a linear scale with values from 20 to 260"><g transform="translate(0.5,0.5)"><path class="background" aria-hidden="true" d="M0,0h0v0h0Z" pointer-events="none"/><g><g class="mark-rule role-axis-tick" pointer-events="none"><line transform="translate(0,0)" x2="0" y2="5" stroke="#888" stroke-width="1" opacity="1"/><line transform="translate(25,0)" x2="0" y2="5" stroke="#888" stroke-width="1" opacity="1"/><line transform="translate(50,0)" x2="0" y2="5" stroke="#888" stroke-width="1" opacity="1"/><line transform="translate(75,0)" x2="0" y2="5" stroke="#888" stroke-width="1" opacity="1"/><line transform="translate(100,0)" x2="0" y2="5" stroke="#888" stroke-width="1" opacity="1"/><line transform="translate(125,0)" x2="0" y2="5" stroke="#888" stroke-width="1" opacity="1"/><line transform="translate(150,0)" x2="0" y2="5" stroke="#888" stroke-width="1" opacity="1"/><line transform="translate(175,0)" x2="0" y2="5" stroke="#888" stroke-width="1" opacity="1"/><line transform="translate(200,0)" x2="0" y2="5" stroke="#888" stroke-width="1" opacity="1"/><line transform="translate(225,0)" x2="0" y2="5" stroke="#888" stroke-width="1" opacity="1"/><line transform="translate(250,0)" x2="0" y2="5" stroke="#888" stroke-width="1" opacity="1"/><line transform="translate(275,0)" x2="0" y2="5" stroke="#888" stroke-width="1" opacity="1"/><line transform="translate(300,0)" x2="0" y2="5" stroke="#888" stroke-width="1" opacity="1"/></g><g class="mark-text role-axis-label" pointer-events="none"><text text-anchor="start" transform="translate(0,15)" font-family="sans-serif" font-size="10px" fill="#000" opacity="1">20</text><text text-anchor="middle" transform="translate(25,15)" font-family="sans-serif" font-size="10px" fill="#000" opacity="0">40</text><text text-anchor="middle" transform="translate(50,15)" font-family="sans-serif" font-size="10px" fill="#000" opacity="1">60</text><text text-anchor="middle" transform="translate(75,15)" font-family="sans-serif" font-size="10px" fill="#000" opacity="0">80</text><text text-anchor="middle" transform="translate(100,15)" font-family="sans-serif" font-size="10px" fill="#000" opacity="1">100</text><text text-anchor="middle" transform="translate(125,15)" font-family="sans-serif" font-size="10px" fill="#000" opacity="0">120</text><text text-anchor="middle" transform="translate(150,15)" font-family="sans-serif" font-size="10px" fill="#000" opacity="1">140</text><text text-anchor="middle" transform="translate(175,15)" font-family="sans-serif" font-size="10px" fill="#000" opacity="0">160</text><text text-anchor="middle" transform="translate(200,15)" font-family="sans-serif" font-size="10px" fill="#000" opacity="1">180</text><text text-anchor="middle" transform="translate(225,15)" font-family="sans-serif" font-size="10px" fill="#000" opacity="0">200</text><text text-anchor="middle" transform="translate(250,15)" font-family="sans-serif" font-size="10px" fill="#000" opacity="1">220</text><text text-anchor="middle" transform="translate(275,15)" font-family="sans-serif" font-size="10px" fill="#000" opacity="0">240</text><text text-anchor="end" transform="translate(300,15)" font-family="sans-serif" font-size="10px" fill="#000" opacity="1">260</text></g><g class="mark-rule role-axis-domain" pointer-events="none"><line transform="translate(0,0)" x2="300" y2="0" stroke="#888" stroke-width="1" opacity="1"/></g><g class="mark-text role-axis-title" pointer-events="none"><text text-anchor="middle" transform="translate(150,30)" font-family="sans-serif" font-size="11px" font-weight="bold" fill="#000" opacity="1">runtime</text></g></g><path class="foreground" aria-hidden="true" d="" pointer-events="none" display="none"/></g></g></g><path class="foreground" aria-hidden="true" d="" display="none"/></g></g><g class="mark-group role-scope cell" role="graphics-object" aria-roledescription="group mark container"><g transform="translate(0,0)"><path class="background" aria-hidden="true" d="M0.5,0.5h300v300h-300Z" stroke="#ddd"/><g><g class="mark-group role-axis" aria-hidden="true"><g transform="translate(0.5,300.5)"><path class="background" aria-hidden="true" d="M0,0h0v0h0Z" pointer-events="none"/><g><g class="mark-rule role-axis-grid" pointer-events="none"><line transform="translate(0,-300)" x2="0" y2="300" stroke="#ddd" stroke-width="1" opacity="1"/><line transform="translate(25,-300)" x2="0" y2="300" stroke="#ddd" stroke-width="1" opacity="1"/><line transform="translate(50,-300)" x2="0" y2="300" stroke="#ddd" stroke-width="1" opacity="1"/><line transform="translate(75,-300)" x2="0" y2="300" stroke="#ddd" stroke-width="1" opacity="1"/><line transform="translate(100,-300)" x2="0" y2="300" stroke="#ddd" stroke-width="1" opacity="1"/><line transform="translate(125,-300)" x2="0" y2="300" stroke="#ddd" stroke-width="1" opacity="1"/><line transform="translate(150,-300)" x2="0" y2="300" stroke="#ddd" stroke-width="1" opacity="1"/><line transform="translate(175,-300)" x2="0" y2="300" stroke="#ddd" stroke-width="1" opacity="1"/><line transform="translate(200,-300)" x2="0" y2="300" stroke="#ddd" stroke-width="1" opacity="1"/><line transform="translate(225,-300)" x2="0" y2="300" stroke="#ddd" stroke-width="1" opacity="1"/><line transform="translate(250,-300)" x2="0" y2="300" stroke="#ddd" stroke-width="1" opacity="1"/><line transform="translate(275,-300)" x2="0" y2="300" stroke="#ddd" stroke-width="1" opacity="1"/><line transform="translate(300,-300)" x2="0" y2="300" stroke="#ddd" stroke-width="1" opacity="1"/></g></g><path class="foreground" aria-hidden="true" d="" pointer-events="none" display="none"/></g></g><g class="mark-group role-axis" aria-hidden="true"><g transform="translate(0.5,0.5)"><path class="background" aria-hidden="true" d="M0,0h0v0h0Z" pointer-events="none"/><g><g class="mark-rule role-axis-grid" pointer-events="none"><line transform="translate(0,300)" x2="300" y2="0" stroke="#ddd" stroke-width="1" opacity="1"/><line transform="translate(0,263)" x2="300" y2="0" stroke="#ddd" stroke-width="1" opacity="1"/><line transform="translate(0,225)" x2="300" y2="0" stroke="#ddd" stroke-width="1" opacity="1"/><line transform="translate(0,188)" x2="300" y2="0" stroke="#ddd" stroke-width="1" opacity="1"/><line transform="translate(0,150)" x2="300" y2="0" stroke="#ddd" stroke-width="1" opacity="1"/><line transform="translate(0,113)" x2="300" y2="0" stroke="#ddd" stroke-width="1" opacity="1"/><line transform="translate(0,75)" x2="300" y2="0" stroke="#ddd" stroke-width="1" opacity="1"/><line transform="translate(0,37)" x2="300" y2="0" stroke="#ddd" stroke-width="1" opacity="1"/><line transform="translate(0,0)" x2="300" y2="0" stroke="#ddd" stroke-width="1" opacity="1"/></g></g><path class="foreground" aria-hidden="true" d="" pointer-events="none" display="none"/></g></g><g class="mark-group role-scope child_pathgroup" role="graphics-object" aria-roledescription="group mark container"><g transform="translate(0,0)"><path class="background" aria-hidden="true" d="M0,0h300v300h-300Z"/><g><g class="mark-area role-mark child_marks" role="graphics-symbol" aria-roledescription="area mark container"><path d="M7.5,300L8.888,300L10.275,300L11.662,300L13.05,300L14.438,300L15.825,300L17.213,300L18.6,300L19.988,300L21.375,300L22.763,300L24.15,300L25.537,300L26.925,300L28.313,300L29.7,300L31.088,300L32.475,300L33.863,300L35.25,300L36.638,300L38.025,300L39.412,300L40.8,300L42.188,299.999L43.575,299.999L44.963,299.998L46.35,299.997L47.738,299.995L49.125,299.991L50.512,299.985L51.9,299.975L53.288,299.959L54.675,299.935L56.062,299.898L57.45,299.843L58.837,299.762L60.225,299.645L61.612,299.479L63,299.248L64.387,298.933L65.775,298.51L67.163,297.954L68.55,297.234L69.938,296.321L71.325,295.181L72.712,293.786L74.1,292.108L75.488,290.126L76.875,287.826L78.263,285.204L79.65,282.268L81.038,279.036L82.425,275.541L83.813,271.827L85.2,267.946L86.587,263.96L87.975,259.938L89.363,255.948L90.75,252.061L92.137,248.342L93.525,244.852L94.913,241.644L96.3,238.761L97.688,236.236L99.075,234.091L100.463,232.333L101.85,230.961L103.237,229.959L104.625,229.302L106.013,228.954L107.4,228.873L108.788,229.011L110.175,229.316L111.563,229.738L112.95,230.231L114.337,230.753L115.725,231.272L117.113,231.767L118.5,232.228L119.888,232.66L121.275,233.076L122.663,233.501L124.05,233.969L125.437,234.517L126.825,235.185L128.212,236.011L129.6,237.025L130.988,238.25L132.375,239.696L133.763,241.363L135.15,243.235L136.538,245.285L137.925,247.477L139.312,249.769L140.7,252.116L142.088,254.472L143.475,256.799L144.862,259.063L146.25,261.239L147.638,263.314L149.025,265.278L150.412,267.131L151.8,268.879L153.188,270.527L154.575,272.084L155.963,273.556L157.35,274.95L158.738,276.269L160.125,277.516L161.513,278.695L162.9,279.807L164.288,280.857L165.675,281.853L167.062,282.803L168.45,283.717L169.838,284.609L171.225,285.489L172.612,286.368L174,287.256L175.388,288.158L176.775,289.076L178.163,290.007L179.55,290.945L180.938,291.88L182.325,292.802L183.713,293.697L185.1,294.551L186.487,295.353L187.875,296.092L189.263,296.762L190.65,297.357L192.038,297.875L193.425,298.319L194.813,298.691L196.2,298.997L197.588,299.244L198.975,299.44L200.363,299.592L201.75,299.708L203.138,299.794L204.525,299.857L205.913,299.903L207.3,299.935L208.687,299.957L210.075,299.973L211.462,299.983L212.85,299.989L214.237,299.993L215.625,299.996L217.013,299.998L218.4,299.999L219.788,299.999L221.175,300L222.563,300L223.95,300L225.338,300L226.725,300L228.113,300L229.5,300L230.888,300L232.275,300L233.662,300L235.05,300L236.437,300L237.825,300L239.213,300L240.6,300L241.988,300L243.375,300L244.763,300L246.15,300L247.538,300L248.925,300L250.313,300L251.7,300L253.087,300L254.475,300L255.862,300L257.25,300L258.638,300L260.025,300L261.413,300L262.8,300L264.188,300L265.575,300L266.963,300L268.35,300L269.738,300L271.125,300L272.513,300L273.9,300L275.287,300L276.675,300L278.063,300L279.45,300L280.838,300L282.225,300L283.613,300L285,300L285,300L283.613,300L282.225,300L280.838,300L279.45,300L278.063,300L276.675,300L275.287,300L273.9,300L272.513,300L271.125,300L269.738,300L268.35,300L266.963,300L265.575,300L264.188,300L262.8,300L261.413,300L260.025,300L258.638,300L257.25,300L255.862,300L254.475,300L253.087,300L251.7,300L250.313,300L248.925,300L247.538,300L246.15,300L244.763,300L243.375,300L241.988,300L240.6,300L239.213,300L237.825,300L236.437,300L235.05,300L233.662,300L232.275,300L230.888,300L229.5,300L228.113,300L226.725,300L225.338,300L223.95,300L222.563,300L221.175,300L219.788,300L218.4,300L217.013,300L215.625,300L214.237,300L212.85,300L211.462,300L210.075,300L208.687,300L207.3,300L205.913,300L204.525,300L203.138,300L201.75,300L200.363,300L198.975,300L197.588,300L196.2,300L194.813,300L193.425,300L192.038,300L190.65,300L189.263,300L187.875,300L186.487,300L185.1,300L183.713,300L182.325,300L180.938,300L179.55,300L178.163,300L176.775,300L175.388,300L174,300L172.612,300L171.225,300L169.838,300L168.45,300L167.062,300L165.675,300L164.288,300L162.9,300L161.513,300L160.125,300L158.738,300L157.35,300L155.963,300L154.575,300L153.188,300L151.8,300L150.412,300L149.025,300L147.638,300L146.25,300L144.862,300L143.475,300L142.088,300L140.7,300L139.312,300L137.925,300L136.538,300L135.15,300L133.763,300L132.375,300L130.988,300L129.6,300L128.212,300L126.825,300L125.437,300L124.05,300L122.663,300L121.275,300L119.888,300L118.5,300L117.113,300L115.725,300L114.337,300L112.95,300L111.563,300L110.175,300L108.788,300L107.4,300L106.013,300L104.625,300L103.237,300L101.85,300L100.463,300L99.075,300L97.688,300L96.3,300L94.913,300L93.525,300L92.137,300L90.75,300L89.363,300L87.975,300L86.587,300L85.2,300L83.813,300L82.425,300L81.038,300L79.65,300L78.263,300L76.875,300L75.488,300L74.1,300L72.712,300L71.325,300L69.938,300L68.55,300L67.163,300L65.775,300L64.387,300L63,300L61.612,300L60.225,300L58.837,300L57.45,300L56.062,300L54.675,300L53.288,300L51.9,300L50.512,300L49.125,300L47.738,300L46.35,300L44.963,300L43.575,300L42.188,300L40.8,300L39.412,300L38.025,300L36.638,300L35.25,300L33.863,300L32.475,300L31.088,300L29.7,300L28.313,300L26.925,300L25.537,300L24.15,300L22.763,300L21.375,300L19.988,300L18.6,300L17.213,300L15.825,300L14.438,300L13.05,300L11.662,300L10.275,300L8.888,300L7.5,300Z" fill="#f58518" opacity="0.6"/></g></g><path class="foreground" aria-hidden="true" d="" display="none"/></g><g transform="translate(0,0)"><path class="background" aria-hidden="true" d="M0,0h300v300h-300Z"/><g><g class="mark-area role-mark child_marks" role="graphics-symbol" aria-roledescription="area mark container"><path d="M7.5,300L8.888,300L10.275,300L11.662,300L13.05,300L14.438,300L15.825,300L17.213,300L18.6,300L19.988,300L21.375,300L22.763,300L24.15,300L25.537,300L26.925,300L28.313,300L29.7,300L31.088,300L32.475,300L33.863,300L35.25,300L36.638,300L38.025,300L39.412,300L40.8,300L42.188,300L43.575,299.999L44.963,299.999L46.35,299.998L47.738,299.997L49.125,299.995L50.512,299.992L51.9,299.988L53.288,299.982L54.675,299.974L56.062,299.962L57.45,299.946L58.837,299.924L60.225,299.893L61.612,299.853L63,299.8L64.387,299.732L65.775,299.645L67.163,299.535L68.55,299.398L69.938,299.23L71.325,299.025L72.712,298.779L74.1,298.485L75.488,298.139L76.875,297.733L78.263,297.26L79.65,296.712L81.038,296.081L82.425,295.357L83.813,294.528L85.2,293.583L86.587,292.509L87.975,291.292L89.363,289.918L90.75,288.375L92.137,286.651L93.525,284.739L94.913,282.631L96.3,280.329L97.688,277.836L99.075,275.161L100.463,272.322L101.85,269.338L103.237,266.237L104.625,263.049L106.013,259.807L107.4,256.547L108.788,253.305L110.175,250.118L111.563,247.019L112.95,244.043L114.337,241.219L115.725,238.575L117.113,236.137L118.5,233.926L119.888,231.964L121.275,230.266L122.663,228.847L124.05,227.718L125.437,226.886L126.825,226.353L128.212,226.117L129.6,226.172L130.988,226.506L132.375,227.104L133.763,227.946L135.15,229.011L136.538,230.276L137.925,231.717L139.312,233.314L140.7,235.047L142.088,236.899L143.475,238.859L144.862,240.915L146.25,243.061L147.638,245.289L149.025,247.592L150.412,249.962L151.8,252.388L153.188,254.856L154.575,257.35L155.963,259.848L157.35,262.329L158.738,264.767L160.125,267.14L161.513,269.425L162.9,271.599L164.288,273.647L165.675,275.555L167.062,277.314L168.45,278.919L169.838,280.37L171.225,281.668L172.612,282.82L174,283.831L175.388,284.712L176.775,285.471L178.163,286.12L179.55,286.67L180.938,287.133L182.325,287.522L183.713,287.849L185.1,288.129L186.487,288.374L187.875,288.598L189.263,288.813L190.65,289.031L192.038,289.259L193.425,289.506L194.813,289.775L196.2,290.069L197.588,290.386L198.975,290.724L200.363,291.08L201.75,291.447L203.138,291.82L204.525,292.196L205.913,292.568L207.3,292.936L208.687,293.296L210.075,293.648L211.462,293.991L212.85,294.326L214.237,294.654L215.625,294.972L217.013,295.281L218.4,295.577L219.788,295.858L221.175,296.118L222.563,296.352L223.95,296.556L225.338,296.724L226.725,296.852L228.113,296.937L229.5,296.979L230.888,296.979L232.275,296.94L233.662,296.868L235.05,296.772L236.437,296.66L237.825,296.542L239.213,296.43L240.6,296.334L241.988,296.263L243.375,296.224L244.763,296.224L246.15,296.266L247.538,296.349L248.925,296.473L250.313,296.633L251.7,296.822L253.087,297.032L254.475,297.253L255.862,297.475L257.25,297.69L258.638,297.886L260.025,298.055L261.413,298.19L262.8,298.284L264.188,298.335L265.575,298.339L266.963,298.297L268.35,298.21L269.738,298.082L271.125,297.919L272.513,297.728L273.9,297.518L275.287,297.298L276.675,297.08L278.063,296.873L279.45,296.687L280.838,296.533L282.225,296.417L283.613,296.347L285,296.326L285,300L283.613,300L282.225,300L280.838,300L279.45,300L278.063,300L276.675,300L275.287,300L273.9,300L272.513,300L271.125,300L269.738,300L268.35,300L266.963,300L265.575,300L264.188,300L262.8,300L261.413,300L260.025,300L258.638,300L257.25,300L255.862,300L254.475,300L253.087,300L251.7,300L250.313,300L248.925,300L247.538,300L246.15,300L244.763,300L243.375,300L241.988,300L240.6,300L239.213,300L237.825,300L236.437,300L235.05,300L233.662,300L232.275,300L230.888,300L229.5,300L228.113,300L226.725,300L225.338,300L223.95,300L222.563,300L221.175,300L219.788,300L218.4,300L217.013,300L215.625,300L214.237,300L212.85,300L211.462,300L210.075,300L208.687,300L207.3,300L205.913,300L204.525,300L203.138,300L201.75,300L200.363,300L198.975,300L197.588,300L196.2,300L194.813,300L193.425,300L192.038,300L190.65,300L189.263,300L187.875,300L186.487,300L185.1,300L183.713,300L182.325,300L180.938,300L179.55,300L178.163,300L176.775,300L175.388,300L174,300L172.612,300L171.225,300L169.838,300L168.45,300L167.062,300L165.675,300L164.288,300L162.9,300L161.513,300L160.125,300L158.738,300L157.35,300L155.963,300L154.575,300L153.188,300L151.8,300L150.412,300L149.025,300L147.638,300L146.25,300L144.862,300L143.475,300L142.088,300L140.7,300L139.312,300L137.925,300L136.538,300L135.15,300L133.763,300L132.375,300L130.988,300L129.6,300L128.212,300L126.825,300L125.437,300L124.05,300L122.663,300L121.275,300L119.888,300L118.5,300L117.113,300L115.725,300L114.337,300L112.95,300L111.563,300L110.175,300L108.788,300L107.4,300L106.013,300L104.625,300L103.237,300L101.85,300L100.463,300L99.075,300L97.688,300L96.3,300L94.913,300L93.525,300L92.137,300L90.75,300L89.363,300L87.975,300L86.587,300L85.2,300L83.813,300L82.425,300L81.038,300L79.65,300L78.263,300L76.875,300L75.488,300L74.1,300L72.712,300L71.325,300L69.938,300L68.55,300L67.163,300L65.775,300L64.387,300L63,300L61.612,300L60.225,300L58.837,300L57.45,300L56.062,300L54.675,300L53.288,300L51.9,300L50.512,300L49.125,300L47.738,300L46.35,300L44.963,300L43.575,300L42.188,300L40.8,300L39.412,300L38.025,300L36.638,300L35.25,300L33.863,300L32.475,300L31.088,300L29.7,300L28.313,300L26.925,300L25.537,300L24.15,300L22.763,300L21.375,300L19.988,300L18.6,300L17.213,300L15.825,300L14.438,300L13.05,300L11.662,300L10.275,300L8.888,300L7.5,300Z" fill="#e45756" opacity="0.6"/></g></g><path class="foreground" aria-hidden="true" d="" display="none"/></g><g transform="translate(0,0)"><path class="background" aria-hidden="true" d="M0,0h300v300h-300Z"/><g><g class="mark-area role-mark child_marks" role="graphics-symbol" aria-roledescription="area mark container"><path d="M7.5,300L8.888,300L10.275,300L11.662,300L13.05,300L14.438,300L15.825,300L17.213,300L18.6,300L19.988,300L21.375,300L22.763,300L24.15,300L25.537,300L26.925,300L28.313,300L29.7,300L31.088,300L32.475,300L33.863,300L35.25,300L36.638,300L38.025,300L39.412,300L40.8,300L42.188,300L43.575,300L44.963,300L46.35,300L47.738,300L49.125,300L50.512,300L51.9,300L53.288,300L54.675,300L56.062,300L57.45,299.998L58.837,299.986L60.225,299.904L61.612,299.506L63,298.01L64.387,293.742L65.775,284.55L67.163,269.698L68.55,251.521L69.938,233.483L71.325,216.115L72.712,197.68L74.1,178.807L75.488,160.738L76.875,138.646L78.263,105.519L79.65,64.914L81.038,31.175L82.425,15.401L83.813,18.967L85.2,39.27L86.587,72.026L87.975,108.606L89.363,139.561L90.75,162.201L92.137,181.592L93.525,204.131L94.913,231.126L96.3,258.009L97.688,278.918L99.075,291.455L100.463,297.24L101.85,299.296L103.237,299.859L104.625,299.978L106.013,299.997L107.4,300L108.788,300L110.175,300L111.563,300L112.95,300L114.337,300L115.725,300L117.113,300L118.5,300L119.888,300L121.275,300L122.663,300L124.05,300L125.437,300L126.825,300L128.212,300L129.6,300L130.988,300L132.375,300L133.763,300L135.15,300L136.538,300L137.925,300L139.312,300L140.7,300L142.088,300L143.475,300L144.862,300L146.25,300L147.638,300L149.025,300L150.412,300L151.8,300L153.188,300L154.575,300L155.963,300L157.35,300L158.738,300L160.125,300L161.513,300L162.9,300L164.288,300L165.675,300L167.062,300L168.45,300L169.838,300L171.225,300L172.612,300L174,300L175.388,300L176.775,300L178.163,300L179.55,300L180.938,300L182.325,300L183.713,300L185.1,300L186.487,300L187.875,300L189.263,300L190.65,300L192.038,300L193.425,300L194.813,300L196.2,300L197.588,300L198.975,300L200.363,300L201.75,300L203.138,300L204.525,300L205.913,300L207.3,300L208.687,300L210.075,300L211.462,300L212.85,300L214.237,300L215.625,300L217.013,300L218.4,300L219.788,300L221.175,300L222.563,300L223.95,300L225.338,300L226.725,300L228.113,300L229.5,300L230.888,300L232.275,300L233.662,300L235.05,300L236.437,300L237.825,300L239.213,300L240.6,300L241.988,300L243.375,300L244.763,300L246.15,300L247.538,300L248.925,300L250.313,300L251.7,300L253.087,300L254.475,300L255.862,300L257.25,300L258.638,300L260.025,300L261.413,300L262.8,300L264.188,300L265.575,300L266.963,300L268.35,300L269.738,300L271.125,300L272.513,300L273.9,300L275.287,300L276.675,300L278.063,300L279.45,300L280.838,300L282.225,300L283.613,300L285,300L285,300L283.613,300L282.225,300L280.838,300L279.45,300L278.063,300L276.675,300L275.287,300L273.9,300L272.513,300L271.125,300L269.738,300L268.35,300L266.963,300L265.575,300L264.188,300L262.8,300L261.413,300L260.025,300L258.638,300L257.25,300L255.862,300L254.475,300L253.087,300L251.7,300L250.313,300L248.925,300L247.538,300L246.15,300L244.763,300L243.375,300L241.988,300L240.6,300L239.213,300L237.825,300L236.437,300L235.05,300L233.662,300L232.275,300L230.888,300L229.5,300L228.113,300L226.725,300L225.338,300L223.95,300L222.563,300L221.175,300L219.788,300L218.4,300L217.013,300L215.625,300L214.237,300L212.85,300L211.462,300L210.075,300L208.687,300L207.3,300L205.913,300L204.525,300L203.138,300L201.75,300L200.363,300L198.975,300L197.588,300L196.2,300L194.813,300L193.425,300L192.038,300L190.65,300L189.263,300L187.875,300L186.487,300L185.1,300L183.713,300L182.325,300L180.938,300L179.55,300L178.163,300L176.775,300L175.388,300L174,300L172.612,300L171.225,300L169.838,300L168.45,300L167.062,300L165.675,300L164.288,300L162.9,300L161.513,300L160.125,300L158.738,300L157.35,300L155.963,300L154.575,300L153.188,300L151.8,300L150.412,300L149.025,300L147.638,300L146.25,300L144.862,300L143.475,300L142.088,300L140.7,300L139.312,300L137.925,300L136.538,300L135.15,300L133.763,300L132.375,300L130.988,300L129.6,300L128.212,300L126.825,300L125.437,300L124.05,300L122.663,300L121.275,300L119.888,300L118.5,300L117.113,300L115.725,300L114.337,300L112.95,300L111.563,300L110.175,300L108.788,300L107.4,300L106.013,300L104.625,300L103.237,300L101.85,300L100.463,300L99.075,300L97.688,300L96.3,300L94.913,300L93.525,300L92.137,300L90.75,300L89.363,300L87.975,300L86.587,300L85.2,300L83.813,300L82.425,300L81.038,300L79.65,300L78.263,300L76.875,300L75.488,300L74.1,300L72.712,300L71.325,300L69.938,300L68.55,300L67.163,300L65.775,300L64.387,300L63,300L61.612,300L60.225,300L58.837,300L57.45,300L56.062,300L54.675,300L53.288,300L51.9,300L50.512,300L49.125,300L47.738,300L46.35,300L44.963,300L43.575,300L42.188,300L40.8,300L39.412,300L38.025,300L36.638,300L35.25,300L33.863,300L32.475,300L31.088,300L29.7,300L28.313,300L26.925,300L25.537,300L24.15,300L22.763,300L21.375,300L19.988,300L18.6,300L17.213,300L15.825,300L14.438,300L13.05,300L11.662,300L10.275,300L8.888,300L7.5,300Z" fill="#4c78a8" opacity="0.6"/></g></g><path class="foreground" aria-hidden="true" d="" display="none"/></g></g><g class="mark-group role-title"><g transform="translate(150,-20)"><path class="background" aria-hidden="true" d="M0,0h0v0h0Z" pointer-events="none"/><g><g class="mark-text role-title-text" role="graphics-symbol" aria-roledescription="title" aria-label="Title text 'United Kingdom'" pointer-events="none"><text text-anchor="middle" transform="translate(0,8)" font-family="sans-serif" font-size="10px" fill="#000" opacity="1">United Kingdom</text></g></g><path class="foreground" aria-hidden="true" d="" pointer-events="none" display="none"/></g></g></g><path class="foreground" aria-hidden="true" d="" display="none"/></g><g transform="translate(322,0)"><path class="background" aria-hidden="true" d="M0.5,0.5h300v300h-300Z" stroke="#ddd"/><g><g class="mark-group role-axis" aria-hidden="true"><g transform="translate(0.5,300.5)"><path class="background" aria-hidden="true" d="M0,0h0v0h0Z" pointer-events="none"/><g><g class="mark-rule role-axis-grid" pointer-events="none"><line transform="translate(0,-300)" x2="0" y2="300" stroke="#ddd" stroke-width="1" opacity="1"/><line transform="translate(25,-300)" x2="0" y2="300" stroke="#ddd" stroke-width="1" opacity="1"/><line transform="translate(50,-300)" x2="0" y2="300" stroke="#ddd" stroke-width="1" opacity="1"/><line transform="translate(75,-300)" x2="0" y2="300" stroke="#ddd" stroke-width="1" opacity="1"/><line transform="translate(100,-300)" x2="0" y2="300" stroke="#ddd" stroke-width="1" opacity="1"/><line transform="translate(125,-300)" x2="0" y2="300" stroke="#ddd" stroke-width="1" opacity="1"/><line transform="translate(150,-300)" x2="0" y2="300" stroke="#ddd" stroke-width="1" opacity="1"/><line transform="translate(175,-300)" x2="0" y2="300" stroke="#ddd" stroke-width="1" opacity="1"/><line transform="translate(200,-300)" x2="0" y2="300" stroke="#ddd" stroke-width="1" opacity="1"/><line transform="translate(225,-300)" x2="0" y2="300" stroke="#ddd" stroke-width="1" opacity="1"/><line transform="translate(250,-300)" x2="0" y2="300" stroke="#ddd" stroke-width="1" opacity="1"/><line transform="translate(275,-300)" x2="0" y2="300" stroke="#ddd" stroke-width="1" opacity="1"/><line transform="translate(300,-300)" x2="0" y2="300" stroke="#ddd" stroke-width="1" opacity="1"/></g></g><path class="foreground" aria-hidden="true" d="" pointer-events="none" display="none"/></g></g><g class="mark-group role-axis" aria-hidden="true"><g transform="translate(0.5,0.5)"><path class="background" aria-hidden="true" d="M0,0h0v0h0Z" pointer-events="none"/><g><g class="mark-rule role-axis-grid" pointer-events="none"><line transform="translate(0,300)" x2="300" y2="0" stroke="#ddd" stroke-width="1" opacity="1"/><line transform="translate(0,263)" x2="300" y2="0" stroke="#ddd" stroke-width="1" opacity="1"/><line transform="translate(0,225)" x2="300" y2="0" stroke="#ddd" stroke-width="1" opacity="1"/><line transform="translate(0,188)" x2="300" y2="0" stroke="#ddd" stroke-width="1" opacity="1"/><line transform="translate(0,150)" x2="300" y2="0" stroke="#ddd" stroke-width="1" opacity="1"/><line transform="translate(0,113)" x2="300" y2="0" stroke="#ddd" stroke-width="1" opacity="1"/><line transform="translate(0,75)" x2="300" y2="0" stroke="#ddd" stroke-width="1" opacity="1"/><line transform="translate(0,37)" x2="300" y2="0" stroke="#ddd" stroke-width="1" opacity="1"/><line transform="translate(0,0)" x2="300" y2="0" stroke="#ddd" stroke-width="1" opacity="1"/></g></g><path class="foreground" aria-hidden="true" d="" pointer-events="none" display="none"/></g></g><g class="mark-group role-scope child_pathgroup" role="graphics-object" aria-roledescription="group mark container"><g transform="translate(0,0)"><path class="background" aria-hidden="true" d="M0,0h300v300h-300Z"/><g><g class="mark-area role-mark child_marks" role="graphics-symbol" aria-roledescription="area mark container"><path d="M7.5,297.909L8.888,298.018L10.275,298.312L11.662,298.709L13.05,299.113L14.438,299.452L15.825,299.696L17.213,299.849L18.6,299.932L19.988,299.973L21.375,299.99L22.763,299.997L24.15,299.999L25.537,300L26.925,300L28.313,300L29.7,300L31.088,300L32.475,300L33.863,300L35.25,300L36.638,299.999L38.025,299.998L39.412,299.993L40.8,299.98L42.188,299.949L43.575,299.882L44.963,299.755L46.35,299.54L47.738,299.221L49.125,298.806L50.512,298.333L51.9,297.852L53.288,297.391L54.675,296.903L56.062,296.247L57.45,295.189L58.837,293.452L60.225,290.767L61.612,286.922L63,281.789L64.387,275.34L65.775,267.656L67.163,258.937L68.55,249.516L69.938,239.844L71.325,230.42L72.712,221.663L74.1,213.738L75.488,206.459L76.875,199.328L78.263,191.748L79.65,183.322L81.038,174.105L82.425,164.68L83.813,156.004L85.2,149.104L86.587,144.772L87.975,143.411L89.363,145.068L90.75,149.572L92.137,156.646L93.525,165.917L94.913,176.862L96.3,188.779L97.688,200.876L99.075,212.426L100.463,222.934L101.85,232.197L103.237,240.262L104.625,247.327L106.013,253.658L107.4,259.524L108.788,265.135L110.175,270.562L111.563,275.684L112.95,280.221L114.337,283.871L115.725,286.487L117.113,288.186L118.5,289.314L119.888,290.298L121.275,291.463L122.663,292.916L124.05,294.554L125.437,296.157L126.825,297.518L128.212,298.518L129.6,299.136L130.988,299.418L132.375,299.428L133.763,299.231L135.15,298.892L136.538,298.495L137.925,298.143L139.312,297.936L140.7,297.937L142.088,298.148L143.475,298.506L144.862,298.917L146.25,299.295L147.638,299.588L149.025,299.783L150.412,299.898L151.8,299.957L153.188,299.983L154.575,299.994L155.963,299.998L157.35,300L158.738,300L160.125,300L161.513,300L162.9,300L164.288,300L165.675,300L167.062,300L168.45,300L169.838,300L171.225,300L172.612,300L174,300L175.388,300L176.775,300L178.163,300L179.55,300L180.938,300L182.325,300L183.713,300L185.1,300L186.487,300L187.875,300L189.263,300L190.65,300L192.038,300L193.425,300L194.813,300L196.2,300L197.588,300L198.975,300L200.363,300L201.75,300L203.138,300L204.525,300L205.913,300L207.3,300L208.687,300L210.075,300L211.462,300L212.85,300L214.237,300L215.625,300L217.013,300L218.4,300L219.788,300L221.175,300L222.563,300L223.95,300L225.338,300L226.725,300L228.113,300L229.5,300L230.888,300L232.275,300L233.662,300L235.05,300L236.437,300L237.825,300L239.213,300L240.6,300L241.988,300L243.375,300L244.763,300L246.15,300L247.538,300L248.925,300L250.313,300L251.7,300L253.087,300L254.475,300L255.862,300L257.25,300L258.638,300L260.025,300L261.413,300L262.8,300L264.188,300L265.575,300L266.963,300L268.35,300L269.738,300L271.125,300L272.513,300L273.9,300L275.287,300L276.675,300L278.063,300L279.45,300L280.838,300L282.225,300L283.613,300L285,300L285,300L283.613,300L282.225,300L280.838,300L279.45,300L278.063,300L276.675,300L275.287,300L273.9,300L272.513,300L271.125,300L269.738,300L268.35,300L266.963,300L265.575,300L264.188,300L262.8,300L261.413,300L260.025,300L258.638,300L257.25,300L255.862,300L254.475,300L253.087,300L251.7,300L250.313,300L248.925,300L247.538,300L246.15,300L244.763,300L243.375,300L241.988,300L240.6,300L239.213,300L237.825,300L236.437,300L235.05,300L233.662,300L232.275,300L230.888,300L229.5,300L228.113,300L226.725,300L225.338,300L223.95,300L222.563,300L221.175,300L219.788,300L218.4,300L217.013,300L215.625,300L214.237,300L212.85,300L211.462,300L210.075,300L208.687,300L207.3,300L205.913,300L204.525,300L203.138,300L201.75,300L200.363,300L198.975,300L197.588,300L196.2,300L194.813,300L193.425,300L192.038,300L190.65,300L189.263,300L187.875,300L186.487,300L185.1,300L183.713,300L182.325,300L180.938,300L179.55,300L178.163,300L176.775,300L175.388,300L174,300L172.612,300L171.225,300L169.838,300L168.45,300L167.062,300L165.675,300L164.288,300L162.9,300L161.513,300L160.125,300L158.738,300L157.35,300L155.963,300L154.575,300L153.188,300L151.8,300L150.412,300L149.025,300L147.638,300L146.25,300L144.862,300L143.475,300L142.088,300L140.7,300L139.312,300L137.925,300L136.538,300L135.15,300L133.763,300L132.375,300L130.988,300L129.6,300L128.212,300L126.825,300L125.437,300L124.05,300L122.663,300L121.275,300L119.888,300L118.5,300L117.113,300L115.725,300L114.337,300L112.95,300L111.563,300L110.175,300L108.788,300L107.4,300L106.013,300L104.625,300L103.237,300L101.85,300L100.463,300L99.075,300L97.688,300L96.3,300L94.913,300L93.525,300L92.137,300L90.75,300L89.363,300L87.975,300L86.587,300L85.2,300L83.813,300L82.425,300L81.038,300L79.65,300L78.263,300L76.875,300L75.488,300L74.1,300L72.712,300L71.325,300L69.938,300L68.55,300L67.163,300L65.775,300L64.387,300L63,300L61.612,300L60.225,300L58.837,300L57.45,300L56.062,300L54.675,300L53.288,300L51.9,300L50.512,300L49.125,300L47.738,300L46.35,300L44.963,300L43.575,300L42.188,300L40.8,300L39.412,300L38.025,300L36.638,300L35.25,300L33.863,300L32.475,300L31.088,300L29.7,300L28.313,300L26.925,300L25.537,300L24.15,300L22.763,300L21.375,300L19.988,300L18.6,300L17.213,300L15.825,300L14.438,300L13.05,300L11.662,300L10.275,300L8.888,300L7.5,300Z" fill="#4c78a8" opacity="0.6"/></g></g><path class="foreground" aria-hidden="true" d="" display="none"/></g><g transform="translate(0,0)"><path class="background" aria-hidden="true" d="M0,0h300v300h-300Z"/><g><g class="mark-area role-mark child_marks" role="graphics-symbol" aria-roledescription="area mark container"><path d="M7.5,300L8.888,300L10.275,300L11.662,300L13.05,300L14.438,300L15.825,300L17.213,300L18.6,300L19.988,300L21.375,300L22.763,300L24.15,300L25.537,300L26.925,300L28.313,300L29.7,300L31.088,300L32.475,300L33.863,300L35.25,300L36.638,300L38.025,300L39.412,299.999L40.8,299.998L42.188,299.997L43.575,299.993L44.963,299.987L46.35,299.976L47.738,299.956L49.125,299.923L50.512,299.869L51.9,299.786L53.288,299.66L54.675,299.477L56.062,299.219L57.45,298.866L58.837,298.398L60.225,297.795L61.612,297.035L63,296.099L64.387,294.968L65.775,293.62L67.163,292.032L68.55,290.175L69.938,288.019L71.325,285.534L72.712,282.691L74.1,279.475L75.488,275.886L76.875,271.945L78.263,267.695L79.65,263.196L81.038,258.52L82.425,253.735L83.813,248.905L85.2,244.077L86.587,239.285L87.975,234.557L89.363,229.916L90.75,225.4L92.137,221.061L93.525,216.977L94.913,213.248L96.3,209.991L97.688,207.338L99.075,205.416L100.463,204.335L101.85,204.175L103.237,204.965L104.625,206.674L106.013,209.213L107.4,212.433L108.788,216.147L110.175,220.152L111.563,224.251L112.95,228.273L114.337,232.093L115.725,235.631L117.113,238.848L118.5,241.741L119.888,244.33L121.275,246.646L122.663,248.729L124.05,250.624L125.437,252.381L126.825,254.057L128.212,255.714L129.6,257.415L130.988,259.218L132.375,261.166L133.763,263.279L135.15,265.546L136.538,267.927L137.925,270.352L139.312,272.734L140.7,274.983L142.088,277.019L143.475,278.788L144.862,280.27L146.25,281.484L147.638,282.477L149.025,283.32L150.412,284.088L151.8,284.847L153.188,285.641L154.575,286.488L155.963,287.381L157.35,288.295L158.738,289.194L160.125,290.046L161.513,290.827L162.9,291.524L164.288,292.138L165.675,292.676L167.062,293.149L168.45,293.567L169.838,293.936L171.225,294.262L172.612,294.548L174,294.798L175.388,295.019L176.775,295.219L178.163,295.407L179.55,295.591L180.938,295.777L182.325,295.969L183.713,296.164L185.1,296.357L186.487,296.54L187.875,296.705L189.263,296.842L190.65,296.949L192.038,297.028L193.425,297.088L194.813,297.141L196.2,297.205L197.588,297.292L198.975,297.412L200.363,297.566L201.75,297.749L203.138,297.948L204.525,298.151L205.913,298.343L207.3,298.517L208.687,298.668L210.075,298.796L211.462,298.903L212.85,298.992L214.237,299.065L215.625,299.122L217.013,299.162L218.4,299.187L219.788,299.196L221.175,299.194L222.563,299.188L223.95,299.186L225.338,299.194L226.725,299.22L228.113,299.266L229.5,299.332L230.888,299.413L232.275,299.504L233.662,299.596L235.05,299.685L236.437,299.764L237.825,299.83L239.213,299.883L240.6,299.922L241.988,299.951L243.375,299.97L244.763,299.982L246.15,299.99L247.538,299.995L248.925,299.997L250.313,299.999L251.7,299.999L253.087,300L254.475,300L255.862,300L257.25,300L258.638,300L260.025,300L261.413,300L262.8,300L264.188,300L265.575,300L266.963,300L268.35,300L269.738,300L271.125,300L272.513,300L273.9,300L275.287,300L276.675,300L278.063,300L279.45,300L280.838,300L282.225,300L283.613,300L285,300L285,300L283.613,300L282.225,300L280.838,300L279.45,300L278.063,300L276.675,300L275.287,300L273.9,300L272.513,300L271.125,300L269.738,300L268.35,300L266.963,300L265.575,300L264.188,300L262.8,300L261.413,300L260.025,300L258.638,300L257.25,300L255.862,300L254.475,300L253.087,300L251.7,300L250.313,300L248.925,300L247.538,300L246.15,300L244.763,300L243.375,300L241.988,300L240.6,300L239.213,300L237.825,300L236.437,300L235.05,300L233.662,300L232.275,300L230.888,300L229.5,300L228.113,300L226.725,300L225.338,300L223.95,300L222.563,300L221.175,300L219.788,300L218.4,300L217.013,300L215.625,300L214.237,300L212.85,300L211.462,300L210.075,300L208.687,300L207.3,300L205.913,300L204.525,300L203.138,300L201.75,300L200.363,300L198.975,300L197.588,300L196.2,300L194.813,300L193.425,300L192.038,300L190.65,300L189.263,300L187.875,300L186.487,300L185.1,300L183.713,300L182.325,300L180.938,300L179.55,300L178.163,300L176.775,300L175.388,300L174,300L172.612,300L171.225,300L169.838,300L168.45,300L167.062,300L165.675,300L164.288,300L162.9,300L161.513,300L160.125,300L158.738,300L157.35,300L155.963,300L154.575,300L153.188,300L151.8,300L150.412,300L149.025,300L147.638,300L146.25,300L144.862,300L143.475,300L142.088,300L140.7,300L139.312,300L137.925,300L136.538,300L135.15,300L133.763,300L132.375,300L130.988,300L129.6,300L128.212,300L126.825,300L125.437,300L124.05,300L122.663,300L121.275,300L119.888,300L118.5,300L117.113,300L115.725,300L114.337,300L112.95,300L111.563,300L110.175,300L108.788,300L107.4,300L106.013,300L104.625,300L103.237,300L101.85,300L100.463,300L99.075,300L97.688,300L96.3,300L94.913,300L93.525,300L92.137,300L90.75,300L89.363,300L87.975,300L86.587,300L85.2,300L83.813,300L82.425,300L81.038,300L79.65,300L78.263,300L76.875,300L75.488,300L74.1,300L72.712,300L71.325,300L69.938,300L68.55,300L67.163,300L65.775,300L64.387,300L63,300L61.612,300L60.225,300L58.837,300L57.45,300L56.062,300L54.675,300L53.288,300L51.9,300L50.512,300L49.125,300L47.738,300L46.35,300L44.963,300L43.575,300L42.188,300L40.8,300L39.412,300L38.025,300L36.638,300L35.25,300L33.863,300L32.475,300L31.088,300L29.7,300L28.313,300L26.925,300L25.537,300L24.15,300L22.763,300L21.375,300L19.988,300L18.6,300L17.213,300L15.825,300L14.438,300L13.05,300L11.662,300L10.275,300L8.888,300L7.5,300Z" fill="#f58518" opacity="0.6"/></g></g><path class="foreground" aria-hidden="true" d="" display="none"/></g><g transform="translate(0,0)"><path class="background" aria-hidden="true" d="M0,0h300v300h-300Z"/><g><g class="mark-area role-mark child_marks" role="graphics-symbol" aria-roledescription="area mark container"><path d="M7.5,300L8.888,300L10.275,300L11.662,300L13.05,300L14.438,300L15.825,300L17.213,300L18.6,300L19.988,300L21.375,300L22.763,300L24.15,300L25.537,300L26.925,300L28.313,300L29.7,300L31.088,300L32.475,299.999L33.863,299.999L35.25,299.999L36.638,299.998L38.025,299.997L39.412,299.995L40.8,299.993L42.188,299.989L43.575,299.985L44.963,299.978L46.35,299.969L47.738,299.956L49.125,299.939L50.512,299.917L51.9,299.887L53.288,299.848L54.675,299.798L56.062,299.735L57.45,299.655L58.837,299.556L60.225,299.433L61.612,299.285L63,299.106L64.387,298.894L65.775,298.645L67.163,298.355L68.55,298.023L69.938,297.645L71.325,297.22L72.712,296.749L74.1,296.23L75.488,295.667L76.875,295.061L78.263,294.416L79.65,293.735L81.038,293.023L82.425,292.283L83.813,291.52L85.2,290.736L86.587,289.932L87.975,289.109L89.363,288.264L90.75,287.394L92.137,286.492L93.525,285.552L94.913,284.562L96.3,283.514L97.688,282.396L99.075,281.196L100.463,279.904L101.85,278.512L103.237,277.012L104.625,275.399L106.013,273.671L107.4,271.829L108.788,269.876L110.175,267.819L111.563,265.668L112.95,263.437L114.337,261.139L115.725,258.794L117.113,256.42L118.5,254.039L119.888,251.674L121.275,249.35L122.663,247.09L124.05,244.921L125.437,242.866L126.825,240.952L128.212,239.203L129.6,237.641L130.988,236.289L132.375,235.165L133.763,234.289L135.15,233.675L136.538,233.334L137.925,233.275L139.312,233.502L140.7,234.015L142.088,234.81L143.475,235.876L144.862,237.199L146.25,238.759L147.638,240.529L149.025,242.482L150.412,244.584L151.8,246.798L153.188,249.086L154.575,251.411L155.963,253.735L157.35,256.021L158.738,258.237L160.125,260.356L161.513,262.353L162.9,264.211L164.288,265.918L165.675,267.468L167.062,268.859L168.45,270.096L169.838,271.185L171.225,272.139L172.612,272.97L174,273.695L175.388,274.329L176.775,274.89L178.163,275.395L179.55,275.859L180.938,276.299L182.325,276.726L183.713,277.155L185.1,277.595L186.487,278.053L187.875,278.537L189.263,279.049L190.65,279.592L192.038,280.163L193.425,280.761L194.813,281.38L196.2,282.016L197.588,282.66L198.975,283.307L200.363,283.948L201.75,284.578L203.138,285.191L204.525,285.784L205.913,286.353L207.3,286.897L208.687,287.419L210.075,287.919L211.462,288.403L212.85,288.873L214.237,289.335L215.625,289.795L217.013,290.256L218.4,290.724L219.788,291.2L221.175,291.687L222.563,292.185L223.95,292.694L225.338,293.211L226.725,293.733L228.113,294.256L229.5,294.774L230.888,295.283L232.275,295.778L233.662,296.253L235.05,296.704L236.437,297.126L237.825,297.518L239.213,297.877L240.6,298.201L241.988,298.49L243.375,298.744L244.763,298.965L246.15,299.155L247.538,299.314L248.925,299.446L250.313,299.552L251.7,299.636L253.087,299.7L254.475,299.744L255.862,299.772L257.25,299.784L258.638,299.782L260.025,299.767L261.413,299.74L262.8,299.701L264.188,299.651L265.575,299.59L266.963,299.52L268.35,299.442L269.738,299.356L271.125,299.266L272.513,299.173L273.9,299.078L275.287,298.986L276.675,298.898L278.063,298.818L279.45,298.748L280.838,298.691L282.225,298.649L283.613,298.622L285,298.614L285,300L283.613,300L282.225,300L280.838,300L279.45,300L278.063,300L276.675,300L275.287,300L273.9,300L272.513,300L271.125,300L269.738,300L268.35,300L266.963,300L265.575,300L264.188,300L262.8,300L261.413,300L260.025,300L258.638,300L257.25,300L255.862,300L254.475,300L253.087,300L251.7,300L250.313,300L248.925,300L247.538,300L246.15,300L244.763,300L243.375,300L241.988,300L240.6,300L239.213,300L237.825,300L236.437,300L235.05,300L233.662,300L232.275,300L230.888,300L229.5,300L228.113,300L226.725,300L225.338,300L223.95,300L222.563,300L221.175,300L219.788,300L218.4,300L217.013,300L215.625,300L214.237,300L212.85,300L211.462,300L210.075,300L208.687,300L207.3,300L205.913,300L204.525,300L203.138,300L201.75,300L200.363,300L198.975,300L197.588,300L196.2,300L194.813,300L193.425,300L192.038,300L190.65,300L189.263,300L187.875,300L186.487,300L185.1,300L183.713,300L182.325,300L180.938,300L179.55,300L178.163,300L176.775,300L175.388,300L174,300L172.612,300L171.225,300L169.838,300L168.45,300L167.062,300L165.675,300L164.288,300L162.9,300L161.513,300L160.125,300L158.738,300L157.35,300L155.963,300L154.575,300L153.188,300L151.8,300L150.412,300L149.025,300L147.638,300L146.25,300L144.862,300L143.475,300L142.088,300L140.7,300L139.312,300L137.925,300L136.538,300L135.15,300L133.763,300L132.375,300L130.988,300L129.6,300L128.212,300L126.825,300L125.437,300L124.05,300L122.663,300L121.275,300L119.888,300L118.5,300L117.113,300L115.725,300L114.337,300L112.95,300L111.563,300L110.175,300L108.788,300L107.4,300L106.013,300L104.625,300L103.237,300L101.85,300L100.463,300L99.075,300L97.688,300L96.3,300L94.913,300L93.525,300L92.137,300L90.75,300L89.363,300L87.975,300L86.587,300L85.2,300L83.813,300L82.425,300L81.038,300L79.65,300L78.263,300L76.875,300L75.488,300L74.1,300L72.712,300L71.325,300L69.938,300L68.55,300L67.163,300L65.775,300L64.387,300L63,300L61.612,300L60.225,300L58.837,300L57.45,300L56.062,300L54.675,300L53.288,300L51.9,300L50.512,300L49.125,300L47.738,300L46.35,300L44.963,300L43.575,300L42.188,300L40.8,300L39.412,300L38.025,300L36.638,300L35.25,300L33.863,300L32.475,300L31.088,300L29.7,300L28.313,300L26.925,300L25.537,300L24.15,300L22.763,300L21.375,300L19.988,300L18.6,300L17.213,300L15.825,300L14.438,300L13.05,300L11.662,300L10.275,300L8.888,300L7.5,300Z" fill="#e45756" opacity="0.6"/></g></g><path class="foreground" aria-hidden="true" d="" display="none"/></g></g><g class="mark-group role-title"><g transform="translate(150,-20)"><path class="background" aria-hidden="true" d="M0,0h0v0h0Z" pointer-events="none"/><g><g class="mark-text role-title-text" role="graphics-symbol" aria-roledescription="title" aria-label="Title text 'United States of America'" pointer-events="none"><text text-anchor="middle" transform="translate(0,8)" font-family="sans-serif" font-size="10px" fill="#000" opacity="1">United States of America</text></g></g><path class="foreground" aria-hidden="true" d="" pointer-events="none" display="none"/></g></g></g><path class="foreground" aria-hidden="true" d="" display="none"/></g></g><g class="mark-group role-legend" role="graphics-symbol" aria-roledescription="legend" aria-label="Symbol legend titled 'genres' for fill color with 3 values: Animation, Fantasy, History"><g transform="translate(641,0)"><path class="background" aria-hidden="true" d="M0,0h61v53h-61Z" pointer-events="none"/><g><g class="mark-group role-legend-entry"><g transform="translate(0,16)"><path class="background" aria-hidden="true" d="M0,0h0v0h0Z" pointer-events="none"/><g><g class="mark-group role-scope" role="graphics-object" aria-roledescription="group mark container"><g transform="translate(0,0)"><path class="background" aria-hidden="true" d="M0,0h60.4677734375v11h-60.4677734375Z" pointer-events="none" opacity="1"/><g><g class="mark-symbol role-legend-symbol" pointer-events="none"><path transform="translate(6,6)" d="M5,0A5,5,0,1,1,-5,0A5,5,0,1,1,5,0" fill="#4c78a8" stroke-width="1.5" opacity="0.6"/></g><g class="mark-text role-legend-label" pointer-events="none"><text text-anchor="start" transform="translate(16,9)" font-family="sans-serif" font-size="10px" fill="#000" opacity="1">Animation</text></g></g><path class="foreground" aria-hidden="true" d="" pointer-events="none" display="none"/></g><g transform="translate(0,13)"><path class="background" aria-hidden="true" d="M0,0h60.4677734375v11h-60.4677734375Z" pointer-events="none" opacity="1"/><g><g class="mark-symbol role-legend-symbol" pointer-events="none"><path transform="translate(6,6)" d="M5,0A5,5,0,1,1,-5,0A5,5,0,1,1,5,0" fill="#f58518" stroke-width="1.5" opacity="0.6"/></g><g class="mark-text role-legend-label" pointer-events="none"><text text-anchor="start" transform="translate(16,9)" font-family="sans-serif" font-size="10px" fill="#000" opacity="1">Fantasy</text></g></g><path class="foreground" aria-hidden="true" d="" pointer-events="none" display="none"/></g><g transform="translate(0,26)"><path class="background" aria-hidden="true" d="M0,0h60.4677734375v11h-60.4677734375Z" pointer-events="none" opacity="1"/><g><g class="mark-symbol role-legend-symbol" pointer-events="none"><path transform="translate(6,6)" d="M5,0A5,5,0,1,1,-5,0A5,5,0,1,1,5,0" fill="#e45756" stroke-width="1.5" opacity="0.6"/></g><g class="mark-text role-legend-label" pointer-events="none"><text text-anchor="start" transform="translate(16,9)" font-family="sans-serif" font-size="10px" fill="#000" opacity="1">History</text></g></g><path class="foreground" aria-hidden="true" d="" pointer-events="none" display="none"/></g></g></g><path class="foreground" aria-hidden="true" d="" pointer-events="none" display="none"/></g></g><g class="mark-text role-legend-title" pointer-events="none"><text text-anchor="start" transform="translate(0,9)" font-family="sans-serif" font-size="11px" font-weight="bold" fill="#000" opacity="1">genres</text></g></g><path class="foreground" aria-hidden="true" d="" pointer-events="none" display="none"/></g></g></g><path class="foreground" aria-hidden="true" d="" display="none"/></g></g></g></svg>