<svg xmlns="http://www.w3.org/2000/svg" xmlns:xlink="http://www.w3.org/1999/xlink" version="1.1" class="marks" width="829" height="337" viewBox="0 0 829 337"><rect width="829" height="337" fill="white"/><g fill="none" stroke-miterlimit="10" transform="translate(94,62)"><g class="mark-group role-frame root" role="graphics-object" aria-roledescription="group mark container"><g transform="translate(0,0)"><path class="background" aria-hidden="true" d="M0,0h0v0h0Z"/><g><g class="mark-group role-row-title row-title" role="graphics-object" aria-roledescription="group mark container"><g transform="translate(-67,116)"><path class="background" aria-hidden="true" d="M0,0h0v0h0Z"/><g><g class="mark-group role-title"><g transform="translate(-21.000000000000007,0)"><path class="background" aria-hidden="true" d="M0,0h0v0h0Z" pointer-events="none"/><g><g class="mark-text role-title-text" role="graphics-symbol" aria-roledescription="title" aria-label="Title text 'vote_avg_over_4'" pointer-events="none"><text text-anchor="middle" transform="translate(0,0) rotate(-90) translate(0,9)" font-family="sans-serif" font-size="11px" font-weight="bold" fill="#000" opacity="1">vote_avg_over_4</text></g></g><path class="foreground" aria-hidden="true" d="" pointer-events="none" display="none"/></g></g></g><path class="foreground" aria-hidden="true" d="" display="none"/></g></g><g class="mark-group role-column-title column-title" role="graphics-object" aria-roledescription="group mark container"><g transform="translate(307,-36)"><path class="background" aria-hidden="true" d="M0,0h0v0h0Z"/><g><g class="mark-group role-title"><g transform="translate(0,-21)"><path class="background" aria-hidden="true" d="M0,0h0v0h0Z" pointer-events="none"/><g><g class="mark-text role-title-text" role="graphics-symbol" aria-roledescription="title" aria-label="Title text 'countries'" pointer-events="none"><text text-anchor="middle" transform="translate(0,9)" font-family="sans-serif" font-size="11px" font-weight="bold" fill="#000" opacity="1">countries</text></g></g><path class="foreground" aria-hidden="true" d="" pointer-events="none" display="none"/></g></g></g><path class="foreground" aria-hidden="true" d="" display="none"/></g></g><g class="mark-group role-row-header row_header" role="graphics-object" aria-roledescription="group mark container"><g transform="translate(-37,0)"><path class="background" aria-hidden="true" d="M0,0h0v100h0Z"/><g><g class="mark-group role-title"><g transform="translate(-20,50)"><path class="background" aria-hidden="true" d="M0,0h0v0h0Z" pointer-events="none"/><g><g class="mark-text role-title-text" role="graphics-symbol" aria-roledescription="title" aria-label="Title text 'false'" pointer-events="none"><text text-anchor="middle" transform="translate(0,0) rotate(-90) translate(0,8)" font-family="sans-serif" font-size="10px" fill="#000" opacity="1">false</text></g></g><path class="foreground" aria-hidden="true" d="" pointer-events="none" display="none"/></g></g></g><path class="foreground" aria-hidden="true" d="" display="none"/></g><g transform="translate(-37,132)"><path class="background" aria-hidden="true" d="M0,0h0v100h0Z"/><g><g class="mark-group role-title"><g transform="translate(-20,50)"><path class="background" aria-hidden="true" d="M0,0h0v0h0Z" pointer-events="none"/><g><g class="mark-text role-title-text" role="graphics-symbol" aria-roledescription="title" aria-label="Title text 'true'" pointer-events="none"><text text-anchor="middle" transform="translate(0,0) rotate(-90) translate(0,8)" font-family="sans-serif" font-size="10px" fill="#000" opacity="1">true</text></g></g><path class="foreground" aria-hidden="true" d="" pointer-events="none" display="none"/></g></g></g><path class="foreground" aria-hidden="true" d="" display="none"/></g></g><g class="mark-group role-column-header column_header" role="graphics-object" aria-roledescription="group mark container"><g transform="translate(0,-6)"><path class="background" aria-hidden="true" d="M0,0h300v0h-300Z"/><g><g class="mark-group role-title"><g transform="translate(150,-20)"><path class="background" aria-hidden="true" d="M0,0h0v0h0Z" pointer-events="none"/><g><g class="mark-text role-title-text" role="graphics-symbol" aria-roledescription="title" aria-label="Title text 'United Kingdom'" pointer-events="none"><text text-anchor="middle" transform="translate(0,8)" font-family="sans-serif" font-size="10px" fill="#000" opacity="1">United Kingdom</text></g></g><path class="foreground" aria-hidden="true" d="" pointer-events="none" display="none"/></g></g></g><path class="foreground" aria-hidden="true" d="" display="none"/></g><g transform="translate(350,-6)"><path class="background" aria-hidden="true" d="M0,0h300v0h-300Z"/><g><g class="mark-group role-title"><g transform="translate(150,-20)"><path class="background" aria-hidden="true" d="M0,0h0v0h0Z" pointer-events="none"/><g><g class="mark-text role-title-text" role="graphics-symbol" aria-roledescription="title" aria-label="Title text 'United States of America'" pointer-events="none"><text text-anchor="middle" transform="translate(0,8)" font-family="sans-serif" font-size="10px" fill="#000" opacity="1">United States of America</text></g></g><path class="foreground" aria-hidden="true" d="" pointer-events="none" display="none"/></g></g></g><path class="foreground" aria-hidden="true" d="" display="none"/></g></g><g class="mark-group role-column-footer column_footer" role="graphics-object" aria-roledescription="group mark container"><g transform="translate(0,238)"><path class="background" aria-hidden="true" d="M0,0h300v0h-300Z"/><g><g class="mark-group role-axis" role="graphics-symbol" aria-roledescription="axis" aria-label="X-axis titled 'runtime' for a linear scale with values from 20 to 260"><g transform="translate(0.5,0.5)"><path class="background" aria-hidden="true" d="M0,0h0v0h0Z" pointer-events="none"/><g><g class="mark-rule role-axis-tick" pointer-events="none"><line transform="translate(0,0)" x2="0" y2="5" stroke="#888" stroke-width="1" opacity="1"/><line transform="translate(25,0)" x2="0" y2="5" stroke="#888" stroke-width="1" opacity="1"/><line transform="translate(50,0)" x2="0" y2="5" stroke="#888" stroke-width="1" opacity="1"/><line transform="translate(75,0)" x2="0" y2="5" stroke="#888" stroke-width="1" opacity="1"/><line transform="translate(100,0)" x2="0" y2="5" stroke="#888" stroke-width="1" opacity="1"/><line transform="translate(125,0)" x2="0" y2="5" stroke="#888" stroke-width="1" opacity="1"/><line transform="translate(150,0)" x2="0" y2="5" stroke="#888" stroke-width="1" opacity="1"/><line transform="translate(175,0)" x2="0" y2="5" stroke="#888" stroke-width="1" opacity="1"/><line transform="translate(200,0)" x2="0" y2="5" stroke="#888" stroke-width="1" opacity="1"/><line transform="translate(225,0)" x2="0" y2="5" stroke="#888" stroke-width="1" opacity="1"/><line transform="translate(250,0)" x2="0" y2="5" stroke="#888" stroke-width="1" opacity="1"/><line transform="translate(275,0)" x2="0" y2="5" stroke="#888" stroke-width="1" opacity="1"/><line transform="translate(300,0)" x2="0" y2="5" stroke="#888" stroke-width="1" opacity="1"/></g><g class="mark-text role-axis-label" pointer-events="none"><text text-anchor="start" transform="translate(0,15)" font-family="sans-serif" font-size="10px" fill="#000" opacity="1">20</text><text text-anchor="middle" transform="translate(25,15)" font-family="sans-serif" font-size="10px" fill="#000" opacity="0">40</text><text text-anchor="middle" transform="translate(50,15)" font-family="sans-serif" font-size="10px" fill="#000" opacity="1">60</text><text text-anchor="middle" transform="translate(75,15)" font-family="sans-serif" font-size="10px" fill="#000" opacity="0">80</text><text text-anchor="middle" transform="translate(100,15)" font-family="sans-serif" font-size="10px" fill="#000" opacity="1">100</text><text text-anchor="middle" transform="translate(125,15)" font-family="sans-serif" font-size="10px" fill="#000" opacity="0">120</text><text text-anchor="middle" transform="translate(150,15)" font-family="sans-serif" font-size="10px" fill="#000" opacity="1">140</text><text text-anchor="middle" transform="translate(175,15)" font-family="sans-serif" font-size="10px" fill="#000" opacity="0">160</text><text text-anchor="middle" transform="translate(200,15)" font-family="sans-serif" font-size="10px" fill="#000" opacity="1">180</text><text text-anchor="middle" transform="translate(225,15)" font-family="sans-serif" font-size="10px" fill="#000" opacity="0">200</text><text text-anchor="middle" transform="translate(250,15)" font-family="sans-serif" font-size="10px" fill="#000" opacity="1">220</text><text text-anchor="middle" transform="translate(275,15)" font-family="sans-serif" font-size="10px" fill="#000" opacity="0">240</text><text text-anchor="end" transform="translate(300,15)" font-family="sans-serif" font-size="10px" fill="#000" opacity="1">260</text></g><g class="mark-rule role-axis-domain" pointer-events="none"><line transform="translate(0,0)" x2="300" y2="0" stroke="#888" stroke-width="1" opacity="1"/></g><g class="mark-text role-axis-title" pointer-events="none"><text text-anchor="middle" transform="translate(150,30)" font-family="sans-serif" font-size="11px" font-weight="bold" fill="#000" opacity="1">runtime</text></g></g><path class="foreground" aria-hidden="true" d="" pointer-events="none" display="none"/></g></g></g><path class="foreground" aria-hidden="true" d="" display="none"/></g><g transform="translate(350,238)"><path class="background" aria-hidden="true" d="M0,0h300v0h-300Z"/><g><g class="mark-group role-axis" role="graphics-symbol" aria-roledescription="axis" aria-label="X-axis titled 'runtime' for a linear scale with values from 20 to 260"><g transform="translate(0.5,0.5)"><path class="background" aria-hidden="true" d="M0,0h0v0h0Z" pointer-events="none"/><g><g class="mark-rule role-axis-tick" pointer-events="none"><line transform="translate(0,0)" x2="0" y2="5" stroke="#888" stroke-width="1" opacity="1"/><line transform="translate(25,0)" x2="0" y2="5" stroke="#888" stroke-width="1" opacity="1"/><line transform="translate(50,0)" x2="0" y2="5" stroke="#888" stroke-width="1" opacity="1"/><line transform="translate(75,0)" x2="0" y2="5" stroke="#888" stroke-width="1" opacity="1"/><line transform="translate(100,0)" x2="0" y2="5" stroke="#888" stroke-width="1" opacity="1"/><line transform="translate(125,0)" x2="0" y2="5" stroke="#888" stroke-width="1" opacity="1"/><line transform="translate(150,0)" x2="0" y2="5" stroke="#888" stroke-width="1" opacity="1"/><line transform="translate(175,0)" x2="0" y2="5" stroke="#888" stroke-width="1" opacity="1"/><line transform="translate(200,0)" x2="0" y2="5" stroke="#888" stroke-width="1" opacity="1"/><line transform="translate(225,0)" x2="0" y2="5" stroke="#888" stroke-width="1" opacity="1"/><line transform="translate(250,0)" x2="0" y2="5" stroke="#888" stroke-width="1" opacity="1"/><line transform="translate(275,0)" x2="0" y2="5" stroke="#888" stroke-width="1" opacity="1"/><line transform="translate(300,0)" x2="0" y2="5" stroke="#888" stroke-width="1" opacity="1"/></g><g class="mark-text role-axis-label" pointer-events="none"><text text-anchor="start" transform="translate(0,15)" font-family="sans-serif" font-size="10px" fill="#000" opacity="1">20</text><text text-anchor="middle" transform="translate(25,15)" font-family="sans-serif" font-size="10px" fill="#000" opacity="0">40</text><text text-anchor="middle" transform="translate(50,15)" font-family="sans-serif" font-size="10px" fill="#000" opacity="1">60</text><text text-anchor="middle" transform="translate(75,15)" font-family="sans-serif" font-size="10px" fill="#000" opacity="0">80</text><text text-anchor="middle" transform="translate(100,15)" font-family="sans-serif" font-size="10px" fill="#000" opacity="1">100</text><text text-anchor="middle" transform="translate(125,15)" font-family="sans-serif" font-size="10px" fill="#000" opacity="0">120</text><text text-anchor="middle" transform="translate(150,15)" font-family="sans-serif" font-size="10px" fill="#000" opacity="1">140</text><text text-anchor="middle" transform="translate(175,15)" font-family="sans-serif" font-size="10px" fill="#000" opacity="0">160</text><text text-anchor="middle" transform="translate(200,15)" font-family="sans-serif" font-size="10px" fill="#000" opacity="1">180</text><text text-anchor="middle" transform="translate(225,15)" font-family="sans-serif" font-size="10px" fill="#000" opacity="0">200</text><text text-anchor="middle" transform="translate(250,15)" font-family="sans-serif" font-size="10px" fill="#000" opacity="1">220</text><text text-anchor="middle" transform="translate(275,15)" font-family="sans-serif" font-size="10px" fill="#000" opacity="0">240</text><text text-anchor="end" transform="translate(300,15)" font-family="sans-serif" font-size="10px" fill="#000" opacity="1">260</text></g><g class="mark-rule role-axis-domain" pointer-events="none"><line transform="translate(0,0)" x2="300" y2="0" stroke="#888" stroke-width="1" opacity="1"/></g><g class="mark-text role-axis-title" pointer-events="none"><text text-anchor="middle" transform="translate(150,30)" font-family="sans-serif" font-size="11px" font-weight="bold" fill="#000" opacity="1">runtime</text></g></g><path class="foreground" aria-hidden="true" d="" pointer-events="none" display="none"/></g></g></g><path class="foreground" aria-hidden="true" d="" display="none"/></g></g><g class="mark-group role-scope cell" role="graphics-object" aria-roledescription="group mark container"><g transform="translate(0,0)"><path class="background" aria-hidden="true" d="M0.5,0.5h300v100h-300Z" stroke="#ddd"/><g><g class="mark-group role-axis" aria-hidden="true"><g transform="translate(0.5,100.5)"><path class="background" aria-hidden="true" d="M0,0h0v0h0Z" pointer-events="none"/><g><g class="mark-rule role-axis-grid" pointer-events="none"><line transform="translate(0,-100)" x2="0" y2="100" stroke="#ddd" stroke-width="1" opacity="1"/><line transform="translate(25,-100)" x2="0" y2="100" stroke="#ddd" stroke-width="1" opacity="1"/><line transform="translate(50,-100)" x2="0" y2="100" stroke="#ddd" stroke-width="1" opacity="1"/><line transform="translate(75,-100)" x2="0" y2="100" stroke="#ddd" stroke-width="1" opacity="1"/><line transform="translate(100,-100)" x2="0" y2="100" stroke="#ddd" stroke-width="1" opacity="1"/><line transform="translate(125,-100)" x2="0" y2="100" stroke="#ddd" stroke-width="1" opacity="1"/><line transform="translate(150,-100)" x2="0" y2="100" stroke="#ddd" stroke-width="1" opacity="1"/><line transform="translate(175,-100)" x2="0" y2="100" stroke="#ddd" stroke-width="1" opacity="1"/><line transform="translate(200,-100)" x2="0" y2="100" stroke="#ddd" stroke-width="1" opacity="1"/><line transform="translate(225,-100)" x2="0" y2="100" stroke="#ddd" stroke-width="1" opacity="1"/><line transform="translate(250,-100)" x2="0" y2="100" stroke="#ddd" stroke-width="1" opacity="1"/><line transform="translate(275,-100)" x2="0" y2="100" stroke="#ddd" stroke-width="1" opacity="1"/><line transform="translate(300,-100)" x2="0" y2="100" stroke="#ddd" stroke-width="1" opacity="1"/></g></g><path class="foreground" aria-hidden="true" d="" pointer-events="none" display="none"/></g></g><g class="mark-group role-axis" aria-hidden="true"><g transform="translate(0.5,0.5)"><path class="background" aria-hidden="true" d="M0,0h0v0h0Z" pointer-events="none"/><g><g class="mark-rule role-axis-grid" pointer-events="none"><line transform="translate(0,100)" x2="300" y2="0" stroke="#ddd" stroke-width="1" opacity="1"/><line transform="translate(0,64)" x2="300" y2="0" stroke="#ddd" stroke-width="1" opacity="1"/><line transform="translate(0,27)" x2="300" y2="0" stroke="#ddd" stroke-width="1" opacity="1"/></g></g><path class="foreground" aria-hidden="true" d="" pointer-events="none" display="none"/></g></g><g class="mark-group role-axis" role="graphics-symbol" aria-roledescription="axis" aria-label="Y-axis titled 'density' for a linear scale with values from 0.0 to 0.6"><g transform="translate(0.5,0.5)"><path class="background" aria-hidden="true" d="M0,0h0v0h0Z" pointer-events="none"/><g><g class="mark-rule role-axis-tick" pointer-events="none"><line transform="translate(0,100)" x2="-5" y2="0" stroke="#888" stroke-width="1" opacity="1"/><line transform="translate(0,64)" x2="-5" y2="0" stroke="#888" stroke-width="1" opacity="1"/><line transform="translate(0,27)" x2="-5" y2="0" stroke="#888" stroke-width="1" opacity="1"/></g><g class="mark-text role-axis-label" pointer-events="none"><text text-anchor="end" transform="translate(-7,103)" font-family="sans-serif" font-size="10px" fill="#000" opacity="1">0.0</text><text text-anchor="end" transform="translate(-7,66.63636363636363)" font-family="sans-serif" font-size="10px" fill="#000" opacity="1">0.2</text><text text-anchor="end" transform="translate(-7,30.27272727272727)" font-family="sans-serif" font-size="10px" fill="#000" opacity="1">0.4</text></g><g class="mark-rule role-axis-domain" pointer-events="none"><line transform="translate(0,100)" x2="0" y2="-100" stroke="#888" stroke-width="1" opacity="1"/></g><g class="mark-text role-axis-title" pointer-events="none"><text text-anchor="middle" transform="translate(-24.9013671875,50) rotate(-90) translate(0,-2)" font-family="sans-serif" font-size="11px" font-weight="bold" fill="#000" opacity="1">density</text></g></g><path class="foreground" aria-hidden="true" d="" pointer-events="none" display="none"/></g></g><g class="mark-group role-scope child_pathgroup" role="graphics-object" aria-roledescription="group mark container"><g transform="translate(0,0)"><path class="background" aria-hidden="true" d="M0,0h300v100h-300Z"/><g><g class="mark-line role-mark child_marks" role="graphics-symbol" aria-roledescription="line mark container"><path d="M7.5,100L8.888,100L10.275,100L11.662,100L13.05,100L14.438,100L15.825,100L17.213,100L18.6,100L19.988,100L21.375,100L22.763,100L24.15,100L25.537,100L26.925,100L28.313,100L29.7,100L31.088,100L32.475,100L33.863,100L35.25,100L36.638,100L38.025,100L39.412,100L40.8,100L42.188,100L43.575,100L44.963,100L46.35,100L47.738,100L49.125,100L50.512,100L51.9,99.999L53.288,99.998L54.675,99.996L56.062,99.991L57.45,99.983L58.837,99.968L60.225,99.942L61.612,99.896L63,99.82L64.387,99.696L65.775,99.5L67.163,99.2L68.55,98.754L69.938,98.111L71.325,97.209L72.712,95.982L74.1,94.36L75.488,92.28L76.875,89.687L78.263,86.546L79.65,82.843L81.038,78.592L82.425,73.833L83.813,68.627L85.2,63.05L86.587,57.186L87.975,51.119L89.363,44.93L90.75,38.701L92.137,32.517L93.525,26.48L94.913,20.713L96.3,15.363L97.688,10.604L99.075,6.616L100.463,3.569L101.85,1.596L103.237,0.768L104.625,1.074L106.013,2.412L107.4,4.593L108.788,7.362L110.175,10.425L111.563,13.487L112.95,16.285L114.337,18.623L115.725,20.392L117.113,21.579L118.5,22.266L119.888,22.617L121.275,22.849L122.663,23.209L124.05,23.945L125.437,25.274L126.825,27.361L128.212,30.302L129.6,34.116L130.988,38.745L132.375,44.063L133.763,49.886L135.15,55.996L136.538,62.164L137.925,68.167L139.312,73.812L140.7,78.947L142.088,83.47L143.475,87.33L144.862,90.524L146.25,93.087L147.638,95.083L149.025,96.59L150.412,97.696L151.8,98.483L153.188,99.028L154.575,99.393L155.963,99.631L157.35,99.781L158.738,99.874L160.125,99.929L161.513,99.961L162.9,99.98L164.288,99.989L165.675,99.995L167.062,99.997L168.45,99.999L169.838,99.999L171.225,100L172.612,100L174,100L175.388,100L176.775,100L178.163,100L179.55,100L180.938,100L182.325,100L183.713,100L185.1,100L186.487,100L187.875,100L189.263,100L190.65,100L192.038,100L193.425,100L194.813,100L196.2,100L197.588,100L198.975,100L200.363,100L201.75,100L203.138,100L204.525,100L205.913,100L207.3,100L208.687,100L210.075,100L211.462,100L212.85,100L214.237,100L215.625,100L217.013,100L218.4,100L219.788,100L221.175,100L222.563,100L223.95,100L225.338,100L226.725,100L228.113,100L229.5,100L230.888,100L232.275,100L233.662,100L235.05,100L236.437,100L237.825,100L239.213,100L240.6,100L241.988,100L243.375,100L244.763,100L246.15,100L247.538,100L248.925,100L250.313,100L251.7,100L253.087,100L254.475,100L255.862,100L257.25,100L258.638,100L260.025,100L261.413,100L262.8,100L264.188,100L265.575,100L266.963,100L268.35,100L269.738,100L271.125,100L272.513,100L273.9,100L275.287,100L276.675,100L278.063,100L279.45,100L280.838,100L282.225,100L283.613,100L285,100" stroke="#f58518" stroke-width="2"/></g></g><path class="foreground" aria-hidden="true" d="" display="none"/></g><g transform="translate(0,0)"><path class="background" aria-hidden="true" d="M0,0h300v100h-300Z"/><g><g class="mark-line role-mark child_marks" role="graphics-symbol" aria-roledescription="line mark container"><path d="M7.5,100L8.888,100L10.275,100L11.662,100L13.05,100L14.438,100L15.825,100L17.213,100L18.6,100L19.988,100L21.375,100L22.763,100L24.15,100L25.537,100L26.925,100L28.313,100L29.7,100L31.088,100L32.475,100L33.863,100L35.25,100L36.638,100L38.025,100L39.412,100L40.8,100L42.188,100L43.575,100L44.963,100L46.35,100L47.738,100L49.125,100L50.512,100L51.9,100L53.288,100L54.675,100L56.062,100L57.45,100L58.837,99.999L60.225,99.999L61.612,99.999L63,99.998L64.387,99.998L65.775,99.997L67.163,99.996L68.55,99.995L69.938,99.993L71.325,99.992L72.712,99.989L74.1,99.986L75.488,99.982L76.875,99.977L78.263,99.971L79.65,99.963L81.038,99.954L82.425,99.943L83.813,99.929L85.2,99.912L86.587,99.892L87.975,99.868L89.363,99.84L90.75,99.807L92.137,99.768L93.525,99.723L94.913,99.671L96.3,99.612L97.688,99.544L99.075,99.467L100.463,99.38L101.85,99.283L103.237,99.175L104.625,99.056L106.013,98.925L107.4,98.784L108.788,98.63L110.175,98.466L111.563,98.291L112.95,98.107L114.337,97.913L115.725,97.713L117.113,97.506L118.5,97.295L119.888,97.082L121.275,96.869L122.663,96.658L124.05,96.452L125.437,96.253L126.825,96.064L128.212,95.887L129.6,95.724L130.988,95.578L132.375,95.451L133.763,95.344L135.15,95.258L136.538,95.195L137.925,95.155L139.312,95.137L140.7,95.143L142.088,95.17L143.475,95.218L144.862,95.284L146.25,95.367L147.638,95.465L149.025,95.573L150.412,95.69L151.8,95.812L153.188,95.937L154.575,96.06L155.963,96.178L157.35,96.289L158.738,96.39L160.125,96.478L161.513,96.551L162.9,96.607L164.288,96.644L165.675,96.662L167.062,96.66L168.45,96.639L169.838,96.598L171.225,96.539L172.612,96.464L174,96.374L175.388,96.271L176.775,96.158L178.163,96.039L179.55,95.915L180.938,95.791L182.325,95.67L183.713,95.554L185.1,95.447L186.487,95.352L187.875,95.272L189.263,95.208L190.65,95.164L192.038,95.14L193.425,95.139L194.813,95.16L196.2,95.204L197.588,95.271L198.975,95.361L200.363,95.471L201.75,95.602L203.138,95.751L204.525,95.916L205.913,96.096L207.3,96.287L208.687,96.487L210.075,96.694L211.462,96.905L212.85,97.119L214.237,97.332L215.625,97.542L217.013,97.748L218.4,97.947L219.788,98.139L221.175,98.322L222.563,98.495L223.95,98.657L225.338,98.809L226.725,98.949L228.113,99.077L229.5,99.194L230.888,99.3L232.275,99.395L233.662,99.48L235.05,99.556L236.437,99.623L237.825,99.681L239.213,99.732L240.6,99.776L241.988,99.813L243.375,99.845L244.763,99.873L246.15,99.896L247.538,99.915L248.925,99.931L250.313,99.945L251.7,99.956L253.087,99.965L254.475,99.972L255.862,99.978L257.25,99.983L258.638,99.986L260.025,99.99L261.413,99.992L262.8,99.994L264.188,99.995L265.575,99.996L266.963,99.997L268.35,99.998L269.738,99.998L271.125,99.999L272.513,99.999L273.9,99.999L275.287,100L276.675,100L278.063,100L279.45,100L280.838,100L282.225,100L283.613,100L285,100" stroke="#e45756" stroke-width="2"/></g></g><path class="foreground" aria-hidden="true" d="" display="none"/></g><g transform="translate(0,0)"><path class="background" aria-hidden="true" d="M0,0h300v100h-300Z"/><g><g class="mark-line role-mark child_marks" role="graphics-symbol" aria-roledescription="line mark container"><path d="M7.5,100L8.888,100L10.275,100L11.662,100L13.05,100L14.438,100L15.825,100L17.213,100L18.6,100L19.988,100L21.375,100L22.763,100L24.15,100L25.537,100L26.925,100L28.313,100L29.7,100L31.088,100L32.475,100L33.863,100L35.25,100L36.638,100L38.025,100L39.412,100L40.8,100L42.188,100L43.575,100L44.963,100L46.35,99.999L47.738,99.997L49.125,99.992L50.512,99.977L51.9,99.944L53.288,99.87L54.675,99.718L56.062,99.427L57.45,98.911L58.837,98.064L60.225,96.78L61.612,94.984L63,92.675L64.387,89.957L65.775,87.038L67.163,84.184L68.55,81.639L69.938,79.522L71.325,77.769L72.712,76.135L74.1,74.281L75.488,71.902L76.875,68.838L78.263,65.131L79.65,60.99L81.038,56.706L82.425,52.558L83.813,48.772L85.2,45.542L86.587,43.085L87.975,41.687L89.363,41.692L90.75,43.408L92.137,46.992L93.525,52.338L94.913,59.051L96.3,66.511L97.688,74.008L99.075,80.9L100.463,86.736L101.85,91.309L103.237,94.633L104.625,96.88L106.013,98.293L107.4,99.123L108.788,99.576L110.175,99.808L111.563,99.918L112.95,99.967L114.337,99.988L115.725,99.996L117.113,99.999L118.5,100L119.888,100L121.275,100L122.663,100L124.05,100L125.437,100L126.825,100L128.212,100L129.6,100L130.988,100L132.375,100L133.763,100L135.15,100L136.538,100L137.925,100L139.312,100L140.7,100L142.088,100L143.475,100L144.862,100L146.25,100L147.638,100L149.025,100L150.412,100L151.8,100L153.188,100L154.575,100L155.963,100L157.35,100L158.738,100L160.125,100L161.513,100L162.9,100L164.288,100L165.675,100L167.062,100L168.45,100L169.838,100L171.225,100L172.612,100L174,100L175.388,100L176.775,100L178.163,100L179.55,100L180.938,100L182.325,100L183.713,100L185.1,100L186.487,100L187.875,100L189.263,100L190.65,100L192.038,100L193.425,100L194.813,100L196.2,100L197.588,100L198.975,100L200.363,100L201.75,100L203.138,100L204.525,100L205.913,100L207.3,100L208.687,100L210.075,100L211.462,100L212.85,100L214.237,100L215.625,100L217.013,100L218.4,100L219.788,100L221.175,100L222.563,100L223.95,100L225.338,100L226.725,100L228.113,100L229.5,100L230.888,100L232.275,100L233.662,100L235.05,100L236.437,100L237.825,100L239.213,100L240.6,100L241.988,100L243.375,100L244.763,100L246.15,100L247.538,100L248.925,100L250.313,100L251.7,100L253.087,100L254.475,100L255.862,100L257.25,100L258.638,100L260.025,100L261.413,100L262.8,100L264.188,100L265.575,100L266.963,100L268.35,100L269.738,100L271.125,100L272.513,100L273.9,100L275.287,100L276.675,100L278.063,100L279.45,100L280.838,100L282.225,100L283.613,100L285,100" stroke="#4c78a8" stroke-width="2"/></g></g><path class="foreground" aria-hidden="true" d="" display="none"/></g></g></g><path class="foreground" aria-hidden="true" d="" display="none"/></g><g transform="translate(350,0)"><path class="background" aria-hidden="true" d="M0.5,0.5h300v100h-300Z" stroke="#ddd"/><g><g class="mark-group role-axis" aria-hidden="true"><g transform="translate(0.5,100.5)"><path class="background" aria-hidden="true" d="M0,0h0v0h0Z" pointer-events="none"/><g><g class="mark-rule role-axis-grid" pointer-events="none"><line transform="translate(0,-100)" x2="0" y2="100" stroke="#ddd" stroke-width="1" opacity="1"/><line transform="translate(25,-100)" x2="0" y2="100" stroke="#ddd" stroke-width="1" opacity="1"/><line transform="translate(50,-100)" x2="0" y2="100" stroke="#ddd" stroke-width="1" opacity="1"/><line transform="translate(75,-100)" x2="0" y2="100" stroke="#ddd" stroke-width="1" opacity="1"/><line transform="translate(100,-100)" x2="0" y2="100" stroke="#ddd" stroke-width="1" opacity="1"/><line transform="translate(125,-100)" x2="0" y2="100" stroke="#ddd" stroke-width="1" opacity="1"/><line transform="translate(150,-100)" x2="0" y2="100" stroke="#ddd" stroke-width="1" opacity="1"/><line transform="translate(175,-100)" x2="0" y2="100" stroke="#ddd" stroke-width="1" opacity="1"/><line transform="translate(200,-100)" x2="0" y2="100" stroke="#ddd" stroke-width="1" opacity="1"/><line transform="translate(225,-100)" x2="0" y2="100" stroke="#ddd" stroke-width="1" opacity="1"/><line transform="translate(250,-100)" x2="0" y2="100" stroke="#ddd" stroke-width="1" opacity="1"/><line transform="translate(275,-100)" x2="0" y2="100" stroke="#ddd" stroke-width="1" opacity="1"/><line transform="translate(300,-100)" x2="0" y2="100" stroke="#ddd" stroke-width="1" opacity="1"/></g></g><path class="foreground" aria-hidden="true" d="" pointer-events="none" display="none"/></g></g><g class="mark-group role-axis" aria-hidden="true"><g transform="translate(0.5,0.5)"><path class="background" aria-hidden="true" d="M0,0h0v0h0Z" pointer-events="none"/><g><g class="mark-rule role-axis-grid" pointer-events="none"><line transform="translate(0,100)" x2="300" y2="0" stroke="#ddd" stroke-width="1" opacity="1"/><line transform="translate(0,75)" x2="300" y2="0" stroke="#ddd" stroke-width="1" opacity="1"/><line transform="translate(0,50)" x2="300" y2="0" stroke="#ddd" stroke-width="1" opacity="1"/><line transform="translate(0,25)" x2="300" y2="0" stroke="#ddd" stroke-width="1" opacity="1"/><line transform="translate(0,0)" x2="300" y2="0" stroke="#ddd" stroke-width="1" opacity="1"/></g></g><path class="foreground" aria-hidden="true" d="" pointer-events="none" display="none"/></g></g><g class="mark-group role-axis" role="graphics-symbol" aria-roledescription="axis" aria-label="Y-axis titled 'density' for a linear scale with values from 0 to 4"><g transform="translate(0.5,0.5)"><path class="background" aria-hidden="true" d="M0,0h0v0h0Z" pointer-events="none"/><g><g class="mark-rule role-axis-tick" pointer-events="none"><line transform="translate(0,100)" x2="-5" y2="0" stroke="#888" stroke-width="1" opacity="1"/><line transform="translate(0,75)" x2="-5" y2="0" stroke="#888" stroke-width="1" opacity="1"/><line transform="translate(0,50)" x2="-5" y2="0" stroke="#888" stroke-width="1" opacity="1"/><line transform="translate(0,25)" x2="-5" y2="0" stroke="#888" stroke-width="1" opacity="1"/><line transform="translate(0,0)" x2="-5" y2="0" stroke="#888" stroke-width="1" opacity="1"/></g><g class="mark-text role-axis-label" pointer-events="none"><text text-anchor="end" transform="translate(-7,103)" font-family="sans-serif" font-size="10px" fill="#000" opacity="1">0</text><text text-anchor="end" transform="translate(-7,78)" font-family="sans-serif" font-size="10px" fill="#000" opacity="1">1</text><text text-anchor="end" transform="translate(-7,53)" font-family="sans-serif" font-size="10px" fill="#000" opacity="1">2</text><text text-anchor="end" transform="translate(-7,28)" font-family="sans-serif" font-size="10px" fill="#000" opacity="1">3</text><text text-anchor="end" transform="translate(-7,3)" font-family="sans-serif" font-size="10px" fill="#000" opacity="1">4</text></g><g class="mark-rule role-axis-domain" pointer-events="none"><line transform="translate(0,100)" x2="0" y2="-100" stroke="#888" stroke-width="1" opacity="1"/></g><g class="mark-text role-axis-title" pointer-events="none"><text text-anchor="middle" transform="translate(-16.5615234375,50) rotate(-90) translate(0,-2)" font-family="sans-serif" font-size="11px" font-weight="bold" fill="#000" opacity="1">density</text></g></g><path class="foreground" aria-hidden="true" d="" pointer-events="none" display="none"/></g></g><g class="mark-group role-scope child_pathgroup" role="graphics-object" aria-roledescription="group mark container"><g transform="translate(0,0)"><path class="background" aria-hidden="true" d="M0,0h300v100h-300Z"/><g><g class="mark-line role-mark child_marks" role="graphics-symbol" aria-roledescription="line mark container"><path d="M7.5,100L8.888,100L10.275,100L11.662,100L13.05,100L14.438,100L15.825,100L17.213,100L18.6,100L19.988,100L21.375,100L22.763,100L24.15,100L25.537,100L26.925,100L28.313,100L29.7,100L31.088,100L32.475,100L33.863,100L35.25,100L36.638,99.999L38.025,99.998L39.412,99.997L40.8,99.993L42.188,99.987L43.575,99.977L44.963,99.958L46.35,99.927L47.738,99.879L49.125,99.804L50.512,99.694L51.9,99.538L53.288,99.322L54.675,99.034L56.062,98.66L57.45,98.186L58.837,97.595L60.225,96.867L61.612,95.974L63,94.876L64.387,93.518L65.775,91.831L67.163,89.734L68.55,87.141L69.938,83.973L71.325,80.178L72.712,75.744L74.1,70.715L75.488,65.201L76.875,59.368L78.263,53.431L79.65,47.625L81.038,42.172L82.425,37.252L83.813,32.98L85.2,29.386L86.587,26.424L87.975,23.982L89.363,21.91L90.75,20.048L92.137,18.254L93.525,16.429L94.913,14.528L96.3,12.57L97.688,10.634L99.075,8.847L100.463,7.372L101.85,6.384L103.237,6.046L104.625,6.483L106.013,7.767L107.4,9.902L108.788,12.825L110.175,16.414L111.563,20.505L112.95,24.911L114.337,29.446L115.725,33.942L117.113,38.259L118.5,42.297L119.888,45.996L121.275,49.339L122.663,52.339L124.05,55.044L125.437,57.521L126.825,59.849L128.212,62.114L129.6,64.391L130.988,66.743L132.375,69.206L133.763,71.793L135.15,74.486L136.538,77.243L137.925,80.004L139.312,82.697L140.7,85.252L142.088,87.605L143.475,89.707L144.862,91.53L146.25,93.062L147.638,94.313L149.025,95.3L150.412,96.05L151.8,96.591L153.188,96.949L154.575,97.149L155.963,97.216L157.35,97.176L158.738,97.059L160.125,96.898L161.513,96.73L162.9,96.591L164.288,96.514L165.675,96.522L167.062,96.627L168.45,96.828L169.838,97.111L171.225,97.456L172.612,97.834L174,98.219L175.388,98.586L176.775,98.915L178.163,99.197L179.55,99.426L180.938,99.604L182.325,99.737L183.713,99.831L185.1,99.895L186.487,99.937L187.875,99.964L189.263,99.98L190.65,99.989L192.038,99.994L193.425,99.997L194.813,99.999L196.2,99.999L197.588,100L198.975,100L200.363,100L201.75,100L203.138,100L204.525,100L205.913,100L207.3,100L208.687,100L210.075,100L211.462,100L212.85,100L214.237,100L215.625,100L217.013,100L218.4,100L219.788,100L221.175,100L222.563,100L223.95,100L225.338,100L226.725,100L228.113,100L229.5,100L230.888,100L232.275,100L233.662,100L235.05,100L236.437,100L237.825,100L239.213,100L240.6,100L241.988,100L243.375,100L244.763,100L246.15,100L247.538,100L248.925,100L250.313,100L251.7,100L253.087,100L254.475,100L255.862,100L257.25,100L258.638,100L260.025,100L261.413,100L262.8,100L264.188,100L265.575,100L266.963,100L268.35,100L269.738,100L271.125,100L272.513,100L273.9,100L275.287,100L276.675,100L278.063,100L279.45,100L280.838,100L282.225,100L283.613,100L285,100" stroke="#f58518" stroke-width="2"/></g></g><path class="foreground" aria-hidden="true" d="" display="none"/></g><g transform="translate(0,0)"><path class="background" aria-hidden="true" d="M0,0h300v100h-300Z"/><g><g class="mark-line role-mark child_marks" role="graphics-symbol" aria-roledescription="line mark container"><path d="M7.5,100L8.888,100L10.275,100L11.662,100L13.05,100L14.438,100L15.825,100L17.213,100L18.6,100L19.988,100L21.375,100L22.763,100L24.15,100L25.537,100L26.925,100L28.313,100L29.7,100L31.088,100L32.475,100L33.863,100L35.25,100L36.638,100L38.025,100L39.412,100L40.8,100L42.188,100L43.575,99.999L44.963,99.999L46.35,99.998L47.738,99.997L49.125,99.996L50.512,99.994L51.9,99.992L53.288,99.989L54.675,99.984L56.062,99.978L57.45,99.97L58.837,99.96L60.225,99.946L61.612,99.929L63,99.909L64.387,99.883L65.775,99.852L67.163,99.815L68.55,99.772L69.938,99.722L71.325,99.664L72.712,99.6L74.1,99.529L75.488,99.452L76.875,99.369L78.263,99.282L79.65,99.191L81.038,99.099L82.425,99.005L83.813,98.913L85.2,98.824L86.587,98.738L87.975,98.658L89.363,98.585L90.75,98.52L92.137,98.464L93.525,98.416L94.913,98.377L96.3,98.348L97.688,98.327L99.075,98.314L100.463,98.307L101.85,98.306L103.237,98.307L104.625,98.31L106.013,98.312L107.4,98.308L108.788,98.297L110.175,98.274L111.563,98.236L112.95,98.179L114.337,98.1L115.725,97.996L117.113,97.865L118.5,97.704L119.888,97.515L121.275,97.297L122.663,97.053L124.05,96.787L125.437,96.503L126.825,96.207L128.212,95.907L129.6,95.611L130.988,95.328L132.375,95.065L133.763,94.832L135.15,94.636L136.538,94.483L137.925,94.38L139.312,94.33L140.7,94.333L142.088,94.391L143.475,94.501L144.862,94.659L146.25,94.86L147.638,95.095L149.025,95.358L150.412,95.641L151.8,95.933L153.188,96.229L154.575,96.519L155.963,96.797L157.35,97.059L158.738,97.3L160.125,97.517L161.513,97.71L162.9,97.878L164.288,98.022L165.675,98.144L167.062,98.245L168.45,98.328L169.838,98.395L171.225,98.447L172.612,98.488L174,98.516L175.388,98.534L176.775,98.542L178.163,98.541L179.55,98.529L180.938,98.509L182.325,98.479L183.713,98.442L185.1,98.398L186.487,98.349L187.875,98.296L189.263,98.243L190.65,98.191L192.038,98.144L193.425,98.104L194.813,98.074L196.2,98.056L197.588,98.053L198.975,98.065L200.363,98.093L201.75,98.137L203.138,98.198L204.525,98.273L205.913,98.362L207.3,98.462L208.687,98.571L210.075,98.686L211.462,98.804L212.85,98.924L214.237,99.042L215.625,99.156L217.013,99.266L218.4,99.368L219.788,99.462L221.175,99.547L222.563,99.623L223.95,99.69L225.338,99.748L226.725,99.798L228.113,99.84L229.5,99.874L230.888,99.902L232.275,99.925L233.662,99.944L235.05,99.958L236.437,99.969L237.825,99.977L239.213,99.984L240.6,99.988L241.988,99.992L243.375,99.994L244.763,99.996L246.15,99.997L247.538,99.998L248.925,99.999L250.313,99.999L251.7,100L253.087,100L254.475,100L255.862,100L257.25,100L258.638,100L260.025,100L261.413,100L262.8,100L264.188,100L265.575,100L266.963,100L268.35,100L269.738,100L271.125,100L272.513,100L273.9,100L275.287,100L276.675,100L278.063,100L279.45,100L280.838,100L282.225,100L283.613,100L285,100" stroke="#e45756" stroke-width="2"/></g></g><path class="foreground" aria-hidden="true" d="" display="none"/></g><g transform="translate(0,0)"><path class="background" aria-hidden="true" d="M0,0h300v100h-300Z"/><g><g class="mark-line role-mark child_marks" role="graphics-symbol" aria-roledescription="line mark container"><path d="M7.5,100L8.888,100L10.275,100L11.662,100L13.05,100L14.438,100L15.825,100L17.213,100L18.6,100L19.988,100L21.375,100L22.763,100L24.15,100L25.537,100L26.925,100L28.313,100L29.7,100L31.088,100L32.475,100L33.863,100L35.25,100L36.638,100L38.025,100L39.412,100L40.8,100L42.188,100L43.575,100L44.963,100L46.35,100L47.738,100L49.125,99.999L50.512,99.994L51.9,99.976L53.288,99.919L54.675,99.761L56.062,99.378L57.45,98.576L58.837,97.122L60.225,94.841L61.612,91.728L63,88.006L64.387,84.026L65.775,80.074L67.163,76.218L68.55,72.313L69.938,68.151L71.325,63.641L72.712,58.866L74.1,54L75.488,49.147L76.875,44.206L78.263,38.92L79.65,33.102L81.038,26.963L82.425,21.277L83.813,17.221L85.2,15.933L86.587,18.033L87.975,23.401L89.363,31.301L90.75,40.706L92.137,50.598L93.525,60.115L94.913,68.563L96.3,75.417L97.688,80.375L99.075,83.431L100.463,84.912L101.85,85.379L103.237,85.464L104.625,85.684L106.013,86.339L107.4,87.499L108.788,89.055L110.175,90.8L111.563,92.492L112.95,93.91L114.337,94.911L115.725,95.495L117.113,95.816L118.5,96.113L119.888,96.579L121.275,97.255L122.663,98.035L124.05,98.76L125.437,99.313L126.825,99.667L128.212,99.859L129.6,99.948L130.988,99.983L132.375,99.995L133.763,99.999L135.15,100L136.538,100L137.925,100L139.312,100L140.7,100L142.088,100L143.475,100L144.862,100L146.25,100L147.638,100L149.025,100L150.412,100L151.8,100L153.188,100L154.575,100L155.963,100L157.35,100L158.738,100L160.125,100L161.513,100L162.9,100L164.288,100L165.675,100L167.062,100L168.45,100L169.838,100L171.225,100L172.612,100L174,100L175.388,100L176.775,100L178.163,100L179.55,100L180.938,100L182.325,100L183.713,100L185.1,100L186.487,100L187.875,100L189.263,100L190.65,100L192.038,100L193.425,100L194.813,100L196.2,100L197.588,100L198.975,100L200.363,100L201.75,100L203.138,100L204.525,100L205.913,100L207.3,100L208.687,100L210.075,100L211.462,100L212.85,100L214.237,100L215.625,100L217.013,100L218.4,100L219.788,100L221.175,100L222.563,100L223.95,100L225.338,100L226.725,100L228.113,100L229.5,100L230.888,100L232.275,100L233.662,100L235.05,100L236.437,100L237.825,100L239.213,100L240.6,100L241.988,100L243.375,100L244.763,100L246.15,100L247.538,100L248.925,100L250.313,100L251.7,100L253.087,100L254.475,100L255.862,100L257.25,100L258.638,100L260.025,100L261.413,100L262.8,100L264.188,100L265.575,100L266.963,100L268.35,100L269.738,100L271.125,100L272.513,100L273.9,100L275.287,100L276.675,100L278.063,100L279.45,100L280.838,100L282.225,100L283.613,100L285,100" stroke="#4c78a8" stroke-width="2"/></g></g><path class="foreground" aria-hidden="true" d="" display="none"/></g></g></g><path class="foreground" aria-hidden="true" d="" display="none"/></g><g transform="translate(0,132)"><path class="background" aria-hidden="true" d="M0.5,0.5h300v100h-300Z" stroke="#ddd"/><g><g class="mark-group role-axis" aria-hidden="true"><g transform="translate(0.5,100.5)"><path class="background" aria-hidden="true" d="M0,0h0v0h0Z" pointer-events="none"/><g><g class="mark-rule role-axis-grid" pointer-events="none"><line transform="translate(0,-100)" x2="0" y2="100" stroke="#ddd" stroke-width="1" opacity="1"/><line transform="translate(25,-100)" x2="0" y2="100" stroke="#ddd" stroke-width="1" opacity="1"/><line transform="translate(50,-100)" x2="0" y2="100" stroke="#ddd" stroke-width="1" opacity="1"/><line transform="translate(75,-100)" x2="0" y2="100" stroke="#ddd" stroke-width="1" opacity="1"/><line transform="translate(100,-100)" x2="0" y2="100" stroke="#ddd" stroke-width="1" opacity="1"/><line transform="translate(125,-100)" x2="0" y2="100" stroke="#ddd" stroke-width="1" opacity="1"/><line transform="translate(150,-100)" x2="0" y2="100" stroke="#ddd" stroke-width="1" opacity="1"/><line transform="translate(175,-100)" x2="0" y2="100" stroke="#ddd" stroke-width="1" opacity="1"/><line transform="translate(200,-100)" x2="0" y2="100" stroke="#ddd" stroke-width="1" opacity="1"/><line transform="translate(225,-100)" x2="0" y2="100" stroke="#ddd" stroke-width="1" opacity="1"/><line transform="translate(250,-100)" x2="0" y2="100" stroke="#ddd" stroke-width="1" opacity="1"/><line transform="translate(275,-100)" x2="0" y2="100" stroke="#ddd" stroke-width="1" opacity="1"/><line transform="translate(300,-100)" x2="0" y2="100" stroke="#ddd" stroke-width="1" opacity="1"/></g></g><path class="foreground" aria-hidden="true" d="" pointer-events="none" display="none"/></g></g><g class="mark-group role-axis" aria-hidden="true"><g transform="translate(0.5,0.5)"><path class="background" aria-hidden="true" d="M0,0h0v0h0Z" pointer-events="none"/><g><g class="mark-rule role-axis-grid" pointer-events="none"><line transform="translate(0,100)" x2="300" y2="0" stroke="#ddd" stroke-width="1" opacity="1"/><line transform="translate(0,50)" x2="300" y2="0" stroke="#ddd" stroke-width="1" opacity="1"/><line transform="translate(0,0)" x2="300" y2="0" stroke="#ddd" stroke-width="1" opacity="1"/></g></g><path class="foreground" aria-hidden="true" d="" pointer-events="none" display="none"/></g></g><g class="mark-group role-axis" role="graphics-symbol" aria-roledescription="axis" aria-label="Y-axis titled 'density' for a linear scale with values from 0.0 to 1.0"><g transform="translate(0.5,0.5)"><path class="background" aria-hidden="true" d="M0,0h0v0h0Z" pointer-events="none"/><g><g class="mark-rule role-axis-tick" pointer-events="none"><line transform="translate(0,100)" x2="-5" y2="0" stroke="#888" stroke-width="1" opacity="1"/><line transform="translate(0,50)" x2="-5" y2="0" stroke="#888" stroke-width="1" opacity="1"/><line transform="translate(0,0)" x2="-5" y2="0" stroke="#888" stroke-width="1" opacity="1"/></g><g class="mark-text role-axis-label" pointer-events="none"><text text-anchor="end" transform="translate(-7,103)" font-family="sans-serif" font-size="10px" fill="#000" opacity="1">0.0</text><text text-anchor="end" transform="translate(-7,53)" font-family="sans-serif" font-size="10px" fill="#000" opacity="1">0.5</text><text text-anchor="end" transform="translate(-7,3)" font-family="sans-serif" font-size="10px" fill="#000" opacity="1">1.0</text></g><g class="mark-rule role-axis-domain" pointer-events="none"><line transform="translate(0,100)" x2="0" y2="-100" stroke="#888" stroke-width="1" opacity="1"/></g><g class="mark-text role-axis-title" pointer-events="none"><text text-anchor="middle" transform="translate(-24.9013671875,50) rotate(-90) translate(0,-2)" font-family="sans-serif" font-size="11px" font-weight="bold" fill="#000" opacity="1">density</text></g></g><path class="foreground" aria-hidden="true" d="" pointer-events="none" display="none"/></g></g><g class="mark-group role-scope child_pathgroup" role="graphics-object" aria-roledescription="group mark container"><g transform="translate(0,0)"><path class="background" aria-hidden="true" d="M0,0h300v100h-300Z"/><g><g class="mark-line role-mark child_marks" role="graphics-symbol" aria-roledescription="line mark container"><path d="M7.5,100L8.888,100L10.275,100L11.662,100L13.05,100L14.438,100L15.825,100L17.213,100L18.6,100L19.988,100L21.375,100L22.763,100L24.15,100L25.537,100L26.925,100L28.313,100L29.7,100L31.088,100L32.475,100L33.863,100L35.25,100L36.638,99.999L38.025,99.999L39.412,99.998L40.8,99.996L42.188,99.994L43.575,99.991L44.963,99.985L46.35,99.976L47.738,99.963L49.125,99.944L50.512,99.915L51.9,99.873L53.288,99.813L54.675,99.729L56.062,99.611L57.45,99.449L58.837,99.23L60.225,98.937L61.612,98.553L63,98.054L64.387,97.417L65.775,96.614L67.163,95.617L68.55,94.396L69.938,92.922L71.325,91.168L72.712,89.112L74.1,86.735L75.488,84.026L76.875,80.985L78.263,77.619L79.65,73.947L81.038,69.999L82.425,65.817L83.813,61.449L85.2,56.954L86.587,52.395L87.975,47.839L89.363,43.353L90.75,39L92.137,34.839L93.525,30.921L94.913,27.287L96.3,23.971L97.688,20.992L99.075,18.362L100.463,16.08L101.85,14.138L103.237,12.519L104.625,11.202L106.013,10.158L107.4,9.356L108.788,8.762L110.175,8.342L111.563,8.062L112.95,7.889L114.337,7.792L115.725,7.745L117.113,7.726L118.5,7.72L119.888,7.72L121.275,7.724L122.663,7.74L124.05,7.783L125.437,7.875L126.825,8.043L128.212,8.317L129.6,8.73L130.988,9.31L132.375,10.083L133.763,11.069L135.15,12.282L136.538,13.724L137.925,15.392L139.312,17.272L140.7,19.347L142.088,21.59L143.475,23.975L144.862,26.472L146.25,29.052L147.638,31.688L149.025,34.354L150.412,37.028L151.8,39.69L153.188,42.324L154.575,44.917L155.963,47.456L157.35,49.932L158.738,52.339L160.125,54.671L161.513,56.927L162.9,59.107L164.288,61.213L165.675,63.251L167.062,65.23L168.45,67.159L169.838,69.047L171.225,70.906L172.612,72.745L174,74.569L175.388,76.384L176.775,78.19L178.163,79.983L179.55,81.757L180.938,83.5L182.325,85.201L183.713,86.844L185.1,88.416L186.487,89.902L187.875,91.288L189.263,92.566L190.65,93.727L192.038,94.768L193.425,95.688L194.813,96.489L196.2,97.176L197.588,97.757L198.975,98.241L200.363,98.639L201.75,98.96L203.138,99.216L204.525,99.416L205.913,99.572L207.3,99.69L208.687,99.778L210.075,99.844L211.462,99.891L212.85,99.926L214.237,99.95L215.625,99.966L217.013,99.978L218.4,99.986L219.788,99.991L221.175,99.994L222.563,99.996L223.95,99.998L225.338,99.999L226.725,99.999L228.113,100L229.5,100L230.888,100L232.275,100L233.662,100L235.05,100L236.437,100L237.825,100L239.213,100L240.6,100L241.988,100L243.375,100L244.763,100L246.15,100L247.538,100L248.925,100L250.313,100L251.7,100L253.087,100L254.475,100L255.862,100L257.25,100L258.638,100L260.025,100L261.413,100L262.8,100L264.188,100L265.575,100L266.963,100L268.35,100L269.738,100L271.125,100L272.513,100L273.9,100L275.287,100L276.675,100L278.063,100L279.45,100L280.838,100L282.225,100L283.613,100L285,100" stroke="#f58518" stroke-width="2"/></g></g><path class="foreground" aria-hidden="true" d="" display="none"/></g><g transform="translate(0,0)"><path class="background" aria-hidden="true" d="M0,0h300v100h-300Z"/><g><g class="mark-line role-mark child_marks" role="graphics-symbol" aria-roledescription="line mark container"><path d="M7.5,100L8.888,100L10.275,100L11.662,100L13.05,100L14.438,100L15.825,100L17.213,100L18.6,100L19.988,100L21.375,100L22.763,100L24.15,100L25.537,100L26.925,100L28.313,100L29.7,100L31.088,100L32.475,100L33.863,100L35.25,100L36.638,100L38.025,100L39.412,100L40.8,100L42.188,99.999L43.575,99.999L44.963,99.999L46.35,99.998L47.738,99.996L49.125,99.994L50.512,99.991L51.9,99.986L53.288,99.98L54.675,99.97L56.062,99.956L57.45,99.937L58.837,99.911L60.225,99.876L61.612,99.829L63,99.767L64.387,99.687L65.775,99.585L67.163,99.456L68.55,99.296L69.938,99.098L71.325,98.859L72.712,98.57L74.1,98.226L75.488,97.82L76.875,97.344L78.263,96.79L79.65,96.148L81.038,95.408L82.425,94.559L83.813,93.587L85.2,92.479L86.587,91.219L87.975,89.792L89.363,88.181L90.75,86.372L92.137,84.351L93.525,82.107L94.913,79.636L96.3,76.936L97.688,74.013L99.075,70.878L100.463,67.551L101.85,64.058L103.237,60.43L104.625,56.704L106.013,52.921L107.4,49.125L108.788,45.36L110.175,41.672L111.563,38.103L112.95,34.695L114.337,31.487L115.725,28.513L117.113,25.806L118.5,23.393L119.888,21.299L121.275,19.542L122.663,18.138L124.05,17.096L125.437,16.419L126.825,16.103L128.212,16.139L129.6,16.509L130.988,17.19L132.375,18.153L133.763,19.366L135.15,20.795L136.538,22.405L137.925,24.164L139.312,26.045L140.7,28.023L142.088,30.084L143.475,32.215L144.862,34.414L146.25,36.678L147.638,39.009L149.025,41.411L150.412,43.882L151.8,46.421L153.188,49.019L154.575,51.664L155.963,54.338L157.35,57.019L158.738,59.682L160.125,62.299L161.513,64.847L162.9,67.299L164.288,69.637L165.675,71.845L167.062,73.912L168.45,75.833L169.838,77.606L171.225,79.235L172.612,80.726L174,82.086L175.388,83.325L176.775,84.451L178.163,85.475L179.55,86.405L180.938,87.248L182.325,88.013L183.713,88.705L185.1,89.331L186.487,89.897L187.875,90.407L189.263,90.867L190.65,91.281L192.038,91.653L193.425,91.987L194.813,92.287L196.2,92.554L197.588,92.792L198.975,93.003L200.363,93.189L201.75,93.354L203.138,93.502L204.525,93.636L205.913,93.762L207.3,93.884L208.687,94.009L210.075,94.142L211.462,94.288L212.85,94.45L214.237,94.629L215.625,94.826L217.013,95.038L218.4,95.26L219.788,95.486L221.175,95.708L222.563,95.918L223.95,96.106L225.338,96.263L226.725,96.384L228.113,96.462L229.5,96.495L230.888,96.483L232.275,96.429L233.662,96.338L235.05,96.221L236.437,96.086L237.825,95.946L239.213,95.813L240.6,95.698L241.988,95.614L243.375,95.568L244.763,95.567L246.15,95.616L247.538,95.714L248.925,95.86L250.313,96.048L251.7,96.27L253.087,96.516L254.475,96.776L255.862,97.038L257.25,97.29L258.638,97.521L260.025,97.72L261.413,97.878L262.8,97.99L264.188,98.049L265.575,98.054L266.963,98.004L268.35,97.902L269.738,97.751L271.125,97.56L272.513,97.335L273.9,97.088L275.287,96.83L276.675,96.573L278.063,96.329L279.45,96.111L280.838,95.93L282.225,95.794L283.613,95.711L285,95.686" stroke="#e45756" stroke-width="2"/></g></g><path class="foreground" aria-hidden="true" d="" display="none"/></g><g transform="translate(0,0)"><path class="background" aria-hidden="true" d="M0,0h300v100h-300Z"/><g><g class="mark-line role-mark child_marks" role="graphics-symbol" aria-roledescription="line mark container"><path d="M7.5,100L8.888,100L10.275,100L11.662,100L13.05,100L14.438,100L15.825,100L17.213,100L18.6,100L19.988,100L21.375,100L22.763,100L24.15,100L25.537,100L26.925,100L28.313,100L29.7,100L31.088,100L32.475,100L33.863,100L35.25,100L36.638,100L38.025,100L39.412,100L40.8,100L42.188,100L43.575,100L44.963,100L46.35,100L47.738,100L49.125,100L50.512,100L51.9,100L53.288,100L54.675,100L56.062,100L57.45,100L58.837,100L60.225,100L61.612,99.998L63,99.986L64.387,99.925L65.775,99.668L67.163,98.806L68.55,96.51L69.938,91.679L71.325,83.746L72.712,73.711L74.1,63.997L75.488,56.453L76.875,50.489L78.263,44.038L79.65,36.432L81.038,29.45L82.425,25.638L83.813,26.785L85.2,33.824L86.587,46.477L87.975,62.337L89.363,77.47L90.75,88.721L92.137,95.319L93.525,98.399L94.913,99.55L96.3,99.896L97.688,99.98L99.075,99.997L100.463,100L101.85,100L103.237,100L104.625,100L106.013,100L107.4,100L108.788,100L110.175,100L111.563,100L112.95,100L114.337,100L115.725,100L117.113,100L118.5,100L119.888,100L121.275,100L122.663,100L124.05,100L125.437,100L126.825,100L128.212,100L129.6,100L130.988,100L132.375,100L133.763,100L135.15,100L136.538,100L137.925,100L139.312,100L140.7,100L142.088,100L143.475,100L144.862,100L146.25,100L147.638,100L149.025,100L150.412,100L151.8,100L153.188,100L154.575,100L155.963,100L157.35,100L158.738,100L160.125,100L161.513,100L162.9,100L164.288,100L165.675,100L167.062,100L168.45,100L169.838,100L171.225,100L172.612,100L174,100L175.388,100L176.775,100L178.163,100L179.55,100L180.938,100L182.325,100L183.713,100L185.1,100L186.487,100L187.875,100L189.263,100L190.65,100L192.038,100L193.425,100L194.813,100L196.2,100L197.588,100L198.975,100L200.363,100L201.75,100L203.138,100L204.525,100L205.913,100L207.3,100L208.687,100L210.075,100L211.462,100L212.85,100L214.237,100L215.625,100L217.013,100L218.4,100L219.788,100L221.175,100L222.563,100L223.95,100L225.338,100L226.725,100L228.113,100L229.5,100L230.888,100L232.275,100L233.662,100L235.05,100L236.437,100L237.825,100L239.213,100L240.6,100L241.988,100L243.375,100L244.763,100L246.15,100L247.538,100L248.925,100L250.313,100L251.7,100L253.087,100L254.475,100L255.862,100L257.25,100L258.638,100L260.025,100L261.413,100L262.8,100L264.188,100L265.575,100L266.963,100L268.35,100L269.738,100L271.125,100L272.513,100L273.9,100L275.287,100L276.675,100L278.063,100L279.45,100L280.838,100L282.225,100L283.613,100L285,100" stroke="#4c78a8" stroke-width="2"/></g></g><path class="foreground" aria-hidden="true" d="" display="none"/></g></g></g><path class="foreground" aria-hidden="true" d="" display="none"/></g><g transform="translate(350,132)"><path class="background" aria-hidden="true" d="M0.5,0.5h300v100h-300Z" stroke="#ddd"/><g><g class="mark-group role-axis" aria-hidden="true"><g transform="translate(0.5,100.5)"><path class="background" aria-hidden="true" d="M0,0h0v0h0Z" pointer-events="none"/><g><g class="mark-rule role-axis-grid" pointer-events="none"><line transform="translate(0,-100)" x2="0" y2="100" stroke="#ddd" stroke-width="1" opacity="1"/><line transform="translate(25,-100)" x2="0" y2="100" stroke="#ddd" stroke-width="1" opacity="1"/><line transform="translate(50,-100)" x2="0" y2="100" stroke="#ddd" stroke-width="1" opacity="1"/><line transform="translate(75,-100)" x2="0" y2="100" stroke="#ddd" stroke-width="1" opacity="1"/><line transform="translate(100,-100)" x2="0" y2="100" stroke="#ddd" stroke-width="1" opacity="1"/><line transform="translate(125,-100)" x2="0" y2="100" stroke="#ddd" stroke-width="1" opacity="1"/><line transform="translate(150,-100)" x2="0" y2="100" stroke="#ddd" stroke-width="1" opacity="1"/><line transform="translate(175,-100)" x2="0" y2="100" stroke="#ddd" stroke-width="1" opacity="1"/><line transform="translate(200,-100)" x2="0" y2="100" stroke="#ddd" stroke-width="1" opacity="1"/><line transform="translate(225,-100)" x2="0" y2="100" stroke="#ddd" stroke-width="1" opacity="1"/><line transform="translate(250,-100)" x2="0" y2="100" stroke="#ddd" stroke-width="1" opacity="1"/><line transform="translate(275,-100)" x2="0" y2="100" stroke="#ddd" stroke-width="1" opacity="1"/><line transform="translate(300,-100)" x2="0" y2="100" stroke="#ddd" stroke-width="1" opacity="1"/></g></g><path class="foreground" aria-hidden="true" d="" pointer-events="none" display="none"/></g></g><g class="mark-group role-axis" aria-hidden="true"><g transform="translate(0.5,0.5)"><path class="background" aria-hidden="true" d="M0,0h0v0h0Z" pointer-events="none"/><g><g class="mark-rule role-axis-grid" pointer-events="none"><line transform="translate(0,100)" x2="300" y2="0" stroke="#ddd" stroke-width="1" opacity="1"/><line transform="translate(0,69)" x2="300" y2="0" stroke="#ddd" stroke-width="1" opacity="1"/><line transform="translate(0,38)" x2="300" y2="0" stroke="#ddd" stroke-width="1" opacity="1"/><line transform="translate(0,8)" x2="300" y2="0" stroke="#ddd" stroke-width="1" opacity="1"/></g></g><path class="foreground" aria-hidden="true" d="" pointer-events="none" display="none"/></g></g><g class="mark-group role-axis" role="graphics-symbol" aria-roledescription="axis" aria-label="Y-axis titled 'density' for a linear scale with values from 0 to 7"><g transform="translate(0.5,0.5)"><path class="background" aria-hidden="true" d="M0,0h0v0h0Z" pointer-events="none"/><g><g class="mark-rule role-axis-tick" pointer-events="none"><line transform="translate(0,100)" x2="-5" y2="0" stroke="#888" stroke-width="1" opacity="1"/><line transform="translate(0,69)" x2="-5" y2="0" stroke="#888" stroke-width="1" opacity="1"/><line transform="translate(0,38)" x2="-5" y2="0" stroke="#888" stroke-width="1" opacity="1"/><line transform="translate(0,8)" x2="-5" y2="0" stroke="#888" stroke-width="1" opacity="1"/></g><g class="mark-text role-axis-label" pointer-events="none"><text text-anchor="end" transform="translate(-7,103)" font-family="sans-serif" font-size="10px" fill="#000" opacity="1">0</text><text text-anchor="end" transform="translate(-7,72.23076923076923)" font-family="sans-serif" font-size="10px" fill="#000" opacity="1">2</text><text text-anchor="end" transform="translate(-7,41.46153846153846)" font-family="sans-serif" font-size="10px" fill="#000" opacity="1">4</text><text text-anchor="end" transform="translate(-7,10.692307692307686)" font-family="sans-serif" font-size="10px" fill="#000" opacity="1">6</text></g><g class="mark-rule role-axis-domain" pointer-events="none"><line transform="translate(0,100)" x2="0" y2="-100" stroke="#888" stroke-width="1" opacity="1"/></g><g class="mark-text role-axis-title" pointer-events="none"><text text-anchor="middle" transform="translate(-16.5615234375,50) rotate(-90) translate(0,-2)" font-family="sans-serif" font-size="11px" font-weight="bold" fill="#000" opacity="1">density</text></g></g><path class="foreground" aria-hidden="true" d="" pointer-events="none" display="none"/></g></g><g class="mark-group role-scope child_pathgroup" role="graphics-object" aria-roledescription="group mark container"><g transform="translate(0,0)"><path class="background" aria-hidden="true" d="M0,0h300v100h-300Z"/><g><g class="mark-line role-mark child_marks" role="graphics-symbol" aria-roledescription="line mark container"><path d="M7.5,98.246L8.888,98.332L10.275,98.566L11.662,98.885L13.05,99.216L14.438,99.501L15.825,99.713L17.213,99.851L18.6,99.93L19.988,99.97L21.375,99.989L22.763,99.996L24.15,99.999L25.537,100L26.925,100L28.313,100L29.7,100L31.088,100L32.475,100L33.863,100L35.25,100L36.638,99.999L38.025,99.997L39.412,99.992L40.8,99.978L42.188,99.947L43.575,99.882L44.963,99.765L46.35,99.575L47.738,99.303L49.125,98.959L50.512,98.577L51.9,98.206L53.288,97.887L54.675,97.624L56.062,97.369L57.45,97.022L58.837,96.442L60.225,95.455L61.612,93.87L63,91.501L64.387,88.217L65.775,83.995L67.163,78.97L68.55,73.438L69.938,67.805L71.325,62.493L72.712,57.812L74.1,53.858L75.488,50.474L76.875,47.306L78.263,43.932L79.65,40.014L81.038,35.417L82.425,30.237L83.813,24.764L85.2,19.385L86.587,14.506L87.975,10.504L89.363,7.73L90.75,6.507L92.137,7.107L93.525,9.678L94.913,14.165L96.3,20.272L97.688,27.503L99.075,35.271L100.463,43.023L101.85,50.336L103.237,56.95L104.625,62.771L106.013,67.844L107.4,72.318L108.788,76.37L110.175,80.128L111.563,83.6L112.95,86.669L114.337,89.175L115.725,91.016L117.113,92.236L118.5,93.023L119.888,93.638L121.275,94.311L122.663,95.154L124.05,96.144L125.437,97.166L126.825,98.081L128.212,98.788L129.6,99.246L130.988,99.46L132.375,99.464L133.763,99.302L135.15,99.027L136.538,98.71L137.925,98.43L139.312,98.267L140.7,98.268L142.088,98.435L143.475,98.721L144.862,99.055L146.25,99.368L147.638,99.618L149.025,99.791L150.412,99.897L151.8,99.954L153.188,99.981L154.575,99.993L155.963,99.998L157.35,99.999L158.738,100L160.125,100L161.513,100L162.9,100L164.288,100L165.675,100L167.062,100L168.45,100L169.838,100L171.225,100L172.612,100L174,100L175.388,100L176.775,100L178.163,100L179.55,100L180.938,100L182.325,100L183.713,100L185.1,100L186.487,100L187.875,100L189.263,100L190.65,100L192.038,100L193.425,100L194.813,100L196.2,100L197.588,100L198.975,100L200.363,100L201.75,100L203.138,100L204.525,100L205.913,100L207.3,100L208.687,100L210.075,100L211.462,100L212.85,100L214.237,100L215.625,100L217.013,100L218.4,100L219.788,100L221.175,100L222.563,100L223.95,100L225.338,100L226.725,100L228.113,100L229.5,100L230.888,100L232.275,100L233.662,100L235.05,100L236.437,100L237.825,100L239.213,100L240.6,100L241.988,100L243.375,100L244.763,100L246.15,100L247.538,100L248.925,100L250.313,100L251.7,100L253.087,100L254.475,100L255.862,100L257.25,100L258.638,100L260.025,100L261.413,100L262.8,100L264.188,100L265.575,100L266.963,100L268.35,100L269.738,100L271.125,100L272.513,100L273.9,100L275.287,100L276.675,100L278.063,100L279.45,100L280.838,100L282.225,100L283.613,100L285,100" stroke="#4c78a8" stroke-width="2"/></g></g><path class="foreground" aria-hidden="true" d="" display="none"/></g><g transform="translate(0,0)"><path class="background" aria-hidden="true" d="M0,0h300v100h-300Z"/><g><g class="mark-line role-mark child_marks" role="graphics-symbol" aria-roledescription="line mark container"><path d="M7.5,100L8.888,100L10.275,100L11.662,100L13.05,100L14.438,100L15.825,100L17.213,100L18.6,100L19.988,100L21.375,100L22.763,100L24.15,100L25.537,100L26.925,100L28.313,100L29.7,100L31.088,100L32.475,100L33.863,100L35.25,99.999L36.638,99.999L38.025,99.997L39.412,99.995L40.8,99.991L42.188,99.985L43.575,99.974L44.963,99.957L46.35,99.929L47.738,99.888L49.125,99.826L50.512,99.736L51.9,99.609L53.288,99.435L54.675,99.201L56.062,98.895L57.45,98.504L58.837,98.016L60.225,97.421L61.612,96.71L63,95.875L64.387,94.912L65.775,93.814L67.163,92.577L68.55,91.19L69.938,89.641L71.325,87.911L72.712,85.975L74.1,83.802L75.488,81.36L76.875,78.615L78.263,75.538L79.65,72.107L81.038,68.316L82.425,64.176L83.813,59.718L85.2,54.995L86.587,50.085L87.975,45.082L89.363,40.102L90.75,35.269L92.137,30.713L93.525,26.565L94.913,22.945L96.3,19.956L97.688,17.681L99.075,16.17L100.463,15.444L101.85,15.485L103.237,16.246L104.625,17.647L106.013,19.585L107.4,21.941L108.788,24.59L110.175,27.409L111.563,30.286L112.95,33.128L114.337,35.861L115.725,38.437L117.113,40.828L118.5,43.027L119.888,45.041L121.275,46.891L122.663,48.605L124.05,50.214L125.437,51.751L126.825,53.249L128.212,54.736L129.6,56.237L130.988,57.768L132.375,59.34L133.763,60.953L135.15,62.597L136.538,64.257L137.925,65.909L139.312,67.529L140.7,69.09L142.088,70.574L143.475,71.969L144.862,73.272L146.25,74.493L147.638,75.647L149.025,76.759L150.412,77.853L151.8,78.951L153.188,80.069L154.575,81.216L155.963,82.388L157.35,83.575L158.738,84.758L160.125,85.913L161.513,87.017L162.9,88.046L164.288,88.983L165.675,89.815L167.062,90.538L168.45,91.152L169.838,91.665L171.225,92.088L172.612,92.435L174,92.723L175.388,92.967L176.775,93.183L178.163,93.382L179.55,93.576L180.938,93.769L182.325,93.965L183.713,94.164L185.1,94.364L186.487,94.562L187.875,94.754L189.263,94.94L190.65,95.117L192.038,95.289L193.425,95.457L194.813,95.626L196.2,95.801L197.588,95.986L198.975,96.183L200.363,96.394L201.75,96.617L203.138,96.847L204.525,97.081L205.913,97.311L207.3,97.533L208.687,97.741L210.075,97.93L211.462,98.099L212.85,98.244L214.237,98.368L215.625,98.47L217.013,98.552L218.4,98.619L219.788,98.674L221.175,98.721L222.563,98.766L223.95,98.812L225.338,98.863L226.725,98.923L228.113,98.993L229.5,99.073L230.888,99.161L232.275,99.256L233.662,99.354L235.05,99.452L236.437,99.545L237.825,99.631L239.213,99.708L240.6,99.775L241.988,99.831L243.375,99.876L244.763,99.911L246.15,99.938L247.538,99.958L248.925,99.972L250.313,99.982L251.7,99.989L253.087,99.993L254.475,99.996L255.862,99.998L257.25,99.999L258.638,99.999L260.025,100L261.413,100L262.8,100L264.188,100L265.575,100L266.963,100L268.35,100L269.738,100L271.125,100L272.513,100L273.9,100L275.287,100L276.675,100L278.063,100L279.45,100L280.838,100L282.225,100L283.613,100L285,100" stroke="#f58518" stroke-width="2"/></g></g><path class="foreground" aria-hidden="true" d="" display="none"/></g><g transform="translate(0,0)"><path class="background" aria-hidden="true" d="M0,0h300v100h-300Z"/><g><g class="mark-line role-mark child_marks" role="graphics-symbol" aria-roledescription="line mark container"><path d="M7.5,100L8.888,100L10.275,100L11.662,100L13.05,100L14.438,100L15.825,100L17.213,100L18.6,100L19.988,100L21.375,100L22.763,100L24.15,100L25.537,100L26.925,100L28.313,100L29.7,100L31.088,100L32.475,100L33.863,99.999L35.25,99.999L36.638,99.999L38.025,99.998L39.412,99.997L40.8,99.996L42.188,99.994L43.575,99.992L44.963,99.988L46.35,99.984L47.738,99.978L49.125,99.97L50.512,99.959L51.9,99.946L53.288,99.928L54.675,99.907L56.062,99.879L57.45,99.846L58.837,99.805L60.225,99.755L61.612,99.695L63,99.625L64.387,99.542L65.775,99.447L67.163,99.337L68.55,99.211L69.938,99.071L71.325,98.914L72.712,98.741L74.1,98.551L75.488,98.346L76.875,98.125L78.263,97.89L79.65,97.64L81.038,97.378L82.425,97.102L83.813,96.815L85.2,96.515L86.587,96.202L87.975,95.876L89.363,95.534L90.75,95.174L92.137,94.794L93.525,94.389L94.913,93.956L96.3,93.491L97.688,92.989L99.075,92.448L100.463,91.862L101.85,91.231L103.237,90.551L104.625,89.823L106.013,89.048L107.4,88.228L108.788,87.366L110.175,86.467L111.563,85.538L112.95,84.586L114.337,83.621L115.725,82.65L117.113,81.683L118.5,80.731L119.888,79.804L121.275,78.912L122.663,78.063L124.05,77.266L125.437,76.531L126.825,75.863L128.212,75.271L129.6,74.758L130.988,74.33L132.375,73.991L133.763,73.743L135.15,73.589L136.538,73.53L137.925,73.566L139.312,73.696L140.7,73.921L142.088,74.236L143.475,74.64L144.862,75.127L146.25,75.691L147.638,76.327L149.025,77.024L150.412,77.774L151.8,78.566L153.188,79.389L154.575,80.231L155.963,81.08L157.35,81.924L158.738,82.751L160.125,83.551L161.513,84.316L162.9,85.038L164.288,85.711L165.675,86.331L167.062,86.897L168.45,87.408L169.838,87.866L171.225,88.276L172.612,88.64L174,88.964L175.388,89.256L176.775,89.52L178.163,89.765L179.55,89.997L180.938,90.221L182.325,90.443L183.713,90.668L185.1,90.899L186.487,91.14L187.875,91.391L189.263,91.653L190.65,91.925L192.038,92.205L193.425,92.491L194.813,92.78L196.2,93.069L197.588,93.353L198.975,93.63L200.363,93.895L201.75,94.147L203.138,94.384L204.525,94.605L205.913,94.809L207.3,94.998L208.687,95.172L210.075,95.334L211.462,95.488L212.85,95.634L214.237,95.778L215.625,95.923L217.013,96.07L218.4,96.222L219.788,96.382L221.175,96.551L222.563,96.728L223.95,96.914L225.338,97.108L226.725,97.308L228.113,97.512L229.5,97.719L230.888,97.925L232.275,98.128L233.662,98.325L235.05,98.515L236.437,98.695L237.825,98.863L239.213,99.019L240.6,99.161L241.988,99.29L243.375,99.404L244.763,99.503L246.15,99.59L247.538,99.663L248.925,99.725L250.313,99.775L251.7,99.814L253.087,99.845L254.475,99.867L255.862,99.881L257.25,99.888L258.638,99.888L260.025,99.882L261.413,99.87L262.8,99.853L264.188,99.832L265.575,99.805L266.963,99.775L268.35,99.741L269.738,99.705L271.125,99.666L272.513,99.626L273.9,99.586L275.287,99.547L276.675,99.511L278.063,99.477L279.45,99.448L280.838,99.424L282.225,99.407L283.613,99.396L285,99.392" stroke="#e45756" stroke-width="2"/></g></g><path class="foreground" aria-hidden="true" d="" display="none"/></g></g></g><path class="foreground" aria-hidden="true" d="" display="none"/></g></g><g class="mark-group role-legend" role="graphics-symbol" aria-roledescription="legend" aria-label="Symbol legend titled 'genres' for stroke color with 3 values: Animation, Fantasy, History"><g transform="translate(669,0)"><path class="background" aria-hidden="true" d="M0,0h61v53h-61Z" pointer-events="none"/><g><g class="mark-group role-legend-entry"><g transform="translate(0,16)"><path class="background" aria-hidden="true" d="M0,0h0v0h0Z" pointer-events="none"/><g><g class="mark-group role-scope" role="graphics-object" aria-roledescription="group mark container"><g transform="translate(0,0)"><path class="background" aria-hidden="true" d="M0,0h60.4677734375v11h-60.4677734375Z" pointer-events="none" opacity="1"/><g><g class="mark-symbol role-legend-symbol" pointer-events="none"><path transform="translate(6,6)" d="M-5,0L5,0" stroke="#4c78a8" stroke-width="1.5" opacity="1"/></g><g class="mark-text role-legend-label" pointer-events="none"><text text-anchor="start" transform="translate(16,9)" font-family="sans-serif" font-size="10px" fill="#000" opacity="1">Animation</text></g></g><path class="foreground" aria-hidden="true" d="" pointer-events="none" display="none"/></g><g transform="translate(0,13)"><path class="background" aria-hidden="true" d="M0,0h60.4677734375v11h-60.4677734375Z" pointer-events="none" opacity="1"/><g><g class="mark-symbol role-legend-symbol" pointer-events="none"><path transform="translate(6,6)" d="M-5,0L5,0" stroke="#f58518" stroke-width="1.5" opacity="1"/></g><g class="mark-text role-legend-label" pointer-events="none"><text text-anchor="start" transform="translate(16,9)" font-family="sans-serif" font-size="10px" fill="#000" opacity="1">Fantasy</text></g></g><path class="foreground" aria-hidden="true" d="" pointer-events="none" display="none"/></g><g transform="translate(0,26)"><path class="background" aria-hidden="true" d="M0,0h60.4677734375v11h-60.4677734375Z" pointer-events="none" opacity="1"/><g><g class="mark-symbol role-legend-symbol" pointer-events="none"><path transform="translate(6,6)" d="M-5,0L5,0" stroke="#e45756" stroke-width="1.5" opacity="1"/></g><g class="mark-text role-legend-label" pointer-events="none"><text text-anchor="start" transform="translate(16,9)" font-family="sans-serif" font-size="10px" fill="#000" opacity="1">History</text></g></g><path class="foreground" aria-hidden="true" d="" pointer-events="none" display="none"/></g></g></g><path class="foreground" aria-hidden="true" d="" pointer-events="none" display="none"/></g></g><g class="mark-text role-legend-title" pointer-events="none"><text text-anchor="start" transform="translate(0,9)" font-family="sans-serif" font-size="11px" font-weight="bold" fill="#000" opacity="1">genres</text></g></g><path class="foreground" aria-hidden="true" d="" pointer-events="none" display="none"/></g></g></g><path class="foreground" aria-hidden="true" d="" display="none"/></g></g></g></svg>