<svg xmlns="http://www.w3.org/2000/svg" xmlns:xlink="http://www.w3.org/1999/xlink" version="1.1" class="marks" width="490" height="247" viewBox="0 0 490 247"><rect width="490" height="247" fill="white"/><g fill="none" stroke-miterlimit="10" transform="translate(73,47)"><g class="mark-group role-frame root" role="graphics-object" aria-roledescription="group mark container"><g transform="translate(0,0)"><path class="background" aria-hidden="true" d="M0,0h0v0h0Z"/><g><g class="mark-group role-column-title facet-title" role="graphics-object" aria-roledescription="group mark container"><g transform="translate(150,-21)"><path class="background" aria-hidden="true" d="M0,0h0v0h0Z"/><g><g class="mark-group role-title"><g transform="translate(0,-21)"><path class="background" aria-hidden="true" d="M0,0h0v0h0Z" pointer-events="none"/><g><g class="mark-text role-title-text" role="graphics-symbol" aria-roledescription="title" aria-label="Title text 'countries'" pointer-events="none"><text text-anchor="middle" transform="translate(0,9)" font-family="sans-serif" font-size="11px" font-weight="bold" fill="#000" opacity="1">countries</text></g></g><path class="foreground" aria-hidden="true" d="" pointer-events="none" display="none"/></g></g></g><path class="foreground" aria-hidden="true" d="" display="none"/></g></g><g class="mark-group role-row-header row_header" role="graphics-object" aria-roledescription="group mark container"><g transform="translate(-1,0)"><path class="background" aria-hidden="true" d="M0,0h0v60h0Z"/><g><g class="mark-group role-axis" role="graphics-symbol" aria-roledescription="axis" aria-label="Y-axis titled 'genres' for a discrete scale with 3 values: Animation, Fantasy, History"><g transform="translate(0.5,0.5)"><path class="background" aria-hidden="true" d="M0,0h0v0h0Z" pointer-events="none"/><g><g class="mark-rule role-axis-tick" pointer-events="none"><line transform="translate(0,10)" x2="-5" y2="0" stroke="#888" stroke-width="1" opacity="1"/><line transform="translate(0,30)" x2="-5" y2="0" stroke="#888" stroke-width="1" opacity="1"/><line transform="translate(0,50)" x2="-5" y2="0" stroke="#888" stroke-width="1" opacity="1"/></g><g class="mark-text role-axis-label" pointer-events="none"><text text-anchor="end" transform="translate(-7,13)" font-family="sans-serif" font-size="10px" fill="#000" opacity="1">Animation</text><text text-anchor="end" transform="translate(-7,33)" font-family="sans-serif" font-size="10px" fill="#000" opacity="1">Fantasy</text><text text-anchor="end" transform="translate(-7,53)" font-family="sans-serif" font-size="10px" fill="#000" opacity="1">History</text></g><g class="mark-rule role-axis-domain" pointer-events="none"><line transform="translate(0,0)" x2="0" y2="60" stroke="#888" stroke-width="1" opacity="1"/></g><g class="mark-text role-axis-title" pointer-events="none"><text text-anchor="middle" transform="translate(-55.4677734375,30) rotate(-90) translate(0,-2)" font-family="sans-serif" font-size="11px" font-weight="bold" fill="#000" opacity="1">genres</text></g></g><path class="foreground" aria-hidden="true" d="" pointer-events="none" display="none"/></g></g></g><path class="foreground" aria-hidden="true" d="" display="none"/></g><g transform="translate(-1,102)"><path class="background" aria-hidden="true" d="M0,0h0v60h0Z"/><g><g class="mark-group role-axis" role="graphics-symbol" aria-roledescription="axis" aria-label="Y-axis titled 'genres' for a discrete scale with 3 values: Animation, Fantasy, History"><g transform="translate(0.5,0.5)"><path class="background" aria-hidden="true" d="M0,0h0v0h0Z" pointer-events="none"/><g><g class="mark-rule role-axis-tick" pointer-events="none"><line transform="translate(0,10)" x2="-5" y2="0" stroke="#888" stroke-width="1" opacity="1"/><line transform="translate(0,30)" x2="-5" y2="0" stroke="#888" stroke-width="1" opacity="1"/><line transform="translate(0,50)" x2="-5" y2="0" stroke="#888" stroke-width="1" opacity="1"/></g><g class="mark-text role-axis-label" pointer-events="none"><text text-anchor="end" transform="translate(-7,13)" font-family="sans-serif" font-size="10px" fill="#000" opacity="1">Animation</text><text text-anchor="end" transform="translate(-7,33)" font-family="sans-serif" font-size="10px" fill="#000" opacity="1">Fantasy</text><text text-anchor="end" transform="translate(-7,53)" font-family="sans-serif" font-size="10px" fill="#000" opacity="1">History</text></g><g class="mark-rule role-axis-domain" pointer-events="none"><line transform="translate(0,0)" x2="0" y2="60" stroke="#888" stroke-width="1" opacity="1"/></g><g class="mark-text role-axis-title" pointer-events="none"><text text-anchor="middle" transform="translate(-55.4677734375,30) rotate(-90) translate(0,-2)" font-family="sans-serif" font-size="11px" font-weight="bold" fill="#000" opacity="1">genres</text></g></g><path class="foreground" aria-hidden="true" d="" pointer-events="none" display="none"/></g></g></g><path class="foreground" aria-hidden="true" d="" display="none"/></g></g><g class="mark-group role-column-footer column_footer" role="graphics-object" aria-roledescription="group mark container"><g transform="translate(0,163)"><path class="background" aria-hidden="true" d="M0,0h300v0h-300Z"/><g><g class="mark-group role-axis" role="graphics-symbol" aria-roledescription="axis" aria-label="X-axis titled 'runtime' for a linear scale with values from 0 to 260"><g transform="translate(0.5,0.5)"><path class="background" aria-hidden="true" d="M0,0h0v0h0Z" pointer-events="none"/><g><g class="mark-rule role-axis-tick" pointer-events="none"><line transform="translate(0,0)" x2="0" y2="5" stroke="#888" stroke-width="1" opacity="1"/><line transform="translate(58,0)" x2="0" y2="5" stroke="#888" stroke-width="1" opacity="1"/><line transform="translate(115,0)" x2="0" y2="5" stroke="#888" stroke-width="1" opacity="1"/><line transform="translate(173,0)" x2="0" y2="5" stroke="#888" stroke-width="1" opacity="1"/><line transform="translate(231,0)" x2="0" y2="5" stroke="#888" stroke-width="1" opacity="1"/><line transform="translate(288,0)" x2="0" y2="5" stroke="#888" stroke-width="1" opacity="1"/></g><g class="mark-text role-axis-label" pointer-events="none"><text text-anchor="start" transform="translate(0,15)" font-family="sans-serif" font-size="10px" fill="#000" opacity="1">0</text><text text-anchor="middle" transform="translate(57.69230769230769,15)" font-family="sans-serif" font-size="10px" fill="#000" opacity="1">50</text><text text-anchor="middle" transform="translate(115.38461538461539,15)" font-family="sans-serif" font-size="10px" fill="#000" opacity="1">100</text><text text-anchor="middle" transform="translate(173.07692307692307,15)" font-family="sans-serif" font-size="10px" fill="#000" opacity="1">150</text><text text-anchor="middle" transform="translate(230.76923076923077,15)" font-family="sans-serif" font-size="10px" fill="#000" opacity="1">200</text><text text-anchor="middle" transform="translate(288.46153846153845,15)" font-family="sans-serif" font-size="10px" fill="#000" opacity="1">250</text></g><g class="mark-rule role-axis-domain" pointer-events="none"><line transform="translate(0,0)" x2="300" y2="0" stroke="#888" stroke-width="1" opacity="1"/></g><g class="mark-text role-axis-title" pointer-events="none"><text text-anchor="middle" transform="translate(150,30)" font-family="sans-serif" font-size="11px" font-weight="bold" fill="#000" opacity="1">runtime</text></g></g><path class="foreground" aria-hidden="true" d="" pointer-events="none" display="none"/></g></g></g><path class="foreground" aria-hidden="true" d="" display="none"/></g></g><g class="mark-group role-scope cell" role="graphics-object" aria-roledescription="group mark container"><g transform="translate(0,0)"><path class="background" aria-hidden="true" d="M0.5,0.5h300v60h-300Z" stroke="#ddd"/><g><g class="mark-group role-axis" aria-hidden="true"><g transform="translate(0.5,60.5)"><path class="background" aria-hidden="true" d="M0,0h0v0h0Z" pointer-events="none"/><g><g class="mark-rule role-axis-grid" pointer-events="none"><line transform="translate(0,0)" x2="0" y2="-60" stroke="#ddd" stroke-width="1" opacity="1"/><line transform="translate(58,0)" x2="0" y2="-60" stroke="#ddd" stroke-width="1" opacity="1"/><line transform="translate(115,0)" x2="0" y2="-60" stroke="#ddd" stroke-width="1" opacity="1"/><line transform="translate(173,0)" x2="0" y2="-60" stroke="#ddd" stroke-width="1" opacity="1"/><line transform="translate(231,0)" x2="0" y2="-60" stroke="#ddd" stroke-width="1" opacity="1"/><line transform="translate(288,0)" x2="0" y2="-60" stroke="#ddd" stroke-width="1" opacity="1"/></g></g><path class="foreground" aria-hidden="true" d="" pointer-events="none" display="none"/></g></g><g class="mark-symbol role-mark child_marks" role="graphics-symbol" aria-roledescription="symbol mark container"><path transform="translate(132.69230769230768,30)" d="M-2.565,-2.565h5.13v5.13h-5.13Z" fill="#f58518" stroke-width="2"/><path transform="translate(139.6153846153846,50)" d="M-2.565,-2.565h5.13v5.13h-5.13Z" fill="#e45756" stroke-width="2"/><path transform="translate(145.3846153846154,30)" d="M-4.828,-4.828h9.657v9.657h-9.657Z" fill="#f58518" stroke-width="2"/><path transform="translate(139.6153846153846,30)" d="M-3.487,-3.487h6.973v6.973h-6.973Z" fill="#f58518" stroke-width="2"/><path transform="translate(165,30)" d="M-4.211,-4.211h8.422v8.422h-8.422Z" fill="#f58518" stroke-width="2"/><path transform="translate(144.23076923076923,30)" d="M-3.487,-3.487h6.973v6.973h-6.973Z" fill="#f58518" stroke-width="2"/><path transform="translate(98.07692307692308,10)" d="M-3.487,-3.487h6.973v6.973h-6.973Z" fill="#4c78a8" stroke-width="2"/><path transform="translate(162.69230769230768,50)" d="M-3.487,-3.487h6.973v6.973h-6.973Z" fill="#e45756" stroke-width="2"/><path transform="translate(175.3846153846154,30)" d="M-2.565,-2.565h5.13v5.13h-5.13Z" fill="#f58518" stroke-width="2"/><path transform="translate(185.76923076923077,30)" d="M-2.565,-2.565h5.13v5.13h-5.13Z" fill="#f58518" stroke-width="2"/><path transform="translate(162.69230769230768,30)" d="M-2.565,-2.565h5.13v5.13h-5.13Z" fill="#f58518" stroke-width="2"/><path transform="translate(181.15384615384613,30)" d="M-2.565,-2.565h5.13v5.13h-5.13Z" fill="#f58518" stroke-width="2"/><path transform="translate(159.23076923076923,30)" d="M-2.565,-2.565h5.13v5.13h-5.13Z" fill="#f58518" stroke-width="2"/><path transform="translate(188.07692307692307,50)" d="M-2.565,-2.565h5.13v5.13h-5.13Z" fill="#e45756" stroke-width="2"/><path transform="translate(152.3076923076923,30)" d="M-2.565,-2.565h5.13v5.13h-5.13Z" fill="#f58518" stroke-width="2"/><path transform="translate(105,30)" d="M-3.487,-3.487h6.973v6.973h-6.973Z" fill="#f58518" stroke-width="2"/><path transform="translate(176.53846153846155,30)" d="M-2.565,-2.565h5.13v5.13h-5.13Z" fill="#f58518" stroke-width="2"/><path transform="translate(220.38461538461542,50)" d="M-2.565,-2.565h5.13v5.13h-5.13Z" fill="#e45756" stroke-width="2"/><path transform="translate(135,30)" d="M-3.487,-3.487h6.973v6.973h-6.973Z" fill="#f58518" stroke-width="2"/><path transform="translate(166.15384615384616,50)" d="M-3.487,-3.487h6.973v6.973h-6.973Z" fill="#e45756" stroke-width="2"/><path transform="translate(249.23076923076925,50)" d="M-2.565,-2.565h5.13v5.13h-5.13Z" fill="#e45756" stroke-width="2"/><path transform="translate(143.0769230769231,50)" d="M-3.487,-3.487h6.973v6.973h-6.973Z" fill="#e45756" stroke-width="2"/><path transform="translate(177.6923076923077,50)" d="M-2.565,-2.565h5.13v5.13h-5.13Z" fill="#e45756" stroke-width="2"/><path transform="translate(124.61538461538463,30)" d="M-2.565,-2.565h5.13v5.13h-5.13Z" fill="#f58518" stroke-width="2"/><path transform="translate(151.15384615384616,50)" d="M-2.565,-2.565h5.13v5.13h-5.13Z" fill="#e45756" stroke-width="2"/><path transform="translate(201.92307692307693,50)" d="M-3.487,-3.487h6.973v6.973h-6.973Z" fill="#e45756" stroke-width="2"/><path transform="translate(106.15384615384616,30)" d="M-2.565,-2.565h5.13v5.13h-5.13Z" fill="#f58518" stroke-width="2"/><path transform="translate(130.3846153846154,30)" d="M-4.211,-4.211h8.422v8.422h-8.422Z" fill="#f58518" stroke-width="2"/><path transform="translate(146.53846153846155,30)" d="M-4.211,-4.211h8.422v8.422h-8.422Z" fill="#f58518" stroke-width="2"/><path transform="translate(122.3076923076923,30)" d="M-3.487,-3.487h6.973v6.973h-6.973Z" fill="#f58518" stroke-width="2"/><path transform="translate(120,30)" d="M-4.211,-4.211h8.422v8.422h-8.422Z" fill="#f58518" stroke-width="2"/><path transform="translate(152.3076923076923,50)" d="M-2.565,-2.565h5.13v5.13h-5.13Z" fill="#e45756" stroke-width="2"/><path transform="translate(107.3076923076923,50)" d="M-2.565,-2.565h5.13v5.13h-5.13Z" fill="#e45756" stroke-width="2"/><path transform="translate(136.15384615384616,30)" d="M-3.487,-3.487h6.973v6.973h-6.973Z" fill="#f58518" stroke-width="2"/><path transform="translate(131.53846153846155,50)" d="M-2.565,-2.565h5.13v5.13h-5.13Z" fill="#e45756" stroke-width="2"/><path transform="translate(107.3076923076923,30)" d="M-4.211,-4.211h8.422v8.422h-8.422Z" fill="#f58518" stroke-width="2"/><path transform="translate(116.53846153846155,30)" d="M-4.211,-4.211h8.422v8.422h-8.422Z" fill="#f58518" stroke-width="2"/><path transform="translate(96.92307692307693,10)" d="M-3.487,-3.487h6.973v6.973h-6.973Z" fill="#4c78a8" stroke-width="2"/><path transform="translate(156.92307692307693,30)" d="M-2.565,-2.565h5.13v5.13h-5.13Z" fill="#f58518" stroke-width="2"/><path transform="translate(133.84615384615384,30)" d="M-3.487,-3.487h6.973v6.973h-6.973Z" fill="#f58518" stroke-width="2"/><path transform="translate(114.23076923076923,30)" d="M-3.487,-3.487h6.973v6.973h-6.973Z" fill="#f58518" stroke-width="2"/><path transform="translate(141.9230769230769,30)" d="M-2.565,-2.565h5.13v5.13h-5.13Z" fill="#f58518" stroke-width="2"/><path transform="translate(286.1538461538462,50)" d="M-2.565,-2.565h5.13v5.13h-5.13Z" fill="#e45756" stroke-width="2"/><path transform="translate(159.23076923076923,50)" d="M-3.487,-3.487h6.973v6.973h-6.973Z" fill="#e45756" stroke-width="2"/><path transform="translate(126.92307692307692,30)" d="M-2.565,-2.565h5.13v5.13h-5.13Z" fill="#f58518" stroke-width="2"/><path transform="translate(141.9230769230769,50)" d="M-2.565,-2.565h5.13v5.13h-5.13Z" fill="#e45756" stroke-width="2"/><path transform="translate(145.3846153846154,50)" d="M-4.211,-4.211h8.422v8.422h-8.422Z" fill="#e45756" stroke-width="2"/><path transform="translate(143.0769230769231,30)" d="M-2.565,-2.565h5.13v5.13h-5.13Z" fill="#f58518" stroke-width="2"/><path transform="translate(92.3076923076923,10)" d="M-3.487,-3.487h6.973v6.973h-6.973Z" fill="#4c78a8" stroke-width="2"/><path transform="translate(161.53846153846152,50)" d="M-3.487,-3.487h6.973v6.973h-6.973Z" fill="#e45756" stroke-width="2"/><path transform="translate(117.6923076923077,30)" d="M-3.487,-3.487h6.973v6.973h-6.973Z" fill="#f58518" stroke-width="2"/><path transform="translate(128.07692307692307,50)" d="M-2.565,-2.565h5.13v5.13h-5.13Z" fill="#e45756" stroke-width="2"/><path transform="translate(107.3076923076923,10)" d="M-2.565,-2.565h5.13v5.13h-5.13Z" fill="#4c78a8" stroke-width="2"/><path transform="translate(118.84615384615384,30)" d="M-3.487,-3.487h6.973v6.973h-6.973Z" fill="#f58518" stroke-width="2"/><path transform="translate(178.84615384615384,50)" d="M-2.565,-2.565h5.13v5.13h-5.13Z" fill="#e45756" stroke-width="2"/><path transform="translate(111.92307692307692,30)" d="M-3.487,-3.487h6.973v6.973h-6.973Z" fill="#f58518" stroke-width="2"/><path transform="translate(102.6923076923077,30)" d="M-2.565,-2.565h5.13v5.13h-5.13Z" fill="#f58518" stroke-width="2"/><path transform="translate(102.6923076923077,10)" d="M-2.565,-2.565h5.13v5.13h-5.13Z" fill="#4c78a8" stroke-width="2"/><path transform="translate(161.53846153846152,30)" d="M-2.565,-2.565h5.13v5.13h-5.13Z" fill="#f58518" stroke-width="2"/><path transform="translate(138.46153846153848,30)" d="M-2.565,-2.565h5.13v5.13h-5.13Z" fill="#f58518" stroke-width="2"/><path transform="translate(133.84615384615384,50)" d="M-3.487,-3.487h6.973v6.973h-6.973Z" fill="#e45756" stroke-width="2"/><path transform="translate(101.53846153846155,10)" d="M-3.487,-3.487h6.973v6.973h-6.973Z" fill="#4c78a8" stroke-width="2"/><path transform="translate(108.46153846153845,30)" d="M-2.565,-2.565h5.13v5.13h-5.13Z" fill="#f58518" stroke-width="2"/><path transform="translate(168.46153846153845,30)" d="M-2.565,-2.565h5.13v5.13h-5.13Z" fill="#f58518" stroke-width="2"/><path transform="translate(150,30)" d="M-2.565,-2.565h5.13v5.13h-5.13Z" fill="#f58518" stroke-width="2"/><path transform="translate(125.76923076923077,30)" d="M-3.487,-3.487h6.973v6.973h-6.973Z" fill="#f58518" stroke-width="2"/><path transform="translate(87.6923076923077,10)" d="M-2.565,-2.565h5.13v5.13h-5.13Z" fill="#4c78a8" stroke-width="2"/><path transform="translate(110.76923076923077,30)" d="M-2.565,-2.565h5.13v5.13h-5.13Z" fill="#f58518" stroke-width="2"/><path transform="translate(105,10)" d="M-2.565,-2.565h5.13v5.13h-5.13Z" fill="#4c78a8" stroke-width="2"/><path transform="translate(186.92307692307693,30)" d="M-2.565,-2.565h5.13v5.13h-5.13Z" fill="#f58518" stroke-width="2"/><path transform="translate(109.61538461538461,30)" d="M-2.565,-2.565h5.13v5.13h-5.13Z" fill="#f58518" stroke-width="2"/><path transform="translate(136.15384615384616,50)" d="M-2.565,-2.565h5.13v5.13h-5.13Z" fill="#e45756" stroke-width="2"/><path transform="translate(109.61538461538461,10)" d="M-2.565,-2.565h5.13v5.13h-5.13Z" fill="#4c78a8" stroke-width="2"/><path transform="translate(129.23076923076923,30)" d="M-2.565,-2.565h5.13v5.13h-5.13Z" fill="#f58518" stroke-width="2"/><path transform="translate(150,50)" d="M-2.565,-2.565h5.13v5.13h-5.13Z" fill="#e45756" stroke-width="2"/><path transform="translate(121.15384615384616,50)" d="M-2.565,-2.565h5.13v5.13h-5.13Z" fill="#e45756" stroke-width="2"/><path transform="translate(154.61538461538458,50)" d="M-2.565,-2.565h5.13v5.13h-5.13Z" fill="#e45756" stroke-width="2"/><path transform="translate(100.38461538461537,10)" d="M-2.565,-2.565h5.13v5.13h-5.13Z" fill="#4c78a8" stroke-width="2"/><path transform="translate(151.15384615384616,30)" d="M-2.565,-2.565h5.13v5.13h-5.13Z" fill="#f58518" stroke-width="2"/><path transform="translate(144.23076923076923,50)" d="M-2.565,-2.565h5.13v5.13h-5.13Z" fill="#e45756" stroke-width="2"/><path transform="translate(121.15384615384616,30)" d="M-2.565,-2.565h5.13v5.13h-5.13Z" fill="#f58518" stroke-width="2"/><path transform="translate(123.46153846153845,30)" d="M-2.565,-2.565h5.13v5.13h-5.13Z" fill="#f58518" stroke-width="2"/><path transform="translate(130.3846153846154,50)" d="M-3.487,-3.487h6.973v6.973h-6.973Z" fill="#e45756" stroke-width="2"/><path transform="translate(122.3076923076923,50)" d="M-3.487,-3.487h6.973v6.973h-6.973Z" fill="#e45756" stroke-width="2"/><path transform="translate(153.46153846153845,30)" d="M-2.565,-2.565h5.13v5.13h-5.13Z" fill="#f58518" stroke-width="2"/><path transform="translate(146.53846153846155,50)" d="M-2.565,-2.565h5.13v5.13h-5.13Z" fill="#e45756" stroke-width="2"/><path transform="translate(138.46153846153848,50)" d="M-3.487,-3.487h6.973v6.973h-6.973Z" fill="#e45756" stroke-width="2"/><path transform="translate(148.84615384615384,30)" d="M-2.565,-2.565h5.13v5.13h-5.13Z" fill="#f58518" stroke-width="2"/><path transform="translate(123.46153846153845,50)" d="M-2.565,-2.565h5.13v5.13h-5.13Z" fill="#e45756" stroke-width="2"/><path transform="translate(125.76923076923077,50)" d="M-2.565,-2.565h5.13v5.13h-5.13Z" fill="#e45756" stroke-width="2"/></g><g class="mark-group role-title"><g transform="translate(150,-20)"><path class="background" aria-hidden="true" d="M0,0h0v0h0Z" pointer-events="none"/><g><g class="mark-text role-title-text" role="graphics-symbol" aria-roledescription="title" aria-label="Title text 'United Kingdom'" pointer-events="none"><text text-anchor="middle" transform="translate(0,8)" font-family="sans-serif" font-size="10px" fill="#000" opacity="1">United Kingdom</text></g></g><path class="foreground" aria-hidden="true" d="" pointer-events="none" display="none"/></g></g></g><path class="foreground" aria-hidden="true" d="" display="none"/></g><g transform="translate(0,102)"><path class="background" aria-hidden="true" d="M0.5,0.5h300v60h-300Z" stroke="#ddd"/><g><g class="mark-group role-axis" aria-hidden="true"><g transform="translate(0.5,60.5)"><path class="background" aria-hidden="true" d="M0,0h0v0h0Z" pointer-events="none"/><g><g class="mark-rule role-axis-grid" pointer-events="none"><line transform="translate(0,0)" x2="0" y2="-60" stroke="#ddd" stroke-width="1" opacity="1"/><line transform="translate(58,0)" x2="0" y2="-60" stroke="#ddd" stroke-width="1" opacity="1"/><line transform="translate(115,0)" x2="0" y2="-60" stroke="#ddd" stroke-width="1" opacity="1"/><line transform="translate(173,0)" x2="0" y2="-60" stroke="#ddd" stroke-width="1" opacity="1"/><line transform="translate(231,0)" x2="0" y2="-60" stroke="#ddd" stroke-width="1" opacity="1"/><line transform="translate(288,0)" x2="0" y2="-60" stroke="#ddd" stroke-width="1" opacity="1"/></g></g><path class="foreground" aria-hidden="true" d="" pointer-events="none" display="none"/></g></g><g class="mark-symbol role-mark child_marks" role="graphics-symbol" aria-roledescription="symbol mark container"><path transform="translate(115.38461538461539,10)" d="M-6.328,-6.328h12.657v12.657h-12.657Z" fill="#4c78a8" stroke-width="2"/><path transform="translate(165,30)" d="M-4.828,-4.828h9.657v9.657h-9.657Z" fill="#f58518" stroke-width="2"/><path transform="translate(100.38461538461537,10)" d="M-7.535,-7.535h15.071v15.071h-15.071Z" fill="#4c78a8" stroke-width="2"/><path transform="translate(174.23076923076925,30)" d="M-3.487,-3.487h6.973v6.973h-6.973Z" fill="#f58518" stroke-width="2"/><path transform="translate(122.3076923076923,30)" d="M-9.5,-9.5h19v19h-19Z" fill="#f58518" stroke-width="2"/><path transform="translate(137.3076923076923,50)" d="M-2.565,-2.565h5.13v5.13h-5.13Z" fill="#e45756" stroke-width="2"/><path transform="translate(132.69230769230768,30)" d="M-5.871,-5.871h11.742v11.742h-11.742Z" fill="#f58518" stroke-width="2"/><path transform="translate(205.3846153846154,30)" d="M-3.487,-3.487h6.973v6.973h-6.973Z" fill="#f58518" stroke-width="2"/><path transform="translate(206.53846153846155,30)" d="M-2.565,-2.565h5.13v5.13h-5.13Z" fill="#f58518" stroke-width="2"/><path transform="translate(231.92307692307693,30)" d="M-2.565,-2.565h5.13v5.13h-5.13Z" fill="#f58518" stroke-width="2"/><path transform="translate(152.3076923076923,10)" d="M-2.565,-2.565h5.13v5.13h-5.13Z" fill="#4c78a8" stroke-width="2"/><path transform="translate(152.3076923076923,30)" d="M-4.211,-4.211h8.422v8.422h-8.422Z" fill="#f58518" stroke-width="2"/><path transform="translate(116.53846153846155,30)" d="M-9.5,-9.5h19v19h-19Z" fill="#f58518" stroke-width="2"/><path transform="translate(130.3846153846154,30)" d="M-7.535,-7.535h15.071v15.071h-15.071Z" fill="#f58518" stroke-width="2"/><path transform="translate(121.15384615384616,30)" d="M-6.328,-6.328h12.657v12.657h-12.657Z" fill="#f58518" stroke-width="2"/><path transform="translate(204.23076923076923,50)" d="M-2.565,-2.565h5.13v5.13h-5.13Z" fill="#e45756" stroke-width="2"/><path transform="translate(139.6153846153846,50)" d="M-3.487,-3.487h6.973v6.973h-6.973Z" fill="#e45756" stroke-width="2"/><path transform="translate(146.53846153846155,30)" d="M-6.328,-6.328h12.657v12.657h-12.657Z" fill="#f58518" stroke-width="2"/><path transform="translate(115.38461538461539,30)" d="M-6.755,-6.755h13.509v13.509h-13.509Z" fill="#f58518" stroke-width="2"/><path transform="translate(145.3846153846154,30)" d="M-5.375,-5.375h10.75v10.75h-10.75Z" fill="#f58518" stroke-width="2"/><path transform="translate(139.6153846153846,30)" d="M-6.328,-6.328h12.657v12.657h-12.657Z" fill="#f58518" stroke-width="2"/><path transform="translate(184.6153846153846,50)" d="M-2.565,-2.565h5.13v5.13h-5.13Z" fill="#e45756" stroke-width="2"/><path transform="translate(195,30)" d="M-3.487,-3.487h6.973v6.973h-6.973Z" fill="#f58518" stroke-width="2"/><path transform="translate(144.23076923076923,30)" d="M-4.828,-4.828h9.657v9.657h-9.657Z" fill="#f58518" stroke-width="2"/><path transform="translate(225,50)" d="M-2.565,-2.565h5.13v5.13h-5.13Z" fill="#e45756" stroke-width="2"/><path transform="translate(93.46153846153847,10)" d="M-5.375,-5.375h10.75v10.75h-10.75Z" fill="#4c78a8" stroke-width="2"/><path transform="translate(160.3846153846154,30)" d="M-4.211,-4.211h8.422v8.422h-8.422Z" fill="#f58518" stroke-width="2"/><path transform="translate(108.46153846153845,30)" d="M-5.375,-5.375h10.75v10.75h-10.75Z" fill="#f58518" stroke-width="2"/><path transform="translate(129.23076923076923,30)" d="M-6.328,-6.328h12.657v12.657h-12.657Z" fill="#f58518" stroke-width="2"/><path transform="translate(218.07692307692307,30)" d="M-2.565,-2.565h5.13v5.13h-5.13Z" fill="#f58518" stroke-width="2"/><path transform="translate(146.53846153846155,50)" d="M-3.487,-3.487h6.973v6.973h-6.973Z" fill="#e45756" stroke-width="2"/><path transform="translate(98.07692307692308,10)" d="M-4.828,-4.828h9.657v9.657h-9.657Z" fill="#4c78a8" stroke-width="2"/><path transform="translate(143.0769230769231,30)" d="M-5.375,-5.375h10.75v10.75h-10.75Z" fill="#f58518" stroke-width="2"/><path transform="translate(106.15384615384616,10)" d="M-5.871,-5.871h11.742v11.742h-11.742Z" fill="#4c78a8" stroke-width="2"/><path transform="translate(189.23076923076923,50)" d="M-2.565,-2.565h5.13v5.13h-5.13Z" fill="#e45756" stroke-width="2"/><path transform="translate(177.6923076923077,50)" d="M-3.487,-3.487h6.973v6.973h-6.973Z" fill="#e45756" stroke-width="2"/><path transform="translate(123.46153846153845,30)" d="M-5.871,-5.871h11.742v11.742h-11.742Z" fill="#f58518" stroke-width="2"/><path transform="translate(126.92307692307692,50)" d="M-2.565,-2.565h5.13v5.13h-5.13Z" fill="#e45756" stroke-width="2"/><path transform="translate(175.3846153846154,30)" d="M-2.565,-2.565h5.13v5.13h-5.13Z" fill="#f58518" stroke-width="2"/><path transform="translate(185.76923076923077,30)" d="M-3.487,-3.487h6.973v6.973h-6.973Z" fill="#f58518" stroke-width="2"/><path transform="translate(162.69230769230768,30)" d="M-3.487,-3.487h6.973v6.973h-6.973Z" fill="#f58518" stroke-width="2"/><path transform="translate(181.15384615384613,30)" d="M-2.565,-2.565h5.13v5.13h-5.13Z" fill="#f58518" stroke-width="2"/><path transform="translate(159.23076923076923,30)" d="M-2.565,-2.565h5.13v5.13h-5.13Z" fill="#f58518" stroke-width="2"/><path transform="translate(211.15384615384616,50)" d="M-2.565,-2.565h5.13v5.13h-5.13Z" fill="#e45756" stroke-width="2"/><path transform="translate(96.92307692307693,30)" d="M-5.375,-5.375h10.75v10.75h-10.75Z" fill="#f58518" stroke-width="2"/><path transform="translate(176.53846153846155,30)" d="M-2.565,-2.565h5.13v5.13h-5.13Z" fill="#f58518" stroke-width="2"/><path transform="translate(131.53846153846155,30)" d="M-5.375,-5.375h10.75v10.75h-10.75Z" fill="#f58518" stroke-width="2"/><path transform="translate(103.84615384615384,30)" d="M-4.828,-4.828h9.657v9.657h-9.657Z" fill="#f58518" stroke-width="2"/><path transform="translate(103.84615384615384,10)" d="M-7.535,-7.535h15.071v15.071h-15.071Z" fill="#4c78a8" stroke-width="2"/><path transform="translate(107.3076923076923,30)" d="M-7.535,-7.535h15.071v15.071h-15.071Z" fill="#f58518" stroke-width="2"/><path transform="translate(107.3076923076923,10)" d="M-7.535,-7.535h15.071v15.071h-15.071Z" fill="#4c78a8" stroke-width="2"/><path transform="translate(218.07692307692307,50)" d="M-2.565,-2.565h5.13v5.13h-5.13Z" fill="#e45756" stroke-width="2"/><path transform="translate(214.6153846153846,50)" d="M-2.565,-2.565h5.13v5.13h-5.13Z" fill="#e45756" stroke-width="2"/><path transform="translate(135,30)" d="M-5.375,-5.375h10.75v10.75h-10.75Z" fill="#f58518" stroke-width="2"/><path transform="translate(166.15384615384616,50)" d="M-5.375,-5.375h10.75v10.75h-10.75Z" fill="#e45756" stroke-width="2"/><path transform="translate(120,10)" d="M-4.211,-4.211h8.422v8.422h-8.422Z" fill="#4c78a8" stroke-width="2"/><path transform="translate(120,30)" d="M-8.574,-8.574h17.148v17.148h-17.148Z" fill="#f58518" stroke-width="2"/><path transform="translate(195,50)" d="M-2.565,-2.565h5.13v5.13h-5.13Z" fill="#e45756" stroke-width="2"/><path transform="translate(166.15384615384616,30)" d="M-3.487,-3.487h6.973v6.973h-6.973Z" fill="#f58518" stroke-width="2"/><path transform="translate(105,30)" d="M-4.828,-4.828h9.657v9.657h-9.657Z" fill="#f58518" stroke-width="2"/><path transform="translate(159.23076923076923,50)" d="M-4.211,-4.211h8.422v8.422h-8.422Z" fill="#e45756" stroke-width="2"/><path transform="translate(135,10)" d="M-3.487,-3.487h6.973v6.973h-6.973Z" fill="#4c78a8" stroke-width="2"/><path transform="translate(105,10)" d="M-7.897,-7.897h15.794v15.794h-15.794Z" fill="#4c78a8" stroke-width="2"/><path transform="translate(99.23076923076923,10)" d="M-7.156,-7.156h14.311v14.311h-14.311Z" fill="#4c78a8" stroke-width="2"/><path transform="translate(227.3076923076923,50)" d="M-2.565,-2.565h5.13v5.13h-5.13Z" fill="#e45756" stroke-width="2"/><path transform="translate(156.92307692307693,50)" d="M-2.565,-2.565h5.13v5.13h-5.13Z" fill="#e45756" stroke-width="2"/><path transform="translate(102.6923076923077,30)" d="M-5.871,-5.871h11.742v11.742h-11.742Z" fill="#f58518" stroke-width="2"/><path transform="translate(192.6923076923077,50)" d="M-3.487,-3.487h6.973v6.973h-6.973Z" fill="#e45756" stroke-width="2"/><path transform="translate(109.61538461538461,10)" d="M-7.535,-7.535h15.071v15.071h-15.071Z" fill="#4c78a8" stroke-width="2"/><path transform="translate(136.15384615384616,30)" d="M-6.755,-6.755h13.509v13.509h-13.509Z" fill="#f58518" stroke-width="2"/><path transform="translate(177.6923076923077,30)" d="M-2.565,-2.565h5.13v5.13h-5.13Z" fill="#f58518" stroke-width="2"/><path transform="translate(140.76923076923077,30)" d="M-4.211,-4.211h8.422v8.422h-8.422Z" fill="#f58518" stroke-width="2"/><path transform="translate(126.92307692307692,30)" d="M-6.328,-6.328h12.657v12.657h-12.657Z" fill="#f58518" stroke-width="2"/><path transform="translate(110.76923076923077,30)" d="M-6.755,-6.755h13.509v13.509h-13.509Z" fill="#f58518" stroke-width="2"/><path transform="translate(124.61538461538463,30)" d="M-5.871,-5.871h11.742v11.742h-11.742Z" fill="#f58518" stroke-width="2"/><path transform="translate(151.15384615384616,50)" d="M-3.487,-3.487h6.973v6.973h-6.973Z" fill="#e45756" stroke-width="2"/><path transform="translate(150,30)" d="M-6.328,-6.328h12.657v12.657h-12.657Z" fill="#f58518" stroke-width="2"/><path transform="translate(147.6923076923077,50)" d="M-5.375,-5.375h10.75v10.75h-10.75Z" fill="#e45756" stroke-width="2"/><path transform="translate(96.92307692307693,10)" d="M-5.375,-5.375h10.75v10.75h-10.75Z" fill="#4c78a8" stroke-width="2"/><path transform="translate(156.92307692307693,30)" d="M-4.828,-4.828h9.657v9.657h-9.657Z" fill="#f58518" stroke-width="2"/><path transform="translate(233.0769230769231,50)" d="M-2.565,-2.565h5.13v5.13h-5.13Z" fill="#e45756" stroke-width="2"/><path transform="translate(141.9230769230769,50)" d="M-2.565,-2.565h5.13v5.13h-5.13Z" fill="#e45756" stroke-width="2"/><path transform="translate(167.30769230769232,50)" d="M-2.565,-2.565h5.13v5.13h-5.13Z" fill="#e45756" stroke-width="2"/><path transform="translate(117.6923076923077,30)" d="M-8.242,-8.242h16.485v16.485h-16.485Z" fill="#f58518" stroke-width="2"/><path transform="translate(140.76923076923077,50)" d="M-4.828,-4.828h9.657v9.657h-9.657Z" fill="#e45756" stroke-width="2"/><path transform="translate(143.0769230769231,50)" d="M-4.211,-4.211h8.422v8.422h-8.422Z" fill="#e45756" stroke-width="2"/><path transform="translate(201.92307692307693,50)" d="M-3.487,-3.487h6.973v6.973h-6.973Z" fill="#e45756" stroke-width="2"/><path transform="translate(106.15384615384616,30)" d="M-6.755,-6.755h13.509v13.509h-13.509Z" fill="#f58518" stroke-width="2"/><path transform="translate(190.3846153846154,50)" d="M-2.565,-2.565h5.13v5.13h-5.13Z" fill="#e45756" stroke-width="2"/><path transform="translate(128.07692307692307,30)" d="M-4.211,-4.211h8.422v8.422h-8.422Z" fill="#f58518" stroke-width="2"/><path transform="translate(128.07692307692307,10)" d="M-2.565,-2.565h5.13v5.13h-5.13Z" fill="#4c78a8" stroke-width="2"/><path transform="translate(122.3076923076923,10)" d="M-3.487,-3.487h6.973v6.973h-6.973Z" fill="#4c78a8" stroke-width="2"/><path transform="translate(101.53846153846155,30)" d="M-6.755,-6.755h13.509v13.509h-13.509Z" fill="#f58518" stroke-width="2"/><path transform="translate(101.53846153846155,10)" d="M-7.535,-7.535h15.071v15.071h-15.071Z" fill="#4c78a8" stroke-width="2"/><path transform="translate(132.69230769230768,10)" d="M-3.487,-3.487h6.973v6.973h-6.973Z" fill="#4c78a8" stroke-width="2"/><path transform="translate(173.07692307692307,30)" d="M-2.565,-2.565h5.13v5.13h-5.13Z" fill="#f58518" stroke-width="2"/><path transform="translate(113.07692307692308,30)" d="M-7.897,-7.897h15.794v15.794h-15.794Z" fill="#f58518" stroke-width="2"/><path transform="translate(152.3076923076923,50)" d="M-3.487,-3.487h6.973v6.973h-6.973Z" fill="#e45756" stroke-width="2"/><path transform="translate(114.23076923076923,30)" d="M-5.871,-5.871h11.742v11.742h-11.742Z" fill="#f58518" stroke-width="2"/><path transform="translate(98.07692307692308,30)" d="M-2.565,-2.565h5.13v5.13h-5.13Z" fill="#f58518" stroke-width="2"/><path transform="translate(107.3076923076923,50)" d="M-2.565,-2.565h5.13v5.13h-5.13Z" fill="#e45756" stroke-width="2"/><path transform="translate(88.84615384615385,10)" d="M-4.211,-4.211h8.422v8.422h-8.422Z" fill="#4c78a8" stroke-width="2"/><path transform="translate(88.84615384615385,30)" d="M-3.487,-3.487h6.973v6.973h-6.973Z" fill="#f58518" stroke-width="2"/><path transform="translate(113.07692307692308,10)" d="M-6.328,-6.328h12.657v12.657h-12.657Z" fill="#4c78a8" stroke-width="2"/><path transform="translate(162.69230769230768,50)" d="M-2.565,-2.565h5.13v5.13h-5.13Z" fill="#e45756" stroke-width="2"/><path transform="translate(106.15384615384616,50)" d="M-2.565,-2.565h5.13v5.13h-5.13Z" fill="#e45756" stroke-width="2"/><path transform="translate(191.53846153846152,30)" d="M-2.565,-2.565h5.13v5.13h-5.13Z" fill="#f58518" stroke-width="2"/><path transform="translate(92.3076923076923,10)" d="M-5.871,-5.871h11.742v11.742h-11.742Z" fill="#4c78a8" stroke-width="2"/><path transform="translate(86.53846153846153,30)" d="M-2.565,-2.565h5.13v5.13h-5.13Z" fill="#f58518" stroke-width="2"/><path transform="translate(86.53846153846153,10)" d="M-4.211,-4.211h8.422v8.422h-8.422Z" fill="#4c78a8" stroke-width="2"/><path transform="translate(198.46153846153845,50)" d="M-3.487,-3.487h6.973v6.973h-6.973Z" fill="#e45756" stroke-width="2"/><path transform="translate(117.6923076923077,50)" d="M-2.565,-2.565h5.13v5.13h-5.13Z" fill="#e45756" stroke-width="2"/><path transform="translate(108.46153846153845,10)" d="M-7.156,-7.156h14.311v14.311h-14.311Z" fill="#4c78a8" stroke-width="2"/><path transform="translate(95.76923076923076,10)" d="M-7.156,-7.156h14.311v14.311h-14.311Z" fill="#4c78a8" stroke-width="2"/><path transform="translate(125.76923076923077,30)" d="M-5.871,-5.871h11.742v11.742h-11.742Z" fill="#f58518" stroke-width="2"/><path transform="translate(133.84615384615384,30)" d="M-4.211,-4.211h8.422v8.422h-8.422Z" fill="#f58518" stroke-width="2"/><path transform="translate(286.1538461538462,50)" d="M-2.565,-2.565h5.13v5.13h-5.13Z" fill="#e45756" stroke-width="2"/><path transform="translate(109.61538461538461,30)" d="M-8.242,-8.242h16.485v16.485h-16.485Z" fill="#f58518" stroke-width="2"/><path transform="translate(102.6923076923077,10)" d="M-7.156,-7.156h14.311v14.311h-14.311Z" fill="#4c78a8" stroke-width="2"/><path transform="translate(196.15384615384616,50)" d="M-2.565,-2.565h5.13v5.13h-5.13Z" fill="#e45756" stroke-width="2"/><path transform="translate(154.61538461538458,50)" d="M-4.828,-4.828h9.657v9.657h-9.657Z" fill="#e45756" stroke-width="2"/><path transform="translate(118.84615384615384,30)" d="M-7.897,-7.897h15.794v15.794h-15.794Z" fill="#f58518" stroke-width="2"/><path transform="translate(148.84615384615384,50)" d="M-2.565,-2.565h5.13v5.13h-5.13Z" fill="#e45756" stroke-width="2"/><path transform="translate(91.15384615384615,10)" d="M-5.871,-5.871h11.742v11.742h-11.742Z" fill="#4c78a8" stroke-width="2"/><path transform="translate(205.3846153846154,50)" d="M-2.565,-2.565h5.13v5.13h-5.13Z" fill="#e45756" stroke-width="2"/><path transform="translate(141.9230769230769,30)" d="M-4.828,-4.828h9.657v9.657h-9.657Z" fill="#f58518" stroke-width="2"/><path transform="translate(90,10)" d="M-5.871,-5.871h11.742v11.742h-11.742Z" fill="#4c78a8" stroke-width="2"/><path transform="translate(129.23076923076923,50)" d="M-2.565,-2.565h5.13v5.13h-5.13Z" fill="#e45756" stroke-width="2"/><path transform="translate(148.84615384615384,30)" d="M-4.828,-4.828h9.657v9.657h-9.657Z" fill="#f58518" stroke-width="2"/><path transform="translate(180,50)" d="M-2.565,-2.565h5.13v5.13h-5.13Z" fill="#e45756" stroke-width="2"/><path transform="translate(145.3846153846154,50)" d="M-3.487,-3.487h6.973v6.973h-6.973Z" fill="#e45756" stroke-width="2"/><path transform="translate(87.6923076923077,10)" d="M-4.211,-4.211h8.422v8.422h-8.422Z" fill="#4c78a8" stroke-width="2"/><path transform="translate(87.6923076923077,30)" d="M-2.565,-2.565h5.13v5.13h-5.13Z" fill="#f58518" stroke-width="2"/><path transform="translate(222.6923076923077,50)" d="M-2.565,-2.565h5.13v5.13h-5.13Z" fill="#e45756" stroke-width="2"/><path transform="translate(161.53846153846152,50)" d="M-4.828,-4.828h9.657v9.657h-9.657Z" fill="#e45756" stroke-width="2"/><path transform="translate(128.07692307692307,50)" d="M-2.565,-2.565h5.13v5.13h-5.13Z" fill="#e45756" stroke-width="2"/><path transform="translate(114.23076923076923,10)" d="M-2.565,-2.565h5.13v5.13h-5.13Z" fill="#4c78a8" stroke-width="2"/><path transform="translate(111.92307692307692,30)" d="M-8.242,-8.242h16.485v16.485h-16.485Z" fill="#f58518" stroke-width="2"/><path transform="translate(85.38461538461539,10)" d="M-4.211,-4.211h8.422v8.422h-8.422Z" fill="#4c78a8" stroke-width="2"/><path transform="translate(176.53846153846155,50)" d="M-2.565,-2.565h5.13v5.13h-5.13Z" fill="#e45756" stroke-width="2"/><path transform="translate(130.3846153846154,50)" d="M-4.211,-4.211h8.422v8.422h-8.422Z" fill="#e45756" stroke-width="2"/><path transform="translate(118.84615384615384,10)" d="M-3.487,-3.487h6.973v6.973h-6.973Z" fill="#4c78a8" stroke-width="2"/><path transform="translate(111.92307692307692,10)" d="M-6.328,-6.328h12.657v12.657h-12.657Z" fill="#4c78a8" stroke-width="2"/><path transform="translate(100.38461538461537,30)" d="M-6.755,-6.755h13.509v13.509h-13.509Z" fill="#f58518" stroke-width="2"/><path transform="translate(99.23076923076923,30)" d="M-5.871,-5.871h11.742v11.742h-11.742Z" fill="#f58518" stroke-width="2"/><path transform="translate(155.76923076923077,50)" d="M-4.211,-4.211h8.422v8.422h-8.422Z" fill="#e45756" stroke-width="2"/><path transform="translate(94.61538461538461,10)" d="M-4.211,-4.211h8.422v8.422h-8.422Z" fill="#4c78a8" stroke-width="2"/><path transform="translate(158.0769230769231,50)" d="M-4.211,-4.211h8.422v8.422h-8.422Z" fill="#e45756" stroke-width="2"/><path transform="translate(94.61538461538461,30)" d="M-4.211,-4.211h8.422v8.422h-8.422Z" fill="#f58518" stroke-width="2"/><path transform="translate(160.3846153846154,50)" d="M-3.487,-3.487h6.973v6.973h-6.973Z" fill="#e45756" stroke-width="2"/><path transform="translate(178.84615384615384,50)" d="M-3.487,-3.487h6.973v6.973h-6.973Z" fill="#e45756" stroke-width="2"/><path transform="translate(138.46153846153848,30)" d="M-4.211,-4.211h8.422v8.422h-8.422Z" fill="#f58518" stroke-width="2"/><path transform="translate(138.46153846153848,50)" d="M-3.487,-3.487h6.973v6.973h-6.973Z" fill="#e45756" stroke-width="2"/><path transform="translate(90,30)" d="M-3.487,-3.487h6.973v6.973h-6.973Z" fill="#f58518" stroke-width="2"/><path transform="translate(161.53846153846152,30)" d="M-2.565,-2.565h5.13v5.13h-5.13Z" fill="#f58518" stroke-width="2"/><path transform="translate(133.84615384615384,50)" d="M-2.565,-2.565h5.13v5.13h-5.13Z" fill="#e45756" stroke-width="2"/><path transform="translate(98.07692307692308,50)" d="M-2.565,-2.565h5.13v5.13h-5.13Z" fill="#e45756" stroke-width="2"/><path transform="translate(150,50)" d="M-2.565,-2.565h5.13v5.13h-5.13Z" fill="#e45756" stroke-width="2"/><path transform="translate(79.61538461538461,10)" d="M-2.565,-2.565h5.13v5.13h-5.13Z" fill="#4c78a8" stroke-width="2"/><path transform="translate(168.46153846153845,30)" d="M-2.565,-2.565h5.13v5.13h-5.13Z" fill="#f58518" stroke-width="2"/><path transform="translate(95.76923076923076,30)" d="M-4.211,-4.211h8.422v8.422h-8.422Z" fill="#f58518" stroke-width="2"/><path transform="translate(108.46153846153845,50)" d="M-3.487,-3.487h6.973v6.973h-6.973Z" fill="#e45756" stroke-width="2"/><path transform="translate(110.76923076923077,10)" d="M-5.375,-5.375h10.75v10.75h-10.75Z" fill="#4c78a8" stroke-width="2"/><path transform="translate(117.6923076923077,10)" d="M-6.328,-6.328h12.657v12.657h-12.657Z" fill="#4c78a8" stroke-width="2"/><path transform="translate(30,10)" d="M-2.565,-2.565h5.13v5.13h-5.13Z" fill="#4c78a8" stroke-width="2"/><path transform="translate(83.07692307692308,10)" d="M-4.211,-4.211h8.422v8.422h-8.422Z" fill="#4c78a8" stroke-width="2"/><path transform="translate(92.3076923076923,30)" d="M-3.487,-3.487h6.973v6.973h-6.973Z" fill="#f58518" stroke-width="2"/><path transform="translate(83.07692307692308,30)" d="M-2.565,-2.565h5.13v5.13h-5.13Z" fill="#f58518" stroke-width="2"/><path transform="translate(123.46153846153845,10)" d="M-4.211,-4.211h8.422v8.422h-8.422Z" fill="#4c78a8" stroke-width="2"/><path transform="translate(186.92307692307693,30)" d="M-2.565,-2.565h5.13v5.13h-5.13Z" fill="#f58518" stroke-width="2"/><path transform="translate(153.46153846153845,50)" d="M-2.565,-2.565h5.13v5.13h-5.13Z" fill="#e45756" stroke-width="2"/><path transform="translate(72.6923076923077,10)" d="M-2.565,-2.565h5.13v5.13h-5.13Z" fill="#4c78a8" stroke-width="2"/><path transform="translate(137.3076923076923,30)" d="M-4.211,-4.211h8.422v8.422h-8.422Z" fill="#f58518" stroke-width="2"/><path transform="translate(185.76923076923077,50)" d="M-2.565,-2.565h5.13v5.13h-5.13Z" fill="#e45756" stroke-width="2"/><path transform="translate(163.84615384615384,30)" d="M-3.487,-3.487h6.973v6.973h-6.973Z" fill="#f58518" stroke-width="2"/><path transform="translate(144.23076923076923,50)" d="M-3.487,-3.487h6.973v6.973h-6.973Z" fill="#e45756" stroke-width="2"/><path transform="translate(171.9230769230769,50)" d="M-2.565,-2.565h5.13v5.13h-5.13Z" fill="#e45756" stroke-width="2"/><path transform="translate(121.15384615384616,50)" d="M-2.565,-2.565h5.13v5.13h-5.13Z" fill="#e45756" stroke-width="2"/><path transform="translate(121.15384615384616,10)" d="M-2.565,-2.565h5.13v5.13h-5.13Z" fill="#4c78a8" stroke-width="2"/><path transform="translate(124.61538461538463,10)" d="M-4.211,-4.211h8.422v8.422h-8.422Z" fill="#4c78a8" stroke-width="2"/><path transform="translate(181.15384615384613,50)" d="M-2.565,-2.565h5.13v5.13h-5.13Z" fill="#e45756" stroke-width="2"/><path transform="translate(151.15384615384616,30)" d="M-2.565,-2.565h5.13v5.13h-5.13Z" fill="#f58518" stroke-width="2"/><path transform="translate(135,50)" d="M-2.565,-2.565h5.13v5.13h-5.13Z" fill="#e45756" stroke-width="2"/><path transform="translate(136.15384615384616,50)" d="M-2.565,-2.565h5.13v5.13h-5.13Z" fill="#e45756" stroke-width="2"/><path transform="translate(153.46153846153845,30)" d="M-2.565,-2.565h5.13v5.13h-5.13Z" fill="#f58518" stroke-width="2"/><path transform="translate(125.76923076923077,10)" d="M-2.565,-2.565h5.13v5.13h-5.13Z" fill="#4c78a8" stroke-width="2"/><path transform="translate(131.53846153846155,50)" d="M-2.565,-2.565h5.13v5.13h-5.13Z" fill="#e45756" stroke-width="2"/><path transform="translate(132.69230769230768,50)" d="M-2.565,-2.565h5.13v5.13h-5.13Z" fill="#e45756" stroke-width="2"/><path transform="translate(122.3076923076923,50)" d="M-2.565,-2.565h5.13v5.13h-5.13Z" fill="#e45756" stroke-width="2"/><path transform="translate(110.76923076923077,50)" d="M-2.565,-2.565h5.13v5.13h-5.13Z" fill="#e45756" stroke-width="2"/><path transform="translate(123.46153846153845,50)" d="M-2.565,-2.565h5.13v5.13h-5.13Z" fill="#e45756" stroke-width="2"/><path transform="translate(125.76923076923077,50)" d="M-2.565,-2.565h5.13v5.13h-5.13Z" fill="#e45756" stroke-width="2"/></g><g class="mark-group role-title"><g transform="translate(150,-20)"><path class="background" aria-hidden="true" d="M0,0h0v0h0Z" pointer-events="none"/><g><g class="mark-text role-title-text" role="graphics-symbol" aria-roledescription="title" aria-label="Title text 'United States of America'" pointer-events="none"><text text-anchor="middle" transform="translate(0,8)" font-family="sans-serif" font-size="10px" fill="#000" opacity="1">United States of America</text></g></g><path class="foreground" aria-hidden="true" d="" pointer-events="none" display="none"/></g></g></g><path class="foreground" aria-hidden="true" d="" display="none"/></g></g><g class="mark-group role-legend" role="graphics-symbol" aria-roledescription="legend" aria-label="Symbol legend titled 'genres' for fill color with 3 values: Animation, Fantasy, History"><g transform="translate(319,0)"><path class="background" aria-hidden="true" d="M0,0h61v53h-61Z" pointer-events="none"/><g><g class="mark-group role-legend-entry"><g transform="translate(0,16)"><path class="background" aria-hidden="true" d="M0,0h0v0h0Z" pointer-events="none"/><g><g class="mark-group role-scope" role="graphics-object" aria-roledescription="group mark container"><g transform="translate(0,0)"><path class="background" aria-hidden="true" d="M0,0h60.4677734375v11h-60.4677734375Z" pointer-events="none" opacity="1"/><g><g class="mark-symbol role-legend-symbol" pointer-events="none"><path transform="translate(6,6)" d="M-5,-5h10v10h-10Z" fill="#4c78a8" stroke-width="1.5" opacity="1"/></g><g class="mark-text role-legend-label" pointer-events="none"><text text-anchor="start" transform="translate(16,9)" font-family="sans-serif" font-size="10px" fill="#000" opacity="1">Animation</text></g></g><path class="foreground" aria-hidden="true" d="" pointer-events="none" display="none"/></g><g transform="translate(0,13)"><path class="background" aria-hidden="true" d="M0,0h60.4677734375v11h-60.4677734375Z" pointer-events="none" opacity="1"/><g><g class="mark-symbol role-legend-symbol" pointer-events="none"><path transform="translate(6,6)" d="M-5,-5h10v10h-10Z" fill="#f58518" stroke-width="1.5" opacity="1"/></g><g class="mark-text role-legend-label" pointer-events="none"><text text-anchor="start" transform="translate(16,9)" font-family="sans-serif" font-size="10px" fill="#000" opacity="1">Fantasy</text></g></g><path class="foreground" aria-hidden="true" d="" pointer-events="none" display="none"/></g><g transform="translate(0,26)"><path class="background" aria-hidden="true" d="M0,0h60.4677734375v11h-60.4677734375Z" pointer-events="none" opacity="1"/><g><g class="mark-symbol role-legend-symbol" pointer-events="none"><path transform="translate(6,6)" d="M-5,-5h10v10h-10Z" fill="#e45756" stroke-width="1.5" opacity="1"/></g><g class="mark-text role-legend-label" pointer-events="none"><text text-anchor="start" transform="translate(16,9)" font-family="sans-serif" font-size="10px" fill="#000" opacity="1">History</text></g></g><path class="foreground" aria-hidden="true" d="" pointer-events="none" display="none"/></g></g></g><path class="foreground" aria-hidden="true" d="" pointer-events="none" display="none"/></g></g><g class="mark-text role-legend-title" pointer-events="none"><text text-anchor="start" transform="translate(0,9)" font-family="sans-serif" font-size="11px" font-weight="bold" fill="#000" opacity="1">genres</text></g></g><path class="foreground" aria-hidden="true" d="" pointer-events="none" display="none"/></g></g><g class="mark-group role-legend" role="graphics-symbol" aria-roledescription="legend" aria-label="Symbol legend titled 'Count of Records' for size with values from 0 to 16"><g transform="translate(319,61)"><path class="background" aria-hidden="true" d="M0,0h93v88h-93Z" pointer-events="none"/><g><g class="mark-group role-legend-entry"><g transform="translate(0,16)"><path class="background" aria-hidden="true" d="M0,0h0v0h0Z" pointer-events="none"/><g><g class="mark-group role-scope" role="graphics-object" aria-roledescription="group mark container"><g transform="translate(0,0)"><path class="background" aria-hidden="true" d="M0,0h35.123046875v10h-35.123046875Z" pointer-events="none" opacity="1"/><g><g class="mark-symbol role-legend-symbol" pointer-events="none"><path transform="translate(10,5)" d="M-1,-1h2v2h-2Z" fill="black" fill-opacity="1" stroke-width="1.5" opacity="1"/></g><g class="mark-text role-legend-label" pointer-events="none"><text text-anchor="start" transform="translate(24,8)" font-family="sans-serif" font-size="10px" fill="#000" opacity="1">0</text></g></g><path class="foreground" aria-hidden="true" d="" pointer-events="none" display="none"/></g><g transform="translate(0,13)"><path class="background" aria-hidden="true" d="M0,0h35.123046875v13.375h-35.123046875Z" pointer-events="none" opacity="1"/><g><g class="mark-symbol role-legend-symbol" pointer-events="none"><path transform="translate(10,6.5)" d="M-5.375,-5.375h10.75v10.75h-10.75Z" fill="black" fill-opacity="1" stroke-width="1.5" opacity="1"/></g><g class="mark-text role-legend-label" pointer-events="none"><text text-anchor="start" transform="translate(24,9.5)" font-family="sans-serif" font-size="10px" fill="#000" opacity="1">5</text></g></g><path class="foreground" aria-hidden="true" d="" pointer-events="none" display="none"/></g><g transform="translate(0,30)"><path class="background" aria-hidden="true" d="M0,0h35.123046875v17.535333436550772h-35.123046875Z" pointer-events="none" opacity="1"/><g><g class="mark-symbol role-legend-symbol" pointer-events="none"><path transform="translate(10,8.5)" d="M-7.535,-7.535h15.071v15.071h-15.071Z" fill="black" fill-opacity="1" stroke-width="1.5" opacity="1"/></g><g class="mark-text role-legend-label" pointer-events="none"><text text-anchor="start" transform="translate(24,11.5)" font-family="sans-serif" font-size="10px" fill="#000" opacity="1">10</text></g></g><path class="foreground" aria-hidden="true" d="" pointer-events="none" display="none"/></g><g transform="translate(0,51)"><path class="background" aria-hidden="true" d="M0,0h35.123046875v20.701732173889866h-35.123046875Z" pointer-events="none" opacity="1"/><g><g class="mark-symbol role-legend-symbol" pointer-events="none"><path transform="translate(10,10)" d="M-9.202,-9.202h18.403v18.403h-18.403Z" fill="black" fill-opacity="1" stroke-width="1.5" opacity="1"/></g><g class="mark-text role-legend-label" pointer-events="none"><text text-anchor="start" transform="translate(24,13)" font-family="sans-serif" font-size="10px" fill="#000" opacity="1">15</text></g></g><path class="foreground" aria-hidden="true" d="" pointer-events="none" display="none"/></g></g></g><path class="foreground" aria-hidden="true" d="" pointer-events="none" display="none"/></g></g><g class="mark-text role-legend-title" pointer-events="none"><text text-anchor="start" transform="translate(0,9)" font-family="sans-serif" font-size="11px" font-weight="bold" fill="#000" opacity="1">Count of Records</text></g></g><path class="foreground" aria-hidden="true" d="" pointer-events="none" display="none"/></g></g></g><path class="foreground" aria-hidden="true" d="" display="none"/></g></g></g></svg>