<svg xmlns="http://www.w3.org/2000/svg" xmlns:xlink="http://www.w3.org/1999/xlink" version="1.1" class="marks" width="437" height="347" viewBox="0 0 437 347"><rect width="437" height="347" fill="white"/><g fill="none" stroke-miterlimit="10" transform="translate(53,10)"><g class="mark-group role-frame root" role="graphics-object" aria-roledescription="group mark container"><g transform="translate(0,0)"><path class="background" aria-hidden="true" d="M0.5,0.5h300v300h-300Z" stroke="#ddd"/><g><g class="mark-group role-axis" aria-hidden="true"><g transform="translate(0.5,300.5)"><path class="background" aria-hidden="true" d="M0,0h0v0h0Z" pointer-events="none"/><g><g class="mark-rule role-axis-grid" pointer-events="none"><line transform="translate(0,-300)" x2="0" y2="300" stroke="#ddd" stroke-width="1" opacity="1"/><line transform="translate(25,-300)" x2="0" y2="300" stroke="#ddd" stroke-width="1" opacity="1"/><line transform="translate(50,-300)" x2="0" y2="300" stroke="#ddd" stroke-width="1" opacity="1"/><line transform="translate(75,-300)" x2="0" y2="300" stroke="#ddd" stroke-width="1" opacity="1"/><line transform="translate(100,-300)" x2="0" y2="300" stroke="#ddd" stroke-width="1" opacity="1"/><line transform="translate(125,-300)" x2="0" y2="300" stroke="#ddd" stroke-width="1" opacity="1"/><line transform="translate(150,-300)" x2="0" y2="300" stroke="#ddd" stroke-width="1" opacity="1"/><line transform="translate(175,-300)" x2="0" y2="300" stroke="#ddd" stroke-width="1" opacity="1"/><line transform="translate(200,-300)" x2="0" y2="300" stroke="#ddd" stroke-width="1" opacity="1"/><line transform="translate(225,-300)" x2="0" y2="300" stroke="#ddd" stroke-width="1" opacity="1"/><line transform="translate(250,-300)" x2="0" y2="300" stroke="#ddd" stroke-width="1" opacity="1"/><line transform="translate(275,-300)" x2="0" y2="300" stroke="#ddd" stroke-width="1" opacity="1"/><line transform="translate(300,-300)" x2="0" y2="300" stroke="#ddd" stroke-width="1" opacity="1"/></g></g><path class="foreground" aria-hidden="true" d="" pointer-events="none" display="none"/></g></g><g class="mark-group role-axis" aria-hidden="true"><g transform="translate(0.5,0.5)"><path class="background" aria-hidden="true" d="M0,0h0v0h0Z" pointer-events="none"/><g><g class="mark-rule role-axis-grid" pointer-events="none"><line transform="translate(0,300)" x2="300" y2="0" stroke="#ddd" stroke-width="1" opacity="1"/><line transform="translate(0,267)" x2="300" y2="0" stroke="#ddd" stroke-width="1" opacity="1"/><line transform="translate(0,233)" x2="300" y2="0" stroke="#ddd" stroke-width="1" opacity="1"/><line transform="translate(0,200)" x2="300" y2="0" stroke="#ddd" stroke-width="1" opacity="1"/><line transform="translate(0,167)" x2="300" y2="0" stroke="#ddd" stroke-width="1" opacity="1"/><line transform="translate(0,133)" x2="300" y2="0" stroke="#ddd" stroke-width="1" opacity="1"/><line transform="translate(0,100)" x2="300" y2="0" stroke="#ddd" stroke-width="1" opacity="1"/><line transform="translate(0,67)" x2="300" y2="0" stroke="#ddd" stroke-width="1" opacity="1"/><line transform="translate(0,33)" x2="300" y2="0" stroke="#ddd" stroke-width="1" opacity="1"/><line transform="translate(0,0)" x2="300" y2="0" stroke="#ddd" stroke-width="1" opacity="1"/></g></g><path class="foreground" aria-hidden="true" d="" pointer-events="none" display="none"/></g></g><g class="mark-group role-axis" role="graphics-symbol" aria-roledescription="axis" aria-label="X-axis titled 'runtime' for a linear scale with values from 20 to 260"><g transform="translate(0.5,300.5)"><path class="background" aria-hidden="true" d="M0,0h0v0h0Z" pointer-events="none"/><g><g class="mark-rule role-axis-tick" pointer-events="none"><line transform="translate(0,0)" x2="0" y2="5" stroke="#888" stroke-width="1" opacity="1"/><line transform="translate(25,0)" x2="0" y2="5" stroke="#888" stroke-width="1" opacity="1"/><line transform="translate(50,0)" x2="0" y2="5" stroke="#888" stroke-width="1" opacity="1"/><line transform="translate(75,0)" x2="0" y2="5" stroke="#888" stroke-width="1" opacity="1"/><line transform="translate(100,0)" x2="0" y2="5" stroke="#888" stroke-width="1" opacity="1"/><line transform="translate(125,0)" x2="0" y2="5" stroke="#888" stroke-width="1" opacity="1"/><line transform="translate(150,0)" x2="0" y2="5" stroke="#888" stroke-width="1" opacity="1"/><line transform="translate(175,0)" x2="0" y2="5" stroke="#888" stroke-width="1" opacity="1"/><line transform="translate(200,0)" x2="0" y2="5" stroke="#888" stroke-width="1" opacity="1"/><line transform="translate(225,0)" x2="0" y2="5" stroke="#888" stroke-width="1" opacity="1"/><line transform="translate(250,0)" x2="0" y2="5" stroke="#888" stroke-width="1" opacity="1"/><line transform="translate(275,0)" x2="0" y2="5" stroke="#888" stroke-width="1" opacity="1"/><line transform="translate(300,0)" x2="0" y2="5" stroke="#888" stroke-width="1" opacity="1"/></g><g class="mark-text role-axis-label" pointer-events="none"><text text-anchor="start" transform="translate(0,15)" font-family="sans-serif" font-size="10px" fill="#000" opacity="1">20</text><text text-anchor="middle" transform="translate(25,15)" font-family="sans-serif" font-size="10px" fill="#000" opacity="0">40</text><text text-anchor="middle" transform="translate(50,15)" font-family="sans-serif" font-size="10px" fill="#000" opacity="1">60</text><text text-anchor="middle" transform="translate(75,15)" font-family="sans-serif" font-size="10px" fill="#000" opacity="0">80</text><text text-anchor="middle" transform="translate(100,15)" font-family="sans-serif" font-size="10px" fill="#000" opacity="1">100</text><text text-anchor="middle" transform="translate(125,15)" font-family="sans-serif" font-size="10px" fill="#000" opacity="0">120</text><text text-anchor="middle" transform="translate(150,15)" font-family="sans-serif" font-size="10px" fill="#000" opacity="1">140</text><text text-anchor="middle" transform="translate(175,15)" font-family="sans-serif" font-size="10px" fill="#000" opacity="0">160</text><text text-anchor="middle" transform="translate(200,15)" font-family="sans-serif" font-size="10px" fill="#000" opacity="1">180</text><text text-anchor="middle" transform="translate(225,15)" font-family="sans-serif" font-size="10px" fill="#000" opacity="0">200</text><text text-anchor="middle" transform="translate(250,15)" font-family="sans-serif" font-size="10px" fill="#000" opacity="1">220</text><text text-anchor="middle" transform="translate(275,15)" font-family="sans-serif" font-size="10px" fill="#000" opacity="0">240</text><text text-anchor="end" transform="translate(300,15)" font-family="sans-serif" font-size="10px" fill="#000" opacity="1">260</text></g><g class="mark-rule role-axis-domain" pointer-events="none"><line transform="translate(0,0)" x2="300" y2="0" stroke="#888" stroke-width="1" opacity="1"/></g><g class="mark-text role-axis-title" pointer-events="none"><text text-anchor="middle" transform="translate(150,30)" font-family="sans-serif" font-size="11px" font-weight="bold" fill="#000" opacity="1">runtime</text></g></g><path class="foreground" aria-hidden="true" d="" pointer-events="none" display="none"/></g></g><g class="mark-group role-axis" role="graphics-symbol" aria-roledescription="axis" aria-label="Y-axis titled 'density' for a linear scale with values from 0.00 to 0.04"><g transform="translate(0.5,0.5)"><path class="background" aria-hidden="true" d="M0,0h0v0h0Z" pointer-events="none"/><g><g class="mark-rule role-axis-tick" pointer-events="none"><line transform="translate(0,300)" x2="-5" y2="0" stroke="#888" stroke-width="1" opacity="1"/><line transform="translate(0,267)" x2="-5" y2="0" stroke="#888" stroke-width="1" opacity="1"/><line transform="translate(0,233)" x2="-5" y2="0" stroke="#888" stroke-width="1" opacity="1"/><line transform="translate(0,200)" x2="-5" y2="0" stroke="#888" stroke-width="1" opacity="1"/><line transform="translate(0,167)" x2="-5" y2="0" stroke="#888" stroke-width="1" opacity="1"/><line transform="translate(0,133)" x2="-5" y2="0" stroke="#888" stroke-width="1" opacity="1"/><line transform="translate(0,100)" x2="-5" y2="0" stroke="#888" stroke-width="1" opacity="1"/><line transform="translate(0,67)" x2="-5" y2="0" stroke="#888" stroke-width="1" opacity="1"/><line transform="translate(0,33)" x2="-5" y2="0" stroke="#888" stroke-width="1" opacity="1"/><line transform="translate(0,0)" x2="-5" y2="0" stroke="#888" stroke-width="1" opacity="1"/></g><g class="mark-text role-axis-label" pointer-events="none"><text text-anchor="end" transform="translate(-7,303)" font-family="sans-serif" font-size="10px" fill="#000" opacity="1">0.000</text><text text-anchor="end" transform="translate(-7,269.66666666666663)" font-family="sans-serif" font-size="10px" fill="#000" opacity="1">0.005</text><text text-anchor="end" transform="translate(-7,236.33333333333334)" font-family="sans-serif" font-size="10px" fill="#000" opacity="1">0.010</text><text text-anchor="end" transform="translate(-7,203.00000000000003)" font-family="sans-serif" font-size="10px" fill="#000" opacity="1">0.015</text><text text-anchor="end" transform="translate(-7,169.66666666666669)" font-family="sans-serif" font-size="10px" fill="#000" opacity="1">0.020</text><text text-anchor="end" transform="translate(-7,136.33333333333331)" font-family="sans-serif" font-size="10px" fill="#000" opacity="1">0.025</text><text text-anchor="end" transform="translate(-7,103.00000000000001)" font-family="sans-serif" font-size="10px" fill="#000" opacity="1">0.030</text><text text-anchor="end" transform="translate(-7,69.66666666666663)" font-family="sans-serif" font-size="10px" fill="#000" opacity="1">0.035</text><text text-anchor="end" transform="translate(-7,36.333333333333314)" font-family="sans-serif" font-size="10px" fill="#000" opacity="1">0.040</text><text text-anchor="end" transform="translate(-7,3)" font-family="sans-serif" font-size="10px" fill="#000" opacity="1">0.045</text></g><g class="mark-rule role-axis-domain" pointer-events="none"><line transform="translate(0,300)" x2="0" y2="-300" stroke="#888" stroke-width="1" opacity="1"/></g><g class="mark-text role-axis-title" pointer-events="none"><text text-anchor="middle" transform="translate(-36.0244140625,150) rotate(-90) translate(0,-2)" font-family="sans-serif" font-size="11px" font-weight="bold" fill="#000" opacity="1">density</text></g></g><path class="foreground" aria-hidden="true" d="" pointer-events="none" display="none"/></g></g><g class="mark-group role-scope pathgroup" role="graphics-object" aria-roledescription="group mark container"><g transform="translate(0,0)"><path class="background" aria-hidden="true" d="M0,0h300v300h-300Z"/><g><g class="mark-area role-mark marks" role="graphics-symbol" aria-roledescription="area mark container"><path d="M7.5,296.449L8.888,296.63L10.275,297.118L11.662,297.78L13.05,298.459L14.438,299.037L15.825,299.458L17.213,299.725L18.6,299.874L19.988,299.948L21.375,299.981L22.763,299.994L24.15,299.998L25.537,299.999L26.925,300L28.313,300L29.7,300L31.088,300L32.475,300L33.863,300L35.25,300L36.638,299.999L38.025,299.996L39.412,299.986L40.8,299.962L42.188,299.905L43.575,299.785L44.963,299.559L46.35,299.186L47.738,298.638L49.125,297.933L50.512,297.129L51.9,296.308L53.288,295.503L54.675,294.63L56.062,293.437L57.45,291.524L58.837,288.401L60.225,283.577L61.612,276.635L63,267.294L64.387,255.449L65.775,241.211L67.163,224.951L68.55,207.319L69.938,189.204L71.325,171.603L72.712,155.356L74.1,140.846L75.488,127.795L76.875,115.322L78.263,102.315L79.65,87.999L81.038,72.419L82.425,56.599L83.813,42.253L85.2,31.192L86.587,24.743L87.975,23.478L89.363,27.322L90.75,35.872L92.137,48.645L93.525,65.085L94.913,84.401L96.3,105.459L97.688,126.895L99.075,147.406L100.463,166.065L101.85,182.47L103.237,196.683L104.625,209.064L106.013,220.1L107.4,230.276L108.788,239.961L110.175,249.279L111.563,258.033L112.95,265.773L114.337,272.022L115.725,276.55L117.113,279.548L118.5,281.582L119.888,283.346L121.275,285.373L122.663,287.852L124.05,290.621L125.437,293.335L126.825,295.651L128.212,297.367L129.6,298.441L130.988,298.94L132.375,298.971L133.763,298.645L135.15,298.081L136.538,297.42L137.925,296.836L139.312,296.493L140.7,296.496L142.088,296.845L143.475,297.44L144.862,298.129L146.25,298.768L147.638,299.27L149.025,299.61L150.412,299.812L151.8,299.919L153.188,299.968L154.575,299.989L155.963,299.996L157.35,299.999L158.738,300L160.125,300L161.513,300L162.9,300L164.288,300L165.675,300L167.062,300L168.45,300L169.838,300L171.225,300L172.612,300L174,300L175.388,300L176.775,300L178.163,300L179.55,300L180.938,300L182.325,300L183.713,300L185.1,300L186.487,300L187.875,300L189.263,300L190.65,300L192.038,300L193.425,300L194.813,300L196.2,300L197.588,300L198.975,300L200.363,300L201.75,300L203.138,300L204.525,300L205.913,300L207.3,300L208.687,300L210.075,300L211.462,300L212.85,300L214.237,300L215.625,300L217.013,300L218.4,300L219.788,300L221.175,300L222.563,300L223.95,300L225.338,300L226.725,300L228.113,300L229.5,300L230.888,300L232.275,300L233.662,300L235.05,300L236.437,300L237.825,300L239.213,300L240.6,300L241.988,300L243.375,300L244.763,300L246.15,300L247.538,300L248.925,300L250.313,300L251.7,300L253.087,300L254.475,300L255.862,300L257.25,300L258.638,300L260.025,300L261.413,300L262.8,300L264.188,300L265.575,300L266.963,300L268.35,300L269.738,300L271.125,300L272.513,300L273.9,300L275.287,300L276.675,300L278.063,300L279.45,300L280.838,300L282.225,300L283.613,300L285,300L285,300L283.613,300L282.225,300L280.838,300L279.45,300L278.063,300L276.675,300L275.287,300L273.9,300L272.513,300L271.125,300L269.738,300L268.35,300L266.963,300L265.575,300L264.188,300L262.8,300L261.413,300L260.025,300L258.638,300L257.25,300L255.862,300L254.475,300L253.087,300L251.7,300L250.313,300L248.925,300L247.538,300L246.15,300L244.763,300L243.375,300L241.988,300L240.6,300L239.213,300L237.825,300L236.437,300L235.05,300L233.662,300L232.275,300L230.888,300L229.5,300L228.113,300L226.725,300L225.338,300L223.95,300L222.563,300L221.175,300L219.788,300L218.4,300L217.013,300L215.625,300L214.237,300L212.85,300L211.462,300L210.075,300L208.687,300L207.3,300L205.913,300L204.525,300L203.138,300L201.75,300L200.363,300L198.975,300L197.588,300L196.2,300L194.813,300L193.425,300L192.038,300L190.65,300L189.263,300L187.875,300L186.487,300L185.1,300L183.713,300L182.325,300L180.938,300L179.55,300L178.163,300L176.775,300L175.388,300L174,300L172.612,300L171.225,300L169.838,300L168.45,300L167.062,300L165.675,300L164.288,300L162.9,300L161.513,300L160.125,300L158.738,300L157.35,300L155.963,300L154.575,300L153.188,300L151.8,300L150.412,300L149.025,300L147.638,300L146.25,300L144.862,300L143.475,300L142.088,300L140.7,300L139.312,300L137.925,300L136.538,300L135.15,300L133.763,300L132.375,300L130.988,300L129.6,300L128.212,300L126.825,300L125.437,300L124.05,300L122.663,300L121.275,300L119.888,300L118.5,300L117.113,300L115.725,300L114.337,300L112.95,300L111.563,300L110.175,300L108.788,300L107.4,300L106.013,300L104.625,300L103.237,300L101.85,300L100.463,300L99.075,300L97.688,300L96.3,300L94.913,300L93.525,300L92.137,300L90.75,300L89.363,300L87.975,300L86.587,300L85.2,300L83.813,300L82.425,300L81.038,300L79.65,300L78.263,300L76.875,300L75.488,300L74.1,300L72.712,300L71.325,300L69.938,300L68.55,300L67.163,300L65.775,300L64.387,300L63,300L61.612,300L60.225,300L58.837,300L57.45,300L56.062,300L54.675,300L53.288,300L51.9,300L50.512,300L49.125,300L47.738,300L46.35,300L44.963,300L43.575,300L42.188,300L40.8,300L39.412,300L38.025,300L36.638,300L35.25,300L33.863,300L32.475,300L31.088,300L29.7,300L28.313,300L26.925,300L25.537,300L24.15,300L22.763,300L21.375,300L19.988,300L18.6,300L17.213,300L15.825,300L14.438,300L13.05,300L11.662,300L10.275,300L8.888,300L7.5,300Z" fill="#4c78a8"/></g></g><path class="foreground" aria-hidden="true" d="" display="none"/></g><g transform="translate(0,0)"><path class="background" aria-hidden="true" d="M0,0h300v300h-300Z"/><g><g class="mark-area role-mark marks" role="graphics-symbol" aria-roledescription="area mark container"><path d="M7.5,300L8.888,300L10.275,300L11.662,300L13.05,300L14.438,300L15.825,300L17.213,300L18.6,300L19.988,300L21.375,300L22.763,300L24.15,300L25.537,300L26.925,300L28.313,300L29.7,300L31.088,300L32.475,300L33.863,300L35.25,300L36.638,300L38.025,300L39.412,299.999L40.8,299.998L42.188,299.995L43.575,299.989L44.963,299.979L46.35,299.96L47.738,299.927L49.125,299.872L50.512,299.782L51.9,299.641L53.288,299.428L54.675,299.117L56.062,298.677L57.45,298.075L58.837,297.274L60.225,296.239L61.612,294.935L63,293.326L64.387,291.38L65.775,289.058L67.163,286.318L68.55,283.108L69.938,279.369L71.325,275.038L72.712,270.056L74.1,264.378L75.488,257.985L76.875,250.898L78.263,243.175L79.65,234.914L81.038,226.237L82.425,217.283L83.813,208.187L85.2,199.071L86.587,190.043L87.975,181.197L89.363,172.62L90.75,164.405L92.137,156.66L93.525,149.517L94.913,143.133L96.3,137.693L97.688,133.396L99.075,130.441L100.463,129.002L101.85,129.203L103.237,131.08L104.625,134.569L106.013,139.492L107.4,145.568L108.788,152.443L110.175,159.736L111.563,167.079L112.95,174.167L114.337,180.776L115.725,186.779L117.113,192.13L118.5,196.853L119.888,201.014L121.275,204.7L122.663,208.011L124.05,211.052L125.437,213.93L126.825,216.759L128.212,219.656L129.6,222.731L130.988,226.078L132.375,229.758L133.763,233.786L135.15,238.12L136.538,242.663L137.925,247.27L139.312,251.769L140.7,255.986L142.088,259.774L143.475,263.038L144.862,265.746L146.25,267.939L147.638,269.712L149.025,271.198L150.412,272.537L151.8,273.853L153.188,275.228L154.575,276.696L155.963,278.246L157.35,279.832L158.738,281.391L160.125,282.866L161.513,284.214L162.9,285.415L164.288,286.471L165.675,287.396L167.062,288.209L168.45,288.927L169.838,289.562L171.225,290.123L172.612,290.614L174,291.044L175.388,291.423L176.775,291.765L178.163,292.086L179.55,292.401L180.938,292.722L182.325,293.052L183.713,293.39L185.1,293.725L186.487,294.043L187.875,294.329L189.263,294.567L190.65,294.751L192.038,294.884L193.425,294.983L194.813,295.071L196.2,295.177L197.588,295.325L198.975,295.531L200.363,295.798L201.75,296.116L203.138,296.463L204.525,296.816L205.913,297.15L207.3,297.451L208.687,297.711L210.075,297.931L211.462,298.115L212.85,298.267L214.237,298.392L215.625,298.491L217.013,298.561L218.4,298.602L219.788,298.617L221.175,298.613L222.563,298.6L223.95,298.594L225.338,298.607L226.725,298.651L228.113,298.731L229.5,298.845L230.888,298.986L232.275,299.144L233.662,299.306L235.05,299.459L236.437,299.596L237.825,299.711L239.213,299.801L240.6,299.869L241.988,299.917L243.375,299.95L244.763,299.971L246.15,299.984L247.538,299.991L248.925,299.996L250.313,299.998L251.7,299.999L253.087,300L254.475,300L255.862,300L257.25,300L258.638,300L260.025,300L261.413,300L262.8,300L264.188,300L265.575,300L266.963,300L268.35,300L269.738,300L271.125,300L272.513,300L273.9,300L275.287,300L276.675,300L278.063,300L279.45,300L280.838,300L282.225,300L283.613,300L285,300L285,300L283.613,300L282.225,300L280.838,300L279.45,300L278.063,300L276.675,300L275.287,300L273.9,300L272.513,300L271.125,300L269.738,300L268.35,300L266.963,300L265.575,300L264.188,300L262.8,300L261.413,300L260.025,300L258.638,300L257.25,300L255.862,300L254.475,300L253.087,300L251.7,300L250.313,300L248.925,300L247.538,300L246.15,300L244.763,300L243.375,300L241.988,300L240.6,300L239.213,300L237.825,300L236.437,300L235.05,300L233.662,300L232.275,300L230.888,300L229.5,300L228.113,300L226.725,300L225.338,300L223.95,300L222.563,300L221.175,300L219.788,300L218.4,300L217.013,300L215.625,300L214.237,300L212.85,300L211.462,300L210.075,300L208.687,300L207.3,300L205.913,300L204.525,300L203.138,300L201.75,300L200.363,300L198.975,300L197.588,300L196.2,300L194.813,300L193.425,300L192.038,300L190.65,300L189.263,300L187.875,300L186.487,300L185.1,300L183.713,300L182.325,300L180.938,300L179.55,300L178.163,300L176.775,300L175.388,300L174,300L172.612,300L171.225,300L169.838,300L168.45,300L167.062,300L165.675,300L164.288,300L162.9,300L161.513,300L160.125,300L158.738,300L157.35,300L155.963,300L154.575,300L153.188,300L151.8,300L150.412,300L149.025,300L147.638,300L146.25,300L144.862,300L143.475,300L142.088,300L140.7,300L139.312,300L137.925,300L136.538,300L135.15,300L133.763,300L132.375,300L130.988,300L129.6,300L128.212,300L126.825,300L125.437,300L124.05,300L122.663,300L121.275,300L119.888,300L118.5,300L117.113,300L115.725,300L114.337,300L112.95,300L111.563,300L110.175,300L108.788,300L107.4,300L106.013,300L104.625,300L103.237,300L101.85,300L100.463,300L99.075,300L97.688,300L96.3,300L94.913,300L93.525,300L92.137,300L90.75,300L89.363,300L87.975,300L86.587,300L85.2,300L83.813,300L82.425,300L81.038,300L79.65,300L78.263,300L76.875,300L75.488,300L74.1,300L72.712,300L71.325,300L69.938,300L68.55,300L67.163,300L65.775,300L64.387,300L63,300L61.612,300L60.225,300L58.837,300L57.45,300L56.062,300L54.675,300L53.288,300L51.9,300L50.512,300L49.125,300L47.738,300L46.35,300L44.963,300L43.575,300L42.188,300L40.8,300L39.412,300L38.025,300L36.638,300L35.25,300L33.863,300L32.475,300L31.088,300L29.7,300L28.313,300L26.925,300L25.537,300L24.15,300L22.763,300L21.375,300L19.988,300L18.6,300L17.213,300L15.825,300L14.438,300L13.05,300L11.662,300L10.275,300L8.888,300L7.5,300Z" fill="#f58518"/></g></g><path class="foreground" aria-hidden="true" d="" display="none"/></g><g transform="translate(0,0)"><path class="background" aria-hidden="true" d="M0,0h300v300h-300Z"/><g><g class="mark-area role-mark marks" role="graphics-symbol" aria-roledescription="area mark container"><path d="M7.5,300L8.888,300L10.275,300L11.662,300L13.05,300L14.438,300L15.825,300L17.213,300L18.6,300L19.988,300L21.375,300L22.763,300L24.15,300L25.537,300L26.925,300L28.313,300L29.7,300L31.088,300L32.475,300L33.863,300L35.25,299.999L36.638,299.999L38.025,299.998L39.412,299.998L40.8,299.996L42.188,299.994L43.575,299.99L44.963,299.985L46.35,299.978L47.738,299.968L49.125,299.953L50.512,299.932L51.9,299.903L53.288,299.863L54.675,299.81L56.062,299.74L57.45,299.648L58.837,299.53L60.225,299.379L61.612,299.19L63,298.956L64.387,298.669L65.775,298.322L67.163,297.908L68.55,297.42L69.938,296.853L71.325,296.202L72.712,295.463L74.1,294.634L75.488,293.716L76.875,292.711L78.263,291.623L79.65,290.457L81.038,289.218L82.425,287.914L83.813,286.548L85.2,285.125L86.587,283.645L87.975,282.107L89.363,280.503L90.75,278.823L92.137,277.052L93.525,275.17L94.913,273.156L96.3,270.986L97.688,268.636L99.075,266.083L100.463,263.309L101.85,260.297L103.237,257.038L104.625,253.53L106.013,249.778L107.4,245.794L108.788,241.598L110.175,237.218L111.563,232.688L112.95,228.049L114.337,223.346L115.725,218.629L117.113,213.949L118.5,209.36L119.888,204.917L121.275,200.671L122.663,196.673L124.05,192.97L125.437,189.605L126.825,186.613L128.212,184.025L129.6,181.866L130.988,180.155L132.375,178.904L133.763,178.123L135.15,177.816L136.538,177.985L137.925,178.631L139.312,179.751L140.7,181.339L142.088,183.386L143.475,185.878L144.862,188.796L146.25,192.112L147.638,195.788L149.025,199.779L150.412,204.028L151.8,208.47L153.188,213.033L154.575,217.64L155.963,222.213L157.35,226.676L158.738,230.959L160.125,235.001L161.513,238.752L162.9,242.177L164.288,245.253L165.675,247.972L167.062,250.341L168.45,252.376L169.838,254.104L171.225,255.559L172.612,256.778L174,257.803L175.388,258.674L176.775,259.431L178.163,260.112L179.55,260.75L180.938,261.375L182.325,262.011L183.713,262.68L185.1,263.397L186.487,264.171L187.875,265.007L189.263,265.907L190.65,266.864L192.038,267.87L193.425,268.913L194.813,269.978L196.2,271.047L197.588,272.105L198.975,273.134L200.363,274.121L201.75,275.056L203.138,275.931L204.525,276.744L205.913,277.497L207.3,278.198L208.687,278.856L210.075,279.484L211.462,280.098L212.85,280.712L214.237,281.342L215.625,281.999L217.013,282.694L218.4,283.432L219.788,284.215L221.175,285.04L222.563,285.901L223.95,286.789L225.338,287.691L226.725,288.594L228.113,289.483L229.5,290.346L230.888,291.169L232.275,291.942L233.662,292.659L235.05,293.315L236.437,293.907L237.825,294.439L239.213,294.914L240.6,295.337L241.988,295.717L243.375,296.06L244.763,296.373L246.15,296.664L247.538,296.938L248.925,297.2L250.313,297.45L251.7,297.69L253.087,297.92L254.475,298.136L255.862,298.337L257.25,298.52L258.638,298.679L260.025,298.813L261.413,298.917L262.8,298.991L264.188,299.032L265.575,299.039L266.963,299.014L268.35,298.958L269.738,298.873L271.125,298.765L272.513,298.637L273.9,298.496L275.287,298.348L276.675,298.2L278.063,298.059L279.45,297.933L280.838,297.828L282.225,297.749L283.613,297.701L285,297.685L285,300L283.613,300L282.225,300L280.838,300L279.45,300L278.063,300L276.675,300L275.287,300L273.9,300L272.513,300L271.125,300L269.738,300L268.35,300L266.963,300L265.575,300L264.188,300L262.8,300L261.413,300L260.025,300L258.638,300L257.25,300L255.862,300L254.475,300L253.087,300L251.7,300L250.313,300L248.925,300L247.538,300L246.15,300L244.763,300L243.375,300L241.988,300L240.6,300L239.213,300L237.825,300L236.437,300L235.05,300L233.662,300L232.275,300L230.888,300L229.5,300L228.113,300L226.725,300L225.338,300L223.95,300L222.563,300L221.175,300L219.788,300L218.4,300L217.013,300L215.625,300L214.237,300L212.85,300L211.462,300L210.075,300L208.687,300L207.3,300L205.913,300L204.525,300L203.138,300L201.75,300L200.363,300L198.975,300L197.588,300L196.2,300L194.813,300L193.425,300L192.038,300L190.65,300L189.263,300L187.875,300L186.487,300L185.1,300L183.713,300L182.325,300L180.938,300L179.55,300L178.163,300L176.775,300L175.388,300L174,300L172.612,300L171.225,300L169.838,300L168.45,300L167.062,300L165.675,300L164.288,300L162.9,300L161.513,300L160.125,300L158.738,300L157.35,300L155.963,300L154.575,300L153.188,300L151.8,300L150.412,300L149.025,300L147.638,300L146.25,300L144.862,300L143.475,300L142.088,300L140.7,300L139.312,300L137.925,300L136.538,300L135.15,300L133.763,300L132.375,300L130.988,300L129.6,300L128.212,300L126.825,300L125.437,300L124.05,300L122.663,300L121.275,300L119.888,300L118.5,300L117.113,300L115.725,300L114.337,300L112.95,300L111.563,300L110.175,300L108.788,300L107.4,300L106.013,300L104.625,300L103.237,300L101.85,300L100.463,300L99.075,300L97.688,300L96.3,300L94.913,300L93.525,300L92.137,300L90.75,300L89.363,300L87.975,300L86.587,300L85.2,300L83.813,300L82.425,300L81.038,300L79.65,300L78.263,300L76.875,300L75.488,300L74.1,300L72.712,300L71.325,300L69.938,300L68.55,300L67.163,300L65.775,300L64.387,300L63,300L61.612,300L60.225,300L58.837,300L57.45,300L56.062,300L54.675,300L53.288,300L51.9,300L50.512,300L49.125,300L47.738,300L46.35,300L44.963,300L43.575,300L42.188,300L40.8,300L39.412,300L38.025,300L36.638,300L35.25,300L33.863,300L32.475,300L31.088,300L29.7,300L28.313,300L26.925,300L25.537,300L24.15,300L22.763,300L21.375,300L19.988,300L18.6,300L17.213,300L15.825,300L14.438,300L13.05,300L11.662,300L10.275,300L8.888,300L7.5,300Z" fill="#e45756"/></g></g><path class="foreground" aria-hidden="true" d="" display="none"/></g></g><g class="mark-group role-legend" role="graphics-symbol" aria-roledescription="legend" aria-label="Symbol legend titled 'genres' for fill color with 3 values: Animation, Fantasy, History"><g transform="translate(318,0)"><path class="background" aria-hidden="true" d="M0,0h61v53h-61Z" pointer-events="none"/><g><g class="mark-group role-legend-entry"><g transform="translate(0,16)"><path class="background" aria-hidden="true" d="M0,0h0v0h0Z" pointer-events="none"/><g><g class="mark-group role-scope" role="graphics-object" aria-roledescription="group mark container"><g transform="translate(0,0)"><path class="background" aria-hidden="true" d="M0,0h60.4677734375v11h-60.4677734375Z" pointer-events="none" opacity="1"/><g><g class="mark-symbol role-legend-symbol" pointer-events="none"><path transform="translate(6,6)" d="M5,0A5,5,0,1,1,-5,0A5,5,0,1,1,5,0" fill="#4c78a8" stroke-width="1.5" opacity="1"/></g><g class="mark-text role-legend-label" pointer-events="none"><text text-anchor="start" transform="translate(16,9)" font-family="sans-serif" font-size="10px" fill="#000" opacity="1">Animation</text></g></g><path class="foreground" aria-hidden="true" d="" pointer-events="none" display="none"/></g><g transform="translate(0,13)"><path class="background" aria-hidden="true" d="M0,0h60.4677734375v11h-60.4677734375Z" pointer-events="none" opacity="1"/><g><g class="mark-symbol role-legend-symbol" pointer-events="none"><path transform="translate(6,6)" d="M5,0A5,5,0,1,1,-5,0A5,5,0,1,1,5,0" fill="#f58518" stroke-width="1.5" opacity="1"/></g><g class="mark-text role-legend-label" pointer-events="none"><text text-anchor="start" transform="translate(16,9)" font-family="sans-serif" font-size="10px" fill="#000" opacity="1">Fantasy</text></g></g><path class="foreground" aria-hidden="true" d="" pointer-events="none" display="none"/></g><g transform="translate(0,26)"><path class="background" aria-hidden="true" d="M0,0h60.4677734375v11h-60.4677734375Z" pointer-events="none" opacity="1"/><g><g class="mark-symbol role-legend-symbol" pointer-events="none"><path transform="translate(6,6)" d="M5,0A5,5,0,1,1,-5,0A5,5,0,1,1,5,0" fill="#e45756" stroke-width="1.5" opacity="1"/></g><g class="mark-text role-legend-label" pointer-events="none"><text text-anchor="start" transform="translate(16,9)" font-family="sans-serif" font-size="10px" fill="#000" opacity="1">History</text></g></g><path class="foreground" aria-hidden="true" d="" pointer-events="none" display="none"/></g></g></g><path class="foreground" aria-hidden="true" d="" pointer-events="none" display="none"/></g></g><g class="mark-text role-legend-title" pointer-events="none"><text text-anchor="start" transform="translate(0,9)" font-family="sans-serif" font-size="11px" font-weight="bold" fill="#000" opacity="1">genres</text></g></g><path class="foreground" aria-hidden="true" d="" pointer-events="none" display="none"/></g></g></g><path class="foreground" aria-hidden="true" d="" display="none"/></g></g></g></svg>